<svg xmlns="http://www.w3.org/2000/svg" id="Layer_1" data-name="Layer 1" viewBox="0 0 636.87 113.07"><defs/><path fill="#212121" d="M0 .15h22.5v37.94c4.22-2.38 8.87-6.55 14.12-7.55 5.5-1.05 12.02-.21 17.29 1.86 8.11 3.17 11.95 10.66 14.18 18.91 4.4 16.3 4.12 32.22-3.06 47.81-3.46 7.52-9.71 11.33-17.04 13.96h-12c-5.01-2.98-10.02-5.95-15.01-8.92q-3.52 6.92-12.02 6.92H0V.15Zm35.52 47.97c-5.71 0-10.7 3.04-11.23 8.92-.83 9.25-.73 18.67-.06 27.95.38 5.24 6.92 10.13 11.33 10.06 3.76-.06 9.01-4.77 10.17-9.48 2.34-9.48 2.32-19.04.12-28.52-1.28-5.55-5.55-8.93-10.34-8.94ZM348.93 113.07c-7.93-2.67-14.62-7.02-16.19-15.78-1.83-10.17-2.91-20.63 6.11-28.53 5.23-4.58 11.82-6 18.55-6.63 6.37-.6 12.76-.99 19.14-1.47 1.27-11.18-5.25-16.31-17.13-13.24-4.36 1.13-8.54 2.95-13.36 4.66-2.4-4.71-4.89-9.59-7.96-15.62 6.53-2.17 12.45-5.37 18.61-5.9 8.57-.74 17.32-1.69 25.98 1.34 10.06 3.52 14.69 10.71 16.23 20.61.15.97.03 1.99.03 2.99v55.53c-4.99 0-9.76.21-14.48-.15-1.15-.09-2.49-1.89-3.15-3.2-1-1.96-1.47-4.19-2.39-6.97-4.25 6.89-10.34 10.01-16.97 12.35h-13Zm28.85-37.05-1.82-2.03c-5.58 1.35-11.3 2.3-16.7 4.18-3.61 1.26-5.93 8.05-4.09 12.48.95 2.29 3.9 4.44 6.39 5.23 4.24 1.34 10.52-1.79 12.28-6.07 1.81-4.39 2.66-9.18 3.93-13.79ZM204.96 113.07c-4.02-1.02-8.11-1.82-12.01-3.19-1.27-.45-2.78-2.35-2.85-3.66-.32-5.45-.13-10.93-.13-16.09 6.71 1.82 13.24 3.71 19.84 5.31 2.37.57 4.91.69 7.36.57 3.73-.19 7.39-2.02 7.41-5.77.01-2.38-2.56-5.6-4.85-7.02-6.51-4.04-13.66-7.04-20.2-11.05-8.83-5.42-12.08-14.29-9.42-25.93 2-8.74 8.39-13.43 16.91-15.07 12.52-2.42 24.82-1.55 36.71 3.34 1.17.48 2.17 1.37 3.33 2.12-2.24 5.27-4.39 10.33-6.7 15.76-2.3-.81-4.36-1.78-6.54-2.25-5.22-1.13-10.47-2.43-15.76-2.8-1.9-.13-4.89 1.8-5.66 3.55-.57 1.29 1.18 4.47 2.76 5.64 3.1 2.29 6.91 3.6 10.24 5.62 6.23 3.78 14.16 6.45 18.12 11.94 10.32 14.31 2.85 35.44-18.05 38.03-.87.11-1.68.64-2.52.97h-18ZM152.97 113.07c-5.47-2.3-11.86-3.73-14.22-9.94-1.88-4.94-3.4-10.31-3.61-15.55-.51-12.94-.17-25.91-.17-39.4h-9.73c-.53-5.99-1.48-11.37 5.73-13.66 5.61-1.78 7.4-6.81 9.02-11.85.9-2.79 2.04-5.5 3.12-8.35h14.62v16.69h18.97V47.9h-18.73v24.82c0 3.33.16 6.67-.03 9.99-.7 11.97 4.94 12.91 14.7 11.03 1.57-.3 3.05-1.03 4.97-1.7v17.52c-3.13 1.14-6.38 2.32-9.64 3.51h-15ZM288.94 113.07c-3.3-1.14-6.64-2.16-9.89-3.44-10.27-4.04-15.86-12.39-17.83-22.5-2.39-12.29-2.43-24.77 1.6-37.04 4-12.13 15.19-19.48 27.54-19.94 10.71-.4 21.44-.59 31.25 5.53-2.14 5.64-4.31 11.33-6.34 16.7-5.82-1.49-11.18-3.5-16.7-4.11-7.53-.83-11.4 2.05-13.56 9.25-2.73 9.1-3.27 18.31-.15 27.52 2.53 7.45 8.19 10.82 15.83 9.16 3.01-.65 6.04-1.24 9.01-2.06 2.94-.81 5.82-1.88 9.21-2.99 0 5.88.21 11.5-.16 17.09-.08 1.28-1.95 2.94-3.37 3.53-3.37 1.39-6.95 2.24-10.45 3.31h-16ZM636.87 111.07c-3.41.33-6.81.93-10.22.95-7.6.04-11.52-4.34-11.74-13.08-.15-6.11-.03-12.23-.03-18.63-1.78-.15-3.19-.27-5.82-.49 1.01-2.38 1.48-4.43 2.63-5.99 2.67-3.64 5.66-7.04 8.52-10.54l-1.01-1.01h7.42v8.81h10.25v8.99h-9.99c0 6.54-.05 12.45.02 18.36.04 4.05 2.66 4.74 5.94 4.12 1.39-.26 2.69-.98 4.04-1.49v9.99ZM442.91 110.84h-22.74V31.52h17.42c.82 2.88 1.69 5.97 2.26 7.97 4.8-2.81 9.5-7.09 14.93-8.39 8.16-1.96 16.72-2.45 24.65 2.76 7.3 4.79 9.91 12.19 10.21 19.66.77 18.92.25 37.9.25 57.2H466.9v-9.33c0-13.31.02-26.63 0-39.94-.01-6.96-3.63-12.53-8.58-13.31-6.29-.99-11.73 2.73-13.75 9.86-.92 3.26-1.55 6.72-1.59 10.09-.17 14.12-.07 28.24-.07 42.75ZM89.32 31.36h22.4v79.32h-22.4V31.36ZM526.17 71.32h9.44c.19 1.16.38 2.35.64 3.97.89-.47 1.55-.63 1.94-1.05 4.88-5.33 10.73-5.13 16.67-2.58 5.33 2.29 6.15 7.11 6.07 12.36-.13 8.8-.04 17.6-.04 26.73h-11V89.86c-.01-6.78-1.78-9.82-5.65-9.75-4.01.07-6.29 3.56-6.33 9.9-.05 6.8-.01 13.61-.01 20.74h-11.72V71.33ZM605.88 94.12h-23.6c.5 9.27 3.36 10.12 21.43 6.58v8.83c-6.84 2.95-13.73 3.69-20.71 1.58-8.91-2.69-15.03-13.45-12.89-22.43.74-3.12 1.44-6.34 2.78-9.22 3.3-7.13 11.54-10.92 19.21-9.23 9.19 2.02 13.76 7.62 13.78 16.89v7Zm-10.86-8.17c-.87-3.85-1.67-6.81-6.06-6.89-4.8-.09-6.09 2.84-6.44 6.89h12.5ZM100.43.15c9.63-.53 12.17 4.66 12.47 10.94.34 6.99-4.77 11.06-13.19 11.05-7.65-.02-11.74-3.98-11.75-11.23C87.96 4.75 91.23-1 100.42.15ZM511.1 112.01c-4.83.77-6.14-2.03-6.19-6.04-.07-4.68 2.36-6.01 6.85-6.02 4.68 0 6.12 2.19 6.13 6.24.02 4.62-2.24 6.63-6.79 5.82Z" class="cls-1"/></svg>