<svg xmlns="http://www.w3.org/2000/svg" xml:space="preserve" id="Layer_1" x="0" y="0" style="enable-background:new 0 0 2500 711" version="1.1" viewBox="0 0 2500 711"><style>.st0{fill:#231f20}</style><path d="M650.8 0h113.8v711H650.8V0zm511.9 484.2c0 108.8-91.5 117.5-118.7 117.5-68 0-80.4-63.6-80.4-102V227.5H849.9V499c0 67.4 21.2 123 58.2 160.1 32.8 32.8 81.9 50.7 135 50.7 37.7 0 91.1-11.7 119.6-37.7V711h113.8V227.5h-113.8v256.7zM1504 56.9h-113.8v170.6h-85.3v113.8h85.3V711H1504V341.3h85.3V227.5H1504V56.9zm443.6 509.5c-24.8 22.3-57.5 34.6-93.4 34.6-79.1 0-137.2-58.1-137.2-137.9s56.3-135.4 137.2-135.4c35.3 0 68.6 11.7 94 34l17.3 14.8 76.7-76.7-19.2-17.3c-45.1-40.8-105.1-63.6-168.8-63.6-142.2 0-245.5 102.6-245.5 243.6 0 140.4 105.7 246.7 245.5 246.7 64.9 0 125.5-22.9 170-64.3l18.5-17.3-77.9-76.6-17.2 15.4zm500.6-296.7c-32.8-32.8-71.2-50.7-124.3-50.7-37.7 0-80.4 11.7-108.9 37.7V0h-113.8v711H2215V444.7c0-108.8 77.3-117.5 104.5-117.5 68 0 66.1 63.7 66.1 102V711h113.8V429.8c0-67.4-14.1-123-51.2-160.1" class="st0"/><path d="M1850.4 382.2c45.4 0 82.2 36.8 82.2 82.2s-36.8 82.2-82.2 82.2c-45.4 0-82.2-36.8-82.2-82.2s36.8-82.2 82.2-82.2" style="fill:#ff3d2e"/><path d="M491.5 532.4c-43.3 44.5-102 68.6-163.8 68.6-126.7 0-218.9-99.5-218.9-236.2 0-137.3 92.1-236.8 218.9-236.8 61.2 0 119.3 24.1 163.2 68l17.3 17.3 76-76-16.6-17.3C504.5 55.1 419.2 19.9 327.7 19.9 141 19.9.6 168.3.6 365.5c0 196.6 141 344.4 327.1 344.4 92.1 0 177.5-35.8 240.5-100.8l16.7-17.3-75.4-77.3-18 17.9z" class="st0"/></svg>