<svg xmlns="http://www.w3.org/2000/svg" xml:space="preserve" id="Layer_1" x="0" y="0" style="enable-background:new 0 0 243.9 55.2" version="1.1" viewBox="0 0 243.9 55.2"><style>.st0{fill:#231f20}.st5{fill:#2ad2ff}.st7{fill:#2af4ff}</style><path d="M42.8 22.7H51c6.6 0 11.2 4.5 11.2 10.3v.1c0 5.8-4.5 10.3-11.2 10.3h-8.2V22.7M51 39.2c3.8 0 6.3-2.5 6.3-6.1V33c0-3.6-2.5-6.2-6.3-6.2h-3.5v12.4H51M66.2 22.7h15.9v4H70.9v4.2h9.9v4h-9.9v4.3h11.4v4h-16l-.1-20.5M84.9 40.3l2.8-3.2c1.9 1.5 3.9 2.5 6.3 2.5 1.9 0 3-.8 3-1.9v-.1c0-1.2-.8-1.8-4.2-2.6-4.2-1.1-7-2.2-7-6.3v-.1c0-3.7 3-6.2 7.4-6.2 3 0 5.7.9 7.8 2.6l-2.4 3.5c-1.8-1.3-3.7-2-5.5-2s-2.7.8-2.7 1.8v-.1c0 1.3.9 1.8 4.5 2.7 4.3 1.1 6.6 2.6 6.6 6.1v.1c0 4.1-3.2 6.4-7.7 6.4-3.2 0-6.4-1.1-8.9-3.2M105.7 22.7h4.6v20.6h-4.6V22.7M114.7 33c0-5.9 4.6-10.7 11-10.7 3.8 0 6 1 8.2 2.9l-2.9 3.5c-1.6-1.3-3-2.1-5.5-2.1-3.4 0-6 2.9-6 6.4v.1c0 3.8 2.6 6.6 6.4 6.6 1.7 0 3.2-.4 4.4-1.3v-2.9h-4.7v-3.9h9.1v8.9c-2.2 1.8-5.1 3.3-9 3.3-6.6-.3-11-4.7-11-10.8M139.1 22.7h4.3l9.8 12.6V22.7h4.5v20.6h-3.9l-10.2-13.1v13.1h-4.5V22.7z" class="st0"/><linearGradient id="SVGID_1_" x1="160.66" x2="244.86" y1="25" y2="25" gradientTransform="matrix(1 0 0 -1 0 58)" gradientUnits="userSpaceOnUse"><stop offset=".73" style="stop-color:#2af4ff"/><stop offset=".884" style="stop-color:#2af4ff"/></linearGradient><path d="M162.8 22.7h9.6c2.7 0 4.7.8 6.1 2.1 1.2 1.2 1.8 2.8 1.8 4.7v.1c0 3.3-1.8 5.4-4.5 6.4l5.1 7.3h-5.4l-4.5-6.6h-3.7v6.6h-4.7V22.7h.2m9.3 9.9c2.3 0 3.5-1.2 3.5-2.9v-.1c0-1.9-1.3-2.9-3.6-2.9h-4.6v5.9h4.7" style="fill:url(#SVGID_1_)"/><linearGradient id="SVGID_00000023997214244986184350000014464154779290507439_" x1="160.66" x2="244.86" y1="25.05" y2="25.05" gradientTransform="matrix(1 0 0 -1 0 58)" gradientUnits="userSpaceOnUse"><stop offset=".73" style="stop-color:#2af4ff"/><stop offset=".884" style="stop-color:#2af4ff"/></linearGradient><path d="M184.2 34.4V22.6h4.6v11.6c0 3.4 1.7 5 4.5 5s4.5-1.7 4.5-5V22.5h4.6v11.6c0 6.2-3.6 9.3-9.2 9.3s-9-3-9-9" style="fill:url(#SVGID_00000023997214244986184350000014464154779290507439_)"/><linearGradient id="SVGID_00000062192909618390401050000008662825069808070309_" x1="160.66" x2="244.86" y1="25.05" y2="25.05" gradientTransform="matrix(1 0 0 -1 0 58)" gradientUnits="userSpaceOnUse"><stop offset=".73" style="stop-color:#2af4ff"/><stop offset=".884" style="stop-color:#2af4ff"/></linearGradient><path d="m205.7 40.3 2.8-3.2c1.9 1.5 3.9 2.5 6.3 2.5 1.9 0 3-.8 3-1.9v-.1c0-1.2-.8-1.8-4.2-2.6-4.2-1.1-7-2.2-7-6.3v-.1c0-3.7 3-6.2 7.4-6.2 3 0 5.7.9 7.8 2.6l-2.4 3.5c-1.8-1.3-3.7-2-5.5-2s-2.7.8-2.7 1.8v-.1c0 1.3.9 1.8 4.5 2.7 4.3 1.1 6.6 2.6 6.6 6.1v.1c0 4.1-3.2 6.4-7.7 6.4-3.1 0-6.4-1.1-8.9-3.2" style="fill:url(#SVGID_00000062192909618390401050000008662825069808070309_)"/><linearGradient id="SVGID_00000022551720257883395860000000827440659694585734_" x1="160.66" x2="244.86" y1="25" y2="25" gradientTransform="matrix(1 0 0 -1 0 58)" gradientUnits="userSpaceOnUse"><stop offset=".73" style="stop-color:#2af4ff"/><stop offset=".884" style="stop-color:#2af4ff"/></linearGradient><path d="M226.3 22.7h4.6v8.2h8.5v-8.2h4.6v20.6h-4.6v-8.2h-8.5v8.2h-4.6V22.7" style="fill:url(#SVGID_00000022551720257883395860000000827440659694585734_)"/><path d="M16.4 34.3c-.1 0-.1-.1 0 0l-.5-.3-.1-.1L4 25.5s-.1 0-.1-.1l-.2-.2-.1-.1h-.2L0 22.7l6.7 1c.3 0 .4.1.7.2.1 0 .3.1.3.1.3.1.4.2.6.3s.3.2.5.3c.1.1.3.2.3.3.1.1.2.1.3.2.2.1.3.2.3.3.3.3.5.6.8.8l5.3 7.5.1.1.5.5" class="st5"/><linearGradient id="SVGID_00000008828129572125054210000016400251864203001257_" x1="160.755" x2=".095" y1="13.302" y2="25.576" gradientTransform="matrix(1 0 0 -1 0 58)" gradientUnits="userSpaceOnUse"><stop offset=".73" style="stop-color:#2af4ff"/><stop offset=".884" style="stop-color:#2af4ff"/></linearGradient><path d="m16.4 45.9-.5-.8-.1-.1L.1 22.7l3.4 2.4.6.4 11.8 8.4h.1l.4.3s.1 0 .1.1l.5-.4 15.9-11.2-16 22.4-.1.1-.4.7" style="fill:url(#SVGID_00000008828129572125054210000016400251864203001257_)"/><path d="m16.4 30.5-.5-.8-.1-.1-3.9-5.4 3.9.8h.1l.5.1.5-.1 3.8-.9-3.8 5.6v.1l-.5.7M33 22.6l-5 .7-1.9.3c-1.5.2-2.9 1-3.8 2.3L17 33.5l-.1.1-.5.7.6-.6.1-.1-.7.7 13.5-9.6 3.1-2.1" class="st5"/><path d="M18.9 6.8c0 4.4-7.6 6.7-7.6 11.4-.1 1.1.2 2.2.7 3.2 0 0-2.9-2.8-2.9-5.8s2.8-7.5 2.8-7.5c0 2 .8 2.6 1.6 2.7h.1c.9 0 1.4-.7 1.4-1.7s-1.1-2-1.1-4c0-1.9 2.4-5 2.4-5 1.7 2 2.6 4.3 2.6 6.7" class="st7"/><path d="M16.8 22.8c-2.4 0-4.2-1.9-4.2-4.2v-.1c0-5.1 7.1-5.6 7.1-12.5.2.3 2.1 2.9 2.1 5.7 0 3.5-3.3 4.4-3.3 6.1 0 .7.3 1.2 1.3 1.2.1 0 .2 0 .3-.1 1.9-.8 3.2-2.6 3.3-4.7 0 .1 1 8.6-6.6 8.6" class="st7"/><path d="M19.9 19c.1 0 .2 0 .3-.1-1 .3-4.7 1.2-4.7-1.4 0-3.2 5.5-3.9 5.5-6.6 0-1.7-.4-3.4-1.3-4.9.2.3 2.1 2.9 2.1 5.7 0 3.5-3.3 4.4-3.3 6.1.1.7.5 1.2 1.4 1.2M16.9 8.6c0 2.5-3.2 2.3-3.4 2.2h.3c.9 0 1.4-.7 1.4-1.7s-1.1-2-1.1-4c0-1.9 2.4-5 2.4-5-.8 1.3-1.2 2.7-1.3 4.1 0 2.3 1.7 2.5 1.7 4.4M14.9 52.3l-2.2-1.5h2.7l.9-2.7.8 2.7h2.7l-2.2 1.5.8 2.6-2.2-1.6-2.3 1.6 1-2.6M26.4 52.3l-2.2-1.5h2.7l.9-2.7.8 2.7h2.7l-2.2 1.5.8 2.6-2.2-1.6-2.3 1.6 1-2.6M3.5 52.3l-2.2-1.5H4l.9-2.7.8 2.7h2.7l-2.2 1.5.8 2.6-2.2-1.6-2.2 1.6.9-2.6" class="st5"/></svg>