<svg xmlns="http://www.w3.org/2000/svg" xml:space="preserve" style="enable-background:new 0 0 2500 372" viewBox="0 0 2500 372"><path d="M155.1 130.8s-20.7-2.1-20.7 16.4V229h136.4v24.5s.4 12.3-12.4 12.3h-124V372h148.8s90.1-13.9 90.9-106.3V130.8h-219zM370.1 0H101.4C4.3 22.9 2.2 102.6 2.2 102.6V372h103.3V126.7c0-20.8 20.7-24.5 20.7-24.5h243.9V0zm354.6 294.9-16 10.4c-13.3 8.2-25.9 14.5-37.6 19.6-17 6.9-32.1 10.4-45.6 10.4-46.5 0-85.1-14.2-116.2-42.9s-46.5-64.7-46.5-108.3c0-42 13.9-78.3 41.9-109.2s61.9-46.1 102-46.1c16.7 0 34.5 2.8 53 8.9 24 7.6 43.5 18.9 58.9 33.8l-26.8 29.7c-11.4-11-26.2-19.3-43.5-24.3-12.9-3.8-27.1-5.7-42.8-5.7-28 0-51.8 11.3-70.6 33.8-18.8 22.7-28.3 49.6-28.3 81.1 0 31.3 10.8 56.8 32.3 77.4 21.6 20.5 49 30.9 82.3 30.9 13.9 0 28.1-4.4 42.5-12.9l18.5-13.9v-64.7h-90l12.9-40.4h119.6v132.4zM996.6 216c0 31.2-11.1 58.4-33.3 81.1-22.2 22.7-49.6 34.4-82.3 34.4-30.2 0-56.7-11.4-79.5-33.8-22.8-22.4-33.9-49.6-33.9-81.5 0-31.6 10.8-58.7 32.4-82.1 20.1-22.6 49-35.3 79.2-34.7 34.5 0 62.6 11.1 84.4 33.5 21.9 21.8 33 49.6 33 83.1zm-42.3.6c0-21.2-7.1-39.1-21.3-53.7-14.2-14.8-31.7-22.1-52.7-22.1-19.7 0-36.4 7.6-50.2 22.7s-20.7 32.5-20.7 52.1c0 20.5 7.1 37.9 21 52.4 13.4 14.5 32.4 22.5 52.1 22.1 19.4 0 36.1-7.3 50.3-21.8 14-13.5 21.8-32.2 21.5-51.7zm310.4-.6c0 31.2-11.1 58.4-33.3 81.1-22.2 22.7-49.6 34.4-82.3 34.4-30.2 0-56.7-11.4-79.5-33.8-22.2-21.2-34.5-50.8-33.9-81.5 0-31.6 10.8-58.7 32.4-82.1 20.1-22.6 49-35.3 79.2-34.7 34.5 0 62.6 11.1 84.4 33.5 21.9 21.8 33 49.6 33 83.1zm-42.2.6c0-21.2-7.1-39.1-21.3-53.7-14.2-14.8-31.7-22.1-52.7-22.1-19.7 0-36.4 7.6-50.2 22.7s-20.7 32.5-20.7 52.1c0 20.5 7.1 37.9 21 52.4s31.1 22.1 52.1 22.1c19.4 0 36-7.3 50.2-21.8 14-13.5 21.8-32.2 21.6-51.7zm290.3 108.6-38.8 6v-37.6l-8.3 9.5c-7.3 6.9-15.6 12.6-24.7 17.1-13.2 6.1-27.6 9.2-42.2 9.2-29.3.5-57.4-11.7-77.1-33.5-21-22.4-31.4-48.9-31.4-79.9 0-31.9 10.5-59.3 31.1-82.1 20.7-22.7 45.9-34.1 76.1-34.1 17.3 0 32.4 2.8 45 8.5 8.6 3.9 16.5 9.4 23.1 16.1l6.5 8.8V34.8l41.3-6-.6 296.4zm-36.4-106.4c0-22.1-7.4-40.7-22.5-55.9-15.1-15.5-32.1-23-51.5-23-21.6 0-38.8 7.3-52.1 21.8-12.3 13.9-18.8 30.9-18.8 50.8 0 22.4 6.5 41 19.4 55.6 12.9 14.5 29.3 21.8 49.3 21.8 19.7 0 37-6.6 52.4-20.2 15.8-14 23.8-31 23.8-50.9zm254.3-143h-115.6v78.6h89.7v40.4h-89.7v130.1l-45 6.6V35.1h151.6l9 40.7zm92.7-23-27.7 35-26.5-35 28-34.7 26.2 34.7zm-8.3 272.4-41.3 5.7V111.5l41.3-6.3v220zM2001.6 103l-19.4 44.8c-2.6-.4-5.1-.6-7.7-.6-4 0-8 .3-12 .9s-8.3 2.2-12.9 4.4c-8.6 3.8-16 12-22.5 24.3-7.2 14-10.9 29.5-10.8 45.2v102.9l-41.3 6.6v-220l38.2-6.9v45.8l15.1-24c7.1-8.2 15.4-14.2 24.7-17.7 4.9-1.9 13.9-3.5 27.4-4.7l21.2-1zm307.5 222.2-41.3 6V180.6c0-13.9-3.1-24-9.2-30.3-6.2-6.3-15.4-9.5-27.4-9.5-14.5 0-25.6 6-33 18-4.9 8.2-7.7 17-7.7 25.9v140.2l-41.3 7.6V181.6c0-13.3-3.1-23.4-8.9-30.3-6.2-7-14.2-10.4-24.7-10.4h-4c-14.5 0-25 6-31.4 18.3-4.9 9.2-7.4 20.8-7.4 35v130.7l-42.8 7.6v-221l38.5-6.6V133c4.3-6.6 8.6-12 12.6-15.8 10.3-10 24.1-15.6 38.5-15.5 16.3 0 28.3 2.5 36.7 7.9 7.1 4.4 13.9 13.3 20.7 25.9 14.2-22.4 34.2-33.8 60.7-33.8 25.3 0 44.1 7.9 56.4 24 10.2 13.3 15.1 32.8 15.1 58.4v141.1zm188.7-66.6c0 20.2-7.1 36.9-21.3 49.9-14.2 13.3-32.1 19.6-53.6 19.6-15.4.2-30.7-3.7-44.1-11.4-13.3-7.6-23.1-16.1-29.6-26.2l29-25.9c2.1 3.2 4 5.7 5.8 7.6 10.8 11.1 23.7 16.7 38.8 16.7 10.5 0 18.8-2.8 24.7-8.2 6.2-5.4 8.9-12.9 8.9-22.7 0-11-7.1-18.6-21.3-22.7l-45.3-14.2c-12.9-6.6-22.2-13.6-28.1-21.5-6.5-9.2-9.8-21.2-9.8-36.6-.3-18.1 7.3-35.4 21-47.4 13.9-12.6 30.5-18.6 49.6-18.6 14.5 0 28.1 3.2 40.4 9.8 12.3 6.6 21.3 13.6 26.5 21.8l-24.7 26.8c-3.7-3.7-7.7-7.1-12-10.1-9.9-6.9-19.4-10.4-28.3-10.4-8.6 0-15.7 1.9-21.3 5.7-6.5 4.7-9.9 11.7-9.9 20.8 0 8.8 3.1 15.5 9.6 19.6 5.5 3.5 17.3 7.3 35.7 11.4 18.5 4.4 32.7 12 42.8 22.7 11.6 11.3 16.5 25.5 16.5 43.5z" style="fill:#3a7af3"/></svg>