<?xml version="1.0" encoding="utf-8"?>
<!-- Generator: Adobe Illustrator 27.8.1, SVG Export Plug-In . SVG Version: 6.00 Build 0)  -->
<svg version="1.1" id="Layer_1" xmlns="http://www.w3.org/2000/svg" xmlns:xlink="http://www.w3.org/1999/xlink" x="0px" y="0px"
	 viewBox="0 0 203.6 85.6" style="enable-background:new 0 0 203.6 85.6;" xml:space="preserve">
<style type="text/css">
	.st0{fill:#202020;}
</style>
<path class="st0" d="M1.4,67.9h1.8l2,2.9H7l-2.2-3.1c1.2-0.3,2-1.1,2-2.5v0c0-0.7-0.2-1.3-0.7-1.8c-0.5-0.5-1.3-0.8-2.4-0.8H0v8.2
	h1.4V67.9L1.4,67.9z M1.4,63.8h2.1c1.1,0,1.7,0.5,1.7,1.4v0c0,0.8-0.7,1.4-1.7,1.4H1.4V63.8L1.4,63.8z M17,69.4h-4.7v-2.2h4.1v-1.3
	h-4.1v-2.1h4.6v-1.3h-6.1v8.2H17C17,70.7,17,69.4,17,69.4z M22.6,68.7h3.9l0.8,2h1.5l-3.6-8.3h-1.3l-3.6,8.3h1.5L22.6,68.7
	L22.6,68.7z M24.5,64.2l1.4,3.3h-2.8L24.5,64.2L24.5,64.2z M38.3,69.4H34v-6.9h-1.4v8.2h5.8V69.4z M54.1,63.8v-1.3H48v8.2h6.1v-1.3
	h-4.7v-2.2h4.1v-1.3h-4.1v-2.1C49.5,63.8,54.1,63.8,54.1,63.8z M61.5,66c-1.6-0.4-2-0.7-2-1.3v0c0-0.5,0.5-1,1.3-1
	c0.8,0,1.5,0.3,2.2,0.8l0.8-1.1c-0.8-0.7-1.8-1-3-1c-1.6,0-2.8,1-2.8,2.4v0c0,1.5,1,2,2.7,2.4c1.5,0.3,1.8,0.7,1.8,1.2v0
	c0,0.6-0.6,1-1.5,1c-1,0-1.8-0.4-2.6-1.1l-0.9,1c1,0.9,2.2,1.3,3.4,1.3c1.7,0,2.9-0.9,2.9-2.4v0C64.1,67,63.2,66.4,61.5,66
	 M67.3,63.8h2.6v6.9h1.4v-6.9H74v-1.3h-6.7C67.3,62.5,67.3,63.9,67.3,63.8z M79.7,62.5l-3.6,8.3h1.5l0.8-2h3.9l0.8,2h1.5L81,62.5
	H79.7L79.7,62.5z M78.9,67.5l1.4-3.3l1.4,3.3H78.9z M86.7,63.8h2.6v6.9h1.4v-6.9h2.6v-1.3h-6.7C86.7,62.5,86.7,63.9,86.7,63.8z
	 M103.3,63.8v-1.3h-6.1v8.2h6.1v-1.3h-4.7v-2.2h4.1v-1.3h-4.1v-2.1H103.3z M119.6,68.4c-0.7,0.7-1.3,1.1-2.4,1.1
	c-1.6,0-2.7-1.3-2.7-2.9v0c0-1.6,1.1-2.9,2.7-2.9c0.9,0,1.6,0.4,2.3,1l0.9-1.1c-0.8-0.8-1.7-1.3-3.2-1.3c-2.5,0-4.2,1.9-4.2,4.2v0
	c0,2.4,1.8,4.2,4.2,4.2c1.5,0,2.5-0.6,3.3-1.4L119.6,68.4z M132.4,66.6L132.4,66.6c0-2.3-1.8-4.2-4.3-4.2s-4.3,1.9-4.3,4.2v0
	c0,2.3,1.8,4.2,4.3,4.2C130.6,70.8,132.4,68.9,132.4,66.6 M130.9,66.6c0,1.6-1.1,2.9-2.8,2.9s-2.8-1.3-2.8-2.9v0
	c0-1.6,1.1-2.9,2.8-2.9C129.7,63.7,130.9,65,130.9,66.6L130.9,66.6L130.9,66.6z M143,70.7h1.4v-8.2h-1.5l-2.5,3.9l-2.5-3.9h-1.5v8.2
	h1.4v-5.9l2.6,3.8h0.1l2.6-3.9C143,64.8,143,70.7,143,70.7z M155.4,65.3L155.4,65.3c0-1.7-1.2-2.8-3.1-2.8H149v8.2h1.4v-2.6h1.6
	C153.9,68.1,155.4,67.1,155.4,65.3 M150.5,63.8h1.7c1.1,0,1.8,0.5,1.8,1.5v0c0,0.8-0.7,1.5-1.8,1.5h-1.7V63.8L150.5,63.8z
	 M161.2,62.4l-3.6,8.3h1.5l0.8-2h3.9l0.8,2h1.5l-3.6-8.3L161.2,62.4L161.2,62.4z M160.4,67.4l1.4-3.3l1.4,3.3H160.4z M171.2,64.9
	l4.5,5.8h1.2v-8.2h-1.4v5.7l-4.4-5.7h-1.3v8.2h1.4C171.2,70.7,171.2,64.9,171.2,64.9z M181.6,62.5h1.4v8.2h-1.4V62.5z M193.8,69.4
	h-4.7v-2.2h4.1v-1.3h-4.1v-2.1h4.6v-1.3h-6.1v8.2h6.1V69.4z M200.7,69.5c-1,0-1.8-0.4-2.6-1.1l-0.9,1c0.9,0.9,2.2,1.3,3.4,1.3
	c1.7,0,2.9-0.9,2.9-2.4v0c0-1.4-0.9-2-2.6-2.4c-1.6-0.4-1.9-0.7-1.9-1.3v0c0-0.5,0.5-1,1.3-1c0.8,0,1.5,0.3,2.2,0.8l0.8-1.1
	c-0.8-0.7-1.8-1-3-1c-1.6,0-2.8,1-2.8,2.4v0c0,1.5,1,2,2.7,2.4c1.5,0.3,1.9,0.7,1.9,1.2v0C202.2,69.1,201.6,69.5,200.7,69.5
	 M65.2,78.5h2.6v6.9h1.4v-6.9h2.6v-1.3h-6.7C65.2,77.2,65.2,78.5,65.2,78.5z M81,80.6h-3.9v-3.4h-1.4v8.2h1.4v-3.5H81v3.5h1.4v-8.2
	H81C81,77.2,81,80.6,81,80.6z M88.3,81.9h4.1v-1.3h-4.1v-2.1H93v-1.3h-6.1v8.2h6.2v-1.3h-4.7L88.3,81.9L88.3,81.9z M111.1,83.3
	l-2-6.1h-1.2l-2,6.1l-1.9-6.1h-1.6l2.9,8.3h1.2l2-5.9l2,5.9h1.2l2.9-8.3H113C113,77.2,111.1,83.3,111.1,83.3z M121.7,77.1
	c-2.5,0-4.3,1.9-4.3,4.2v0c0,2.3,1.8,4.2,4.3,4.2s4.3-1.9,4.3-4.2v0C126,79,124.2,77.1,121.7,77.1 M124.5,81.3
	c0,1.6-1.1,2.9-2.8,2.9s-2.8-1.3-2.8-2.9v0c0-1.6,1.1-2.9,2.8-2.9S124.5,79.7,124.5,81.3L124.5,81.3L124.5,81.3z M136.7,79.8
	L136.7,79.8c0-0.7-0.2-1.3-0.7-1.8c-0.5-0.5-1.3-0.8-2.4-0.8H130v8.2h1.4v-2.9h1.8l2,2.9h1.7l-2.2-3.1
	C135.9,82,136.7,81.2,136.7,79.8 M131.4,81.3v-2.8h2.1c1.1,0,1.7,0.5,1.7,1.4v0c0,0.8-0.7,1.4-1.7,1.4H131.4z M142.5,77.2H141v8.2
	h5.8v-1.3h-4.3V77.2z M153.6,77.2h-3.1v8.2h3.1c2.6,0,4.4-1.8,4.4-4.1v0C157.9,79,156.2,77.2,153.6,77.2 M156.4,81.3
	c0,1.6-1.1,2.8-2.9,2.8H152v-5.6h1.6C155.3,78.5,156.4,79.7,156.4,81.3C156.4,81.3,156.4,81.3,156.4,81.3z M45.8,79.4
	c0,1.3,1,2.3,2.4,2.3s2.4-1,2.4-2.3c0-1.3-1-2.3-2.4-2.3S45.8,78.1,45.8,79.4 M47,79.4c0-0.6,0.5-1.2,1.1-1.2s1.2,0.6,1.2,1.2
	c0,0.7-0.5,1.2-1.1,1.2S47,80.1,47,79.4L47,79.4z M56.6,78.3v-1.1H53v4.5h1.2v-1.6h2.1v-1h-2.1v-0.8C54.3,78.3,56.6,78.3,56.6,78.3z
	 M45.8,84.1h10.8v1.3H45.8V84.1z M127.7,23.2c0,0.8,0.5,1.4,1.3,1.4c1.3,0,2.5-1.3,2.5-2.7c0-0.8-0.5-1.4-1.3-1.4
	C128.9,20.5,127.7,21.8,127.7,23.2"/>
<path class="st0" d="M38.8,47c1.5,0,3.1-0.8,4.7-2.3c0.8,0.2,1.6,0.3,2.4,0.5c3.6,0.8,7.7,1.8,10.4,1.8c3.8,0,5.9-2,8.7-5.1
	c0.3-0.4,0.8-0.8,1.2-1.4c-0.1,0.6-0.2,1.2-0.2,1.8c0,3,1.5,4.7,4.1,4.7c4,0,8.6-3.5,11.5-6.7c0.2-0.2,0.5-0.5,0.7-0.9
	c-0.3,1.4-0.5,2.8-0.4,4.2c0.1,2.3,1.5,3.4,2.8,3.4c1.9,0,4.8-2.7,6.9-5.7c-0.6,1.6-1,2.8-1,3.7c0,1.2,0.6,2,1.6,2
	c0.9,0,1.9-0.5,3.3-1.5c1.5-1.2,3.9-3.8,5.9-6.3c-0.3,1.4-0.5,2.9-0.4,4.3c0.1,2.3,1.5,3.4,2.8,3.4c1.9,0,4.8-2.7,6.9-5.7
	c0-0.1,0.1-0.1,0.1-0.2c-0.6,1.8-0.7,3-0.7,3.7c0,1.3,0.7,2.1,1.7,2.1c1.8,0,4.7-1.8,7.3-4.6c0.1-0.1,0.8-0.9,1.8-2.1
	c-1.1,2.7-1.3,3.8-1.3,4.8c0,1.1,0.7,1.8,1.6,1.8c0.9,0,1.9-0.5,3.3-1.5c1.3-1,3.2-3,5-5.1l-2.6,6.3h2.7l3.7-8.9
	c1.4-3.3,2.7-4.9,3.7-6c2-2.3,3.4-2.5,4.1-2.5c0.6,0,1.3,0.5,1.3,1.3c0,1.3-1.1,4-2.2,6.8c-1.2,3-2.5,6-2.5,7.7c0,1.2,0.6,2,1.6,2
	c0.9,0,1.9-0.5,3.3-1.5c1.5-1.1,3.9-3.7,5.7-6.1c-0.3,1.4-0.4,2.8-0.4,4.2c0.1,2.3,1.5,3.4,2.8,3.4c1.9,0,4.8-2.7,6.9-5.7
	c0,0,0,0,0,0c-0.2,0.6-0.5,1.1-0.7,1.5c-1.4,3.1-2.9,5.7-3.7,7c-3.3,5.3-7.3,7.9-12,7.9c-4.3,0-5.5-2.4-5.5-4.3c0-0.8,0.1-1.5,0.9-3
	l-0.7-0.7c-1.4,1.4-2,3-2,4.1c0,1.6,0.8,2.9,2.2,3.9c1.2,0.8,3,1.3,4.7,1.3c5.5,0,11-3.2,14.4-8.8c0.3-0.5,0.8-1.3,1.1-1.9l0-0.1
	c2.5-4.3,4.1-8.4,5.7-12.2l3.6-8.7h-2.7l-0.5,1.2c-0.6-0.8-1.2-1.2-1.9-1.4c-1-0.3-2.5,0-3.7,0.6c-2,0.9-4,2.7-5.7,5
	c-1,1.4-1.8,2.9-2.3,4.5c-2.9,3.9-6.9,7.6-7.9,7.6c-0.3,0-0.4-0.2-0.4-0.6c0-1,1-3.4,2-5.9c1.3-3.1,2.8-6.6,2.8-8.5
	c0-2.2-1.6-2.7-2.5-2.8c-1.7,0-3.6,1.2-4.6,2c-1.1,0.9-2.1,2-2.8,3l2.1-4.8h-2.8l-4.2,10.4c-2.8,3.7-6.6,7.2-7.6,7.2
	c-0.4,0-0.4-0.4-0.4-0.5c0-0.5,0.3-1.8,2.7-7.6l3.8-9.4h-2.7l-4.1,10c-0.1,0.2-0.1,0.3-0.2,0.5c-1.4,1.8-3,3.5-4,4.5
	c-1.9,1.7-3.3,2.6-4.3,2.6c-0.3,0-0.6-0.1-0.6-0.9c0-0.7,0.2-2.9,2.2-7.9c3-7.4,8.4-19.6,10.5-23.3c4.2,0.7,9.8,1.6,15.4,1.6
	c4.8,0,8.7-1,11.3-2.8c2-1.4,3.2-3.3,3.2-5.2c0-3.9-4.3-6.4-10.9-6.4c-4.6,0-9.6,1.6-13.7,4.3c-2.6,1.8-4.8,4-6.6,6.5l-0.3-0.1
	c-5.7-1.3-11.6-2.6-17.3-2.6c-5.1,0-9.3,1.6-12.8,5.4l0.4,0.9c1.9-2.1,4.7-4.5,10.1-4.5s12.3,1.2,18.9,2.3h0.1
	c-1.9,3.2-4,8-6.1,12.6c-0.4,0.8-1.7,3.6-1.7,3.6c-0.6-0.8-1.2-1.2-1.9-1.4c-1-0.3-2.5,0-3.7,0.6c-2,0.9-4,2.7-5.7,5
	c-0.9,1.3-1.7,2.8-2.2,4.2c-2.9,4-7,7.8-8.1,7.8c-0.3,0-0.4-0.2-0.4-0.6c0-1.2,0.8-3.7,2.7-8.2l3.6-8.7h-2.7l-0.5,1.2
	c-0.6-0.8-1.2-1.2-1.9-1.4c-1-0.3-2.5,0-3.7,0.6c-2,0.9-4,2.7-5.7,5c-1,1.4-1.8,2.9-2.3,4.5c-0.5,0.7-1,1.3-1.5,1.8
	c-2.5,2.9-6.9,5.8-10,5.8c-1.7,0-2.5-1.1-2.5-3.2c0-0.8,0.1-1.5,0.3-2.4c0.3,0,0.7-0.1,1-0.1c1.3-0.2,3.6-0.6,4.7-1.1
	c4.3-2,5.7-6,5.7-7.7c0-2-1.5-3.2-3-3.2c-2.2,0-5.1,1.6-7,3.9c-1.8,2.2-3.2,5-4,7.7c-0.9,1.2-1.8,2.1-2.3,2.6
	c-2.4,2.4-4.1,3.1-7.1,3.1c-1.7,0-4.7-0.5-7.6-1c-1.5-0.3-3-0.5-4.3-0.7c1.7-2.2,2.9-4.6,3.3-5.5c1.3-2.9,2.5-6.1,3.6-9
	c0.6-1.6,1.2-3.1,1.7-4.4c1-2.5,4-8.3,9.1-8.3c2.9,0,3.4,2.4,3.4,3.9c0,4.7-3.6,9.9-6.8,9.9c-0.3,0-0.7-0.1-1.1-0.3
	c-0.3-0.2-0.5-0.5-0.6-0.7L57,29c0.2,0.3,0.5,0.7,0.8,0.9c0.7,0.4,1.3,0.5,1.8,0.5c1.8,0,3.9-0.9,5.6-2.4c2.2-2,3.8-5.3,3.8-8.1
	c0-3.4-2.2-5.3-5.9-5.3c-1.3,0-8.2,0.4-12.1,9c-0.7,1.6-1.6,3.9-3.3,8.3c-0.5,1.4-1.2,3.1-2,5.1c-0.4,1.1-1.3,3.3-2.5,5.3
	c-0.3,0-0.6,0-0.9,0c-3.4,0-5.4,1.5-5.4,3C37,46.4,37.7,47,38.8,47 M155.7,31.2c1.5-2,2.6-2.5,3.2-2.7c0.3-0.1,0.8-0.3,1.2-0.3
	c0.7,0,1.5,0.3,2.1,1.3l-2.7,6.4v0c-1.6,3.9-5.6,8.6-7.1,8.8c-0.8,0.1-1.4-0.3-1.4-1.8C150.9,39.1,153.3,34.3,155.7,31.2 M132.4,4.9
	c3.5-2.5,8-4,12.1-4c6.9,0,10,2.7,10,5.4c0,3.5-4.4,7-12.8,7c-5.5,0-10.8-1-15.2-2C127.8,9.2,129.4,7,132.4,4.9 M108.7,31.2
	c1.5-2,2.6-2.5,3.2-2.7c0.3-0.1,0.8-0.3,1.2-0.3c0.7,0,1.5,0.3,2.1,1.3l-2.7,6.4c-1.6,3.9-5.6,8.6-7.1,8.9c-0.8,0.1-1.4-0.3-1.4-1.8
	C104,39.1,106.3,34.3,108.7,31.2 M89.7,31.2c1.5-2,2.6-2.5,3.2-2.7c0.3-0.1,0.8-0.3,1.2-0.3c0.7,0,1.5,0.3,2.1,1.3l-2.7,6.4
	c-1.6,3.9-5.6,8.6-7.1,8.9c-0.8,0.1-1.4-0.3-1.4-1.8C84.9,39.1,87.3,34.3,89.7,31.2 M72.9,31.1c1.2-1.7,2.5-2.7,3.6-2.7
	c1.4,0,1.4,1.6,1.4,1.9c0,2.3-1.6,5.6-4.3,7.1c-0.8,0.4-2.2,0.9-3.3,1c-0.2,0-0.5,0-0.7,0.1C70.2,35.9,71.6,32.9,72.9,31.1
	 M40.2,44.2c0.5,0,1.1,0.1,1.8,0.2c-1,1.2-2,1.8-3,1.8c-0.4,0-0.9-0.2-0.9-0.7C38.1,44.8,38.8,44.2,40.2,44.2 M152.9,57
	c0-1.1,0.9-2,2-2s2,0.9,2,2c0,1.1-0.9,2-2,2S152.9,58.1,152.9,57 M156.6,57c0-1-0.8-1.8-1.8-1.8s-1.8,0.8-1.8,1.8
	c0,1,0.8,1.8,1.8,1.8S156.6,58,156.6,57 M154,55.9h0.9c0.3,0,0.5,0.1,0.6,0.2c0.1,0.1,0.2,0.2,0.2,0.4c0,0.3-0.2,0.5-0.5,0.6
	l0.6,0.8h-0.5l-0.5-0.7h-0.4V58h-0.4L154,55.9L154,55.9z M155,56.9c0.3,0,0.4-0.1,0.4-0.3c0-0.2-0.1-0.3-0.4-0.3h-0.5v0.7L155,56.9
	L155,56.9z"/>
</svg>
