<svg xmlns="http://www.w3.org/2000/svg" xml:space="preserve" id="Layer_1" x="0" y="0" version="1.1" viewBox="0 0 290.4 70.1"><g id="g69" fill="#212121" transform="translate(-151.98 -385.42)"><path id="path55" d="M213.3 405.2c0 8.6-4.9 16.7-13.5 19.4v-2.2c4.1-2.2 6.2-6 6.2-17.4 0-14.9-6.5-17.3-13.3-17.3h-15.8v56.8H170v-59h22.7c7.9 0 20.6 2.5 20.6 19.7" class="st0"/><path id="polygon57" d="M152 455.3v-69.8h6.8v67.6h18.1v2.2H152z" class="st0"/><path id="polygon59" d="M188 396.8h6.9v58.5H188v-58.5z" class="st0"/><path id="path61" d="M439.4 455.3v-1.7l-7.9.1v-15.5h-3v17l10.9.1zm-20.9-7.4h-4.9l2.5-5.6 2.4 5.6zm6.5 7.4-7.8-17.2h-.8l-8 17.2h1.9l2.6-5.9h6.2l2.5 5.9h3.4zm-20.9.2h.8v-17.3h-1.7l.2 12-11-12.2h-.9v17.2h1.7l-.2-12 11.1 12.3zm-20.7-8.7c0 4-2.5 7.2-5.6 7.2s-5.6-3.2-5.6-7.2 2.5-7.2 5.6-7.2 5.6 3.2 5.6 7.2m3.1 0c0-4.8-3.9-8.7-8.7-8.7h-.1c-4.9 0-8.7 3.9-8.7 8.7 0 4.8 3.9 8.7 8.7 8.7 5 0 8.8-3.9 8.8-8.7m-22.6-8.6h-3v17h3v-17zm-7.5 1.7v-1.6h-12.6v1.6l4.8-.1v15.5h3v-15.5l4.8.1zm-19.8 8h-4.9l2.5-5.6 2.4 5.6zm6.5 7.4-7.8-17.2h-.8l-8 17.2h1.9l2.6-5.9h6.2l2.5 5.9h3.4zm-20.9.2h.8v-17.3h-1.7l.2 12-11-12.2h-.9v17.2h1.7l-.2-12 11.1 12.3zm-26.8-15.7h2.2c2 0 3.8 1.1 3.8 3.6s-1.8 3.6-3.8 3.6h-2.2v-7.2zm10.6 15.5-6.6-7.1c2.9-.2 5.1-2.2 5.1-4.8 0-2.9-2.5-5.1-6.1-5.1h-6v17h3v-7.4l6.8 7.4h3.8zm-19.1 0v-1.7l-7.9.1v-6.3h7.6v-1.6H279v-6.1l7.9.1v-1.7H276v17l10.9.2zm-15.1-15.4v-1.6h-12.6v1.6l4.8-.1v15.5h3v-15.5l4.8.1zm-17.6 15.7h.8v-17.3h-1.7l.2 12-11-12.2h-.9v17.2h1.7l-.2-12 11.1 12.3zm-18.9-17.3h-3v17h3v-17z" class="st0"/><path id="path63" d="M377.3 420.4c0 4-2.5 7.2-5.6 7.2s-5.6-3.2-5.6-7.2 2.5-7.2 5.6-7.2 5.6 3.2 5.6 7.2m3.1 0c0-4.9-3.9-8.7-8.7-8.7-4.9 0-8.7 3.9-8.7 8.7 0 4.8 3.9 8.7 8.7 8.7s8.7-3.9 8.7-8.7m-22.6-8.6h-3v17h3v-17zm-7.8 17.1v-1.7l-7.9.1v-15.5h-3v17l10.9.1zm-18.9-8.5c0 4-2.5 7.2-5.6 7.2s-5.6-3.2-5.6-7.2 2.5-7.2 5.6-7.2 5.6 3.2 5.6 7.2m3.2 0c0-4.9-3.9-8.7-8.7-8.7-4.9 0-8.7 3.9-8.7 8.7 0 4.8 3.9 8.7 8.7 8.7 4.8 0 8.7-3.9 8.7-8.7m-21.4-6.9v-1.7H302v17h3V421h7.5v-1.6H305v-6.1l7.9.2zm-15.1 0v-1.6h-12.6v1.6l4.8-.1v15.5h3v-15.5l4.8.1zm-24.9-.1h2.2c2 0 3.8 1.1 3.8 3.6s-1.8 3.6-3.8 3.6h-2.2v-7.2zm10.5 15.5-6.6-7.1c2.9-.2 5.1-2.2 5.1-4.8 0-2.9-2.5-5.1-6.1-5.1h-6v17h3v-7.4l6.8 7.4h3.8zm-21.5-8.5c0 4-2.5 7.2-5.6 7.2s-5.6-3.2-5.6-7.2 2.5-7.2 5.6-7.2 5.6 3.2 5.6 7.2m3.1 0c0-4.9-3.9-8.7-8.7-8.7-4.9 0-8.7 3.9-8.7 8.7 0 4.8 3.9 8.7 8.7 8.7 4.8 0 8.7-3.9 8.7-8.7m-24.2-3.5c0 2.2-1.6 3.5-3.4 3.5h-2.2v-7h2.2c1.8 0 3.4 1.3 3.4 3.5m3.1 0c0-2.9-2.2-5-5.4-5h-6.3v17h3v-7h3.3c3.2-.1 5.4-2.2 5.4-5" class="st0"/><path id="path65" d="M332.2 385.4H330l-4.9 7.8-5.2-7.8h-3.6l6.4 9.5v7.5h3.1v-7.5l6.4-9.5zm-27.4 1.6h2.2c2 0 3.8 1.1 3.8 3.6s-1.8 3.6-3.8 3.6h-2.2V387zm10.5 15.5-6.6-7.1c2.9-.2 5.1-2.2 5.1-4.8 0-2.9-2.5-5.1-6.1-5.1h-6v17h3v-7.4l6.8 7.4h3.8zm-19.5-6.9v-10.1h-3v10c0 3.5-1.2 5.6-3.8 5.6s-3.8-2.2-3.8-5.6v-10h-3v10.1c0 4.4 2.9 7.1 6.8 7.1 4 0 6.8-2.7 6.8-7.1m-17.2 6.9-6.4-9.2 6-7.8h-2.3l-4.6 6.4-4.5-6.4h-3.5l6 8.6-6.3 8.4h2.3l5-7 4.8 7h3.5zm-19.3-6.9v-10.1h-3v10c0 3.5-1.2 5.6-3.8 5.6s-3.8-2.2-3.8-5.6v-10h-3v10.1c0 4.4 2.9 7.1 6.8 7.1s6.8-2.7 6.8-7.1m-16.2 6.9v-1.7l-7.9.1v-15.5h-3v17l10.9.1z" class="st0"/><path id="path67" d="M438.1 440.5c0-1.1.9-1.9 1.9-1.9s1.9.9 1.9 1.9-.9 1.9-1.9 1.9-1.9-.8-1.9-1.9m-.4 0c0 1.3 1 2.3 2.3 2.3s2.3-1 2.3-2.3-1-2.3-2.3-2.3-2.3 1.1-2.3 2.3m1.9-.9h.4c.3 0 .6 0 .6.4s-.3.4-.6.4h-.4v-.8zm-.4 2.3h.5v-1.1h.4l.7 1.1h.5l-.7-1.1c.4 0 .6-.3.6-.7 0-.5-.3-.8-.9-.8h-1l-.1 2.6z" class="st0"/></g></svg>