<svg xmlns="http://www.w3.org/2000/svg" xmlns:xlink="http://www.w3.org/1999/xlink" xml:space="preserve" id="Layer_1" x="0" y="0" style="enable-background:new 0 0 273 35" version="1.1" viewBox="0 0 273 35"><style>.st1{fill:#ff3a51}.st2{fill:#fff}.st3{fill:#231f20}</style><defs><path id="SVGID_1_" d="M0 0h272.1v35H0z"/></defs><clipPath id="SVGID_00000179637302523218296670000005441768609423502777_"><use xlink:href="#SVGID_1_" style="overflow:visible"/></clipPath><g style="clip-path:url(#SVGID_00000179637302523218296670000005441768609423502777_)"><path d="M174.8 0H0v35h174.8V0zM272.1 0h-5.7v35h5.7V0z" class="st1"/><path d="M18.7 27.4h-2V17.2L15.1 24h-.6c-1.2 0-1.4-1.2-1.5-1.6l-1.2-5.2v10.2h-2V7.6H11c.8 0 .9.7.9.7l2.3 11.4 2.2-11.4c0-.1.2-.7.9-.7h1.2l.2 19.8zM32.3 7.4c1.4.1 2.5 1.2 2.5 2.5v15.2c0 1.4-1.1 2.4-2.5 2.5h-1.5c-1.4 0-2.5-1.1-2.5-2.5V9.9c0-1.4 1.1-2.5 2.5-2.5h1.5zm-.7 18.4c.6 0 1.1-.5 1.1-1.1V10.3c0-.6-.5-1.1-1.1-1.1h-.3c-.6 0-1.1.5-1.1 1.1v14.4c0 .6.5 1.1 1.1 1.1h.3zM51.4 19.1v5.8c0 1.4-1.1 2.5-2.5 2.5h-3.7V7.6h3.7c1.4 0 2.5 1.1 2.5 2.5v5.8s0 1.2-1.2 1.6c1.3.4 1.2 1.6 1.2 1.6zm-2-8.4c0-.7-.5-1-1-1h-1.1v6.9h1.1c.5 0 1-.3 1-1.2v-4.7zm0 8.9c0-.9-.5-1.1-1-1.1h-1.1v6.9h1.1c.5 0 1-.3 1-1v-4.8zM64.1 7.6c.6 0 .8.4.8.8v19h-1.4c-.5 0-.6-.3-.6-.4V7.6h1.2zM83.5 25.4c-.2.5-.6 1.3-.6 1.5-.1.3-.4.5-1.1.5h-4.9V7.6h1.4c.3 0 .6.3.6.6v17.1l4.6.1zM98.9 25.4c-.2.5-.6 1.3-.6 1.5-.1.3-.4.5-1.1.5h-4.5V8.2c0-.3.3-.6.6-.6h5.3l-.7 1.5c-.1.3-.4.6-1.1.6h-1.6c-.3 0-.5.2-.5.5V16h3c-.2.5-.6 1.3-.6 1.5-.2.3-.5.5-1.1.5h-.8c-.3 0-.5.2-.5.5v6.9h4.2zM132.3 27.4h-2.2l-1.8-13.6-1.8 13.6h-2.2l3-19.8h1.1c.8 0 1 .5 1.1 1.1l2.8 18.7zM145.5 7.6c1.4 0 2.6 1.1 2.6 2.5v5.1c0 1.9-.9 3.3-2.9 3.3H144v8.9h-1.4c-.5 0-.6-.3-.6-.4V7.6h3.5zm.6 2.9c-.1-.5-.5-1-1.1-1h-1v7.1h1.1c.6 0 1-.4 1.1-1v-5.1h-.1zM162.5 7.6c1.4 0 2.6 1.1 2.6 2.5v5.1c0 1.9-.9 3.3-2.9 3.3H161v8.9h-1.4c-.5 0-.6-.3-.6-.4V7.6h3.5zm.6 2.9c-.1-.5-.5-1-1.1-1h-1.1v7.1h1.1c.6 0 1-.4 1.1-1v-5.1z" class="st2"/><path d="M190.4 7.6c1.4 0 2.5 1.1 2.5 2.5v14.8c0 1.4-1.1 2.5-2.5 2.5h-3.9V7.6h3.9zm.5 3.1c0-.7-.5-1-1.1-1h-1.3v15.7h1.3c.6 0 1.1-.3 1.1-1V10.7zM210.1 27.4h-2.2l-1.8-13.6-1.8 13.6h-2.2l3-19.8h1.1c.8 0 1 .5 1.1 1.1l2.8 18.7zM221.2 7.6c.6 0 .8.4.8.8v19h-1.4c-.5 0-.6-.3-.6-.4V7.6h1.2zM240.6 25.4c-.2.5-.6 1.3-.6 1.5-.1.3-.4.5-1.1.5H234V7.6h1.4c.3 0 .6.3.6.6v17.1l4.6.1zM252.3 19.2v8.2h-1.4c-.3 0-.6-.3-.6-.6v-7.6l-2.4-11.6h1.5c.1 0 .6 0 .6.7l1.3 7.5 1.3-7.5c.1-.6.6-.7.6-.7h1.5l-2.4 11.6z" class="st3"/></g></svg>