<svg xmlns="http://www.w3.org/2000/svg" xml:space="preserve" viewBox="0 0 1525.8 526.7"><path fill="#212121" d="M408 293c-3.5 2.8-5.9 4.7-8.3 6.6-14.9 11.6-31.8 17.7-50.7 19.4-33.1 3-62.5-6-87.7-27.4-21.5-18.2-34.3-41.7-39.7-69.3-6.7-35-.9-67.5 19.4-96.9 18.7-27 44.4-43.7 77.1-49.1 23.3-3.9 45.9-1.9 67.2 9 9.6 4.9 17.5 11.9 24.4 20.2.7.8 1.5 1.6 2.9 3.2V80.8h51.6v310.8H408V293zm-63.6-25.5c21 0 38.6-7.5 51.7-24.1 14.5-18.3 18.1-39.2 13.7-61.8-8.2-42.1-49.4-65.4-89.6-50.4-32.6 12.1-47.8 45.2-43 78.8 4.8 32.9 32.3 57.9 67.2 57.5zM818.9 222c3.9 16.2 12.8 28.4 26.9 36.3 20.2 11.2 41.7 11.9 63.4 5.1 9.1-2.9 16-9.1 22.7-15.8 1.8-1.7 4.7-3.2 7.1-3.3 17.3-.3 34.7-.1 52-.1h5c-2.8 10.2-7.3 19-13.1 27-18.2 25.1-43 39.8-73.2 45.7-37 7.3-71.2.3-102-21.3-27.8-19.6-44.4-46.6-48.8-80.4-5.4-41.2 6.3-77.1 36.1-106.3 18.2-17.9 40.3-28.6 65.7-32.5 33.1-5.2 63.7.9 91.1 20.3 25.3 17.9 39.9 42.8 47 72.6 3.3 13.9 3.1 27.9 2.9 42 0 2.6-.7 5.2-1 7.9-.4 3-2.6 2.9-4.8 2.9h-34l-143-.1zm127-50c-3.5-14.1-10-26.2-22.3-33.7-26.3-16-53.7-16.2-80.5-1.4-13.5 7.4-21.1 20.1-25.6 35.1h128.4zm577.4 50.2h-180.9c3.1 13 9.5 23.3 19.6 31.2 13.6 10.8 29.5 14.2 46.6 14.2 19.2 0 35.3-6.5 47.8-21.3.8-1 2.4-2 3.7-2 19.6-.1 39.3-.1 59.5-.1-3.1 10.9-8 20.3-14.5 28.9-19.6 25.7-45.9 39.9-77.6 44.8-36.2 5.5-69.3-2.4-98.6-24.1-25.3-18.8-40.8-44-46-75.2-6.2-37.4 2.8-71.1 26.9-100.2 19.4-23.4 44.7-37.4 75.1-42.1 32.2-5 62.1 1 89 19.4 27 18.4 42.4 44.6 48.9 76.2 2.9 14.2 4.2 28.5 2 43-.4 2.2-.9 4.4-1.5 7.3zm-53.9-50.1c-3.1-13.5-9.5-24.5-20.1-32.6-21-16-57.8-17.8-81-4-14.1 8.3-22.8 20.8-27.4 36.6h128.5zm-431.5-91.4h56.8v6.1c0 40.3-.3 80.5.2 120.8.1 10.4 2 21.1 4.7 31.2 5.3 20.1 15.1 27.4 35.8 28.6 18.4 1 34.1-4.4 45-20.2 6.3-9.1 8.3-19.9 8.5-30.6.7-43.6.8-87.1 1.1-130.7v-5.1h56.5v232.8h-52.3v-21c-4.4 3.6-7.9 6.7-11.6 9.6-13.3 10.4-28.3 15.7-45.2 17-17 1.4-33.5-.3-49.2-6.8-23-9.5-35.9-28.1-43.1-51-4.8-15.2-7-30.9-7.1-46.8-.2-42.9-.1-85.8-.1-128.8v-5.1zm-523.8-.1h56.5v6c0 34.6-.1 69.2 0 103.8.1 15.9.5 31.8 4.9 47.3 5.9 21 15.4 28.6 37.1 29.6 24.9 1.2 43.9-11.2 49.6-33.3 2.1-8.1 3.3-16.6 3.4-25 .4-40.8.2-81.5.2-122.3v-6.1h56.5v232.9h-51.6v-20c-1.8.8-3 1-3.7 1.6-15.1 14.3-32.6 22.6-53.7 24-20 1.3-39.1-.8-56.7-10.6-20.7-11.6-30.9-30.7-36.8-52.6-4.6-17.1-5.8-34.6-5.9-52.1-.3-39.8-.1-79.5-.1-119.3.1-1.1.2-2.3.3-3.9zM46.6 0c18.3 9.5 35.8 18.6 53.3 27.6-54.2 113.2-52.3 225.9.2 339.3-17.1 8.8-34.7 17.8-53.4 27.4C-14.6 262.6-16.5 131.7 46.6 0zm102 51.4c14.3 7.7 28.2 15.2 42.2 22.8 10.3 5.6 10.2 5.6 5.1 16.2-11.1 23.2-18.4 47.6-21.5 73.2-6.3 52.3 1.8 102.1 26 149.1.3.6.4 1.2.8 2.2L148.7 343c-20-36.9-31.4-76.2-35-117.7-5.2-61.3 5.4-119.3 34.9-173.9zm1046.2 422.4v52.3h-13.5V388.4h13.1v14.9l.9.8c10.9-13 24.8-18.7 41.5-18.2s30.3 6.9 40.7 19.7c16.9 20.8 15.2 52.2-3.6 71.1-10.9 11-24.2 16-39.9 16s-28.3-6.1-39.2-18.9zm40-75.2c-21.9-.9-41.2 16.3-40.9 40.1.3 24.3 16.7 40.7 40.3 40.9 24.1.2 40.5-17.1 40.4-40.5 0-25.6-19.5-41.2-39.8-40.5zm164.3 76.3c-29.1 25.6-57 24.6-82.6-1.8-15.7-16.2-15.7-45.3-2.8-64.3 6.2-9.2 14.6-15.8 25.1-19.7 10.5-3.9 21.4-4 32.3-2.2 11.1 1.9 19 8.9 26.7 16.5.3-.3.7-.5 1-.8v-14.4h13.6v102h-13.3v-15.3zm-39.6 5c19.9.8 39.2-15.5 39.1-40.8 0-23.9-17.2-40.3-39.8-40.3-22.5 0-40.1 17-39.9 40.3.3 26.2 20.4 41.5 40.6 40.8zm67.1-91.9c4.7 0 8.8-.4 12.9.2 1.5.2 3.4 2.3 4 3.9 9.5 23.6 18.8 47.2 28.2 70.8.5 1.3 1.2 2.6 2.2 5 1.3-2.3 2.3-3.7 2.9-5.2 10-23.4 20-46.7 29.7-70.2 1.5-3.5 3.1-4.8 6.8-4.5 3.3.3 6.6.1 10.5.1-5.2 12.3-10.2 24.2-15.2 36-13.9 32.6-28 65.2-41.8 97.9-1.5 3.6-3.2 5.3-7.2 4.8-3.1-.4-6.3-.1-10.2-.1 3.1-7.4 5.9-14.2 8.7-21 2.6-6.2 7-12.5 7.1-18.7.1-6.1-4.3-12.2-6.8-18.4-10.1-25.1-20.1-50.2-30.2-75.3-.5-1.7-.9-3.3-1.6-5.3z"/></svg>