<svg width="232" height="32" viewBox="0 0 232 32" fill="none" xmlns="http://www.w3.org/2000/svg">
<path fill-rule="evenodd" clip-rule="evenodd" d="M25.5319 7.3617L12.766 0L0 7.3617L0 9.91489L12.766 2.55319L25.5319 9.91489V7.3617Z" fill="#77C04B"/>
<path fill-rule="evenodd" clip-rule="evenodd" d="M10.5532 16L12.766 14.7234L0 7.36169V9.91489L10.5532 16Z" fill="#77C04B"/>
<path fill-rule="evenodd" clip-rule="evenodd" d="M25.5318 24.6383V22.0851L14.9786 16L12.7659 17.2766L25.5318 24.6383Z" fill="#77C04B"/>
<path fill-rule="evenodd" clip-rule="evenodd" d="M25.5319 24.6383L12.766 32L0 24.6383L0 22.0851L12.766 29.4468L25.5319 22.0851V24.6383Z" fill="#77C04B"/>
<path fill-rule="evenodd" clip-rule="evenodd" d="M25.5319 14.7234L12.766 7.36169L0 14.7234L0 17.2766L12.766 9.91489L25.5319 17.2766V14.7234Z" fill="#3396D1"/>
<path d="M43.5438 7.81881C43.0207 7.09159 42.3497 6.50641 41.5309 6.06326C40.7121 5.62011 39.7227 5.39854 38.5627 5.39854C37.9713 5.39854 37.3685 5.48944 36.7544 5.67125C36.1403 5.85305 35.5831 6.13144 35.0827 6.50641C34.5823 6.88138 34.1786 7.35293 33.8715 7.92107C33.5644 8.48922 33.4109 9.15961 33.4109 9.93228C33.4109 10.705 33.5588 11.3413 33.8544 11.8412C34.1501 12.3412 34.5425 12.7673 35.0315 13.1195C35.5205 13.4718 36.0778 13.7615 36.7033 13.9888C37.3287 14.2161 37.9827 14.4433 38.665 14.6706C39.5066 14.9433 40.3538 15.2387 41.2068 15.5569C42.0597 15.875 42.8273 16.2898 43.5097 16.8011C44.1921 17.3124 44.7493 17.9601 45.1815 18.7441C45.6136 19.5281 45.8297 20.5224 45.8297 21.7268C45.8297 22.9313 45.5966 23.971 45.1303 24.8459C44.664 25.7209 44.0613 26.4424 43.3221 27.0105C42.5828 27.5787 41.7413 27.9991 40.7974 28.2718C39.8534 28.5445 38.9038 28.6809 37.9485 28.6809C37.2207 28.6809 36.4929 28.607 35.765 28.4593C35.0372 28.3116 34.3435 28.09 33.6839 27.7946C33.0242 27.4991 32.4101 27.1242 31.8415 26.6696C31.2729 26.2151 30.7725 25.6924 30.3403 25.1016L32.4556 23.5335C32.9788 24.3971 33.7123 25.1186 34.6562 25.6981C35.6001 26.2776 36.7089 26.5674 37.9827 26.5674C38.5968 26.5674 39.2223 26.4708 39.8591 26.2776C40.496 26.0845 41.0703 25.789 41.5821 25.3913C42.0938 24.9936 42.5146 24.505 42.8444 23.9255C43.1742 23.346 43.3391 22.67 43.3391 21.8973C43.3391 21.0564 43.1742 20.3576 42.8444 19.8008C42.5146 19.2441 42.0768 18.7782 41.5309 18.4032C40.985 18.0283 40.3595 17.7158 39.6544 17.4658C38.9493 17.2158 38.2101 16.9658 37.4368 16.7159C36.6407 16.4659 35.856 16.1818 35.0827 15.8636C34.3093 15.5455 33.6156 15.1308 33.0015 14.6194C32.3874 14.1081 31.8927 13.4775 31.5174 12.7275C31.1421 11.9776 30.9544 11.0572 30.9544 9.96637C30.9544 8.80736 31.1876 7.80745 31.6539 6.9666C32.1201 6.12575 32.7286 5.43263 33.4791 4.88721C34.2297 4.3418 35.0599 3.94411 35.9697 3.69412C36.8795 3.44414 37.778 3.31915 38.665 3.31915C40.3027 3.31915 41.7015 3.6089 42.8615 4.1884C44.0215 4.76791 44.8971 5.45535 45.4885 6.25075L43.5438 7.81881Z" fill="#77C04B"/>
<path fill-rule="evenodd" clip-rule="evenodd" d="M63.8722 20.3319V19.8208C63.8722 18.7303 63.7077 17.708 63.3786 16.7538C63.0495 15.7997 62.5673 14.9648 61.9318 14.2492C61.2963 13.5335 60.502 12.9656 59.5488 12.5453C58.5956 12.125 57.4949 11.9149 56.2467 11.9149C55.1119 11.9149 54.0566 12.125 53.0807 12.5453C52.1048 12.9656 51.2538 13.5506 50.5275 14.3003C49.8013 15.05 49.2339 15.936 48.8254 16.9583C48.4169 17.9806 48.2126 19.0938 48.2126 20.2979C48.2126 21.5019 48.4226 22.6151 48.8424 23.6374C49.2623 24.6597 49.8353 25.5457 50.5616 26.2954C51.2878 27.0451 52.1559 27.6301 53.1658 28.0504C54.1758 28.4707 55.2708 28.6808 56.4509 28.6808C57.7673 28.6808 58.9985 28.4196 60.1446 27.8971C61.2907 27.3745 62.3403 26.5113 63.2935 25.3072L61.5573 23.9441C61.1034 24.6711 60.4396 25.3129 59.5658 25.8695C58.6921 26.4261 57.6538 26.7044 56.4509 26.7044C55.6339 26.7044 54.8736 26.551 54.1701 26.2443C53.4665 25.9376 52.8538 25.523 52.3318 25.0005C51.8098 24.478 51.4013 23.8646 51.1063 23.1603C50.8112 22.4561 50.6524 21.7064 50.6297 20.9113H63.8382C63.8609 20.7068 63.8722 20.5137 63.8722 20.3319ZM60.0764 15.3397C60.9729 16.3279 61.4551 17.5717 61.5232 19.0711H50.6636C50.709 18.3896 50.8792 17.7364 51.1743 17.1117C51.4693 16.4869 51.8665 15.9303 52.3658 15.4419C52.8651 14.9534 53.4438 14.5672 54.1019 14.2833C54.7601 13.9993 55.475 13.8573 56.2466 13.8573C57.9034 13.8573 59.18 14.3514 60.0764 15.3397Z" fill="#77C04B"/>
<path d="M68.5532 28.6809H66.2554V3.31915H68.5532V28.6809Z" fill="#77C04B"/>
<path fill-rule="evenodd" clip-rule="evenodd" d="M86.6383 20.3319V19.8208C86.6383 18.7303 86.4738 17.708 86.1447 16.7538C85.8156 15.7997 85.3334 14.9648 84.6979 14.2492C84.0624 13.5335 83.2681 12.9656 82.3149 12.5453C81.3617 12.125 80.261 11.9149 79.0128 11.9149C77.878 11.9149 76.8227 12.125 75.8468 12.5453C74.871 12.9656 74.0199 13.5506 73.2937 14.3003C72.5674 15.05 72 15.936 71.5915 16.9583C71.183 17.9806 70.9788 19.0938 70.9788 20.2979C70.9788 21.5019 71.1887 22.6151 71.6085 23.6374C72.0284 24.6597 72.6015 25.5457 73.3277 26.2954C74.0539 27.0451 74.922 27.6301 75.932 28.0504C76.9419 28.4707 78.0369 28.6808 79.2171 28.6808C80.5334 28.6808 81.7646 28.4196 82.9107 27.8971C84.0568 27.3745 85.1064 26.5113 86.0596 25.3072L84.3234 23.9441C83.8695 24.6711 83.2057 25.3129 82.332 25.8695C81.4582 26.4261 80.4199 26.7044 79.2171 26.7044C78.4 26.7044 77.6398 26.551 76.9362 26.2443C76.2327 25.9376 75.6199 25.523 75.0979 25.0005C74.5759 24.478 74.1674 23.8646 73.8724 23.1603C73.5773 22.4561 73.4185 21.7064 73.3958 20.9113H86.6043C86.627 20.7068 86.6383 20.5137 86.6383 20.3319ZM82.8426 15.3397C83.7391 16.3279 84.2213 17.5717 84.2894 19.0711H73.4298C73.4752 18.3896 73.6454 17.7364 73.9405 17.1117C74.2355 16.4869 74.6327 15.9303 75.132 15.4419C75.6313 14.9534 76.21 14.5672 76.8681 14.2833C77.5263 13.9993 78.2412 13.8573 79.0128 13.8573C80.6696 13.8573 81.9462 14.3514 82.8426 15.3397Z" fill="#77C04B"/>
<path d="M101.636 15.9701C101.251 15.3567 100.69 14.8512 99.9531 14.4536C99.2164 14.0561 98.4173 13.8573 97.5559 13.8573C96.6265 13.8573 95.7878 14.022 95.0397 14.3514C94.2917 14.6808 93.6513 15.1352 93.1186 15.7145C92.5859 16.2938 92.1778 16.9753 91.8945 17.7591C91.6111 18.5429 91.4694 19.3891 91.4694 20.2979C91.4694 21.2066 91.6111 22.0472 91.8945 22.8196C92.1778 23.592 92.5802 24.2678 93.1016 24.8472C93.623 25.4265 94.2577 25.8808 95.0057 26.2103C95.7538 26.5397 96.5925 26.7044 97.5219 26.7044C98.542 26.7044 99.4034 26.5113 100.106 26.1251C100.809 25.7388 101.387 25.2391 101.84 24.6257L103.574 25.9206C102.894 26.7612 102.061 27.4313 101.075 27.9311C100.089 28.4309 98.9047 28.6808 97.5219 28.6808C96.2298 28.6808 95.0624 28.4707 94.0196 28.0504C92.9769 27.6301 92.0872 27.0451 91.3504 26.2954C90.6137 25.5457 90.0413 24.6597 89.6333 23.6374C89.2253 22.6151 89.0212 21.5019 89.0212 20.2979C89.0212 19.0938 89.2253 17.9806 89.6333 16.9583C90.0413 15.936 90.6137 15.05 91.3504 14.3003C92.0872 13.5506 92.9769 12.9656 94.0196 12.5453C95.0624 12.125 96.2298 11.9149 97.5219 11.9149C98.5874 11.9149 99.6698 12.1477 100.769 12.6135C101.869 13.0792 102.758 13.7664 103.438 14.6751L101.636 15.9701Z" fill="#77C04B"/>
<path d="M116.128 14.4792H111.626V23.7767C111.626 24.367 111.683 24.8551 111.797 25.2411C111.911 25.6271 112.075 25.9279 112.291 26.1436C112.507 26.3593 112.763 26.5069 113.059 26.5864C113.354 26.6658 113.672 26.7056 114.013 26.7056C114.332 26.7056 114.667 26.6601 115.019 26.5693C115.372 26.4785 115.707 26.3536 116.025 26.1947L116.128 28.204C115.718 28.363 115.292 28.4822 114.849 28.5616C114.406 28.6411 113.923 28.6808 113.4 28.6808C112.968 28.6808 112.513 28.6241 112.036 28.5106C111.558 28.397 111.115 28.1813 110.706 27.8635C110.297 27.5456 109.961 27.1142 109.7 26.5693C109.438 26.0244 109.308 25.3092 109.308 24.4238V14.4792H106V12.538H109.308V8.04254H111.626V12.538H116.128V14.4792Z" fill="#77C04B"/>
<path fill-rule="evenodd" clip-rule="evenodd" d="M134.17 20.3319V19.8208C134.17 18.7303 134.006 17.708 133.677 16.7538C133.348 15.7997 132.865 14.9648 132.23 14.2492C131.594 13.5335 130.8 12.9656 129.847 12.5453C128.894 12.125 127.793 11.9149 126.545 11.9149C125.41 11.9149 124.355 12.125 123.379 12.5453C122.403 12.9656 121.552 13.5506 120.826 14.3003C120.099 15.05 119.532 15.936 119.124 16.9583C118.715 17.9806 118.511 19.0938 118.511 20.2979C118.511 21.5019 118.721 22.6151 119.141 23.6374C119.56 24.6597 120.133 25.5457 120.86 26.2954C121.586 27.0451 122.454 27.6301 123.464 28.0504C124.474 28.4707 125.569 28.6808 126.749 28.6808C128.065 28.6808 129.297 28.4196 130.443 27.8971C131.589 27.3745 132.638 26.5113 133.592 25.3072L131.855 23.9441C131.402 24.6711 130.738 25.3129 129.864 25.8695C128.99 26.4261 127.952 26.7044 126.749 26.7044C125.932 26.7044 125.172 26.551 124.468 26.2443C123.765 25.9376 123.152 25.523 122.63 25.0005C122.108 24.478 121.699 23.8646 121.404 23.1603C121.109 22.4561 120.95 21.7064 120.928 20.9113H134.136C134.159 20.7068 134.17 20.5137 134.17 20.3319ZM130.375 15.3397C131.271 16.3279 131.753 17.5717 131.821 19.0711H120.962C121.007 18.3896 121.177 17.7364 121.472 17.1117C121.768 16.4869 122.165 15.9303 122.664 15.4419C123.163 14.9534 123.742 14.5672 124.4 14.2833C125.058 13.9993 125.773 13.8573 126.545 13.8573C128.202 13.8573 129.478 14.3514 130.375 15.3397Z" fill="#77C04B"/>
<path fill-rule="evenodd" clip-rule="evenodd" d="M148.156 27.8558C149.245 27.3342 150.129 26.5631 150.81 25.5425H150.878V28.6128H153.192V3.27658H150.878V15.0644H150.81C150.129 14.0211 149.245 13.233 148.156 12.7C147.067 12.1671 145.944 11.9006 144.787 11.9006C143.54 11.9006 142.411 12.116 141.402 12.547C140.392 12.9779 139.53 13.5675 138.816 14.316C138.101 15.0644 137.546 15.9489 137.149 16.9695C136.752 17.9901 136.553 19.0901 136.553 20.2694C136.553 21.4488 136.752 22.5487 137.149 23.5693C137.546 24.5899 138.101 25.4744 138.816 26.2229C139.53 26.9713 140.392 27.561 141.402 27.9919C142.411 28.4228 143.54 28.6383 144.787 28.6383C145.944 28.6383 147.067 28.3775 148.156 27.8558ZM139.411 22.7699C139.139 21.9874 139.003 21.1539 139.003 20.2694C139.003 19.3849 139.139 18.5514 139.411 17.769C139.683 16.9865 140.075 16.3061 140.585 15.7278C141.096 15.1495 141.725 14.6902 142.474 14.35C143.222 14.0098 144.073 13.8397 145.025 13.8397C145.91 13.8397 146.727 14.0041 147.475 14.333C148.224 14.6618 148.87 15.1154 149.415 15.6938C149.959 16.2721 150.384 16.9525 150.691 17.735C150.997 18.5174 151.15 19.3622 151.15 20.2694C151.15 21.1766 150.997 22.0214 150.691 22.8039C150.384 23.5864 149.959 24.2611 149.415 24.8281C148.87 25.3951 148.224 25.843 147.475 26.1718C146.727 26.5007 145.91 26.6651 145.025 26.6651C144.073 26.6651 143.222 26.5007 142.474 26.1718C141.725 25.843 141.096 25.3894 140.585 24.8111C140.075 24.2327 139.683 23.5523 139.411 22.7699Z" fill="#77C04B"/>
<path d="M160.454 28.6809H158V3.31915H172.553V5.49788H160.454V13.8723H171.701V16.017H160.454V28.6809Z" fill="#3396D1"/>
<path fill-rule="evenodd" clip-rule="evenodd" d="M177.268 8.04257H174.936V10.3584H177.268V8.04257ZM174.945 28.6809H177.277V12.7424H174.945V28.6809Z" fill="#3396D1"/>
<path d="M180.987 16.2553C180.987 15.8241 180.976 15.2681 180.953 14.5872C180.931 13.9064 180.897 13.2936 180.851 12.7489H183.066C183.111 13.1801 183.145 13.6567 183.168 14.1787C183.191 14.7007 183.202 15.1319 183.202 15.4723H183.27C183.725 14.5418 184.406 13.7872 185.315 13.2085C186.223 12.6298 187.246 12.3404 188.382 12.3404C188.677 12.3404 188.944 12.3518 189.182 12.3745C189.421 12.3972 189.665 12.4426 189.915 12.5106L189.608 14.6894C189.472 14.644 189.245 14.5986 188.927 14.5532C188.609 14.5078 188.291 14.4851 187.973 14.4851C187.359 14.4851 186.769 14.5986 186.201 14.8255C185.633 15.0525 185.139 15.4099 184.719 15.8979C184.298 16.3858 183.958 17.0099 183.696 17.7702C183.435 18.5305 183.304 19.444 183.304 20.5106V28.6808H180.987V16.2553Z" fill="#3396D1"/>
<path d="M194.716 15.4723C195.17 14.5418 195.868 13.7872 196.81 13.2085C197.752 12.6298 198.802 12.3404 199.96 12.3404C200.391 12.3404 200.84 12.3858 201.305 12.4766C201.771 12.5674 202.225 12.7433 202.667 13.0043C203.11 13.2652 203.519 13.6113 203.893 14.0426C204.268 14.4738 204.592 15.0298 204.864 15.7106C205.409 14.6213 206.152 13.7872 207.095 13.2085C208.037 12.6298 209.155 12.3404 210.449 12.3404C212.469 12.3404 213.985 12.9418 214.995 14.1447C216.005 15.3475 216.511 16.9362 216.511 18.9106V28.6808H214.195V19.8638C214.195 18.1844 213.883 16.834 213.258 15.8128C212.634 14.7915 211.573 14.2808 210.074 14.2808C209.234 14.2808 208.525 14.4511 207.946 14.7915C207.367 15.1319 206.902 15.5801 206.55 16.1362C206.198 16.6922 205.942 17.322 205.783 18.0255C205.625 18.7291 205.545 19.4553 205.545 20.2043V28.6808H203.229V19.3872C203.229 18.6156 203.173 17.9121 203.059 17.2766C202.946 16.6411 202.747 16.1021 202.463 15.6596C202.179 15.217 201.788 14.8766 201.288 14.6383C200.789 14.4 200.153 14.2808 199.381 14.2808C198.836 14.2808 198.286 14.4057 197.73 14.6553C197.173 14.905 196.674 15.2851 196.231 15.7957C195.788 16.3064 195.431 16.9532 195.158 17.7362C194.886 18.5192 194.75 19.444 194.75 20.5106V28.6808H192.434V16.2553C192.434 15.8241 192.423 15.2681 192.4 14.5872C192.377 13.9064 192.343 13.2936 192.298 12.7489H194.511C194.557 13.1801 194.591 13.6567 194.614 14.1787C194.636 14.7007 194.648 15.1319 194.648 15.4723H194.716Z" fill="#3396D1"/>
<path d="M229.147 16.1064C228.807 15.4475 228.29 14.908 227.597 14.4877C226.905 14.0674 226.116 13.8573 225.23 13.8573C224.821 13.8573 224.412 13.9027 224.003 13.9936C223.595 14.0845 223.231 14.2321 222.913 14.4366C222.595 14.6411 222.34 14.9023 222.147 15.2204C221.954 15.5384 221.857 15.9133 221.857 16.3449C221.857 17.0946 222.164 17.6682 222.777 18.0658C223.39 18.4634 224.355 18.7985 225.673 19.0711C227.558 19.4573 228.949 20.0196 229.846 20.7579C230.743 21.4962 231.191 22.4902 231.191 23.7397C231.191 24.6484 231.015 25.4151 230.663 26.0399C230.311 26.6646 229.851 27.1758 229.284 27.5733C228.716 27.9709 228.074 28.2549 227.359 28.4253C226.644 28.5957 225.923 28.6808 225.196 28.6808C223.992 28.6808 222.823 28.4309 221.687 27.9311C220.551 27.4313 219.62 26.6476 218.894 25.5798L220.733 24.2167C221.142 24.921 221.744 25.5117 222.539 25.9887C223.334 26.4658 224.208 26.7044 225.162 26.7044C225.661 26.7044 226.138 26.6589 226.592 26.5681C227.047 26.4772 227.444 26.3182 227.785 26.091C228.125 25.8638 228.398 25.5741 228.602 25.222C228.807 24.8699 228.909 24.4326 228.909 23.91C228.909 23.0695 228.506 22.439 227.7 22.0188C226.893 21.5985 225.729 21.2066 224.208 20.8431C223.731 20.7295 223.226 20.5875 222.692 20.4171C222.158 20.2467 221.664 19.9969 221.21 19.6674C220.756 19.338 220.381 18.9234 220.086 18.4236C219.791 17.9238 219.643 17.2991 219.643 16.5494C219.643 15.7315 219.802 15.0329 220.12 14.4536C220.438 13.8743 220.864 13.3972 221.397 13.0224C221.931 12.6475 222.539 12.3692 223.22 12.1875C223.901 12.0058 224.605 11.9149 225.332 11.9149C226.445 11.9149 227.524 12.1648 228.568 12.6646C229.613 13.1644 230.397 13.8686 230.919 14.7774L229.147 16.1064Z" fill="#3396D1"/>
</svg>