<svg xmlns="http://www.w3.org/2000/svg" viewBox="0 0 164.08 54.04"><path d="M75.7 10.04v4.05h-1.152l-.576-2.7h-2.736v10.134l1.908.432V23h-6.156v-1.044l1.912-.432V11.39h-2.758l-.558 2.7h-1.152v-4.05Zm2.718 8.352a5.02 5.02 0 0 0 .36 2.034 2.014 2.014 0 0 0 1.98 1.274 3.8 3.8 0 0 0 1.584-.351 3.445 3.445 0 0 0 1.332-1.089l.972.756a5.337 5.337 0 0 1-1.7 1.53 5.122 5.122 0 0 1-2.637.63 4.58 4.58 0 0 1-2.277-.531 3.509 3.509 0 0 1-1.449-1.557 4.869 4.869 0 0 1-.4-1.233 8.112 8.112 0 0 1-.126-1.485 5.909 5.909 0 0 1 1.152-3.9 4.054 4.054 0 0 1 3.297-1.37 4.991 4.991 0 0 1 1.764.3 3.708 3.708 0 0 1 1.341.846 3.7 3.7 0 0 1 .846 1.35 5.176 5.176 0 0 1 .3 1.809q0 .2-.009.387t-.045.6Zm2.052-4.05q-1.854 0-2.034 2.9H82.4v-.468a2.82 2.82 0 0 0-.5-1.8 1.717 1.717 0 0 0-1.43-.632ZM90.784 13.1a5.62 5.62 0 0 1 1.53.2 3.851 3.851 0 0 1 1.215.567 2.7 2.7 0 0 1 .8.891 2.345 2.345 0 0 1 .288 1.152 1.65 1.65 0 0 1-.432 1.233 1.459 1.459 0 0 1-1.062.423 1.326 1.326 0 0 1-.594-.117 1.153 1.153 0 0 1-.387-.306 1.134 1.134 0 0 1-.216-.423 1.793 1.793 0 0 1-.063-.468 1.323 1.323 0 0 1 .225-.774 1.253 1.253 0 0 1 .675-.468 1.731 1.731 0 0 0-.756-.522 3.08 3.08 0 0 0-1.134-.2 2.461 2.461 0 0 0-1.017.2 1.806 1.806 0 0 0-.747.639 3.306 3.306 0 0 0-.468 1.17 8.409 8.409 0 0 0-.162 1.791 7.279 7.279 0 0 0 .126 1.53 4.007 4.007 0 0 0 .342.972 2.275 2.275 0 0 0 .738.819 2.053 2.053 0 0 0 1.152.3 3.532 3.532 0 0 0 .765-.09 4.221 4.221 0 0 0 .792-.261 3.585 3.585 0 0 0 .738-.441 3.04 3.04 0 0 0 .621-.648l.972.756a4.9 4.9 0 0 1-1.952 1.66 5.732 5.732 0 0 1-2.367.495 4.594 4.594 0 0 1-2.268-.513 3.593 3.593 0 0 1-1.44-1.5 5.36 5.36 0 0 1-.477-1.323 7.211 7.211 0 0 1-.171-1.614 6.494 6.494 0 0 1 .324-2.115 4.674 4.674 0 0 1 .927-1.62 3.971 3.971 0 0 1 1.485-1.035 5.248 5.248 0 0 1 1.998-.36Zm12.384 5.076q0-.576-.018-1t-.05-.737a2.774 2.774 0 0 0-.09-.531 3.017 3.017 0 0 0-.135-.378 1.625 1.625 0 0 0-1.575-.882 2.024 2.024 0 0 0-.972.252 1.851 1.851 0 0 0-.738.72 2.771 2.771 0 0 0-.252.666 4.136 4.136 0 0 0-.108 1.026v4.338l1.206.342V23h-4.882v-1.008l1.386-.342V10.31l-1.386-.342V8.96h3.672v6.012a3.73 3.73 0 0 1 1.233-1.372 3 3 0 0 1 1.683-.5 3.921 3.921 0 0 1 1.305.189 2.365 2.365 0 0 1 .927.6 3.467 3.467 0 0 1 .819 1.539 9.876 9.876 0 0 1 .261 2.511v3.711l1.386.342V23h-4.878v-1.008l1.206-.342ZM75.232 33.154a2.753 2.753 0 0 1-.684 1.827 2.82 2.82 0 0 1-.765.612 2.758 2.758 0 0 1-.963.315v.072a4.064 4.064 0 0 1 2.214 1.2 3.156 3.156 0 0 1 .81 2.2 3.451 3.451 0 0 1-.531 1.872 3.408 3.408 0 0 1-1.341 1.26 3.486 3.486 0 0 1-.549.216 5.263 5.263 0 0 1-.693.153 8.761 8.761 0 0 1-.9.09q-.504.029-1.17.029h-5.922v-1.044l1.512-.378V31.462l-1.512-.378V30.04h6.588a4.228 4.228 0 0 1 2.916.918 3.1 3.1 0 0 1 .729 1.008 2.849 2.849 0 0 1 .261 1.188ZM68.59 36.9v4.75h1.44a7.884 7.884 0 0 0 1.332-.09 2.594 2.594 0 0 0 .846-.288 1.923 1.923 0 0 0 .792-.8 2.563 2.563 0 0 0 .306-1.272 2.206 2.206 0 0 0-.234-1.062 2.33 2.33 0 0 0-.594-.72 2.306 2.306 0 0 0-.828-.387 5.137 5.137 0 0 0-1.3-.135Zm0-1.314h1.71a2.44 2.44 0 0 0 1.854-.63 2.289 2.289 0 0 0 .468-.639 2.1 2.1 0 0 0 0-1.782 2.289 2.289 0 0 0-.468-.639 2.454 2.454 0 0 0-1.782-.54H68.59Zm11 2.808a5.02 5.02 0 0 0 .36 2.034 2.014 2.014 0 0 0 1.98 1.278 3.8 3.8 0 0 0 1.584-.351 3.445 3.445 0 0 0 1.332-1.089l.972.756a5.337 5.337 0 0 1-1.7 1.53 5.122 5.122 0 0 1-2.637.63 4.58 4.58 0 0 1-2.277-.531 3.509 3.509 0 0 1-1.449-1.557 4.869 4.869 0 0 1-.4-1.233 8.112 8.112 0 0 1-.126-1.485 5.909 5.909 0 0 1 1.152-3.9 4.054 4.054 0 0 1 3.295-1.376 4.991 4.991 0 0 1 1.764.3 3.576 3.576 0 0 1 2.187 2.2 5.176 5.176 0 0 1 .3 1.809q0 .2-.009.387t-.045.6Zm2.052-4.05q-1.854 0-2.034 2.9h3.96v-.468a2.82 2.82 0 0 0-.5-1.8 1.717 1.717 0 0 0-1.428-.634Zm12.87 3.834q0-.576-.018-1t-.045-.738a2.773 2.773 0 0 0-.09-.531 3.017 3.017 0 0 0-.135-.378 1.625 1.625 0 0 0-1.584-.882 2.024 2.024 0 0 0-.972.252 1.851 1.851 0 0 0-.738.72 2.771 2.771 0 0 0-.252.666 4.136 4.136 0 0 0-.108 1.026v4.337l1.206.342V43H86.9v-1.008l1.386-.342V30.31l-1.386-.342V28.96h3.672v6.012A3.73 3.73 0 0 1 91.8 33.6a3 3 0 0 1 1.683-.5 3.921 3.921 0 0 1 1.305.189 2.365 2.365 0 0 1 .927.6 3.467 3.467 0 0 1 .819 1.539 9.876 9.876 0 0 1 .261 2.511v3.711l1.386.342V43H93.3v-1.008l1.206-.342Zm6.93.216a5.02 5.02 0 0 0 .36 2.034 2.014 2.014 0 0 0 1.978 1.272 3.8 3.8 0 0 0 1.584-.351 3.445 3.445 0 0 0 1.336-1.085l.972.756a5.337 5.337 0 0 1-1.7 1.53 5.122 5.122 0 0 1-2.637.63 4.58 4.58 0 0 1-2.277-.531 3.509 3.509 0 0 1-1.458-1.557 4.869 4.869 0 0 1-.4-1.233 8.111 8.111 0 0 1-.126-1.485 5.909 5.909 0 0 1 1.152-3.9 4.054 4.054 0 0 1 3.302-1.374 4.991 4.991 0 0 1 1.764.3 3.576 3.576 0 0 1 2.187 2.2 5.176 5.176 0 0 1 .3 1.809q0 .2-.009.387t-.045.6Zm2.052-4.05q-1.854 0-2.034 2.9h3.96v-.468a2.82 2.82 0 0 0-.5-1.8 1.717 1.717 0 0 0-1.428-.634Zm6.858.288-1.386-.342v-1.01h3.134l.4 1.8h.072a3.945 3.945 0 0 1 1.4-1.449 3.525 3.525 0 0 1 1.863-.531 2.962 2.962 0 0 1 1.323.279 2.041 2.041 0 0 1 .837.693 3.951 3.951 0 0 1 .468 1.188 4.3 4.3 0 0 1 1.494-1.593 3.67 3.67 0 0 1 1.962-.567 2.935 2.935 0 0 1 1.3.279 2.085 2.085 0 0 1 .882.765 2.409 2.409 0 0 1 .27.612 5.937 5.937 0 0 1 .18.891q.072.531.1 1.251t.027 1.692v3.06l1.386.342V43h-4.896v-1.008l1.206-.342v-3.474q0-.576-.018-1t-.054-.738a4.2 4.2 0 0 0-.09-.531 2.321 2.321 0 0 0-.126-.378 1.189 1.189 0 0 0-.477-.6 1.227 1.227 0 0 0-.621-.171 2.5 2.5 0 0 0-.828.126 2.1 2.1 0 0 0-.7.432 2.232 2.232 0 0 0-.585.837 3.9 3.9 0 0 0-.225 1.233v4.264l1.206.342V43h-4.7v-1.008l1.206-.342v-3.474q0-.576-.018-1t-.054-.738a4.2 4.2 0 0 0-.09-.531 2.321 2.321 0 0 0-.126-.378 1.189 1.189 0 0 0-.477-.6 1.227 1.227 0 0 0-.621-.171 2.5 2.5 0 0 0-.828.126 2.1 2.1 0 0 0-.7.432 2.232 2.232 0 0 0-.585.837 3.9 3.9 0 0 0-.225 1.233v4.264l1.206.342V43h-4.88v-1.008l1.386-.342Zm25.992 3.51a6.928 6.928 0 0 1-.333 2.169 4.568 4.568 0 0 1-.963 1.7 3.352 3.352 0 0 1-1.422.9 7.264 7.264 0 0 1-3.924 0 3.352 3.352 0 0 1-1.422-.9 4.568 4.568 0 0 1-.963-1.7 7.23 7.23 0 0 1 0-4.338 4.568 4.568 0 0 1 .963-1.7 3.352 3.352 0 0 1 1.422-.9 7.264 7.264 0 0 1 3.924 0 3.352 3.352 0 0 1 1.422.9 4.568 4.568 0 0 1 .963 1.7 6.928 6.928 0 0 1 .331 2.167Zm-6.318 3.114a2.223 2.223 0 0 0 3.276 0 6.055 6.055 0 0 0 .576-3.114 6.055 6.055 0 0 0-.576-3.114 2.223 2.223 0 0 0-3.276 0 6.055 6.055 0 0 0-.576 3.114 6.055 6.055 0 0 0 .574 3.112Zm7.074-7.724 1.764-.252.216-2.232 2.05-.288v2.52h2.3v1.17h-2.3v5.886q0 .612.018.837a1.383 1.383 0 0 0 .072.369.342.342 0 0 0 .2.162 1.454 1.454 0 0 0 .468.054h1.26v.792a17.258 17.258 0 0 1-1.845.477 7.17 7.17 0 0 1-1.269.153.987.987 0 0 1-1.044-.666 1.828 1.828 0 0 1-.117-.549q-.027-.333-.027-1.017v-6.5H137.1Zm14.436 4.644q0-.576-.018-1t-.045-.738a2.773 2.773 0 0 0-.09-.531 3.017 3.017 0 0 0-.135-.378 1.625 1.625 0 0 0-1.584-.882 2.024 2.024 0 0 0-.972.252 1.851 1.851 0 0 0-.738.72 2.771 2.771 0 0 0-.252.666 4.136 4.136 0 0 0-.108 1.026v4.339l1.206.342V43h-4.88v-1.008l1.386-.342V30.31l-1.386-.342V28.96h3.672v6.012a3.73 3.73 0 0 1 1.233-1.372 3 3 0 0 1 1.683-.5 3.921 3.921 0 0 1 1.305.189 2.365 2.365 0 0 1 .927.6 3.467 3.467 0 0 1 .819 1.539 9.876 9.876 0 0 1 .261 2.511v3.711l1.386.342V43h-4.878v-1.008l1.206-.342Zm8.264 3.906a3.811 3.811 0 0 0 .846-.09 2.686 2.686 0 0 0 .693-.252 1.349 1.349 0 0 0 .468-.405.931.931 0 0 0 .171-.549.954.954 0 0 0-.225-.63 1.977 1.977 0 0 0-.594-.468 5.285 5.285 0 0 0-.828-.351q-.459-.153-.909-.3a7.921 7.921 0 0 1-1.089-.405 3.928 3.928 0 0 1-.954-.612 2.822 2.822 0 0 1-.675-.873 2.627 2.627 0 0 1-.252-1.188 2.575 2.575 0 0 1 .936-2.079 4.073 4.073 0 0 1 2.682-.783 5.728 5.728 0 0 1 1.494.18 3.525 3.525 0 0 1 1.134.513 2.467 2.467 0 0 1 .729.792 1.987 1.987 0 0 1 .261 1 1.272 1.272 0 0 1-.333.954 1.248 1.248 0 0 1-.909.324 1.335 1.335 0 0 1-.9-.279.843.843 0 0 1-.324-.657 1.063 1.063 0 0 1 .18-.585 1.175 1.175 0 0 1 .468-.423 1.659 1.659 0 0 0-.675-.531 2.583 2.583 0 0 0-1.053-.189 1.914 1.914 0 0 0-1.26.351 1.216 1.216 0 0 0-.414.981 1.252 1.252 0 0 0 .468 1.071 3.978 3.978 0 0 0 1.26.585q.72.216 1.422.45a5.865 5.865 0 0 1 1.251.576 2.878 2.878 0 0 1 .882.837 2.094 2.094 0 0 1 .333 1.2 2.364 2.364 0 0 1-.333 1.251 2.8 2.8 0 0 1-.918.918 4.7 4.7 0 0 1-1.377.567 7.036 7.036 0 0 1-1.71.2 4.891 4.891 0 0 1-2.691-.63 1.949 1.949 0 0 1-.963-1.71 1.557 1.557 0 0 1 .414-1.152 1.351 1.351 0 0 1 .99-.414 1.428 1.428 0 0 1 .8.243.781.781 0 0 1 .369.693 1.146 1.146 0 0 1-.2.63 1.34 1.34 0 0 1-.45.45 1.759 1.759 0 0 0 .594.54 2.3 2.3 0 0 0 1.191.249Z" class="tblt"/><path fill="#3672ff" d="M38.39 23.719h-6.846v-8.558H48.66c0 1.691-4.351 8.558-10.27 8.558ZM0 2.934V0l9.975.02V.01L36.768 0C44.253 0 48.66 5.94 48.66 8.558H7.091C7.091 5.8 5.148 2.934 0 2.934Zm7.091 12.227h16.872v8.558H7.091Zm16.872 23.718H7.091v-8.558h16.872Zm7.58-8.558h7.58c7.683 0 11.493 6.152 11.493 8.558H31.544ZM7.091 45.482h16.872v3.668h7.58v-3.668l19.073.006c0 3.019-5.489 8.553-11.248 8.553H0v-2.935c5.107 0 7.091-2.7 7.091-5.624Z"/></svg>