<svg xmlns="http://www.w3.org/2000/svg" xml:space="preserve" viewBox="0 0 108 28"><path fill="#212121" fill-rule="evenodd" d="M8.7 18.5c1.1 0 2-.6 2-.6l.9 3.6s-1.3.8-3.4.8c-2.2 0-5.3-.8-5.3-6.4V8.8H0V5.1h2.9V2.5l4-2.5v5.1h3.8v3.7H6.9v6.5c0 2.1.4 3.2 1.8 3.2zm8.5-7.2c.5-1.5 2-2.8 4.2-2.8 2 0 3.3 1.3 3.6 2.8h-7.8zm4-6.6c-4.7 0-8.4 3.8-8.4 8.6 0 5.2 3.5 8.9 9 8.9 4.2 0 6.2-1.8 6.2-1.8l-1-3.8s-2.3 1.8-5.1 1.8c-4.6 0-5.1-3.8-5.1-3.8h11.9c1-5.3-1.8-9.9-7.5-9.9zm66.2 3.8c-2.2 0-3.6 1.3-4.2 2.8H91c-.3-1.5-1.6-2.8-3.6-2.8zM79 13.4c0-4.9 3.7-8.6 8.4-8.6 5.7 0 8.5 4.6 7.6 10H83.1s.6 3.8 5.1 3.8c2.8 0 5.1-1.8 5.1-1.8l1 3.8s-2 1.8-6.2 1.8c-5.6-.1-9.1-3.9-9.1-9zm26.6-4.9h2.3V4.9c-.6-.1-1.2-.2-1.8-.2-3.8 0-5.9 1.8-8 3.8V22h4V9.6s1.5-1.1 3.5-1.1zm-45.2.1c2-2 4.2-3.8 8-3.8 4.3 0 8.2 3.3 8.2 8.7 0 4.4-3 8.9-8.7 8.9v-3.7c2.5 0 4.6-1.8 4.6-5 0-3-1.9-5.2-4.6-5.2-2 0-3.5 1.1-3.5 1.1V28h-4V8.6zM47.5 5.3c2.2-.8 5.2-.9 7.5.6 1.6 1 2.4 2.8 2.4 4.7V22h-4v-9.9c0-2.3-.4-3.6-2.9-3.6-2.6 0-3.9 1.2-3.9 1.2V22h-4v-9.9c0-2.3-.4-3.6-2.9-3.6-2.6 0-3.9 1.2-3.9 1.2V22h-4V8.6s1.8-2.2 4.9-3.3c2.5-.9 5.9-1 8.3 1.2.7-.4 1.5-.9 2.5-1.2z" clip-rule="evenodd"/></svg>