<svg xmlns="http://www.w3.org/2000/svg" xml:space="preserve" viewBox="0 0 224 58"><style>.st0{fill:#2c2c2c}.st1{fill:#002c5f}</style><path d="M56.2 19.2h13.1v2.2h-5.5v16.1h-2.3V21.4h-5.3v-2.2z" class="st0"/><path d="M73.3 24.1c4.6 0 6 1.7 6 7 0 4.9-1.4 6.6-6 6.6s-6-1.8-6-6.6c0-5.5 1.5-7 6-7zm0 11.4c2.5 0 3.7-.3 3.7-4.5 0-4.5-.9-4.8-3.7-4.8-2.6 0-3.7.4-3.7 4.8 0 4.2 1.2 4.5 3.7 4.5zM82.1 24.2h1.8l.5 1.4c.7-.5 3.1-1.6 4.7-1.6 3.6 0 4.4 3.4 4.4 6.7 0 3.5-.6 6.9-4.4 6.9-1.1 0-3.2-.3-4.8-1v7.5H82V24.2zm6.8 11.4c1.5 0 2.3-.9 2.3-4.8 0-3.2-.8-4.6-2.3-4.6-1.8 0-3.3.5-4.5 1.1V35c1.5.4 2.7.6 4.5.6z" class="st0"/><path d="M96.9 19.2h7.2c5.6 0 6.6 5.3 6.6 9.2 0 4.5-1.8 9.1-6.6 9.1h-7.2V19.2zm7.1 16c3.1 0 4.3-3.1 4.3-6.9 0-5.2-1.6-7-4.3-7h-4.8v13.9h4.8zM118.5 24.1c3.4 0 5.3.3 5.3 4.7 0 2-1.1 3.1-3.6 3.1H115c0 2.9.7 3.5 2.6 3.5 2.3 0 4.1 0 6-.3v1.7c-2 .6-4.4.7-6.5.7-3.4 0-4.4-1.7-4.4-6.8-.1-5.8 1.6-6.6 5.8-6.6zM120 30c1 0 1.5-.4 1.5-1.2 0-2.4-.4-2.6-2.9-2.6-2.6 0-3.6 0-3.6 3.8h5zM127.8 24.2l3.9 10.2 3.9-10.2h2.5l-5.3 13.3h-2.4l-5.1-13.3h2.5zM145.4 24.1c3.4 0 5.3.3 5.3 4.7 0 2-1.1 3.1-3.6 3.1h-5.3c0 2.9.7 3.5 2.6 3.5 2.3 0 4.1 0 6-.3v1.7c-2 .6-4.4.7-6.5.7-3.4 0-4.4-1.7-4.4-6.8 0-5.8 1.7-6.6 5.9-6.6zm1.5 5.9c1 0 1.5-.4 1.5-1.2 0-2.4-.4-2.6-2.9-2.6-2.6 0-3.6 0-3.6 3.8h5zM153.3 17.9h2.3v14.7c0 2.1.6 2.6 1.4 2.8 0 0 1.9.5 2.1.5v1.6h-2.4c-2 0-3.4-1.2-3.4-4.7V17.9zM166 24.1c4.6 0 6 1.7 6 7 0 4.9-1.4 6.6-6 6.6s-6-1.8-6-6.6c0-5.5 1.6-7 6-7zm0 11.4c2.5 0 3.7-.3 3.7-4.5 0-4.5-.9-4.8-3.7-4.8-2.6 0-3.7.4-3.7 4.8.1 4.2 1.3 4.5 3.7 4.5zM174.9 24.2h1.8l.5 1.4c.7-.5 3.1-1.6 4.7-1.6 3.6 0 4.4 3.4 4.4 6.7 0 3.5-.6 6.9-4.4 6.9-1.1 0-3.2-.3-4.8-1v7.5h-2.3V24.2zm6.7 11.4c1.5 0 2.3-.9 2.3-4.8 0-3.2-.8-4.6-2.3-4.6-1.8 0-3.3.5-4.5 1.1V35c1.6.4 2.8.6 4.5.6zM194.6 24.1c3.4 0 5.3.3 5.3 4.7 0 2-1.1 3.1-3.6 3.1H191c0 2.9.7 3.5 2.6 3.5 2.3 0 4.1 0 6-.3v1.7c-2 .6-4.4.7-6.5.7-3.4 0-4.4-1.7-4.4-6.8 0-5.8 1.7-6.6 5.9-6.6zm1.5 5.9c1 0 1.5-.4 1.5-1.2 0-2.4-.4-2.6-2.9-2.6-2.6 0-3.6 0-3.6 3.8h5zM202.5 24.2h1.8l.6 1.7c1.4-.9 2.7-1.8 4.7-1.8.7 0 1.5 0 1.8.2v2.3c-.3-.1-1.2-.1-1.9-.1-1.9 0-2.9.4-4.6 1.5v9.7h-2.3V24.2zM213 27.5c0-2.1.9-3.4 3.5-3.4 1.7 0 5.5.2 6.8.5v1.6h-6.5c-1.4 0-1.5.5-1.5 1.3v1c0 1.2.6 1.3 1.5 1.3h3.8c2.3 0 3.4 1.4 3.4 3.3v1.3c0 2.7-1.7 3.3-3.3 3.3s-6.2-.3-7.1-.5v-1.6h6.8c.1 0 1.3.1 1.3-1.2v-1.1c0-.8-.3-1.2-1.3-1.2h-3.8c-2.4 0-3.6-.8-3.6-3.4v-1.2z" class="st1"/><path d="M36 9.6H3.3C1.5 9.6 0 10.8 0 12.3v33.4c0 1.5 1.5 2.7 3.3 2.7H36c1.8 0 3.3-1.2 3.3-2.7V12.3c.1-1.5-1.4-2.7-3.3-2.7z" style="fill-rule:evenodd;clip-rule:evenodd;fill:#002c5f"/><path d="M28.4 20.6s-2.2-2.8-6.7-3.2H6.2v5h4l-.1 16.5h5.7V22.3h5.9s2.4.3 3.3 2.1c0 0 1.9 3.4 0 7.4 0 0-.9 1.7-2.8 1.9l-4.7.1v5h4.1s2 0 3.9-.8c1.1-.5 2.4-1.3 3.1-2.4-.1 0 6.1-7-.2-15z" style="fill-rule:evenodd;clip-rule:evenodd;fill:#fff"/></svg>