<svg xmlns="http://www.w3.org/2000/svg" xml:space="preserve" style="enable-background:new 0 0 457.5 57.5" viewBox="0 0 457.5 57.5"><path d="M22 0h-2l-1 1h-2v1h-1c1 0 0 0 0 0h-1v1h-2v1c0 1 0 0 0 0h-1l-1 1v1h-1L9 7H8v1H7L6 9H5l-2 1H0v2a85 85 0 0 0 0 9v1l1 1v7l1 1v3l1 1v2l1 1v1h8l1-1 1-1 1-1 1-1h4l2 1 1 2 5 5s1 0 0 0h1v1l1 1 1-1-5-5v-1l-1-1h-1v-1h1v1a7 7 0 0 1 1 0l2 3 3 2 1 1v-1h1v-1l-1-1-1-1h-1l-3-4h-1l1-1v1l1 1h1v1l2 1 2 2v1h1l1-1-4-4-2-2-1-1-1-1-1-1h-5s0 1 0 0l-1 1h-1v1h-1v-1a13 13 0 0 0-2-1v-2h1v-1l3-2 2-2h-6v1h-1v1h-1v1l-1 1H4v-1l-1-1v-7l-1-2v-5h3v-1h3v-1h2V9h1l1-1 1-1h1V6h2V5h1l1-1h1l1-1h8v1h3v1h1v1h2l1 1v1h1l1 1h1v1h1l1 1h1v1h3c1 0 0 0 0 0l1 1v10l-1 2v1h3v-5l1-11h-5l-1-1h-1l-1-1h-1V7h-1V6l-2-1-1-1h-1V3h-1V2h-2c1 0 1 0 0 0l-1-1h-1l-1-1h-6m7 12-2 2-2 3-3 2v-1s-1 0 0 0h-1v-1h-1l-1-1v-1h-1l-1-1v1h-1 1v1l1 1 2 2 1 1 1 1 1-1v-1h1v-1h1l4-4a45 45 0 0 0 3-3l-1-1-2 2m-9 14-2 2-1 1v2h1l1 1v-1h2v-1h5l2 2 3 3 2 1v1h1l1 1v1h6-1v2h-1v2h-1v1l-1 1-4 3v1l-1 1h-1v1h-1l-1 1h-1v1h-1l-1 1h-1v1l-3-2h-2v-1h-1v-1h-1v-1h-2v-1l-3-2-1-1-1-2-1-1-1-1v-1H7c-2 0-2 0-1 1v1a8 8 0 0 0 1 1l2 2 5 5v1h1l1 1h1v1l2 1 1 1h2v1h4v-1l2-1h1l1-1h1v-1h1v-1h1l1-1 1-1h1v-1h1v-1h1l2-3v-1h1v-1h1v-1l1-2 1-1 1-2v-2h1v-5l1-1v-2H36l-1-1v-1l-2-1v-1H23l-3 3m-2 10h-2v1h-1l-1 1-1 1v1c-1 0 0 0 0 0l1 1 5-5h-1m2 1h-1l-1 1v1h-1v1l-2 2h1v1l4-3v-1l1-1v-1l-1-1v1m2 2h-1l-2 2-2 3h1v1l1-1 1-1 1-1 2-2v-1l-1-1v1m2 2h-1v1l-2 2-2 1h3l1-1 1-1 1-1v-1h-1c0-1 0-1 0 0m2 2h-1v1h-1l1 1h4-1v-1l-1-1h-1c0-1 0-1 0 0M56 3l-1 5v4h16v44h11V12h8a33 33 0 0 1 8 0L97 2 56 3m166 0v53h11V34h22V24h-22V12h26V3l-18-1-19 1m47 0v9h10V2h-5l-5 1m148 0v3h7v16h2c2 0 2 1 2-8V6h6V5c0-3 1-3-8-3l-9 1m20 0-1 4v5l-1 5v5h4v-1l1-8h1v2l1 1 1 1v1l2 1c2 0 2 0 4-3l1-3v-1 2l1 2v6h4a193 193 0 0 0-1-18c-1-2-1-2-3-2l-3 3-1 3-1 2v1l-1 1c0 1 0 1 0 0l-1-2-1-2-1-1-1-2V3h-4M117 17h-1l-4 4-1 1v-5h-5l-5 1v19l1 19h10v-9a105 105 0 0 1 1-11c0-8 4-12 9-9 1 1 3 0 3-2v-1l1-2v-2c1-1 1-2-1-3h-1l-4-1-3 1m74 0h-2l-6 3-3 3v1l-2 2v1l-1 3v1l-1 11 1 2c0 2 1 5 3 7l4 4c1-1 1-1 0 0h1l1 1 4 1 13-1 1-1 3-2 3-4 1-2v-2h-1l-2-1h-7c0 2-2 4-4 4l-1 1h-1l-4-1-3-3-1-4v-1h25V30l-1-2-1-1-1-3-1-1v-1l-2-1-2-2-5-2h-8m115 0-4 4-1 1v-5h-5l-5 1v38h10l1-8V32c1-3 3-6 5-6h2l2 1h3v-2l1-2 1-1v-4l-4-1h-6m33 0h-2v1h-1l-1 1-3 2v1l-1-2v-2l-5-1h-5v40h11V47a78 78 0 0 1 1-17l2-3 1-1 2-1h3l1 1 2 2v15l1 13 5 1h5V45a142 142 0 0 1 1-12l2-6 1-1c1-2 6-1 7 1l1 2v13l1 14v1l10-1V26l-4-7-1-1h-1l-1-1h-10l-2 1-2 2-2 1-1 1-4-4h-1c-1-1-7-2-10-1m59 0-4 1-4 3v1h-1v1l-1 2-1 2h1c-1 1 0 6 1 7l1 2 4 2 1 1h2l7 2 2 1 2 1c4 0 5 3 1 5l-8 1-1-1-3-4v-1h-3l-4 1h-2l-2 1v1l2 3v1l5 4 1 1 2 1c3 2 17 1 20-2l3-2 1-1c2-2 3-8 2-10v-1c-1-3-4-5-8-7h-2l-3-1-3-1h-2l-2-1h-1l-2-1-2-3c1-3 13-2 13 1v1h9c2 0 2 0 1-2v-2l-1-1-5-5c-3-1-12-2-16-1M132 32l1 15 2 6 6 3h10a20 20 0 0 0 6-3v-1l1 2c0 3 0 3 5 2h5V18l-5-1h-6v11a156 156 0 0 1-1 17l-2 2h-1c-1 2-7 2-8 0-2-2-2-2-2-17V17h-11v15m137-14v38l5 1h6V17h-6l-5 1m-73 7c2 0 4 2 4 3l1 1 1 4h-15l2-5 4-3h3" style="fill-rule:evenodd;clip-rule:evenodd;fill:#f47464"/></svg>