<svg xmlns="http://www.w3.org/2000/svg" xml:space="preserve" viewBox="0 0 512 512"><path fill="#febe76" d="M331 66.36v40H181v-40h43.93l30.71-30.72 30.72 30.72z"/><path fill="#e8a664" d="M183.5 76.19h43.93l30.71-30.72 30.72 30.72H331v-9.83h-44.64l-30.72-30.72-30.71 30.72H181v40h2.5z"/><path fill="#a8cfff" d="M331 336.36v-40h150v140H331z"/><path fill="#8bbae8" d="M341.17 347.03v-40H481v-10.67H331v140h10.17z"/><path fill="#fcd884" d="M31 266.36v-40h150v210H31z"/><path fill="#eabf6a" d="M40.67 276.69v-40H181v-10.33H31v210h9.67z"/><path fill="#ff7979" d="M181 186.36v-40h150v290H181v-250z"/><path fill="#d65b5b" d="M191 237.86v-80h140v-11.5H181v290h10z"/><path d="M284.37 331.51v14.85h-49.82v-14.85h17.42v-37.18c-.73.98-1.9 1.98-3.49 3.01a49.14 49.14 0 0 1-5.22 2.88 36.5 36.5 0 0 1-5.83 2.21c-2 .57-3.78.86-5.34.86v-15.34c1.48 0 3.28-.47 5.4-1.41a51.55 51.55 0 0 0 11.6-7.24c1.51-1.27 2.47-2.27 2.88-3.01h16.81v55.22h15.59zM331 301.36a5 5 0 0 1-5-5v-145H186v75a5 5 0 0 1-10 0v-80a5 5 0 0 1 5-5h150a5 5 0 0 1 5 5v150a5 5 0 0 1-5 5zM331 441.36H181a5 5 0 1 1 0-10h150a5 5 0 1 1 0 10z"/><path d="M481 441.36H331a5 5 0 0 1-5-5v-140a5 5 0 0 1 5-5h150a5 5 0 0 1 5 5v140a5 5 0 0 1-5 5zm-145-10h140v-130H336v130zM181 441.36H31a5 5 0 0 1-5-5v-210a5 5 0 0 1 5-5h150a5 5 0 0 1 5 5v210a5 5 0 0 1-5 5zm-145-10h140v-200H36v200z"/><path d="M421 341.36h-90a5 5 0 1 1 0-10h90a5 5 0 1 1 0 10zM271 191.36h-90a5 5 0 0 1 0-10h90a5 5 0 1 1 0 10zM121 271.36H31a5 5 0 1 1 0-10h90a5 5 0 1 1 0 10zM331 111.36H181a5 5 0 0 1-5-5v-40a5 5 0 0 1 5-5h41.86l29.24-29.25a5 5 0 0 1 7.08 0l29.25 29.25H331a5 5 0 0 1 5 5v40a5 5 0 0 1-5 5zm-145-10h140v-30h-39.64a5 5 0 0 1-3.54-1.46L255.64 42.7 228.47 69.9a5 5 0 0 1-3.54 1.46H186v30zM481 481.36H31a5 5 0 1 1 0-10h450a5 5 0 1 1 0 10z"/></svg>