<svg xmlns="http://www.w3.org/2000/svg" xml:space="preserve" viewBox="0 0 512 512"><path fill="#febe76" d="M331 66v40H181V66h44l31-30 30 30z"/><path fill="#e8a664" d="M184 76h43l31-31 31 31h42V66h-45l-30-30-31 30h-44v40h3z"/><path fill="#a8cfff" d="M331 336v-40h150v140H331z"/><path fill="#8bbae8" d="M341 347v-40h140v-11H331v140h10z"/><path fill="#fcd884" d="M31 266v-40h150v210H31z"/><path fill="#eabf6a" d="M41 277v-40h140v-11H31v210h10z"/><path fill="#ff7979" d="M181 186v-40h150v290H181V186z"/><path fill="#d65b5b" d="M191 238v-80h140v-12H181v290h10z"/><path d="M284 332v14h-49v-14h17v-38l-4 3a49 49 0 0 1-5 3 37 37 0 0 1-6 2l-5 1v-15l5-1a52 52 0 0 0 12-8l3-3h17v56h15zm47-31a5 5 0 0 1-5-5V151H186v75a5 5 0 0 1-10 0v-80a5 5 0 0 1 5-5h150a5 5 0 0 1 5 5v150a5 5 0 0 1-5 5zm0 140H181a5 5 0 1 1 0-10h150a5 5 0 1 1 0 10z"/><path d="M481 441H331a5 5 0 0 1-5-5V296a5 5 0 0 1 5-5h150a5 5 0 0 1 5 5v140a5 5 0 0 1-5 5zm-145-10h140V301H336v130zm-155 10H31a5 5 0 0 1-5-5V226a5 5 0 0 1 5-5h150a5 5 0 0 1 5 5v210a5 5 0 0 1-5 5zM36 431h140V231H36v200z"/><path d="M421 341h-90a5 5 0 1 1 0-10h90a5 5 0 1 1 0 10zM271 191h-90a5 5 0 0 1 0-10h90a5 5 0 1 1 0 10zm-150 80H31a5 5 0 1 1 0-10h90a5 5 0 1 1 0 10zm210-160H181a5 5 0 0 1-5-5V66a5 5 0 0 1 5-5h42l29-29a5 5 0 0 1 7 0l29 29h43a5 5 0 0 1 5 5v40a5 5 0 0 1-5 5zm-145-10h140V71h-40a5 5 0 0 1-3-1l-27-27-28 27a5 5 0 0 1-3 1h-39v30zm295 380H31a5 5 0 1 1 0-10h450a5 5 0 1 1 0 10z"/></svg>