<svg xmlns="http://www.w3.org/2000/svg" xmlns:xlink="http://www.w3.org/1999/xlink" xml:space="preserve" id="Layer_1" x="0" y="0" version="1.1" viewBox="0 0 500 500"><style>.st0{fill:#ebebeb}.st1{fill:#e0e0e0}.st2{fill:#f0f0f0}.st3{fill:#fff}.st4{fill:#f5f5f5}.st5{fill:#fafafa}.st6{fill:#e6e6e6}.st7{fill:#ff8b7b}.st8{fill:#263238}.st9{opacity:.2;enable-background:new}.st10{fill:#44a4ff}.st11,.st15{opacity:.4;enable-background:new}.st15{opacity:.2;fill:#fff}</style><g id="freepik--background-complete--inject-2"><path d="M0 382.4h500v.2H0zM52.5 391.9h77.9v.2H52.5zM412 399.5h37.9v.2H412zM131.4 401.2h19.2v.2h-19.2zM202.2 389.2h43.2v.2h-43.2zM254.3 389.2h6.3v.2h-6.3zM327.7 395.3h43.2v.2h-43.2zM237 337.8H43.9a5.8 5.8 0 0 1-5.7-5.7V60.7c0-3.1 2.6-5.7 5.7-5.7H237c3.2 0 5.7 2.6 5.7 5.7v271.4c0 3.1-2.5 5.7-5.7 5.7zM43.9 55.2c-3 0-5.5 2.4-5.5 5.5v271.4c0 3 2.4 5.5 5.5 5.5H237c3 0 5.5-2.4 5.5-5.5V60.7c0-3-2.4-5.5-5.5-5.5H43.9zM453.3 337.8H260.2a5.7 5.7 0 0 1-5.7-5.7V60.7c0-3.1 2.6-5.7 5.7-5.7h193.1c3.1 0 5.7 2.5 5.7 5.7v271.4c0 3.1-2.5 5.7-5.7 5.7zM260.2 55.2c-3 0-5.5 2.4-5.5 5.5v271.4c0 3 2.4 5.5 5.5 5.5h193.1c3 0 5.5-2.4 5.5-5.5V60.7c0-3-2.4-5.5-5.5-5.5H260.2z" class="st0"/><circle cx="143.8" cy="137.8" r="52.4" class="st1"/><circle cx="147.8" cy="137.8" r="52.4" class="st2"/><circle cx="147.8" cy="137.8" r="38.1" class="st3"/><path d="M170.6 161.5c-.3 0-.6-.1-.8-.3L147 138.7c-.4-.5-.4-1.2.1-1.7.4-.4 1.1-.4 1.6 0l22.8 22.5c.5.5.4 1.2 0 1.7l-.9.3z" class="st4"/><path d="M127.1 151.4c-.8 0-1.5-.7-1.5-1.5 0-.5.3-1 .8-1.3l20-11.6v-29.3c0-.8.7-1.5 1.5-1.5s1.5.7 1.5 1.5v30.2c0 .5-.3 1-.8 1.3l-20.7 12-.8.2z" class="st1"/><path d="M70.6 382.4h151.3l-14.5-151.7H56.1z" class="st2"/><path d="M70.6 382.4H68L53.5 230.7h2.6z" class="st1"/><path d="M83.1 372.8h124.5l-12.7-132.5H70.4z" class="st5"/><path d="m120.6 291.1-10.9-16.2-4.6-34.6H91.8l11.6 37.9 13.4 15.2 14.3 31.9-16.7 22.2.1 25.3h3.7l-2.1-24.5 16.9-22.8z" class="st1"/><path d="m165.5 328.5 14.5-23.8 20-12.1-1.3-13.3-22.6 18.9-13.2 26.2-30.7.2-30.6-22.3-25.5-2.2.3 3.7 24.6.2 31.2 22.4z" class="st1"/><path d="m155.9 308.5-18.8-34 11.1-34.2h13.3L144 277.8l16.3 33-28 14.5 23.3 28.6 38.5 18.9h-3.7l-36.3-18.1-23-29.2z" class="st1"/><path d="M375.9 257.8H297l-4.8-55.2h78.9z" class="st6"/><path d="M380 257.8h-78.9l-4.8-55.2h78.9z" class="st2"/><path d="m311.9 245.9-2.6-31.5h55.1l2.6 31.5z" class="st3"/><path d="M403 257.8h19.9v124.6H403z" class="st6"/><path d="M417.7 382.4h5.3v-9.6h-10.8z" class="st5"/><path d="M254.4 257.8h19.9v124.6h-19.9z" class="st6"/><path d="M269.8 257.8H423v122H269.8z" class="st5"/><path d="M419.4 297.2h-146v-34.5h146v34.5zm-145-1h144v-32.5h-144v32.5z" class="st6"/><path d="M387.5 279.4h-78.8c-5.3 0-10.4-4.3-14-11.7l-.3-.7h107.4l-.4.7c-3.5 7.5-8.6 11.7-13.9 11.7zM296 268c3.4 6.6 8 10.4 12.7 10.4h78.8c4.7 0 9.3-3.8 12.7-10.4H296z" class="st6"/><path d="M275 382.4h-5.2v-9.6h10.7z" class="st5"/><path d="M419.4 336h-146v-34.4h146V336zm-145-1h144v-32.4h-144V335z" class="st6"/><path d="M387.5 318.3h-78.8c-5.3 0-10.4-4.3-14-11.7l-.3-.7h107.4l-.4.7c-3.5 7.4-8.6 11.7-13.9 11.7zM296 306.9c3.4 6.6 8 10.4 12.7 10.4h78.8c4.7 0 9.3-3.8 12.7-10.4H296zM419.4 374.9h-146v-34.5h146v34.5zm-145-1h144v-32.5h-144v32.5z" class="st6"/><path d="M387.5 357.2h-78.8c-5.3 0-10.4-4.3-14-11.7l-.3-.7h107.4l-.4.7c-3.5 7.4-8.6 11.7-13.9 11.7zM296 345.8c3.4 6.6 8 10.4 12.7 10.4h78.8c4.7 0 9.3-3.8 12.7-10.4H296z" class="st6"/></g><g id="freepik--Shadow--inject-2"><ellipse id="freepik--path--inject-2" cx="250" cy="416.2" class="st4" rx="193.9" ry="11.3"/></g><g id="freepik--character-1--inject-2"><path d="M224.3 408.7h-8l-1-18.6h8z" class="st7"/><path d="M224.6 407.1h-9.8c-.3 0-.6.2-.6.5l-.1 7.1c0 .8.7 1.4 1.5 1.4l9.4-.2 11 .3c3.4 0 3.1-3.3 1.7-3.6a25.4 25.4 0 0 1-11.6-5 3 3 0 0 0-1.5-.5z" class="st8"/><path d="M223.3 390.1h-8l.5 9.6h8z" class="st9"/><path d="M209.1 224.8s12.6 58.4 14.9 81.9c2.5 25.7 1.6 90.5 1.6 90.5h-12.7l-9.1-87.7c-2.8-28.5-23.7-80.8-23.7-80.8l29-3.9z" class="st10"/><path d="M193.6 244c-2-4.2-5-2.3-7.5.5 3.3 9.2 7.5 21.4 11 33.6 1-12.8-.1-27-3.5-34.1z" class="st11"/><path d="M226.6 397.5h-14.5l-1-5.2 16.2-.3z" class="st8"/><path d="M227.5 408.5c-.7 0-1.5-.1-2.2-.3l-.2-.2.1-.2c.3-.2 2.5-1.8 3.5-1.3.2.1.4.3.4.5.1.3.1.7-.2 1-.3.4-.8.6-1.4.5zm-1.6-.5c1.4.3 2.5.2 2.8-.1.2-.2.2-.4.1-.7l-.2-.2c-.5-.3-1.8.4-2.7 1z" class="st10"/><path d="M225.4 408.2h-.1l-.1-.2c0-.1-.3-2.4.5-3.2.2-.2.5-.3.8-.2.3 0 .6.2.7.5.3.9-1 2.7-1.8 3.1zm1-3.2-.4.2c-.5.5-.5 1.8-.4 2.5.7-.6 1.4-2 1.2-2.5 0-.1 0-.2-.4-.2z" class="st10"/><path d="M166.7 408.7h8l2.9-18.6h-8z" class="st7"/><path d="M175.8 407.1H166c-.3 0-.6.2-.7.5l-1.6 7.1c-.1.6.3 1.3.9 1.4h.3l9.4-.2 11.6.3c3.4 0 3.8-3.3 2.4-3.6a23.8 23.8 0 0 1-11.3-5c-.3-.3-.7-.5-1.2-.5z" class="st8"/><path d="m205.4 162.8 1.6 4.2 1.8 4.2c1.2 2.8 2.6 5.6 3.9 8.3 1.4 2.6 2.9 5.2 4.5 7.7 1.5 2.3 3.3 4.4 5.2 6.3l.7.6.7.5 1.5.9 3.5 1.6a69.3 69.3 0 0 0 17.5 2.1l4.6-.1 4.6-.3 1.3 5.9a52.5 52.5 0 0 1-9.8 2.4c-3.4.6-6.8.9-10.2 1a42.8 42.8 0 0 1-16.2-2.9l-2.7-1.4-1.3-.9-1.2-.9c-2.9-2.3-5.4-5-7.6-8a81.3 81.3 0 0 1-10.3-17.8l-2-4.6-1.8-4.8 11.7-4z" class="st7"/><path d="M185 163.6c-.7 8.9 16.4 24.9 16.4 24.9l12.4-13.4a31.3 31.3 0 0 0-6.5-12.2c-8.7-10.5-21.6-9.3-22.3.7z" class="st8"/><path d="M254.6 198.8h7.4l-2 8.5s-3-.3-6.6-3.6l1.2-4.9zM266.5 201.5l-1.9 4.1c-.3.5-.7.9-1.3 1l-3.2.7 2-8.5 2.8.1c1 0 1.8.9 1.8 1.9l-.2.7z" class="st7"/><path d="M169.6 390.1h8l-1.5 9.6h-8z" class="st9"/><path d="M157 168.8c8.2 27.8 8.4 55.8 9.5 61.8l42.6-5.7c2.2-34.5-4.4-56-7.8-64.5a7.6 7.6 0 0 0-6.4-4.6l-2.1-.1-3.8-.1-2.2.1c-6.1.5-12.1 1.3-18.1 2.5l-3.4.7-3 .7h-.1a7.4 7.4 0 0 0-5.2 9.1v.1z" class="st8"/><path d="m164 176.4-3.6 6.1 1.7 8.9c3.4-6.8 1.9-15 1.9-15z" class="st11"/><path d="M194 226.8s1.4 61.5-.5 85c-2.1 25.7-14.4 85.4-14.4 85.4h-12.7s4.4-59.9 6.5-85c2.4-28.5-6.4-81.7-6.4-81.7l27.5-3.7z" class="st10"/><path d="M179.6 397.5h-14.5v-5.2l16.3-.3z" class="st8"/><path d="m178.5 408.5-2.1-.3c-.1 0-.2-.1-.1-.3l.1-.1c.3-.2 2.9-1.8 3.8-1.3.2.1.3.3.3.5 0 .4-.1.8-.4 1-.5.4-1.1.6-1.6.5zm-1.6-.5c1.4.3 2.4.2 2.9-.1.2-.2.3-.4.3-.7l-.1-.2c-.5-.3-2 .4-3.1 1z" class="st10"/><path d="M176.4 408.2h-.1l-.1-.2c0-.1.2-2.4 1.1-3.2.2-.2.5-.3.8-.2.3 0 .5.2.6.5.2.9-1.4 2.7-2.3 3.1zm1.6-3.2-.4.2c-.6.7-.9 1.6-1 2.5.8-.6 1.9-2 1.8-2.5-.1 0-.1-.2-.4-.2z" class="st10"/><path d="m167.7 173.3-2.7 3.6-2.8 3.4a94 94 0 0 1-16.2 15.5l-1.9 1.4-1 .6-.5.3-.2.2-.3.2a37.3 37.3 0 0 1-9.1 3.6c-2.9.9-5.7 1.5-8.6 2.2-5.7 1.2-11.4 2.1-17.2 2.8l-1.3-5.9 15.9-5.6c2.6-.9 5.2-1.9 7.7-3l3.6-1.6 2.9-1.6.1-.1.2-.1.4-.3.8-.6 1.5-1.2 2.9-2.6c1.9-1.8 3.8-3.8 5.6-5.8l5.4-6.2 2.6-3.2 2.5-3.1 9.7 7.1z" class="st7"/><path d="M170.2 166c-.2 13.2-12.3 22.4-12.3 22.4l-12-10.6s.1-6.8 7.5-13.3c8.2-7.1 16.9-7.8 16.8 1.5z" class="st8"/><path d="m108.7 201.8-6.9-4.3-1.3 10.2s6.7 2.4 8.3-1l-.1-4.9zM94.8 201.5l-.1 1.5a3.9 3.9 0 0 0 3.3 4.2l2.5.4 1.3-10.2-3.4.3a4.3 4.3 0 0 0-3.6 3.8z" class="st7"/><defs><path id="SVGID_1_" d="M213.9 175a31.3 31.3 0 0 0-6.5-12.2c-4.4-5.2-9.9-7.5-14.3-7.2h-.4l-3.8-.1-2.2.1c-6.1.5-12.1 1.3-18.1 2.5l-3.4.7-2.9.7h-.2a21 21 0 0 0-8.6 5.1c-7.4 6.6-7.5 13.3-7.5 13.3l12 10.6a44 44 0 0 0 3.2-2.9c4.3 21.5 4.6 40.2 5.4 45l42.6-5.7c1-14.2.4-28.5-1.9-42.5l6.6-7.4z"/></defs><clipPath id="SVGID_00000000180288472866168190000017328014980277541768_"><use xlink:href="#SVGID_1_" overflow="visible"/></clipPath><g clip-path="url(#SVGID_00000000180288472866168190000017328014980277541768_)" opacity=".2"><path d="M183.3 245.2a19 19 0 0 0-.6-3.3c-.8-3.3-1.8-7.4 1-16.9 1.2-4.2 1.6-9.3.8-11.9-.7-1.9-1.9-3.5-3.3-4.9-1.5-1.6-3-3.2-3.6-5.6-.8-3.2.4-6.8 1.5-9.7l.5-1.3c1-2.6 2.1-5.2 2.3-7.9.1-3.3-1.2-6.3-2.5-9.1l-.6-1.2c-1.4-3.2-3.1-7.9-1.5-12.6l1.1-2.5c.6-1.1 1.1-2.3 1.4-3.6.3-1.7-.2-3.5-1.5-4.7a3.4 3.4 0 0 0-3.3-1l-.2-.9c1.5-.3 3.1.2 4.1 1.2a6.1 6.1 0 0 1 1.7 5.6c-.3 1.3-.8 2.6-1.5 3.8l-1.1 2.4c-1.2 3.3-.7 7.1 1.4 11.9l.6 1.2c1.4 2.9 2.8 6 2.6 9.6-.3 2.8-1.1 5.6-2.3 8.2l-.5 1.2c-1.1 2.7-2.2 6.2-1.5 9.1.6 2.1 1.9 3.6 3.4 5.2 1.6 1.4 2.8 3.2 3.5 5.2.8 2.7.5 8-.8 12.4-2.7 9.3-1.8 13.3-1 16.4.3 1.1.5 2.3.6 3.5l-.7.2zM171.9 242.5a19 19 0 0 0-.6-3.3c-.8-3.3-1.8-7.4 1-16.9 1.2-4.2 1.6-9.3.8-11.9-.7-1.9-1.9-3.5-3.3-4.9-1.5-1.6-3-3.2-3.6-5.6-.8-3.2.4-6.9 1.5-9.7l.5-1.3c1.1-2.6 2.1-5.2 2.3-7.9.1-3.3-1.2-6.3-2.5-9.1l-.6-1.2c-1.4-3.2-3.1-7.9-1.5-12.6l1.1-2.5c.6-1.1 1.1-2.3 1.4-3.6.3-1.7-.2-3.5-1.5-4.7a3.4 3.4 0 0 0-3.3-1l-.2-.9c1.5-.3 3.1.2 4.1 1.2a6.1 6.1 0 0 1 1.7 5.6c-.3 1.3-.8 2.6-1.5 3.8l-1.1 2.4c-1.2 3.3-.7 7.1 1.4 11.9l.6 1.2c1.4 3 2.8 6 2.6 9.6-.3 2.8-1.1 5.6-2.3 8.2l-.5 1.2c-1.1 2.7-2.2 6.2-1.5 9.1.5 2.1 1.9 3.6 3.4 5.2 1.6 1.4 2.8 3.2 3.6 5.2.8 2.7.5 8-.8 12.4-2.8 9.3-1.8 13.3-1 16.4.3 1.1.5 2.3.6 3.5l-.8.2zM160.4 239.9a19 19 0 0 0-.6-3.3c-.8-3.3-1.8-7.4 1-16.9 1.2-4.2 1.6-9.3.8-11.9-.7-1.9-1.9-3.5-3.3-4.9-1.5-1.6-3-3.2-3.6-5.6-.8-3.2.4-6.9 1.5-9.7l.5-1.3c1.1-2.6 2.1-5.2 2.3-7.9.1-3.3-1.2-6.3-2.5-9.1l-.6-1.2c-1.4-3.2-3.1-7.9-1.5-12.6l1.1-2.5c.6-1.1 1.1-2.3 1.4-3.6.3-1.7-.2-3.5-1.5-4.7a3.4 3.4 0 0 0-3.3-1l-.2-.9c1.5-.3 3.1.2 4.1 1.2a6.1 6.1 0 0 1 1.7 5.6c-.3 1.3-.8 2.6-1.5 3.8l-1.1 2.4c-1.2 3.3-.7 7.1 1.4 11.9l.6 1.2c1.4 2.9 2.8 6 2.6 9.6-.3 2.8-1.1 5.6-2.3 8.2l-.5 1.3c-1.1 2.7-2.2 6.2-1.5 9.1.5 2.1 1.9 3.6 3.4 5.2 1.6 1.4 2.8 3.2 3.6 5.2.8 2.7.5 8-.8 12.4-2.8 9.3-1.8 13.3-1 16.4.3 1.1.5 2.3.6 3.5l-.8.1zM194.8 247.8a19 19 0 0 0-.6-3.3c-.8-3.3-1.8-7.3 1-16.9 1.2-4.2 1.6-9.3.8-11.9-.7-1.9-1.9-3.5-3.3-4.9-1.5-1.6-3-3.2-3.6-5.6-.8-3.2.4-6.8 1.5-9.7l.5-1.3c1.2-2.5 2-5.2 2.2-7.9.1-3.3-1.2-6.3-2.5-9.1l-.6-1.2c-1.4-3.2-3.1-7.9-1.5-12.6l1.1-2.5c.6-1.1 1.1-2.3 1.4-3.6.3-1.7-.2-3.5-1.5-4.7a3.4 3.4 0 0 0-3.3-1l-.2-.9c1.5-.3 3.1.2 4.1 1.2a6.1 6.1 0 0 1 1.7 5.6c-.3 1.3-.8 2.6-1.5 3.8l-1.1 2.4c-1.2 3.3-.7 7.1 1.4 12l.6 1.2c1.4 2.9 2.8 6 2.6 9.6a24 24 0 0 1-2.3 8.2l-.5 1.3c-1.1 2.7-2.2 6.1-1.5 9.1.5 2.1 1.9 3.6 3.4 5.2 1.6 1.4 2.8 3.2 3.5 5.2.8 2.7.5 8-.8 12.4-2.8 9.3-1.8 13.3-1 16.4.3 1.1.5 2.3.6 3.5h-.6zM206.2 250.5a19 19 0 0 0-.6-3.3c-.8-3.3-1.8-7.3 1-16.9 1.2-4.2 1.6-9.3.8-11.9-.7-1.9-1.9-3.5-3.3-4.9-1.5-1.6-3-3.2-3.6-5.6-.8-3.2.4-6.9 1.5-9.7l.5-1.3c1-2.6 2.1-5.2 2.2-7.9.1-3.3-1.2-6.3-2.5-9.1l-.6-1.2c-1.4-3.2-3.1-7.9-1.5-12.6l1.1-2.5c.6-1.1 1.1-2.3 1.4-3.6.3-1.7-.2-3.5-1.5-4.7a3.4 3.4 0 0 0-3.3-1l-.2-.9c1.5-.3 3.1.2 4.1 1.3a6 6 0 0 1 1.7 5.6c-.3 1.3-.8 2.6-1.5 3.8l-1.1 2.4c-1.2 3.3-.7 7.1 1.4 11.9l.6 1.2c1.4 3 2.8 6 2.6 9.6a24 24 0 0 1-2.3 8.2l-.5 1.3c-1.1 2.7-2.2 6.2-1.5 9.1.5 2.1 1.9 3.6 3.4 5.2 1.6 1.4 2.8 3.2 3.5 5.2.8 2.7.5 8-.8 12.4-2.8 9.3-1.8 13.3-1 16.4.3 1.1.5 2.3.6 3.5h-.6zM217.7 253.1a19 19 0 0 0-.6-3.3c-.8-3.3-1.8-7.4 1-16.9 1.2-4.2 1.6-9.3.8-11.9-.7-1.9-1.9-3.5-3.3-4.9-1.5-1.6-3-3.2-3.6-5.6-.8-3.2.4-6.9 1.5-9.7l.5-1.3c1.1-2.6 2.1-5.2 2.3-7.9.1-3.3-1.2-6.3-2.5-9.1l-.6-1.2c-1.4-3.2-3.1-7.9-1.5-12.6l1.1-2.5c.6-1.1 1.1-2.3 1.4-3.6.3-1.7-.2-3.5-1.5-4.7a3.4 3.4 0 0 0-3.3-1l-.2-.9c1.5-.3 3.1.1 4.1 1.2a6 6 0 0 1 1.7 5.6c-.3 1.3-.8 2.6-1.5 3.8l-1.1 2.4c-1.2 3.3-.7 7.1 1.4 11.9l.6 1.2c1.4 3 2.8 6 2.6 9.6a24 24 0 0 1-2.3 8.2l-.5 1.3c-1.1 2.7-2.2 6.2-1.5 9.1.5 2.1 1.9 3.6 3.4 5.2 1.6 1.4 2.8 3.2 3.5 5.2.8 2.7.5 8-.8 12.4-2.8 9.3-1.8 13.3-1 16.4.3 1.1.5 2.3.6 3.5l-.7.1z" class="st3"/></g><path d="M167.8 137.4c1.9 5.7 4.5 16.2 1 20.6 3.6 2.7 8.2 5.8 15.1 5.1s5.1-5.3 2.9-7.5c-6.7-.7-7.2-5.5-6.7-10.2l-12.3-8z" class="st7"/><path d="m172.8 140.6 7.3 4.7c-.1 1.1-.2 2.2-.1 3.3-2.5 0-6.3-2.3-6.9-4.8-.3-1.1-.4-2.1-.3-3.2z" class="st9"/><path d="M177.1 123.1c-1.6-7.6 5.2-10 8.6-5.2s-6.4 15.7-8.6 5.2z" class="st8"/><path d="M163.4 131.1c3.1 7.3 4.6 11.8 9.8 14.2 7.8 3.7 15.8-3 14.9-11.1-.8-7.3-5.8-18-14.2-18.4a11 11 0 0 0-10.5 15.3z" class="st7"/><path d="M163.7 137.2c2.4-.8 4.1-7.1 2.3-11.8 4.2-1.3 16.6-4.2 17.9-14.8.5-3.8-4.8-4-5.5-.8-1.9-2.8-10.6-2.8-9.9 2-7.1-5.4-22.2 1.9-11.3 10.2-8.9 2.2-9.9 10.4 6.5 15.2z" class="st8"/><path d="M150.8 123.3c-.6 0-1-.4-1-1 0-.4.3-.8.7-.9 5.7-2 9.2 0 9.3.1.4.3.5 1 .2 1.4a1 1 0 0 1-1.2.3c-.1-.1-2.9-1.6-7.6.1-.1 0-.3.1-.4 0zM177.7 118.3c-.6 0-1-.4-1.1-.9s.4-1 .9-1.1c.1 0 6.4-1.2 7-5.3.1-.6.6-.9 1.2-.8.6.1.9.6.8 1.2-.9 5.6-8.4 7-8.7 7l-.1-.1z" class="st8"/><path d="M161.9 138.7a7.8 7.8 0 0 0 5.1 2.7c2.6.2 3.5-2.2 2.3-4.5-1-2-3.6-4.6-6.1-3.8s-2.8 3.7-1.3 5.6z" class="st7"/><path d="M175.4 129.1c.2.6.7 1 1.1.8s.5-.8.3-1.4-.7-1-1.1-.8-.5.8-.3 1.4zM182.3 126.7c.2.6.7 1 1.1.8s.6-.8.3-1.4-.7-1-1.1-.8-.5.8-.3 1.4z" class="st8"/><path fill="#ff5652" d="M180.3 127.8c1.4 1.6 3 3 4.8 4.2-.6.9-1.6 1.5-2.7 1.6l-2.1-5.8z"/><path d="M178.3 136.3c1.1-1 2.5-1.4 4-1.3l.2.2-.2.2c-1.6-.1-3.2.5-4.3 1.8h-.3v-.3l.6-.6zM174.5 124.7h.2c.2.1.3.3.3.5a3.9 3.9 0 0 1-2.4 2.6c-.2 0-.4-.1-.4-.3l.2-.4c.9-.3 1.6-1.1 1.8-2 0-.3.1-.4.3-.4zM181.2 122c.1-.1.2-.1.4 0 .8.5 1.9.5 2.7.1.2-.1.4 0 .5.2.1.2 0 .4-.1.5a4 4 0 0 1-3.5-.1c-.2-.1-.2-.3-.1-.5l.1-.2z" class="st8"/><path d="M150.5 240c-1.8-4-2.8-12.1-2.8-12.1l8-10.2-4.8-29.1-8-14.6 6.5-14-7.1-12c.4-1.8 1-3.6 1.7-5.4l-4.4-3.6-7 9.3 7 82.1 7.2 15.8 3.7-6.2z" class="st10"/><path d="M150.5 240c-1.8-4-2.8-12.1-2.8-12.1l8-10.2-4.8-29.1-8-14.6 6.5-14-7.1-12c.4-1.8 1-3.6 1.7-5.4l-4.4-3.6-7 9.3 7 82.1 7.2 15.8 3.7-6.2z" class="st9"/><path d="m143.7 232.7 8.8-11.2-5.2-32-8.7-16.1 7.1-15.4-7.9-13.2c.5-2 1.1-4 1.8-5.9a37.4 37.4 0 0 0-48.1 57.2l55.3 49.9c-2-4.4-3.1-13.3-3.1-13.3z" class="st10"/><path d="M134.6 135.6c-1.5 7.3-7.2 12.8-9.3 14.9l-1.5 1.4c-2.7 2.6-5.4 5.2-6.1 7.6-.5 1.8-.1 4.4.4 7.1l.3 1.7c.8 4.6 1.3 11.4-2.8 17.1-2.8 4-6.8 6-10.4 7.9a16.7 16.7 0 0 0-5.3 3.5c-1 1.6-1.6 3.4-1.9 5.2l-6.6-6a45 45 0 0 1-4.7-5.1c.6-1.1 1.2-2.2 2-3.1 2.8-3.6 6.6-5.5 9.9-7.2 2.2-1.1 4.5-2.3 5.4-3.5s.9-3.1.3-6.4l-.3-1.6c-.7-3.8-1.5-8.6-.1-13.5a31.5 31.5 0 0 1 10-14l1.4-1.3c5-4.9 5.5-7.6 5.4-8.7l-.1-.4c5 .4 9.7 1.9 14 4.4z" class="st15"/><path d="M221.5 133.2h-5.1l-2.2 5.8 7.1 13.6-8 15 7.8 16.5 3.4 32.3-9.4 10.7s.6 8.9 2.4 13.5l.2.2h5.1l14.8-28.8 5.3-56.5-21.4-22.3z" class="st10"/><path d="M221.5 133.2h-5.1l-2.2 5.8 7.1 13.6-8 15 7.8 16.5 3.4 32.3-9.4 10.7s.6 8.9 2.4 13.5l.2.2h5.1l14.8-28.8 5.3-56.5-21.4-22.3z" class="st9"/><path d="M276.1 188.2a37.4 37.4 0 0 0-52.6-53.2l-1.9-1.8c-.9 1.9-1.6 3.8-2.2 5.8l7.1 13.6-8 15 7.8 16.5 3.4 32.3-9.4 10.7s.6 8.9 2.4 13.5l.2.2 53.2-52.6z" class="st10"/><path d="M276.3 135.3a36.7 36.7 0 0 0-5.2-4.4l-.7.9a19.6 19.6 0 0 0-2.9 7l-.6 2.1c-.5 1.1-2.3 3.1-9 4.8l-1.9.5c-5.2 1.3-11.1 2.7-15.6 7.1a29 29 0 0 0-6.7 11.8l-.6 1.5c-1.2 3.1-2.3 4.8-3.5 5.4s-3.9.5-6.4.4l-2.6-.1 5.7 12.1.3 2.4c3.1.1 6.1-.5 8.9-1.7 6.5-2.9 9.4-9 11-13.4l.6-1.6c.9-2.6 1.8-5.1 3.2-6.4 1.8-1.7 5.5-2.6 9.1-3.5l2-.5c3.6-.9 14.5-3.7 18.6-12.9.6-1.4 1.1-2.8 1.4-4.3l.1-.5a34.3 34.3 0 0 0-5.2-6.7z" class="st15"/></g></svg>