<svg xmlns="http://www.w3.org/2000/svg" xml:space="preserve" viewBox="0 0 48 48"><g fill-rule="evenodd" color="#000"><path fill="#ff5576" d="M42.5 37h-4v7h4z"/><path fill="#fcca3d" d="M34.5 32h-4v12h4V32z"/><path fill="#e7e7e7" d="M26.5 27h-4v17h4V27zm-8-3h-4v20h4V24z"/><path fill="#e7e7e7" d="M180.5 395h-4v26h4v-26z" style="-inkscape-stroke:none" transform="translate(-170 -377)"/><path fill="#808b9b" d="M209.6 381a1 1 0 0 0-1 1v1.5c-1.7.4-3 1.8-3 3.4 0 2 1.9 3.5 4 3.5 1 0 1.9.7 1.9 1.6 0 .9-.8 1.6-1.9 1.6-1 0-1.8-.7-1.8-1.6a1 1 0 0 0-1-1 1 1 0 0 0-1.1 1c0 1.6 1.2 3 2.9 3.4v1.6a1 1 0 0 0 1 1 1 1 0 0 0 1-1v-1.6c1.7-.4 3-1.8 3-3.4 0-2-1.8-3.5-4-3.5-1 0-1.8-.7-1.8-1.6 0-.9.8-1.6 1.8-1.6s1.9.7 1.9 1.6a1 1 0 0 0 1 1 1 1 0 0 0 1-1c0-1.6-1.2-3-2.8-3.4V382a1 1 0 0 0-1-1zm-35.1 1a1 1 0 0 0-.6 1.7l20 17a1 1 0 0 0 1.5-.2l3.3-5 12.3 11.4h-2.5a1 1 0 0 0-1 1.2 1 1 0 0 0 1.2.8h.8a161 161 0 0 1 4 0 1 1 0 0 0 1-1v-5a1 1 0 0 0-1-1 1 1 0 0 0-1 1v2.8l-13.3-12.5a1 1 0 0 0-1.5.2l-3.4 5-19.1-16.2a1 1 0 0 0-.7-.2z" style="-inkscape-stroke:none" transform="translate(-170 -377)"/></g></svg>