<svg xmlns="http://www.w3.org/2000/svg" xml:space="preserve" viewBox="0 0 48 48"><g fill-rule="evenodd" color="#000"><path fill="#ff5576" d="M42.54 36.96h-4v7h4z"/><path fill="#fcca3d" d="M34.54 31.96h-4v12h4v-12z"/><path fill="#e7e7e7" d="M26.54 27.07h-4v16.89h4v-16.9zM18.54 23.96h-4v20h4v-20z"/><path fill="#e7e7e7" d="M180.54 394.96h-4v26h4v-26z" style="-inkscape-stroke:none" transform="translate(-170 -377)"/><path fill="#808b9b" d="M209.62 381a1.05.96 0 0 0-1.04.96v1.56c-1.66.4-2.91 1.76-2.91 3.38 0 1.96 1.8 3.51 3.95 3.51 1.07 0 1.87.73 1.87 1.6 0 .88-.8 1.6-1.87 1.6-1.06 0-1.86-.72-1.86-1.6a1.05.96 0 0 0-1.05-.95 1.05.96 0 0 0-1.04.95c0 1.63 1.25 2.98 2.9 3.39v1.56a1.05.96 0 0 0 1.05.96 1.05.96 0 0 0 1.05-.96v-1.56c1.66-.41 2.91-1.76 2.91-3.39 0-1.95-1.8-3.5-3.96-3.5-1.06 0-1.86-.73-1.86-1.6 0-.88.8-1.6 1.86-1.6 1.07 0 1.87.72 1.87 1.6a1.05.96 0 0 0 1.05.95 1.05.96 0 0 0 1.04-.96c0-1.62-1.25-2.97-2.9-3.38v-1.56a1.05.96 0 0 0-1.06-.96zM174.46 381.96a1 1 0 0 0-.57 1.76l20 17a1 1 0 0 0 1.48-.21l3.35-5.02 12.26 11.44h-1.47c-.5 0-.77 0-1.09.03a1 1 0 0 0-.88 1.11 1 1 0 0 0 1.12.88c-.09.01.38-.02.86-.02a160.94 160.94 0 0 1 4 .03 1 1 0 0 0 1.02-1v-5a1 1 0 0 0-1-1 1 1 0 0 0-1 1v2.7l-13.32-12.44a1 1 0 0 0-1.51.18l-3.38 5.07-19.14-16.28a1 1 0 0 0-.73-.23z" style="-inkscape-stroke:none" transform="translate(-170 -377)"/></g></svg>