<svg xmlns="http://www.w3.org/2000/svg" xml:space="preserve" viewBox="0 0 512.85 512.85"><g fill="#ffe100"><path d="m366.93 171.1 92.16 65.7c12.8 9.39 12.8 29.01 0 38.4l-92.16 67.41v-52.05h-93.86v68.27c0 56.32-46.08 102.4-102.4 102.4h-34.14c-10.24 24.74-28.16 42.66-34.13 42.66-37.55 0-68.27-30.72-68.27-68.26s30.72-68.27 68.27-68.27c5.97 0 23.9 17.92 34.13 42.67h34.14c28.16 0 51.2-23.04 51.2-51.2v-76.8H128c-10.24 24.74-19.63 42.66-25.6 42.66-37.55 0-68.27-30.72-68.27-68.26s30.72-68.27 68.27-68.27c5.97 0 15.36 17.92 25.6 42.67h93.87v-76.8c0-28.16-23.04-51.2-51.2-51.2h-34.14c-5.12 12.8-14.5 42.66-34.13 42.66-37.55 0-68.27-30.72-68.27-68.26S64.85 8.96 102.4 8.96c5.97 0 23.9 17.92 34.13 42.67h34.14c56.32 0 102.4 46.08 102.4 102.4v76.8h93.86v-59.74zM366.93 178.77v52.06zM366.93 290.56v43.52z"/></g><path fill="#ffa800" d="m494.08 236.8-99.84-71.68c-9.39-6.83-21.33-2.56-25.6 6.83l91.3 64.85c12.8 9.39 12.8 29.01 0 38.4l-90.45 65.7c4.27 9.4 16.22 12.8 25.6 6.83l99.84-71.68a25.4 25.4 0 0 0-.85-39.25"/><path fill="#ffe100" d="M512 263.25V251.31c-.85-8.54 0-17.07 0-27.31l-84.48-58.88c-9.39-6.83-21.33-2.56-25.6 6.83l91.3 64.85c12.8 9.39 12.8 29.01 0 38.4l-90.45 65.7c4.27 9.4 16.22 12.8 25.6 6.83l84.48-62.29v-22.19H512z"/><g fill="#fff"><path d="M76.8 324.7c4.27 0 8.53-.86 12.8-1.71-31.57-5.98-55.47-33.28-55.47-66.56s23.9-60.6 55.47-66.56c-4.27-.86-8.53-1.71-12.8-1.71-37.55 0-68.27 30.72-68.27 68.27s30.72 68.26 68.27 68.26M76.8 145.5c4.27 0 8.53-.86 12.8-1.71-31.57-5.98-55.47-33.28-55.47-66.56s23.9-60.59 55.47-66.56c-4.27-.86-8.53-1.71-12.8-1.71-37.55 0-68.27 30.72-68.27 68.27s30.72 68.26 68.27 68.26M34.13 435.63c0-33.28 23.9-60.59 55.47-66.56-4.27-.86-8.53-1.71-12.8-1.71-37.55 0-68.27 30.72-68.27 68.27s30.72 68.26 68.27 68.26c4.27 0 8.53-.85 12.8-1.7-31.57-5.98-55.47-33.28-55.47-66.56"/></g><path d="M76.8 512.43c-42.67 0-76.8-34.14-76.8-76.8s34.13-76.8 76.8-76.8c28.16 0 52.05 16.21 65.7 42.66h28.17a42.25 42.25 0 0 0 42.66-42.66v-68.27h-70.82c-12.8 26.45-36.7 42.67-65.71 42.67-42.67 0-76.8-34.14-76.8-76.8s34.13-76.8 76.8-76.8c28.16 0 52.05 16.21 65.7 42.66h70.83v-68.26a42.25 42.25 0 0 0-42.66-42.67H142.5c-12.8 26.45-36.7 42.67-65.71 42.67-42.67 0-76.8-34.14-76.8-76.8S34.13.43 76.8.43c28.16 0 52.05 16.21 65.7 42.66h28.17c19.62 0 38.4 5.12 55.46 14.51 4.27 2.56 5.12 7.68 3.42 11.95-2.56 4.26-7.68 5.12-11.95 3.41a92.49 92.49 0 0 0-46.93-12.8h-34.14c-3.4 0-6.82-1.7-7.68-5.12C118.61 31.14 99.84 17.5 76.8 17.5c-33.28 0-59.73 26.46-59.73 59.74s26.45 59.73 59.73 59.73c23.04 0 41.81-13.65 52.05-37.55 1.71-3.41 4.27-5.12 7.68-5.12h34.14a59.37 59.37 0 0 1 59.73 59.74v76.8c0 5.12-3.41 8.53-8.53 8.53h-85.34c-3.41 0-6.82-1.7-7.68-5.12-10.24-23.9-29.01-37.55-52.05-37.55-33.28 0-59.73 26.46-59.73 59.74s26.45 59.73 59.73 59.73c23.04 0 41.81-13.65 52.05-37.55 1.71-3.41 4.27-5.12 7.68-5.12h85.34c5.12 0 8.53 3.42 8.53 8.54v76.8a59.37 59.37 0 0 1-59.73 59.73h-34.14c-3.41 0-6.82-1.7-7.68-5.12-10.24-23.9-29.01-37.55-52.05-37.55-33.28 0-59.73 26.46-59.73 59.74s26.45 59.73 59.73 59.73c23.04 0 41.81-13.65 52.05-37.55 1.71-3.41 4.27-5.12 7.68-5.12h34.14a93.6 93.6 0 0 0 93.86-93.86v-68.27c0-5.12 3.42-8.53 8.54-8.53h93.86c5.12 0 8.54 3.41 8.54 8.53v43.52c0 3.41 1.7 5.97 4.26 7.68 2.56 1.7 5.98.85 8.54-.85l99.84-71.68c4.26-2.56 5.97-7.68 5.97-12.8 0-5.12-2.56-9.39-5.97-12.8l-99.84-71.68c-2.56-1.71-5.98-2.56-8.54-.86-2.56 1.71-4.26 4.27-4.26 7.68v52.06c0 5.12-3.42 8.53-8.54 8.53h-93.86c-5.12 0-8.54-3.41-8.54-8.53v-76.8c0-13.66-2.56-26.46-8.53-39.26-1.7-4.26 0-9.38 4.27-11.09 4.26-1.7 9.38 0 11.09 4.27a106.9 106.9 0 0 1 10.24 46.08v68.26h76.8v-43.52c0-9.38 5.12-18.77 13.65-23.04s18.78-3.4 26.46 1.71l99.84 71.68c8.53 5.97 13.65 15.36 13.65 26.45a32.75 32.75 0 0 1-13.65 26.46L398.5 353.7c-7.68 5.97-17.92 6.82-26.46 1.7-8.53-4.26-13.65-12.8-13.65-23.04V299.1h-76.8v59.74c0 61.44-49.5 110.93-110.93 110.93H142.5c-13.66 26.45-37.55 42.67-65.71 42.67z"/><path d="M256 85.76c0-5.12-3.41-8.53-8.53-8.53-5.12 0-8.54 3.41-8.54 8.53 0 5.12 3.42 8.53 8.54 8.53 5.12 0 8.53-3.41 8.53-8.53"/></svg>