<svg xmlns="http://www.w3.org/2000/svg" xml:space="preserve" viewBox="0 0 513 513"><path fill="#ffe100" d="m367 171 92 66c13 9 13 29 0 38l-92 68v-52h-94v68c0 56-46 102-102 102h-34c-11 25-29 43-35 43-37 0-68-31-68-68s31-69 68-69c6 0 24 18 35 43h34c28 0 51-23 51-51v-77h-94c-10 25-20 43-26 43-37 0-68-31-68-69s31-68 68-68c6 0 16 18 26 43h94v-77c0-28-23-51-51-51h-34c-6 13-15 42-35 42a68 68 0 0 1 0-137c6 1 24 19 35 44h34c56 0 102 46 102 102v77h94v-60zm0 8v52zm0 112v43z"/><path fill="#ffa800" d="m494 237-100-72c-9-7-21-2-25 7l91 65c13 9 13 29 0 38l-91 66c5 9 17 13 26 7l100-72a25 25 0 0 0-1-39"/><path fill="#ffe100" d="M512 263v-39l-84-59c-10-7-22-2-26 7l91 65c13 9 13 29 0 38l-90 66c4 9 16 13 25 7l85-63v-22h-1z"/><path fill="#fff" d="m77 325 13-2a68 68 0 0 1 0-133l-13-2c-38 0-68 31-68 68s30 69 68 69m0-179 13-2a68 68 0 0 1 0-133L77 9C39 9 9 40 9 77s30 68 68 68M34 436c0-34 24-61 56-67l-13-2c-38 0-68 31-68 69s30 68 68 68l13-2c-32-6-56-33-56-66"/><path d="M77 512c-43 0-77-34-77-76s34-77 77-77c28 0 52 16 66 42h28a42 42 0 0 0 42-42v-68h-70a72 72 0 0 1-66 42c-43 0-77-34-77-77s34-76 77-76c28 0 52 16 66 42h70v-68a42 42 0 0 0-42-43h-28a72 72 0 0 1-66 43c-43 0-77-34-77-77S34 0 77 0c28 0 52 17 66 43h28c19 0 38 5 55 15 4 2 5 7 4 12-3 4-8 5-12 3a92 92 0 0 0-47-13h-34c-4 0-7-2-8-5-10-24-29-37-52-37-33 0-60 26-60 59s27 60 60 60c23 0 42-14 52-38 2-3 4-5 8-5h34a59 59 0 0 1 59 60v77c0 5-3 8-8 8h-85c-4 0-7-1-8-5-10-24-29-37-52-37-33 0-60 26-60 59s27 60 60 60c23 0 42-13 52-37 2-4 4-5 8-5h85c5 0 8 3 8 8v77a59 59 0 0 1-59 60h-34c-4 0-7-2-8-6-10-23-29-37-52-37-33 0-60 26-60 60s27 59 60 59c23 0 42-13 52-37 2-4 4-5 8-5h34a94 94 0 0 0 94-94v-68c0-6 3-9 8-9h94c5 0 8 3 8 9v43c0 4 2 6 5 8 2 1 6 1 8-1l100-72c4-2 6-7 6-13 0-5-2-9-6-12l-100-72c-2-2-6-3-8-1-3 2-5 4-5 8v52c0 5-3 8-8 8h-94c-5 0-8-3-8-8v-77c0-14-3-26-9-39-2-4 0-10 4-11 5-2 10 0 11 4a107 107 0 0 1 11 46v68h76v-43c0-10 6-19 14-23s19-4 27 1l99 72c9 6 14 15 14 27a33 33 0 0 1-14 26l-99 72c-8 6-18 7-27 1-8-4-14-12-14-23v-33h-76v60c0 61-50 111-111 111h-28a74 74 0 0 1-66 42z"/><path d="M256 86c0-5-3-9-9-9-5 0-8 4-8 9s3 8 8 8c6 0 9-3 9-8"/></svg>