<?xml version="1.0" encoding="utf-8"?>
<!-- Generator: Adobe Illustrator 28.0.0, SVG Export Plug-In . SVG Version: 6.00 Build 0)  -->
<svg version="1.1" id="Layer_1" xmlns="http://www.w3.org/2000/svg" xmlns:xlink="http://www.w3.org/1999/xlink" x="0px" y="0px"
	 viewBox="0 0 90 90" style="enable-background:new 0 0 90 90;" xml:space="preserve">
<style type="text/css">
	.st0{fill:#292D32;}
</style>
<path class="st0" d="M38.6,16.7c4.1,0.2,8.1,1.4,11.7,3.6c-1.1-1.6-2.5-3.1-4-4.3c-0.9-0.7-0.2-1.6,1.2-0.6c1.6,1.1,4.9,4.7,5.6,7
	c0.1,0.2,0.1,0.4,0.1,0.6c0.1,0.8-0.5,1.5-1.3,1.6h-0.1c-0.2,0-0.4,0-0.5-0.1c-3-1.1-6.1-1.8-9.3-2.1c-1.3-0.1-1-1.5,0.3-1.4
	c1.9,0.1,3.8,0.5,5.7,1c-2.9-2-6.1-3.3-9.5-4C37.5,17.9,37.4,16.7,38.6,16.7z M53.9,33c-8.2-1.4-13.2-4-17-5.4
	c-4.7-1.7-9.6-1.1-12.6,1.3c-2.1,1.8-3.6,4.3-4.2,7.1c-4.2,17.4,6.6,35,24,39.2c1.2,0.3,2.4,0.5,3.5,0.6
	C67.3,78.3,89.2,60,82.1,39.1C79.1,30.4,68.4,35.3,53.9,33z M58.4,26.1c0.2,0.1,0.3,0.1,0.5,0.1c3,0,5.9,0.4,8.8,1.2
	c1.1,0.4,1.4-1,0.2-1.3c-1.7-0.5-3.5-0.8-5.2-1c3.1-0.7,6.4-0.9,9.6-0.3c0.8,0.1,1.3-0.9,0.2-1.2c-3.7-1.2-7.6-1.4-11.3-0.7
	c1.5-1,3.2-1.8,4.9-2.4c1-0.3,0.7-1.3-0.8-1c-1.8,0.4-5.8,2.5-7.2,4.3c-0.1,0.1-0.2,0.3-0.3,0.5C57.5,25,57.7,25.8,58.4,26.1
	L58.4,26.1z M89.1,45c0,24.8-19.8,45-44.1,45S0.9,69.8,0.9,45S20.7,0,45,0S89.1,20.1,89.1,45z M86.4,47.5c0-22-17.5-39.9-39.1-39.9
	S8.2,25.5,8.2,47.5s17.5,39.9,39.1,39.9S86.4,69.6,86.4,47.5z"/>
</svg>
