<svg xmlns="http://www.w3.org/2000/svg" xml:space="preserve" viewBox="0 0 106.5 103.3"><path fill="#292D32" d="M106.5 51.6c0-10.5-9-19.5-24.8-24.5l-2.6-.9C74.3 10.2 64.9 0 53.2 0c-10.9 0-20 8.7-25.1 23.9l-.9 2.6C10.6 31.1 0 40.3 0 51.6c0 10.5 9 19.5 24.7 24.5l2.7.9c4.8 16.1 14.2 26.3 25.9 26.3 11 0 20.1-8.8 25.1-24l.8-2.4c16.7-4.7 27.3-13.9 27.3-25.3zm-24.1-4.1c2.7 1.4 4 2.6 4.5 3.2l.8.9-.8 1c-.7.9-2.2 2.1-4.5 3.2.1-1.2.1-2.5.1-4 0-1.6 0-2.9-.1-4.3zM53.2 4.2c14.2 0 25 20.3 25 47.4 0 2.3-.1 4.2-.2 6.1-2.9 1.1-6.4 2.1-10.5 2.8.3-2.6.4-5.4.4-8.8 0-23.1-8.5-37.5-14.7-37.5-3 0-6.5 3.7-9.2 9.5-4.1.3-8.1.9-11.8 1.6 4.6-13.4 12.2-21.1 21-21.1zM42.9 51.6c0-3.3.1-6.1.5-8.6l.1-.9c3-.3 6.2-.5 9.6-.5s6.4.1 9 .4l.8.1c.3 2.9.6 6 .6 9.5s-.1 6.2-.6 8.7l-.1.7c-3 .3-6.2.5-9.6.5-3.1 0-7.2-.3-9.6-.7-.3-2.7-.7-5.7-.7-9.2zm14.5-28.3c-1.2 0-2.6-.1-4.1-.1s-2.8 0-4.2.1c1.5-2.7 2.8-4 3.3-4.4l.9-.7.9.7c.9.7 2 2.2 3.2 4.4zm-53 28.3c0-13.8 21-24.1 48.8-24.1 2.4 0 4.4.1 6.3.2 1.1 2.8 2.1 6.2 2.8 10.2-2.6-.4-5.6-.5-9-.5-23.9 0-38.5 8.3-38.5 14.2 0 2.9 3.8 6.3 9.8 8.9.3 4 .9 7.9 1.7 11.5-14-4.4-21.9-11.8-21.9-20.4zm19.7 4.2c-2.7-1.4-4-2.7-4.5-3.3l-.6-.9.7-.9c.7-.9 2.2-2.1 4.5-3.3 0 1.3-.1 2.6-.1 4.1-.1 1.5-.1 2.8 0 4.3zM53.2 99c-14.1 0-24.9-20.3-24.9-47.4 0-2.3.1-4.3.2-6.2 2.8-1.1 6.3-2.1 10.5-2.7-.3 2.6-.5 5.5-.5 8.9 0 23.2 8.5 37.5 14.6 37.5 3 0 6.5-3.6 9.2-9.4 4-.3 8-.9 11.6-1.6C69.7 91.3 62.1 99 53.2 99zM49 80c1.3.1 2.7.1 4.1.1s2.8 0 4.2-.1c-1.5 2.5-2.7 3.8-3.3 4.2l-.8.8-1-.8c-.8-.6-2-2-3.2-4.2zm4.2-4.2c-2.4 0-4.4-.1-6.2-.2-1.1-2.8-2.1-6.2-2.8-10.2 2.7.2 6.4.4 9.1.4 17.8 0 38.7-6.2 38.7-14.2 0-2.9-3.7-6.3-9.8-8.9-.3-4-.9-7.8-1.7-11.4 13.3 4.6 21.5 12 21.5 20.4.1 13.7-21 24-48.8 24.1z"/></svg>