<svg xmlns="http://www.w3.org/2000/svg" xml:space="preserve" id="Camada_1" x="0" y="0" version="1.1" viewBox="0 0 1507.4 1461.1"><style>.st3{display:inline;fill:url(#SVGID_00000038388871153687109450000004286109083529241788_)}.st4{display:none;fill:url(#SVGID_00000088848022239834913550000017942354468145074597_)}.st5{fill:url(#SVGID_00000101791115092420117640000017931450991816509833_)}.st6{fill:url(#SVGID_00000083089690545397905340000001109152849784997301_)}</style><g id="logo_1_00000073709740157278833850000012842710867581005237_"><linearGradient id="SVGID_00000033350420241336587230000006255373552269846446_" x1="782.4" x2="782.4" y1="0" y2="1198.7" gradientTransform="matrix(1 0 0 -1 0 1507.4)" gradientUnits="userSpaceOnUse"><stop offset="0" stop-color="#4da6fb"/><stop offset="1" stop-color="#127597"/></linearGradient><linearGradient id="SVGID_00000060748300852441647550000009416947834970057606_" x1="753.7" x2="753.7" y1="46.3" y2="1507.4" gradientTransform="matrix(1 0 0 -1 0 1507.4)" gradientUnits="userSpaceOnUse"><stop offset="0" stop-color="#4da6fb"/><stop offset="1" stop-color="#127597"/></linearGradient><path fill="url(#SVGID_00000060748300852441647550000009416947834970057606_)" d="M1507.4 753.7c0 324.6-205.2 601.3-493 707.4-10.7-14.9-20.4-28.5-24.9-34.5-10.7-14.5-20.8-28.8-30.3-42.7-30.2-40.3-54.2-86.2-70.1-137-.1-.3-.2-.5-.2-.8-4.1-12.5-13.3-45.9-.7-84.5 7.1-21.7 13-33.6 22.2-41.7 11.4-10.1 23.1-15.4 40-17.8 18.6-2.6 33.4 1.4 40.8 4 51 12.3 101.9 24.7 152.9 37l13.2 2h.1c2 .3 4.1.5 6.1.5 9.8 0 19.3-3.6 26.7-10.1 1.4-1.2 2.7-2.5 3.9-4l38.9-45 74.7-78.2-212-195-25.8-42.2-17.3-28.3-11.8-19.3-38.7-63.3-9.7-16.8-3.5-6-5.3-2.8-106.5-55.9c9.9-15.5 24.8-35.1 46.6-54 34-29.4 68.8-43.2 90.6-49.8-31.8-13.7-101.2-38.5-190.1-28.4-73.1 8.3-126.7 36.5-155.2 54.2-6.1-21.4-12.3-52.7-11-90.7 1.5-44.1 12.7-79.1 21.7-101.3-42 17.9-121.9 58.6-192.4 142.7-68.8 82.1-95.1 165.6-105.8 209.8-4.5-12.8-8.9-29.1-11.1-48.2-3.1-26.7-.9-49.5 2-66-12.1 15-35.6 48.2-44 97-9.4 54.2 5 97.2 12.2 115.1-9.9-10.4-22.2-25.3-33.2-45.1-11.4-20.6-17.5-39.7-21-54-5.4 20.5-14.3 66.3 2 120 11.1 36.6 29.6 62.5 42.3 77.5-50.5 56.9-63 83.6-73.6 197.4 5.6-15.7 15.9-38 34.6-60.2 11.4-13.5 23-23.6 33-31-11 54.4-20.2 117.9-24 189-4.2 78.2-.8 148.2 5.5 207.5C120.5 1222.9 0 1002.4 0 753.7 0 337.4 337.4 0 753.7 0s753.7 337.4 753.7 753.7z"/><linearGradient id="SVGID_00000070115080442732305080000014151678877861267621_" x1="876.45" x2="876.45" y1="665.4" y2="801.4" gradientTransform="matrix(1 0 0 -1 0 1507.4)" gradientUnits="userSpaceOnUse"><stop offset="0" stop-color="#4da6fb"/><stop offset="1" stop-color="#127597"/></linearGradient><path fill="url(#SVGID_00000070115080442732305080000014151678877861267621_)" d="m971.6 842-111.4-23.2L781.3 706l140 68z"/></g></svg>