<svg xmlns="http://www.w3.org/2000/svg" xml:space="preserve" id="Layer_1" x="0" y="0" version="1.1" viewBox="0 0 65.8 77.7"><style>.st1{fill:url(#SVGID_00000031904460387906160200000011144379447277530811_)}</style><g id="c173cdb6-307e-4e0a-b8bf-9bbcce1937ac" transform="matrix(.76664 0 0 .76664 37.73 119.32)"><linearGradient id="SVGID_1_" x1="-1584.346" x2="-1582.982" y1="-557.28" y2="-557.28" gradientTransform="matrix(34.1339 18.4586 -15.9169 39.5845 45151.738 51170.723)" gradientUnits="userSpaceOnUse"><stop offset="0" stop-color="#006678"/><stop offset="1" stop-color="#4fa8ff"/></linearGradient><path fill="url(#SVGID_1_)" d="M-19.7-62.1c-7.4-.3-11-.4-18.5-1-1 0-1.6-.8-1.8-1.8-1.5-26.9-1.5-53.9 0-80.7 0-1 .8-1.6 1.8-1.8 22-1.6 44-1.6 66 0 1 .1 1.6.8 1.8 1.8.8 13.6 1.2 27.4 1.1 41 0 0 0 1.1.7 2 2 2 3.1 3 5.2 5 1.9 1.8 1.6-1.1 1.6-1.1.3-17.3-.4-34.8-1.8-52.1-.1-1.8-1.6-3.4-3.3-3.5-26.2-2-51.4-2-77.6.1-1.6.1-3 1.8-3.1 3.5-2 30.3-2 60.1-.1 90.5.1 1.8 1.6 3.4 3.3 3.5 12.4 1.4 18.5 1.8 31 2 0 0 3.5.1 1.5-2-1.8-1.8-2.6-2.7-4.4-4.5 0 .3-1.1-.7-3.4-.9z"/><linearGradient id="SVGID_00000118357721317565552220000011063077858699218848_" x1="-1575.984" x2="-1574.62" y1="-556.744" y2="-556.744" gradientTransform="matrix(27.5592 15.0587 -12.8511 32.2935 36238.785 41589.36)" gradientUnits="userSpaceOnUse"><stop offset="0" stop-color="#006678"/><stop offset="1" stop-color="#4fa8ff"/></linearGradient><path fill="url(#SVGID_00000118357721317565552220000011063077858699218848_)" d="M-16.6-69.6c-.8-.8-.8-2.3 0-3.1 2.2-2.2 3.1-3.3 5.3-5.5.8-.8 2.2-.8 3 0 3.5 3.5 5.3 5.3 8.7 8.9.8.8 2.2.8 3 0C3.5-69.3 23.7-91 28-94c1-.7 2.3-.8 3.1-.1 2.2 2 3.3 3 5.3 5 .8.8.8 2-.1 3-10.1 10-20 20-29.7 30.3-2.6 2.2-7.4 2.3-9.5.1-5.4-5.4-8.1-8.3-13.7-13.9zm38.3-61.6c0 1-.7 1.6-1.6 1.6-17.2-.5-34.5-.5-51.7 0-1 0-1.6-.7-1.6-1.6 0-1.4 0-2 .1-3.3 0-1 .8-1.6 1.8-1.8 17-.7 34.2-.7 51.3 0 1 0 1.6.8 1.8 1.8-.1 0-.1 3.3-.1 3.3zm.3 15.7c0 1-.7 1.6-1.6 1.6-17.5-.1-34.8-.1-52.2 0-1 0-1.6-.7-1.6-1.6v-3.3c0-1 .8-1.6 1.6-1.6 17.3-.4 34.6-.4 52.1 0 1 0 1.6.8 1.6 1.6.1 1.4.1 2 .1 3.3zm.2 15.6c0 1-.8 1.6-1.6 1.6-17.5.1-34.8.1-52.2 0-1 0-1.6-.8-1.6-1.6v-3.3c0-1 .8-1.6 1.6-1.6h52.2c1 0 1.6.7 1.6 1.6v3.3z"/></g></svg>