<?xml version="1.0" encoding="UTF-8"?>
<svg id="Layer_1" data-name="Layer 1" xmlns="http://www.w3.org/2000/svg" xmlns:xlink="http://www.w3.org/1999/xlink" viewBox="0 0 500 396.88">
  <defs>
    <style>
      .cls-1 {
        fill: url(#linear-gradient);
      }

      .cls-1, .cls-2 {
        stroke-width: 0px;
      }

      .cls-2 {
        fill: url(#linear-gradient-2);
      }
    </style>
    <linearGradient id="linear-gradient" x1="-672.51" y1="737.6" x2="-662.17" y2="737.6" gradientTransform="translate(6288.53 19564.48) rotate(24.28) scale(20.95 -20.5) skewX(1.43)" gradientUnits="userSpaceOnUse">
      <stop offset="0" stop-color="#056779"/>
      <stop offset="1" stop-color="#67a2d7"/>
    </linearGradient>
    <linearGradient id="linear-gradient-2" x1="-694.15" y1="738.5" x2="-683.81" y2="738.5" gradientTransform="translate(15291.68 37013.79) rotate(20.31) scale(46.73 -39.72) skewX(8.63)" xlink:href="#linear-gradient"/>
  </defs>
  <g id="_4e88ba6a-978d-4e60-92cb-517ad3529046" data-name="4e88ba6a-978d-4e60-92cb-517ad3529046">
    <path class="cls-1" d="m138.87,125.61c-.01,12.95-10.51,23.44-23.46,23.44h-54.7c-12.94-.01-23.44-10.5-23.46-23.44,0-12.94,10.52-23.46,23.46-23.46h54.7c12.96,0,23.46,10.52,23.46,23.46Zm59.99,81.91c-.01,12.95-10.51,23.44-23.46,23.44h-54.7c-12.94-.01-23.44-10.5-23.46-23.44,0-12.94,10.52-23.46,23.46-23.46h54.7c12.95,0,23.45,10.51,23.46,23.46Zm56.23,81.92c-.01,12.95-10.51,23.44-23.46,23.44h-54.7c-12.94-.01-23.44-10.5-23.46-23.44.01-12.95,10.51-23.45,23.46-23.46h54.7c12.96,0,23.46,10.51,23.46,23.46Z"/>
    <path class="cls-2" d="m419.38.11H78.7c-.2,0-.35-.11-.55-.11H23.46C10.51.01.01,10.51,0,23.46c.02,12.94,10.52,23.43,23.46,23.44h93.8l119.97,121.54c31.24,31.66,82.35,31.98,114.01.75l100.17-98.85c1.08,3.29,1.8,6.74,1.8,10.39v235.54c-.02,18.68-15.16,33.81-33.83,33.83h-141.67c-.37-.03-.69-.22-1.08-.22h-54.7c-12.95.01-23.45,10.51-23.46,23.46.02,12.94,10.52,23.43,23.46,23.44h13.53v.11h183.91c44.46,0,80.62-36.16,80.62-80.62V80.73c0-44.46-36.16-80.62-80.62-80.62Zm-101,135.78c-13.27,13.11-34.76,12.96-47.85-.31l-87.54-88.68h225.54s-90.15,88.99-90.15,88.99Z"/>
  </g>
</svg>