<?xml version="1.0" encoding="UTF-8"?>
<svg id="Layer_1" data-name="Layer 1" xmlns="http://www.w3.org/2000/svg" viewBox="0 0 786.82 572.26">
  <defs>
    <style>
      .cls-1 {
        fill: #e6e6e6;
      }

      .cls-1, .cls-2, .cls-3, .cls-4, .cls-5, .cls-6, .cls-7, .cls-8, .cls-9 {
        stroke-width: 0px;
      }

      .cls-2 {
        isolation: isolate;
        opacity: .2;
      }

      .cls-3 {
        fill: #512bd4;
      }

      .cls-4 {
        fill: #63a0ff;
      }

      .cls-5 {
        fill: #fff;
      }

      .cls-6 {
        fill: #3f3d56;
      }

      .cls-7 {
        fill: #ffb6b6;
      }

      .cls-8 {
        fill: #f2f2f2;
      }

      .cls-9 {
        fill: #2f2e41;
      }
    </style>
  </defs>
  <circle class="cls-8" cx="458.32" cy="74.18" r="26.7"/>
  <path class="cls-8" d="m665.45,497.15c39.69-30.23,58.64-81.03,46.78-129.48-.29-1.2-.61-2.41-.93-3.6-7.87-28.76-27.33-56.1-55.7-65.29-23.82-7.72-49.82-1.78-74.67-4.85-48.78-6.02-86.6-45.49-113.21-86.82-26.61-41.33-47.06-87.58-82.42-121.72-58.28-56.28-153.36-68.39-225.63-31.76-72.26,36.63-118.3,117.9-116.33,198.9,1.96,80.99,50.05,158.43,119.87,199.52,25.65,15.09,55.32,25.79,84.85,22.04,25.62-3.25,48.9-17.01,74.4-21.1,40.09-6.43,79.93,11.7,114.6,32.82,34.68,21.12,68.17,46.16,107.57,55.95,38.26,9.51,85.66-17.82,120.82-44.6Z"/>
  <path class="cls-6" d="m608.43,55.32c-.87-.58-1.75-1.13-2.62-1.69-25.15-16.08-52.1-29.15-80.31-38.93l-6.54,90.22h-41.46V1.53c-2.61-.54-5.24-1.05-7.87-1.53v104.92h-49.27c-56.48,0-102.27-45.79-102.27-102.27h0c-2.64.57-5.26,1.18-7.88,1.83v100.44h-40.13l-6.23-86.03c-28.99,11.12-56.5,25.73-81.94,43.53-.44.3-.88.61-1.31.91-2.21,1.55-4.39,3.13-6.56,4.73v344.19h118.27l-2.09-28.95-11.5-158.95h231.59l-11.5,158.95-2.09,28.95h116.96V58.8c-1.74-1.18-3.49-2.34-5.25-3.48Zm-298.22,142.78h-33.39l-6.17-85.3h39.56v85.3Zm159.42,0h-56.08v-1.69c0-3.41-2.77-6.18-6.18-6.18h-24.39c-3.41,0-6.18,2.76-6.18,6.18h0v1.69h-58.71v-85.3h151.54v85.3Zm7.87,0v-85.3h40.89l-6.17,85.3h-34.72Z"/>
  <path class="cls-6" d="m0,434.29c8.69,10.29,18.08,19.97,28.12,28.95l730.58,1c10.04-8.98,19.43-18.66,28.12-28.95L0,434.29Z"/>
  <path class="cls-6" d="m495.43,341.59v85.7c0,2.27,1.84,4.12,4.12,4.12h127c2.27,0,4.12-1.84,4.12-4.12v-85.7c0-2.27-1.85-4.11-4.12-4.11h-127c-2.27,0-4.11,1.84-4.12,4.11Z"/>
  <path class="cls-4" d="m498.41,342.66v83.58c0,1.21.99,2.2,2.2,2.2h124.89c1.21,0,2.2-.99,2.2-2.2v-83.58c0-1.22-.98-2.2-2.2-2.21h-124.89c-1.22,0-2.2.99-2.2,2.21Z"/>
  <path class="cls-9" d="m492.77,444.01c.47.59,1.19.93,1.94.93h135.99c1.38,0,2.5-1.12,2.5-2.51,0-.17-.02-.34-.05-.51l-2.11-10.03c-.18-.83-.76-1.52-1.56-1.82-.28-.11-.58-.17-.89-.17h-131.78c-.3,0-.61.06-.89.17-.79.3-1.38.99-1.56,1.82l-2.11,10.03c-.15.74.04,1.5.51,2.09Z"/>
  <rect class="cls-6" x="623.44" y="431.72" width="4.19" height="2.51" rx=".49" ry=".49"/>
  <rect class="cls-6" x="615.07" y="431.72" width="4.19" height="2.51" rx=".49" ry=".49"/>
  <rect class="cls-6" x="606.69" y="431.72" width="4.19" height="2.51" rx=".49" ry=".49"/>
  <rect class="cls-6" x="598.31" y="431.72" width="4.19" height="2.51" rx=".49" ry=".49"/>
  <rect class="cls-6" x="589.94" y="431.72" width="4.19" height="2.51" rx=".49" ry=".49"/>
  <rect class="cls-6" x="581.56" y="431.72" width="4.19" height="2.51" rx=".49" ry=".49"/>
  <rect class="cls-6" x="573.18" y="431.72" width="4.19" height="2.51" rx=".49" ry=".49"/>
  <rect class="cls-6" x="564.8" y="431.72" width="4.19" height="2.51" rx=".49" ry=".49"/>
  <rect class="cls-6" x="556.43" y="431.72" width="4.19" height="2.51" rx=".49" ry=".49"/>
  <rect class="cls-6" x="548.05" y="431.72" width="4.19" height="2.51" rx=".49" ry=".49"/>
  <rect class="cls-6" x="539.67" y="431.72" width="4.19" height="2.51" rx=".49" ry=".49"/>
  <rect class="cls-6" x="531.3" y="431.72" width="4.19" height="2.51" rx=".49" ry=".49"/>
  <rect class="cls-6" x="522.92" y="431.72" width="4.19" height="2.51" rx=".49" ry=".49"/>
  <rect class="cls-6" x="514.54" y="431.72" width="4.19" height="2.51" rx=".49" ry=".49"/>
  <rect class="cls-6" x="506.17" y="431.72" width="4.19" height="2.51" rx=".49" ry=".49"/>
  <rect class="cls-6" x="497.79" y="431.72" width="4.19" height="2.51" rx=".49" ry=".49"/>
  <rect class="cls-6" x="623.54" y="435.91" width="4.19" height="2.51" rx=".49" ry=".49"/>
  <rect class="cls-6" x="615.17" y="435.91" width="4.19" height="2.51" rx=".49" ry=".49"/>
  <rect class="cls-6" x="606.79" y="435.91" width="4.19" height="2.51" rx=".49" ry=".49"/>
  <rect class="cls-6" x="598.41" y="435.91" width="4.19" height="2.51" rx=".49" ry=".49"/>
  <rect class="cls-6" x="590.03" y="435.91" width="4.19" height="2.51" rx=".49" ry=".49"/>
  <rect class="cls-6" x="581.66" y="435.91" width="4.19" height="2.51" rx=".49" ry=".49"/>
  <rect class="cls-6" x="573.28" y="435.91" width="4.19" height="2.51" rx=".49" ry=".49"/>
  <rect class="cls-6" x="564.9" y="435.91" width="4.19" height="2.51" rx=".49" ry=".49"/>
  <rect class="cls-6" x="556.53" y="435.91" width="4.19" height="2.51" rx=".49" ry=".49"/>
  <rect class="cls-6" x="548.15" y="435.91" width="4.19" height="2.51" rx=".49" ry=".49"/>
  <rect class="cls-6" x="539.77" y="435.91" width="4.19" height="2.51" rx=".49" ry=".49"/>
  <rect class="cls-6" x="531.4" y="435.91" width="4.19" height="2.51" rx=".49" ry=".49"/>
  <rect class="cls-6" x="523.02" y="435.91" width="4.19" height="2.51" rx=".49" ry=".49"/>
  <rect class="cls-6" x="514.64" y="435.91" width="4.19" height="2.51" rx=".49" ry=".49"/>
  <rect class="cls-6" x="506.26" y="435.91" width="4.19" height="2.51" rx=".49" ry=".49"/>
  <rect class="cls-6" x="497.89" y="435.91" width="4.19" height="2.51" rx=".49" ry=".49"/>
  <rect class="cls-6" x="554.01" y="440.93" width="33.51" height="2.51" rx=".49" ry=".49"/>
  <rect class="cls-5" x="515.63" y="358.74" width="5.97" height="3.12" rx="1.56" ry="1.56"/>
  <rect class="cls-5" x="548.15" y="358.74" width="5.97" height="3.12" rx="1.56" ry="1.56"/>
  <rect class="cls-5" x="557.37" y="358.74" width="5.97" height="3.12" rx="1.56" ry="1.56"/>
  <rect class="cls-5" x="524.48" y="358.48" width="20.8" height="3.12" rx="1.56" ry="1.56"/>
  <rect class="cls-5" x="567.84" y="358.48" width="20.8" height="3.12" rx="1.56" ry="1.56"/>
  <rect class="cls-5" x="524.3" y="365.78" width="5.97" height="3.12" rx="1.56" ry="1.56"/>
  <rect class="cls-5" x="556.83" y="365.78" width="5.97" height="3.12" rx="1.56" ry="1.56"/>
  <rect class="cls-5" x="566.04" y="365.78" width="5.97" height="3.12" rx="1.56" ry="1.56"/>
  <rect class="cls-5" x="533.15" y="365.52" width="20.8" height="3.12" rx="1.56" ry="1.56"/>
  <rect class="cls-5" x="576.51" y="365.52" width="20.8" height="3.12" rx="1.56" ry="1.56"/>
  <rect class="cls-5" x="532.98" y="372.83" width="5.97" height="3.12" rx="1.56" ry="1.56"/>
  <rect class="cls-5" x="565.5" y="372.83" width="5.97" height="3.12" rx="1.56" ry="1.56"/>
  <rect class="cls-5" x="574.71" y="372.83" width="5.97" height="3.12" rx="1.56" ry="1.56"/>
  <rect class="cls-5" x="541.82" y="372.57" width="20.8" height="3.12" rx="1.56" ry="1.56"/>
  <rect class="cls-5" x="585.19" y="372.57" width="20.8" height="3.12" rx="1.56" ry="1.56"/>
  <rect class="cls-5" x="541.65" y="379.88" width="5.97" height="3.12" rx="1.56" ry="1.56"/>
  <rect class="cls-5" x="574.17" y="379.88" width="5.97" height="3.12" rx="1.56" ry="1.56"/>
  <rect class="cls-5" x="583.39" y="379.88" width="5.97" height="3.12" rx="1.56" ry="1.56"/>
  <rect class="cls-5" x="550.5" y="379.62" width="20.8" height="3.12" rx="1.56" ry="1.56"/>
  <rect class="cls-5" x="548.15" y="407.9" width="5.97" height="3.12" rx="1.56" ry="1.56"/>
  <rect class="cls-5" x="557.37" y="407.9" width="5.97" height="3.12" rx="1.56" ry="1.56"/>
  <rect class="cls-5" x="567.84" y="408.16" width="20.8" height="3.12" rx="1.56" ry="1.56"/>
  <rect class="cls-5" x="515.63" y="407.9" width="5.97" height="3.12" rx="1.56" ry="1.56"/>
  <rect class="cls-5" x="524.48" y="408.16" width="20.8" height="3.12" rx="1.56" ry="1.56"/>
  <rect class="cls-5" x="524.3" y="400.85" width="5.97" height="3.12" rx="1.56" ry="1.56"/>
  <rect class="cls-5" x="556.83" y="400.85" width="5.97" height="3.12" rx="1.56" ry="1.56"/>
  <rect class="cls-5" x="566.04" y="400.85" width="5.97" height="3.12" rx="1.56" ry="1.56"/>
  <rect class="cls-5" x="533.15" y="401.11" width="20.8" height="3.12" rx="1.56" ry="1.56"/>
  <rect class="cls-5" x="532.98" y="393.8" width="5.97" height="3.12" rx="1.56" ry="1.56"/>
  <rect class="cls-5" x="565.5" y="393.8" width="5.97" height="3.12" rx="1.56" ry="1.56"/>
  <rect class="cls-5" x="574.71" y="393.8" width="5.97" height="3.12" rx="1.56" ry="1.56"/>
  <rect class="cls-5" x="541.82" y="394.06" width="20.8" height="3.12" rx="1.56" ry="1.56"/>
  <rect class="cls-5" x="541.65" y="386.76" width="5.97" height="3.12" rx="1.56" ry="1.56"/>
  <rect class="cls-5" x="574.17" y="386.76" width="5.97" height="3.12" rx="1.56" ry="1.56"/>
  <rect class="cls-5" x="583.39" y="386.76" width="5.97" height="3.12" rx="1.56" ry="1.56"/>
  <rect class="cls-5" x="550.5" y="387.02" width="20.8" height="3.12" rx="1.56" ry="1.56"/>
  <path class="cls-7" d="m504.92,490.48l-13.35-21.1,41.9-33.4,17.3-19.16c7.09-7.86,19.21-8.48,27.06-1.38,2.47,2.23,4.31,5.06,5.36,8.21h0c3.24,9.81-1.88,20.42-11.57,23.99l-27.35,10.08-39.35,32.77Z"/>
  <path class="cls-9" d="m191.69,337.48v102.56h71.85v-102.56c0-1.51-.98-2.85-2.43-3.3-.33-.11-.68-.16-1.03-.16h-64.92c-1.91,0-3.47,1.54-3.47,3.46h0Zm28.04,35.24c.04-4.24,3.51-7.64,7.74-7.6,4.18.04,7.56,3.42,7.6,7.6v11.9c-.02,4.24-3.47,7.65-7.71,7.63-4.21-.02-7.61-3.43-7.63-7.63v-11.9Z"/>
  <path class="cls-6" d="m191.47,436.76v9.89c0,1.07.86,1.93,1.93,1.94h68.43c1.07,0,1.93-.87,1.93-1.94v-9.89h-72.29Z"/>
  <path class="cls-6" d="m78.66,182.96v187.26c0,4.97,4.03,9,9,9h277.5c4.97,0,9-4.03,9-9v-187.26c-.01-4.96-4.04-8.98-9-8.99H87.66c-4.96,0-8.99,4.03-9,8.99Z"/>
  <g id="Layer_2" data-name="Layer 2">
    <g id="Layer_3" data-name="Layer 3">
      <rect class="cls-4" x="209.38" y="260.83" width="50.72" height="10.85" rx="3.26" ry="3.26"/>
      <rect class="cls-1" x="183.63" y="304.21" width="102.24" height="10.85" rx="3.26" ry="3.26"/>
      <rect class="cls-1" x="183.63" y="282.52" width="102.24" height="10.85" rx="3.26" ry="3.26"/>
      <path class="cls-6" d="m353.99,205.63H98.67c-.56-.01-1.01-.48-.99-1.04.01-.54.45-.98.99-.99h255.32c.56.01,1.01.48.99,1.04-.01.54-.45.98-.99.99Z"/>
      <ellipse class="cls-6" cx="116.05" cy="192.33" rx="5.95" ry="6.08"/>
      <ellipse class="cls-6" cx="136.61" cy="192.33" rx="5.95" ry="6.08"/>
      <ellipse class="cls-6" cx="157.16" cy="192.33" rx="5.95" ry="6.08"/>
      <path class="cls-6" d="m341.62,187.75h-14.6c-.61.01-1.09.52-1.08,1.13.01.59.49,1.07,1.08,1.08h14.6c.61,0,1.1-.51,1.09-1.12,0-.6-.49-1.08-1.09-1.09Z"/>
      <path class="cls-6" d="m341.62,191.9h-14.6c-.61.01-1.09.52-1.08,1.13.01.59.49,1.07,1.08,1.08h14.6c.61,0,1.1-.51,1.09-1.12,0-.6-.49-1.08-1.09-1.09Z"/>
      <path class="cls-6" d="m341.62,196.05h-14.6c-.61.01-1.09.52-1.08,1.13.01.59.49,1.07,1.08,1.08h14.6c.61,0,1.1-.51,1.09-1.12,0-.6-.49-1.08-1.09-1.09Z"/>
    </g>
    <path class="cls-3" d="m85.17,185.29v182.62c0,2.65,2.16,4.81,4.81,4.81h272.87c2.65,0,4.81-2.16,4.81-4.81v-182.62c0-2.66-2.15-4.81-4.81-4.82H89.98c-2.66,0-4.81,2.16-4.81,4.82Z"/>
  </g>
  <g id="Layer_4" data-name="Layer 4">
    <path class="cls-5" d="m165.76,303.3c-1.36,0-2.51-.45-3.47-1.36-.95-.93-1.43-2.03-1.43-3.31s.48-2.42,1.43-3.34c.95-.93,2.11-1.39,3.47-1.39s2.55.46,3.5,1.39c.97.93,1.46,2.04,1.46,3.34s-.49,2.38-1.46,3.31c-.95.91-2.12,1.36-3.5,1.36Z"/>
    <path class="cls-5" d="m220.1,302.53h-8.84l-23.28-36.73c-.59-.93-1.08-1.89-1.46-2.89h-.2c.18,1.07.27,3.36.27,6.86v32.75h-7.82v-49.97h9.41l22.5,35.85c.95,1.49,1.56,2.51,1.84,3.07h.14c-.23-1.32-.34-3.57-.34-6.72v-32.2h7.78v49.97Z"/>
    <path class="cls-5" d="m258.16,302.53h-27.36v-49.97h26.27v7.04h-18.18v14.15h16.75v7h-16.75v14.77h19.27v7Z"/>
    <path class="cls-5" d="m297.04,259.6h-14v42.93h-8.09v-42.93h-13.97v-7.04h36.06v7.04Z"/>
  </g>
  <path class="cls-9" d="m135.81,447.92c.56.71,1.42,1.11,2.32,1.11h162.34c1.65,0,2.99-1.34,2.98-2.99,0-.2-.02-.41-.06-.61l-2.52-11.97c-.21-.99-.91-1.81-1.86-2.17-.34-.13-.7-.2-1.06-.2h-157.31c-.36,0-.72.07-1.06.2-.95.36-1.65,1.18-1.86,2.17l-2.52,11.97c-.18.88.04,1.79.61,2.49Z"/>
  <path class="cls-9" d="m693.6,441.1c.9,2.63,3.4,4.38,6.18,4.33l26.49-.68c2.81-.05,5.24-1.95,5.98-4.66l3.75-40.09c1.33.6,2.78.9,4.24.87,5.33-.13,9.55-4.57,9.42-9.9s-4.57-9.55-9.9-9.42c-.58,0-1.17.06-1.74.18-1.25-1.36-3.03-2.12-4.87-2.1l-40.75,1.05c-.34.01-.67.05-1.01.12-3.46.64-5.73,3.97-5.09,7.42.05.29.13.57.22.84l7.08,52.02Zm43.17-43.82l2.67-9.55c.3-1.1.31-2.27.02-3.37.13,0,.24-.06.37-.06,3.82-.08,6.97,2.95,7.05,6.77.08,3.8-2.93,6.95-6.73,7.05-1.18.04-2.35-.25-3.38-.83Z"/>
  <path class="cls-6" d="m691.39,380.82c.87,4.96,10.63,8.45,22.37,7.85,10.79-.5,19.62-4.29,21.23-8.78-.6-.18-1.22-.26-1.84-.25l-40.75,1.05c-.34.01-.67.05-1.01.12Z"/>
  <path class="cls-4" d="m715.9,419.07c.05-.01.1-.04.15-.07l5.75-3.77c.23-.15.3-.46.15-.69-.04-.06-.09-.11-.15-.15l-5.98-3.92c-.23-.15-.54-.09-.69.14s-.09.54.14.69l5.34,3.5-5.11,3.35c-.23.15-.3.46-.14.69.12.18.33.26.54.21h0Z"/>
  <path class="cls-4" d="m706.82,419.49c.27-.07.43-.34.36-.61-.03-.13-.12-.24-.24-.31l-5.3-3.04,5.13-3.81c.22-.16.27-.48.1-.7s-.48-.27-.7-.1l-5.74,4.26c-.22.16-.27.48-.1.7.04.06.09.1.15.14l5.97,3.42c.11.06.25.08.37.05Z"/>
  <path class="cls-4" d="m715.33,422.37s.09-.03.14-.06c.24-.14.31-.45.17-.69,0,0,0,0,0,0l-8.16-13.41c-.14-.24-.45-.31-.69-.17s-.31.45-.17.69l8.16,13.41c.11.19.34.28.55.22Z"/>
  <path class="cls-6" d="m290.71,376.85l.22.68v.02s6.54,19.84,6.54,19.84l7.51,22.86,14.12,42.96.14,6.67v.02l1.05,53.68-2.91,7.28,3.27,11.93s-1.51-18.04-9.58-7.68c-4.57,5.89-9.92,11.91-14.32,17.56,6.4,2.59,12.9,4.93,19.51,7.03,1.43.46,2.86.89,4.3,1.32.31.09.62.18.92.27,21.89,6.47,44.53,10.11,67.35,10.83,1.19.03,2.35.06,3.48.08.4.01.79.02,1.17.02,1.28.01,2.54.02,3.82.02,2.58,0,5.14-.04,7.7-.11,18.91-.53,37.72-3.08,56.09-7.59-.13-7.59-.47-16.45-.96-25.92-.23-4.64-5.35-9.67-5.66-14.53-.22-3.65,4.38-7.08,4.14-10.79-1.55-22.83-3.49-14.06-4.93-30.23-.15-1.59-.29-3.1-.41-4.55-.92-10.38-1.56-16.87-1.56-16.87l6.14-38.68,9.64-60.73-.74-1.22-.83-.41-50.84-25.17-2.76-7.07c-1.65-4.17-5.66-6.92-10.14-6.95l-33.49-.14c-3.53-.02-6.84,1.67-8.91,4.53l-9.07,12.56-59.99,38.47Z"/>
  <path class="cls-6" d="m326.82,453.65l-7.59,16.23-5.18,11.09-8.91,46.65-4.46,4.73-3.82-16.76-40,8.88c-1.31-7.29-.35.25-1.16-7.75.23-.23.47-.46.71-.68.64-.59,1.17-1.15,1.16-1.69-.46-27.58.91-74.53,12.34-102.97,1.79-4.64,4.15-9.05,7.03-13.11.23-.31.44-.62.66-.92,5.27-7.38,8.6-14.65,13.32-19.82h0s.06-.06.08-.09c.02,0,.03-.02.05-.03l32.44-17.2,1.39,39.11.99,28.11.94,26.23Z"/>
  <path class="cls-6" d="m443.8,458.26l9.48,20.28,3.31,7.06,8.91,46.64,4.45,4.72,3.83-16.76,1.8-.37,32.46-6.72,9.46,30.05c4.4-7.32,3.03-16.73-3.26-22.51-.65-.58-1.18-1.15-1.17-1.69.54-32.44-1.45-91.68-19.37-116.07-5.69-7.74-9.11-15.44-14.08-20.83-.02-.02-.02-.03-.03-.03l-12.09-19.8-.74-1.22-.83-.42-22.12,97.65Z"/>
  <circle id="a657ec4b-47ce-4d2a-9c58-81a811696ca9" class="cls-7" cx="386.4" cy="267.2" r="44.56"/>
  <path class="cls-9" d="m446.62,236.08c-.7-.75-1.67-1.18-2.69-1.19l.67-1.86c.68-1.83-.25-3.86-2.07-4.54-.6-.23-1.26-.28-1.89-.16l-2.44.47.23-1.63c.28-1.93-1.06-3.72-2.99-4.01-.59-.09-1.19-.02-1.74.19-1.06.42-2.25.33-3.24-.23-.99-.54-1.7-1.5-1.92-2.61l-.85-4.1-.09-.22c-4.14-6.9-12.1-11.92-21.84-13.76-8.67-1.65-17.56-.81-26.13-.02-3.4.32-7.24.68-10.44,2.64-2.72,1.68-5.02,5.04-4.55,8.43-8.45-2.59-17.51,2.58-22,9.1-5.32,7.76-6.19,17.48-6.33,25.08-.38,17.98,3.33,32.69,11,43.73.56.8.7,2.47,1.81,3.03l-.23-.37c1.24.62,2.5,1.62,2.03,2.69-1.35,3.08,7.62,9.89,13.94,12.14,11.53,4.11,26.86,3.76,37.64,2.28l.38-2.55c3.89-.53,6.63-1.54,7.4-3.12,1.36-1.16,2.52-2.2,3.53-3.16h.01s.06-.06.08-.08c4.87-4.67,6-7.33,6.51-11.38.49-3.97-.38-8-1.27-11.63,18.74,2.9-7.38-19.96,10.08-24.38.2-.06.4-.11.61-.15.51-.12,1.02-.24,1.51-.38,2.36-.64,4.62-1.61,6.72-2.87,4.88-2.97,6.49-6.91,9.01-11.35.75-1.3.56-2.93-.45-4.03Z"/>
  <path class="cls-9" d="m543.99,461.44c-.01,1.75-.03,4.2-.11,7.23-.01.42-.02.85-.03,1.29-.13,5.57-.26,10.24-.47,15.43-.01.36-.02.71-.04,1.07-.28,7.24-.72,15.67-1.48,29.02-1.41,24.66-3.87,3.39-6.34,12.04-.12.43-.25.94-.37,1.54-.37,2.18-1.01,4.3-1.88,6.33-1.31.78-2.66,1.53-3.99,2.28-3.79,2.11-7.64,4.14-11.52,6.07-2.18,1.08-4.37,2.14-6.57,3.16-.35.16-.69.32-1.03.47-11.27,5.21-22.88,9.64-34.75,13.26-2.32.7-4.63,1.38-6.97,2.01-2.44.68-4.88,1.32-7.35,1.92-18.37,4.51-37.18,7.06-56.09,7.59-2.55.08-5.12.11-7.7.11-1.28,0-2.54-.01-3.82-.02-.39,0-.78-.01-1.17-.02-1.13-.03-2.3-.05-3.48-.08-22.82-.71-45.46-4.35-67.35-10.83l-.93-.27c-1.44-.44-2.87-.87-4.3-1.33-6.6-2.09-13.1-4.43-19.51-7.02-4.89-1.97-9.72-4.08-14.5-6.34-.04-.01-.08-.03-.12-.06-1-.46-2.01-.94-3.01-1.43-.13-.07-.27-.14-.41-.21-3.73-1.82-7.42-3.73-11.07-5.72-3.07-7.05-7.39-8.4-10.07-14.6-.78-1.84-1.34-3.77-1.68-5.74,0-.02-.01-.04-.01-.07.28,3.72-1.19-6.6-.01-.04-.01-.12-.02-.25-.03-.4-.03-.36-.07-.8-.13-1.35-3.43-33.49-3.21-71.79-4.7-103.35-.1-2.04-.2-3.99-.31-5.86-.03-.62-.07-1.23-.11-1.83.07-.18.15-.37.24-.55.02-.05.04-.1.07-.15.03-.06.06-.12.1-.18.02-.03.05-.07.07-.1.01-.03.03-.07.05-.1.09-.14.19-.29.3-.43.05-.06.09-.11.14-.16.03-.05.07-.1.12-.14.03-.05.07-.09.11-.13.04-.04.08-.09.13-.14.02-.03.05-.06.08-.08.08-.09.17-.17.26-.25.36-.33.74-.63,1.14-.9.14-.09.29-.18.43-.28,1.01-.6,2.07-1.11,3.17-1.52.38-.14.76-.27,1.17-.41.15-.04.29-.09.44-.14.22-.07.44-.14.67-.19,1.14-.34,2.37-.63,3.7-.9.16-.03.33-.06.5-.1.24-.05.49-.09.74-.13.34-.06.69-.12,1.04-.18,2.97-.47,6.34-.82,10.06-1.05.35-.02.7-.04,1.05-.06.41-.02.82-.04,1.24-.06.35-.02.71-.03,1.07-.04.35-.02.71-.03,1.08-.04,1.01-.03,2.05-.06,3.11-.08,3.02-.06,6.2-.04,9.54.03,1.55.04,3.13.08,4.75.15.11,0,.21.01.31.01,1.41.05,2.83.11,4.29.19,1.02.05,2.05.1,3.08.16.97.06,1.95.12,2.94.19.77.04,1.54.1,2.32.15.66.05,1.32.1,1.98.14l.9.06c.49.04.98.07,1.48.12,1.1.09,2.2.18,3.32.27,1.11.1,2.24.2,3.37.3s2.27.21,3.41.32c.12.01.23.02.34.03,1.04.11,2.08.21,3.13.32.24.02.49.04.73.07,1,.1,2.02.22,3.03.33.31.03.62.07.93.1.79.09,1.57.16,2.37.25,1.05.12,2.12.23,3.16.37.81.09,1.62.18,2.43.28,1.27.15,2.56.31,3.85.48.49.06.98.12,1.47.19,3.68.46,7.4.97,11.18,1.5,5.73.81,11.55,1.69,17.41,2.64,5.87.95,11.77,1.95,17.71,3.01,1.5.27,3,.54,4.51.82.68.13,1.36.26,2.04.39,1.16.21,2.32.43,3.48.65,1.16.22,2.32.44,3.48.67,1.38.27,2.77.54,4.15.81,9.09,1.8,18.13,3.72,26.95,5.73,1.45.33,2.9.67,4.34,1,2.88.67,5.73,1.35,8.56,2.04.78.18,1.55.37,2.32.56,1.92.48,3.84.96,5.73,1.45l.33.09c1.39.34,2.75.69,4.11,1.05,3.21.84,6.37,1.69,9.47,2.55,2.06.57,4.1,1.15,6.11,1.73,3.01.87,5.96,1.75,8.83,2.64.71.22,1.42.44,2.12.65,2.1.65,4.17,1.31,6.18,1.97,1.6.52,3.16,1.05,4.7,1.58,1.54.53,3.05,1.06,4.53,1.59.95.34,1.89.7,2.83,1.04,1.35.5,2.68,1,3.98,1.5.4.15.79.31,1.18.46.25.11.49.2.73.3.47.19.95.37,1.41.56.47.18.93.37,1.39.57.45.18.91.37,1.35.56.45.18.89.37,1.33.57.37.15.73.31,1.08.47.71.31,1.42.62,2.11.94.34.16.68.31,1.02.47l.78.36c.11.06.22.11.33.16.25.12.51.25.76.37.58.27,1.15.56,1.71.83.75.38,1.48.76,2.18,1.13.71.38,1.4.76,2.06,1.13.11.06.21.12.32.18.15.08.3.17.45.25.51.29,1,.59,1.49.88.96.59,1.87,1.17,2.72,1.75.19.13.37.26.56.38.63.45,1.23.89,1.79,1.34t.01.01c.19.14.37.29.55.43.15.14.31.26.46.4.52.45,1,.88,1.44,1.32.15.14.29.28.42.43.06.05.11.1.16.16.2.2.38.4.55.6.03.03.05.06.07.09.24.28.46.56.67.84.1.14.21.28.3.42.12.17.24.35.34.52.09.14.17.29.25.43.21.36.39.74.54,1.13.11.27.2.54.27.82.08.27.13.54.17.81Z"/>
  <path class="cls-2" d="m543.99,461.44c-.01,1.75-.03,4.2-.11,7.23-.01.42-.03.85-.04,1.29-.1,4.25-.25,9.5-.46,15.43-.01.36-.02.71-.04,1.07-.28,7.24-.72,15.67-1.48,29.02-1.41,24.66-3.87,3.39-6.34,12.04-6.86-4.22-14.38-8.64-22.42-13.18-1.45-.82-2.91-1.64-4.39-2.47-16.08-8.97-34.04-18.37-52.79-27.68-.74-.37-1.49-.74-2.23-1.1-42.95-21.23-89.83-41.88-127.81-55.66-7.33-2.66-14.33-5.06-20.91-7.17-13.86-4.43-25.84-7.53-35.06-8.87-9.6-1.4-16.23-.9-18.91,1.99-.1-2.04-.2-3.99-.31-5.86-.04-.62-.08-1.23-.12-1.83.06-.16.14-.32.22-.48.01-.02.02-.05.03-.07.02-.05.04-.1.07-.15.03-.06.06-.12.1-.18.03-.07.07-.14.12-.2.09-.14.19-.29.3-.43.08-.1.17-.21.26-.3.03-.05.07-.09.11-.13.04-.04.08-.09.13-.14.02-.03.05-.06.08-.08.08-.09.17-.17.26-.25.36-.33.74-.63,1.14-.9.14-.09.29-.18.43-.28,1.01-.6,2.07-1.11,3.17-1.52.38-.14.76-.27,1.17-.41.15-.04.29-.09.44-.14.22-.07.44-.14.67-.19,1.14-.34,2.37-.63,3.7-.9.4-.08.82-.16,1.24-.23.34-.06.69-.12,1.04-.18,2.97-.47,6.34-.82,10.06-1.05.35-.02.7-.04,1.05-.06.41-.02.82-.04,1.24-.06.35-.02.71-.03,1.07-.04.35-.02.71-.03,1.08-.04,1.01-.03,2.05-.06,3.11-.08,3.02-.05,6.2-.03,9.54.04,1.55.03,3.13.08,4.75.15.1,0,.21.01.31.01,1.41.04,2.84.11,4.29.18,1.02.05,2.05.1,3.08.16.97.06,1.95.12,2.94.19.77.04,1.54.1,2.32.15.66.05,1.32.1,1.98.14.79.06,1.58.12,2.38.18,1.1.09,2.2.18,3.32.27,1.11.1,2.24.2,3.37.3s2.27.21,3.41.32c.12.01.23.02.34.03,1.04.11,2.08.21,3.13.32,5.82.59,11.81,1.28,17.97,2.07,3.68.47,7.41.97,11.18,1.51,5.73.81,11.55,1.69,17.41,2.63,5.87.95,11.77,1.95,17.71,3.01,1.5.27,3,.54,4.51.82,1.84.34,3.68.69,5.52,1.04,1.16.22,2.32.44,3.48.67,1.38.27,2.77.54,4.15.81,9.09,1.8,18.13,3.72,26.95,5.73,1.45.33,2.9.67,4.34,1,2.88.67,5.73,1.35,8.56,2.04.78.19,1.55.38,2.32.57,1.93.48,3.84.96,5.73,1.44h0c.11.03.22.06.33.09,1.38.35,2.75.7,4.11,1.06,3.21.84,6.37,1.69,9.47,2.54,2.06.58,4.1,1.15,6.11,1.73,3.01.88,5.96,1.76,8.83,2.64.71.22,1.42.44,2.12.65,2.1.66,4.16,1.32,6.18,1.97,1.6.52,3.16,1.05,4.7,1.58,1.54.53,3.05,1.06,4.53,1.59.96.34,1.9.69,2.83,1.03,1.36.5,2.68,1,3.98,1.51.4.15.79.31,1.18.46.73.28,1.44.57,2.14.86.47.18.93.37,1.39.57.45.18.91.37,1.35.56.45.18.89.37,1.33.57.37.15.73.31,1.08.47.71.31,1.42.62,2.11.94.34.16.68.31,1.02.47l.78.36c.11.06.22.11.33.16.85.4,1.67.8,2.47,1.2.75.38,1.48.76,2.18,1.13.83.44,1.62.87,2.38,1.31.15.08.3.17.45.25.51.29,1,.59,1.49.88.96.59,1.87,1.17,2.72,1.75.84.58,1.62,1.15,2.35,1.72t.01.01c.35.28.69.56,1.01.83.52.45,1,.88,1.44,1.32.15.14.29.28.42.43.06.05.11.1.16.16.21.23.42.46.62.69.24.28.46.56.67.84.1.14.21.28.3.42.12.17.24.35.34.52.09.14.17.29.25.43.21.36.39.74.54,1.13.11.27.2.54.27.82.08.27.13.54.17.81Z"/>
</svg>