<svg xmlns="http://www.w3.org/2000/svg" data-name="Layer 1" viewBox="0 0 995 698"><path fill="#f2f2f2" d="M813 438H172a17 17 0 0 1-17-17V26a12 12 0 0 1 12-12h650a12 12 0 0 1 12 12v395a17 17 0 0 1-16 17Z"/><path fill="#fff" d="M789 414H192c-9 0-16-6-16-15V55c0-6 5-11 12-11h605c7 0 12 5 12 11v344c0 9-7 15-16 15Z"/><path fill="#ccc" d="M829 25H155v-8a17 17 0 0 1 17-17h640a17 17 0 0 1 17 17Z"/><circle cx="185.2" cy="12.5" r="4.3" fill="#fff"/><circle cx="201.5" cy="12.5" r="4.3" fill="#fff"/><circle cx="217.7" cy="12.5" r="4.3" fill="#fff"/><path fill="#ccc" d="M724 356H261a18 18 0 0 1-18-17V116a13 13 0 0 1 13-13h472a13 13 0 0 1 13 13v223a18 18 0 0 1-17 17ZM256 105a11 11 0 0 0-11 11v223a16 16 0 0 0 16 15h463a16 16 0 0 0 15-15V116a11 11 0 0 0-11-11Z"/><path fill="#f2f2f2" d="M277 339h431a16 16 0 0 0 16-16V136a16 16 0 0 0-16-16H277a16 16 0 0 0-16 16v187a16 16 0 0 0 16 16Z"/><circle cx="325.7" cy="165.7" r="9" fill="#ccc"/><circle cx="325.7" cy="199.7" r="9" fill="#ccc"/><circle cx="325.7" cy="233.7" r="9" fill="#ccc"/><circle cx="325.7" cy="267.7" r="9" fill="#ccc"/><path fill="#ccc" d="M667 167H371a1 1 0 0 1 0-2h296a1 1 0 0 1 0 2ZM667 201H371a1 1 0 0 1 0-2h296a1 1 0 0 1 0 2ZM667 235H371a1 1 0 0 1 0-2h296a1 1 0 0 1 0 2ZM667 269H371a1 1 0 0 1 0-2h296a1 1 0 0 1 0 2Z"/><path fill="#63a5ff" d="M427 303h-29a5 5 0 0 1-5-5v-27a5 5 0 0 1 5-5h29a5 5 0 0 1 5 5v27a5 5 0 0 1-5 5ZM492 303h-29a5 5 0 0 1-5-5v-61a5 5 0 0 1 5-5h29a5 5 0 0 1 5 5v61a5 5 0 0 1-5 5ZM558 303h-29a5 5 0 0 1-5-5v-95a5 5 0 0 1 5-5h29a5 5 0 0 1 5 5v95a5 5 0 0 1-5 5ZM626 303h-29a5 5 0 0 1-5-5V170a5 5 0 0 1 5-5h29a5 5 0 0 1 5 5v128a5 5 0 0 1-5 5Z"/><path fill="#3f3d56" d="M667 303H371a1 1 0 0 1 0-2h296a1 1 0 0 1 0 2Z"/><path fill="#ffb8b8" d="M797 489a10 10 0 0 1 15-2l32-16-2 19-30 12a10 10 0 0 1-15-13Z"/><path fill="#3f3d56" d="M824 496a5 5 0 0 1-1-2l-3-8a5 5 0 0 1 2-5l25-20 28-51a14 14 0 1 1 23 17l-16 34a46 46 0 0 1-23 23l-30 13a5 5 0 0 1-4 0 4 4 0 0 1-1-1Z"/><circle cx="898.8" cy="363.5" r="24.6" fill="#ffb8b8"/><path fill="#ffb8b8" d="M889 686h-12l-6-48h18v48z"/><path fill="#2f2e41" d="M868 682h23v15h-38a15 15 0 0 1 15-15Z"/><path fill="#ffb8b8" d="M929 686h-12l-6-48h18v48z"/><path fill="#2f2e41" d="M908 682h23v15h-38a15 15 0 0 1 15-15ZM930 674h-15a5 5 0 0 1-4-4l-21-76a1 1 0 0 0-1 0l5 73a4 4 0 0 1-5 4l-17-1a5 5 0 0 1-4-4l-14-153 5 4 54-9 21 161a5 5 0 0 1-4 5Z"/><path fill="#3f3d56" d="M872 529a33 33 0 0 1-17-4 4 4 0 0 1-2-5c2-11 11-70 20-102 4-13 12-21 24-21 18-2 34 12 36 31 3 32-9 78-15 97a4 4 0 0 1-7 2l-10-8a4 4 0 0 0-5 0c-9 8-17 10-24 10Z"/><path d="m907 444 9 38-13 32 9-31-5-39z" opacity=".2"/><path fill="#2f2e41" d="M913 384a17 17 0 0 0 6-1l3-1c8-3 13-12 13-20s-4-17-11-22-14-9-23-9c-9-1-19 1-24 9-2 2-3 4-2 7a4 4 0 0 0 2 2c2 2 4 0 6 0 4 0 6 3 7 6s1 6 0 9a23 23 0 0 0-1 6 6 6 0 0 0 2 5c2 1 5 0 7-1l6-4c2-1 5 0 6 2a7 7 0 0 1 1 2l2 10Z"/><path fill="#e6e6e6" d="m875 651-154-53a11 11 0 0 1-7-14l40-114a8 8 0 0 1 10-5l159 55a8 8 0 0 1 5 10l-40 115a11 11 0 0 1-13 6Z"/><path fill="#fff" d="m734 591 135 47a10 10 0 0 0 13-6l32-93a10 10 0 0 0-6-13l-135-47a10 10 0 0 0-13 7l-32 92a10 10 0 0 0 6 13Z"/><path fill="#63a5ff" d="m768 526-7-2a1 1 0 0 1-1-2l3-7a1 1 0 0 1 1-1l7 3a1 1 0 0 1 1 2l-2 6a1 1 0 0 1-2 1Z"/><path fill="#3f3d56" d="m762 543-7-2a1 1 0 0 1-1-2l3-6a1 1 0 0 1 1-1l7 2a1 1 0 0 1 1 2l-2 7a1 1 0 0 1-2 0Z"/><path fill="#ccc" d="m756 561-7-3a1 1 0 0 1-1-1l3-7a1 1 0 0 1 1-1l7 2a1 1 0 0 1 1 2l-2 7a1 1 0 0 1-2 1ZM813 538l-33-11a1 1 0 1 1 1-3l33 11a1 1 0 1 1-1 3ZM807 555l-33-11a1 1 0 0 1 1-3l33 12a1 1 0 1 1-1 2ZM801 573l-33-12a1 1 0 0 1 1-2l33 11a1 1 0 0 1-1 3Z"/><path fill="#63a5ff" d="m886 582 1-2a30 30 0 0 0-19-38l-11 30Z"/><path fill="#3f3d56" d="m854 574 11-30a30 30 0 1 0 18 40Z"/><path fill="#ffb8b8" d="M892 530a10 10 0 0 1 11-10l15-33 10 16-16 28a10 10 0 0 1-20-1Z"/><path fill="#3f3d56" d="M918 519a5 5 0 0 1-3-1l-7-5a5 5 0 0 1-1-5l8-31-10-58a14 14 0 1 1 29 0l8 36a46 46 0 0 1-4 33l-16 29a5 5 0 0 1-3 2 4 4 0 0 1-1 0Z"/><path fill="#ccc" d="M994 698H804a1 1 0 0 1 0-2h190a1 1 0 0 1 0 2Z"/><path fill="#a0616a" d="M491 685h12l6-47h-18v47z"/><path fill="#2f2e41" d="M487 681h25a15 15 0 0 1 15 16h-40Z"/><path fill="#a0616a" d="M442 685h12l6-47h-18v47z"/><path fill="#2f2e41" d="M438 681h25a15 15 0 0 1 15 16h-40Z"/><circle cx="493" cy="333.3" r="24.6" fill="#a0616a"/><path fill="#2f2e41" d="M510 675h-23a5 5 0 0 1-5-5l2-108a2 2 0 0 0-3 0l-14 109a5 5 0 0 1-4 4h-23a4 4 0 0 1-5-5l16-194 73-8-10 203a4 4 0 0 1-4 4Z"/><path fill="#3f3d56" d="M451 488a4 4 0 0 1-4-4c0-13-1-55 7-86a41 41 0 0 1 38-31 41 41 0 0 1 40 26c13 34 26 75 10 82-20 8-74 12-90 13h-1Z"/><path fill="#a0616a" d="M545 308a11 11 0 0 0 2 2l-3 49-11 6 6 17 20-8a8 8 0 0 0 5-8l-5-56a10 10 0 1 0-14-2Z"/><path fill="#3f3d56" d="m544 361 8 21a5 5 0 0 1-4 6l-22 5a12 12 0 0 1-8-24l20-11a5 5 0 0 1 6 3Z"/><path fill="#a0616a" d="M439 308a11 11 0 0 1-1 2l2 49 11 6-6 17-20-8a8 8 0 0 1-5-8l5-56a10 10 0 1 1 14-2Z"/><path fill="#3f3d56" d="M443 358a4 4 0 0 1 3 0l20 11a12 12 0 0 1-8 24l-22-5a5 5 0 0 1-3-6l7-21a4 4 0 0 1 3-3Z"/><path fill="#2f2e41" d="M503 337a16 16 0 0 1 9-15c7-4 12-12 10-19-3-10-16-16-27-13a49 49 0 0 0-8 4l-7 4a72 72 0 0 0-8 5 28 28 0 0 0-12 26c2 10 8 19 17 25a28 28 0 0 0 11 5c4 1 9 0 12-2 5-5 4-11 3-17a12 12 0 0 1 0-3Z"/><path fill="#ccc" d="M586 698H396a1 1 0 0 1 0-2h190a1 1 0 0 1 0 2Z"/><path fill="#e6e6e6" d="m276 515-157 65a11 11 0 0 1-14-6L57 457a8 8 0 0 1 4-11l162-66a8 8 0 0 1 11 4l48 117a11 11 0 0 1-6 14Z"/><path fill="#fff" d="m125 565 137-56a11 11 0 0 0 6-14l-39-94a11 11 0 0 0-14-6L78 451a11 11 0 0 0-6 14l39 95a11 11 0 0 0 14 5Z"/><path fill="#e6e6e6" d="m226 427 2-1-2 1zM222 429l-4 2 4-2Zm-8 4-4 1 4-2Zm-8 3-4 2v-1l4-1Zm-8 3-4 2 4-2Zm-8 4-4 1h-1l5-2Zm-8 3-5 2v-1l4-1Zm-9 3-4 2 4-2Zm-8 4-4 1 4-2Zm-8 3-4 2v-1l4-1Zm-8 3-4 2 4-2Zm-8 4-4 1 4-2Zm-8 3-4 2-1-1 5-1Zm-8 3-5 2 4-2Zm-9 4-4 1 4-2Zm-8 3-4 2v-1l4-1Zm-8 4-4 1 4-2ZM90 483h1-1zM173 486h2-2zM169 488l-4 1 4-2Zm-8 3-4 2v-1l4-1Zm-8 3-4 2 4-2Zm-8 4-4 1 4-2Zm-8 3-4 2v-1l4-1Zm-8 3-4 2 4-2Zm-8 4-4 1 4-2Zm-8 3-4 1 4-2ZM102 514h2-2zM139 516h2-2zM136 519l-5 1 4-2Zm-9 3-4 2v-1l4-1Zm-8 3-4 2 4-2ZM108 529h2-2zM150 542h2-2zM146 544l-4 2v-1l4-1Zm-8 3-4 2h-1l5-2Zm-9 4-4 1 4-2ZM119 554l2-1-2 1z"/><path fill="#63a5ff" d="m131 551 116-48a11 11 0 0 0 6-15l-23-57h-1l-28 68-21-9a3 3 0 0 0-3 0 3 3 0 0 0-1 2l-15 35-15-6a3 3 0 0 0-4 1l-11 29Z"/><path fill="#3f3d56" d="m130 551 12-29a3 3 0 0 1 4-1l15 6 15-36a3 3 0 0 1 4-1l21 9 28-69h1l-29 69-21-9a3 3 0 0 0-4 2l-15 35-15-6a3 3 0 0 0-4 1Z"/><circle cx="141.7" cy="516" r="2.5" fill="#3f3d56"/><circle cx="174.9" cy="485.1" r="2.5" fill="#3f3d56"/><circle cx="226.7" cy="426.6" r="2.5" fill="#3f3d56"/><path fill="#ffb8b8" d="M84 513a10 10 0 0 0 4-15l8-74H79l-6 72a10 10 0 0 0 11 17Z"/><circle cx="99.4" cy="360.5" r="23.1" fill="#ffb8b8"/><path fill="#ff6584" d="M104 467a4 4 0 0 1-4-3l-15-34a28 28 0 0 1 16-38 28 28 0 0 1 36 18c6 18 6 38 5 46a4 4 0 0 1-3 4l-34 7a4 4 0 0 1-1 0Z"/><path fill="#ffb8b8" d="M137 686h12l5-44h-17v44z"/><path fill="#2f2e41" d="M171 697h-36v-14h22a14 14 0 0 1 14 14Z"/><path fill="#ffb8b8" d="m22 671 10 6 26-36-15-8-21 38z"/><path fill="#2f2e41" d="m46 697-31-17 6-13 20 11a14 14 0 0 1 5 19ZM137 662a4 4 0 0 1-5-4l-14-111a2 2 0 0 0-4-1L54 655a4 4 0 0 1-6 2l-13-5a4 4 0 0 1-2-5l41-103a3 3 0 0 0 1 0c5-44 20-66 24-72a3 3 0 0 0 0-3v-2a4 4 0 0 1 1-4c15-17 42-8 42-8 30 42 19 175 16 202a4 4 0 0 1-3 3l-18 2Z"/><path fill="#ffb8b8" d="M189 387a10 10 0 0 0 0 2l-40 23-10-6-11 14 17 12a8 8 0 0 0 9 0l41-33a10 10 0 1 0-6-12Z"/><path fill="#ff6584" d="m147 413-13 17a4 4 0 0 1-6 0l-15-15a12 12 0 0 1 14-18l19 10a4 4 0 0 1 1 6ZM97 443l-21-4a4 4 0 0 1-4-6l7-20a12 12 0 0 1 23 4v22a4 4 0 0 1-5 4Z"/><path fill="#2f2e41" d="M103 355c6 4 14 8 20 4a11 11 0 0 0 3-13c-2-8-10-12-18-14-10-4-21-7-31-4s-19 12-17 23c1 8 9 15 8 23-1 9-11 13-19 15s-18 2-24 8c-8 7-6 21 1 29s19 12 29 15c14 3 29 5 43-1s24-20 20-34c-2-6-6-11-10-16s-7-10-8-15c-2-5-1-11 3-15a4 4 0 0 0 0-5Z"/><path fill="#ccc" d="M191 698H1a1 1 0 0 1 0-2h190a1 1 0 0 1 0 2Z"/></svg>