<svg xmlns="http://www.w3.org/2000/svg" xml:space="preserve" id="Layer_1" x="0" y="0" style="enable-background:new 0 0 691.3 489" version="1.1" viewBox="0 0 691.3 489"><style>.st1{fill:#fff}.st2{fill:#3f3d56}.st3{fill:#ccc}.st4{fill:#e6e6e6}.st5{fill:#ffb6b6}.st7{fill:#0085d5}</style><path d="M688 159.6c-9.5 33.1-37.4 56.2-66.4 75.9-4.1 2.7-8.1 5.4-12.2 8.1h-.1c-.2.1-.4.3-.6.4-.8.5-1.7 1.1-2.5 1.6l.5.2s.4.2 0 0c-.1-.1-.3-.1-.4-.2-16.9-6.8-34-14.1-47-26.9-13.4-13.2-21.3-34-14-51.4 1-2.3 2.2-4.4 3.6-6.5.6-.8 1.2-1.7 1.9-2.4 12.5-15.2 34.9-17.4 50.1-5 5.1 4.1 8.9 9.6 11 15.8 2.1-19.9-14.2-36.5-30-48.8-15.8-12.3-33.7-25.6-36.7-45.4-1.7-11 2.1-21.6 9.1-30.2.2-.3.4-.5.7-.8 8.5-10 20.4-16.4 33.4-17.9 24.2-2.5 47.7 10.3 65.3 27.1 28.1 27.3 45.2 68.8 34.3 106.4z" style="fill:#f2f2f2"/><path d="M642.6 116.4c4.6 7.2 8.2 15.1 10.6 23.3 2 7.4 2.9 15 2.7 22.6-.4 15.7-5.3 31-12.9 44.7-5.9 10.4-13 19.9-21.3 28.5-4.1 2.7-8.1 5.4-12.2 8.1h-.1c-.2.1-.4.3-.6.4-.8.5-1.7 1.1-2.5 1.6 0 0 .9.4.4.2-.1-.1-.3-.1-.4-.2 3.1-25.2-6.3-50.2-25-67.3-9.3-8.3-20.4-14.2-32.4-17.4.6-.8 1.2-1.7 1.9-2.4 4.6 1.3 9.2 3 13.5 5.1 15.5 7.4 28.2 19.7 36.2 34.9 7.2 13.8 10.3 29.4 8.9 44.9.7-.6 1.4-1.3 2.1-1.9 12.8-12 24.2-25.7 31.9-41.5 6.7-13.4 10-28.3 9.6-43.2-.6-16.3-7.1-31.5-16.6-44.6-10.1-14.1-22.7-26.6-36.3-37.4-13.8-11.1-29-20.4-45.1-27.8-.8-.4-1.1-1.2-.8-2 .1-.3.3-.6.7-.8.3-.1.7-.1 1 0 2 .9 4 1.8 5.9 2.8 16.3 8.1 31.6 18.1 45.4 30 13.4 11.4 26 24.5 35.4 39.4z" class="st1"/><path d="M1.1 30.5h542.3v2.2H1.1z" class="st2"/><circle cx="19.6" cy="16.3" r="6.5" class="st2"/><circle cx="38.3" cy="16.3" r="6.5" class="st2"/><circle cx="57.1" cy="16.3" r="6.5" class="st2"/><path d="M426 156.6H118.2c-3.9 0-7-3.1-7-7s3.1-7 7-7H426c3.9 0 7 3.1 7 7s-3.2 7-7 7z" class="st3"/><path d="M426 231.6H118.2c-3.9 0-7-3.1-7-7s3.1-7 7-7H426c3.9 0 7 3.1 7 7s-3.2 7-7 7zM426 260.4H118.2c-3.9 0-7-3.1-7-7s3.1-7 7-7H426c3.9 0 7 3.1 7 7s-3.2 7-7 7z" class="st4"/><path d="M375.8 127H168.3c-3.9 0-7-3.1-7-7s3.1-7 7-7h207.5c3.9 0 7 3.1 7 7s-3.1 7-7 7z" class="st3"/><path d="M226.7 202.8H118.5c-3.9 0-7-3.1-7-7s3.1-7 7-7h108.1c3.9 0 7 3.1 7 7s-3.1 7-6.9 7zM426.3 202.8H318.2c-3.9 0-7-3.1-7-7s3.1-7 7-7h108.1c3.9 0 7 3.1 7 7s-3.1 7-7 7c.1 0 0 0 0 0z" class="st4"/><path d="M536.9 0H7.6C3.4 0 0 3.4 0 7.6v358.6c0 4.2 3.4 7.6 7.6 7.6h395.8c-.1-.7-.2-1.5-.3-2.2H7.6c-3 0-5.4-2.4-5.4-5.4V7.6c0-3 2.4-5.4 5.4-5.4h529.3c3 0 5.4 2.4 5.4 5.4v219.8c.7 0 1.5.1 2.2.2V7.6c0-4.2-3.4-7.6-7.6-7.6z" class="st2"/><circle cx="531.5" cy="340.7" r="46.6" class="st5"/><path d="m504.7 394.2-2.1-21.3 42.1-7.8 24.8 60.4-43.2 49.7-30.8-60.5z" class="st5"/><path d="m501.9 383.6 9.2 2.1s-7.2-22.9-4.8-25.1c2.5-2.2 8.5 1.3 8.5 1.3l6.3 7.1 7.7-7.8s8.4-10.4 11.6-13.3c3.3-2.9-2-13.7-2-13.7s48.5-13.1 30.5-36.6c0 0-10.6-18.5-14-12.4-3.4 6-7.6-3.5-7.6-3.5l-12.6 2.4s-24.8-14.6-48.3 16.6 15.5 82.9 15.5 82.9z" style="fill:#2f2e41"/><path d="M619.3 454.2c-7.3 6.7-19.2 16-35.9 23-5.9 2.5-26.6 10.7-54.5 9.8-26.5-.8-45.9-9.4-53-12.8-14.3-6.9-24.8-15.3-31.6-21.5.1-3.2.6-8 2.8-13.2 8.3-19.7 52.7-36.6 52.7-36.6s.2.2.7.6c2.8 2.5 14.3 11.5 34.4 14 18 2.2 23.9-8.4 25.7-13.5.5-1.6.7-2.6.7-2.6l52.7 24.9c1.8 9.3 3.6 18.6 5.3 27.9z" class="st7"/><path d="M403.4 373.9c-.1-.7-.2-1.5-.3-2.2v-.3c-.3-2.6-.5-5.3-.6-8-.5 2.3-1 4.6-1.5 7 0 .3.1.7.1 1v.3c.1.7.2 1.5.3 2.2.3 2.2.6 4.4 1 6.6v-.3c.3-2.1.6-4.2 1-6.3zm141.1-148.3c-.7-.1-1.5-.1-2.2-.2h-.3c-3.2-.2-6.4-.4-9.7-.4-72.9 0-132 59.2-132 132.1 0 4.4.2 8.8.7 13.2 0 .3.1.7.1 1v.3c.1.7.2 1.5.3 2.2.3 2.2.6 4.4 1 6.6 8.1 44.1 37.9 81.2 79.3 98.5 2.1.9 4.2 1.7 6.3 2.4 1.4.5 2.8 1 4.2 1.4 1 .3 2.1.6 3.1.9 1.5.4 2.9.8 4.4 1.2 37 9.5 76.3 2.4 107.6-19.4 35.7-24.6 57-65.2 57-108.5 0-68.6-52.7-125.1-119.8-131.3zm62 238.1c-6.1 4.3-12.6 8-19.3 11.2-4.9 2.3-9.8 4.2-14.9 5.9-23 7.4-47.6 8.3-71.1 2.5-1.8-.4-3.5-.9-5.2-1.4-1.7-.5-3.4-1-5.1-1.6-1.4-.5-2.7-1-4.1-1.5-1.4-.5-2.8-1.1-4.2-1.7-42.9-17.9-73-57.2-79.1-103.2-.1-.7-.2-1.5-.3-2.2v-.3c-.3-2.6-.5-5.3-.6-8-.1-2.1-.2-4.2-.2-6.4.1-71.8 58.2-129.9 130-130 3.3 0 6.5.1 9.7.4h.3c.7 0 1.5.1 2.2.2 66 6.2 117.8 61.9 117.8 129.4-.1 42.6-21 82.5-55.9 106.7zm-119.8 15.1c-1.4-.5-2.8-1.1-4.2-1.7-42.9-17.9-73-57.2-79.1-103.2-.4 2.1-.7 4.2-1 6.3v.3c8.1 44.1 37.9 81.2 79.3 98.5 2.1.9 4.2 1.7 6.3 2.4-.5-.9-.9-1.8-1.3-2.6zM542 225.4c-3.2-.2-6.4-.4-9.7-.4-72.9 0-132 59.2-132 132.1 0 4.4.2 8.8.7 13.2 0 .3.1.7.1 1v.3h2v-.3c-.3-2.6-.5-5.3-.6-8-.1-2.1-.2-4.2-.2-6.4.1-71.8 58.2-129.9 130-130 3.3 0 6.5.1 9.7.4h.3v-2c-.1.1-.2.1-.3.1z" class="st2"/><path d="M639.6 258.8c40.5.7 40.5 61 0 61.7-40.5-.7-40.5-61 0-61.7z" class="st7"/><path d="M639.6 306.5c-1.2 0-2.2-1-2.2-2.2v-11.5c0-.5-.4-1-1-1H625c-1.2 0-2.2-1-2.2-2.2 0-1.2 1-2.2 2.2-2.2h11.5c.5 0 1-.4 1-1V275c0-1.2 1-2.2 2.2-2.2 1.2 0 2.2 1 2.2 2.2v11.5c0 .5.4 1 1 1h11.5c1.2 0 2.2 1 2.2 2.2 0 1.2-1 2.2-2.2 2.2h-11.5c-.5 0-1 .4-1 1v11.5c-.1 1.1-1.1 2.1-2.3 2.1z" class="st1"/></svg>