<?xml version="1.0" encoding="UTF-8"?><svg id="Layer_1" xmlns="http://www.w3.org/2000/svg" width="672.1" height="463.2" xmlns:xlink="http://www.w3.org/1999/xlink" viewBox="0 0 672.1 463.2"><defs><linearGradient id="linear-gradient" x1="-1435.8" y1="-633.9" x2="-1456.3" y2="-694.5" gradientTransform="translate(2473.4 -687.9) scale(1.6 -1.6)" gradientUnits="userSpaceOnUse"><stop offset="0" stop-color="#114a8b"/><stop offset="1" stop-color="#0669bc"/></linearGradient><linearGradient id="linear-gradient-2" x1="-1429.4" y1="-662.1" x2="-1434.2" y2="-663.7" gradientTransform="translate(2473.4 -687.9) scale(1.6 -1.6)" gradientUnits="userSpaceOnUse"><stop offset="0" stop-color="#000" stop-opacity=".3"/><stop offset="0" stop-color="#000" stop-opacity=".2"/><stop offset=".3" stop-color="#000" stop-opacity=".1"/><stop offset=".6" stop-color="#000" stop-opacity="0"/><stop offset="1" stop-color="#000" stop-opacity="0"/></linearGradient><linearGradient id="linear-gradient-3" x1="-1431.9" y1="-632.1" x2="-1409.4" y2="-692" gradientTransform="translate(2473.4 -687.9) scale(1.6 -1.6)" gradientUnits="userSpaceOnUse"><stop offset="0" stop-color="#3ccbf4"/><stop offset="1" stop-color="#2892df"/></linearGradient></defs><path d="m286.7,457.5c0,.7.5,1.2,1.2,1.2h247.3c.7,0,1.2-.5,1.2-1.2s-.1-.6-.3-.8h-89.7c-1.9,0-3.8-.1-5.6-.4h-152.8c-.7,0-1.2.5-1.2,1.2Z" style="fill:#3f3d56; stroke-width:0px;"/><path d="m167.2,247h137.7c23.3,0,42.2,18.9,42.2,42.2v110.4c0,23.3-18.9,42.2-42.2,42.2h-137.7c-23.3,0-42.2-18.9-42.2-42.2v-110.4c0-23.3,18.9-42.2,42.2-42.2Z" style="fill:#fff; stroke-width:0px;"/><path d="m124,399.7v-110.4c0-23.8,19.4-43.2,43.2-43.2h137.7c23.8,0,43.2,19.4,43.2,43.2v110.4c0,23.8-19.4,43.2-43.2,43.2h-137.7c-23.8,0-43.2-19.4-43.2-43.2Zm43.2-151.7c-22.7,0-41.2,18.5-41.2,41.2v110.4c0,22.7,18.5,41.2,41.2,41.2h137.7c22.7,0,41.2-18.5,41.2-41.2v-110.4c0-22.7-18.5-41.2-41.2-41.2h-137.7Z" style="fill:#3f3d56; stroke-width:0px;"/><path d="m218.7,295.4h30.8l-32,94.8c-.7,2-2.5,3.3-4.7,3.3h-24c-2.7,0-4.9-2.2-4.9-4.9,0-.5,0-1.1.3-1.6l29.8-88.4c.7-2,2.5-3.3,4.7-3.3h0s0,0,0,0Z" style="fill:url(#linear-gradient); stroke-width:0px;"/><path d="m263.5,359h-48.9c-1.2,0-2.3,1-2.3,2.3,0,.6.3,1.2.7,1.7l31.4,29.3c.9.9,2.1,1.3,3.4,1.3h27.7l-12-34.6Z" style="fill:#0078d4; stroke-width:0px;"/><path d="m218.7,295.4c-2.1,0-4,1.4-4.7,3.4l-29.8,88.2c-.9,2.5.4,5.4,3,6.3.5.2,1.1.3,1.7.3h24.6c1.9-.3,3.4-1.6,4-3.4l5.9-17.5,21.2,19.8c.9.7,2,1.1,3.2,1.2h27.6l-12.1-34.6h-35.3s21.6-63.6,21.6-63.6h-30.9Z" style="fill:url(#linear-gradient-2); stroke-width:0px;"/><path d="m258.1,298.7c-.7-2-2.5-3.3-4.7-3.3h-34.4c2.1,0,4,1.3,4.7,3.3l29.8,88.4c.9,2.6-.5,5.4-3.1,6.2-.5.2-1,.3-1.6.3h34.4c2.7,0,4.9-2.2,4.9-4.9,0-.5,0-1.1-.3-1.6l-29.8-88.4h0Z" style="fill:url(#linear-gradient-3); stroke-width:0px;"/><path d="m43.2,1h137.7c23.3,0,42.2,18.9,42.2,42.2v110.4c0,23.3-18.9,42.2-42.2,42.2H43.2c-23.3,0-42.2-18.9-42.2-42.2V43.2C1,19.9,19.9,1,43.2,1h0Z" style="fill:#fff; stroke-width:0px;"/><path d="m0,153.7V43.2C0,19.4,19.4,0,43.2,0h137.7c23.8,0,43.2,19.4,43.2,43.2v110.4c0,23.8-19.4,43.2-43.2,43.2H43.2c-23.8,0-43.2-19.4-43.2-43.2ZM43.2,2C20.5,2,2,20.5,2,43.2v110.4c0,22.7,18.5,41.2,41.2,41.2h137.7c22.7,0,41.2-18.5,41.2-41.2V43.2c0-22.7-18.5-41.2-41.2-41.2H43.2Z" style="fill:#3f3d56; stroke-width:0px;"/><path d="m84.6,100.1c0,1.6.2,2.8.5,3.7.3.9.8,1.9,1.3,3,.2.3.3.7.3,1,0,.4-.3.8-.8,1.3l-2.6,1.8c-.4.3-.8.4-1.1.4s-.8-.2-1.3-.6c-.6-.6-1.1-1.3-1.5-2-.4-.7-.8-1.5-1.3-2.5-3.3,3.9-7.4,5.8-12.3,5.8s-6.3-1-8.4-3-3.1-4.7-3.1-8,1.3-6.5,3.8-8.6,6-3.3,10.3-3.3,2.9.1,4.4.3c1.6.2,3.1.5,4.8.9v-3.1c0-3.2-.7-5.4-2-6.7-1.3-1.3-3.6-1.9-6.8-1.9s-3,.2-4.5.5-3.1.8-4.5,1.4c-.7.3-1.2.5-1.5.5s-.5.1-.7.1c-.6,0-.9-.4-.9-1.3v-2.1c0-.7,0-1.2.3-1.5s.6-.6,1.2-.9c1.5-.8,3.2-1.4,5.3-1.9,2.1-.5,4.2-.8,6.5-.8,5,0,8.6,1.1,11,3.4,2.3,2.3,3.5,5.7,3.5,10.3v13.6h0Zm-17,6.4c1.4,0,2.8-.3,4.3-.8,1.5-.5,2.8-1.4,4-2.7.7-.8,1.2-1.7,1.4-2.7s.4-2.2.4-3.6v-1.8c-1.2-.3-2.5-.5-3.9-.7s-2.6-.3-3.9-.3c-2.8,0-4.9.5-6.2,1.7-1.4,1.1-2.1,2.7-2.1,4.8s.5,3.4,1.6,4.4c1,1,2.5,1.6,4.4,1.6,0,0,0,0,0,0Zm33.7,4.5c-.8,0-1.3-.1-1.6-.4-.3-.3-.6-.8-.9-1.6l-9.8-32.4c-.3-.8-.4-1.4-.4-1.7,0-.7.3-1,1-1h4.1c.8,0,1.3.1,1.6.4.3.3.6.8.8,1.6l7,27.7,6.5-27.7c.2-.8.5-1.4.8-1.6s.9-.4,1.7-.4h3.4c.8,0,1.3.1,1.7.4.3.3.6.8.8,1.6l6.6,28.1,7.3-28.1c.3-.8.5-1.4.8-1.6.3-.3.9-.4,1.6-.4h3.9c.7,0,1,.3,1,1s0,.4,0,.7c0,.3-.1.6-.3,1l-10.1,32.4c-.3.8-.5,1.4-.9,1.6s-.9.4-1.6.4h-3.6c-.8,0-1.3-.1-1.7-.4s-.6-.8-.8-1.7l-6.5-27-6.5,27c-.2.8-.5,1.4-.8,1.7-.3.3-.9.4-1.7.4h-3.6s0,0,0,0Zm53.9,1.1c-2.2,0-4.4-.3-6.5-.8-2.1-.5-3.7-1-4.8-1.7-.7-.4-1.1-.8-1.3-1.2-.2-.4-.3-.8-.3-1.2v-2.1c0-.9.3-1.3,1-1.3s.5,0,.8.1.6.3,1,.4c1.4.6,3,1.1,4.6,1.5,1.7.3,3.3.5,5,.5,2.6,0,4.7-.5,6.1-1.4,1.4-.9,2.2-2.3,2.2-4s-.4-2.1-1.1-2.9c-.8-.8-2.2-1.5-4.2-2.2l-6.1-1.9c-3.1-1-5.3-2.4-6.7-4.3-1.4-1.8-2.1-3.9-2.1-6.1s.4-3.3,1.1-4.7c.8-1.3,1.8-2.5,3-3.4,1.3-1,2.7-1.7,4.4-2.2s3.4-.7,5.3-.7,1.9,0,2.8.2c1,.1,1.8.3,2.7.5.8.2,1.6.4,2.4.7.8.3,1.3.5,1.8.8.6.3,1,.7,1.3,1,.3.3.4.8.4,1.4v2c0,.9-.3,1.3-1,1.3s-.9-.2-1.6-.5c-2.4-1.1-5.1-1.6-8-1.6s-4.3.4-5.6,1.2-2,2-2,3.7.4,2.2,1.3,3c.8.8,2.4,1.6,4.6,2.3l6,1.9c3,1,5.2,2.3,6.5,4s1.9,3.7,1.9,5.9-.4,3.4-1.1,4.9c-.8,1.4-1.8,2.7-3.1,3.7-1.3,1-2.8,1.8-4.7,2.3-1.9.6-3.9.9-6,.9h0Z" style="fill:#252f3e; stroke-width:0px;"/><path d="m163,132.5c-13.8,10.2-33.8,15.6-51,15.6s-45.9-8.9-62.3-23.8c-1.3-1.2-.1-2.8,1.4-1.8,17.8,10.3,39.7,16.6,62.4,16.6s32.1-3.2,47.6-9.7c2.3-1,4.3,1.5,2,3.2h0Z" style="fill:#f90; fill-rule:evenodd; stroke-width:0px;"/><path d="m168.7,126c-1.8-2.3-11.7-1.1-16.1-.5-1.3.2-1.6-1-.3-1.9,7.9-5.5,20.8-3.9,22.3-2.1,1.5,1.9-.4,14.8-7.8,21-1.1,1-2.2.5-1.7-.8,1.7-4.1,5.4-13.5,3.6-15.7h0Z" style="fill:#f90; fill-rule:evenodd; stroke-width:0px;"/><path d="m428.4,74.5c-1-1-9-22-9-22l-19-1-8.7,20.5,36.7,2.5Z" style="fill:#ffb6b6; stroke-width:0px;"/><circle cx="401.5" cy="35.6" r="25.6" style="fill:#ffb6b6; stroke-width:0px;"/><polygon points="449.9 213 458.9 243 434.9 417 418.7 417 409.9 286 399.9 331 450.9 396 437.9 411 364.4 339.5 365.9 229 371.9 212 449.9 213" style="fill:#2f2e41; stroke-width:0px;"/><path d="m422.9,56.7h-2c0,0-1.8-15.8-2.8-16.8s-2.9,1.1-2.9,1.1c0,0-8.2-4.6-8.5-9.6s-.4-9-3.4-8.8-19.8,5-23.8,5.2-10.3-6.5-3.6-12.8,12.6-8.6,13.5-9.7,7.2-5.4,12.7-1.6,12.5,3.4,12.5,3.4c0,0,13.1,2.4,11.4,8.4-1.7,6.1,4.9,17.8,2.2,23.9s-5.2,17.3-5.2,17.3h0Z" style="fill:#2f2e41; stroke-width:0px;"/><path d="m417.9,414l18,2,2,33s-1,16-18,14-12-18-12-18l10-31Z" style="fill:#2f2e41; stroke-width:0px;"/><path d="m441.4,390.5s13-6,15,1l4,14s0,14,1,15,20,27,3,41c0,0-9,1-14-13s-20-28-20-28c0,0-2.9-7,2-6.5s12-11.5,10-15.5-1-8-1-8Z" style="fill:#2f2e41; stroke-width:0px;"/><path d="m276.3,259.9c-4.7-2-5.9-9.5-2.8-16.8,1.2-2.9,3.1-5.5,5.5-7.6l3.6-8.2h-.1c0,0,10.3-41.3,10.3-41.3,2.4-9.6,9-17.7,18.1-21.5,5.4-2.3,10.5-2.7,12,2.8,2.5,9.1-13.6,38.6-23.4,55.1l-7.6,18.6c.2,3.2-.4,6.3-1.6,9.2-3.1,7.3-9.3,11.6-14,9.7h0Z" style="fill:#ffb6b6; stroke-width:0px;"/><path d="m392.4,68.5l33,1,32,14-5,83s6,19,3,22,0,16.4-2,16.7,0,14.7,0,14.7c0,0-28-9.5-52-3.5s-32-4-32-4c0,0-6-24-6-29v-102.2l29-12.8Z" style="fill:#0085d5; stroke-width:0px;"/><path d="m368.9,81s-14-4-21,6-11,10-11,23c0,0-41,58-39,64l-9.5,15.5,24,13s8.5-8.5,8.5-16.5,24-30,24-30c0,0,21-27,22-37s2-38,2-38Z" style="fill:#0085d5; stroke-width:0px;"/><path d="m492.2,265h137.7c23.3,0,42.2,18.9,42.2,42.2v110.4c0,23.3-18.9,42.2-42.2,42.2h-137.7c-23.3,0-42.2-18.9-42.2-42.2v-110.4c0-23.3,18.9-42.2,42.2-42.2Z" style="fill:#fff; stroke-width:0px;"/><path d="m448,416.7v-110.4c0-23.8,19.4-43.2,43.2-43.2h137.7c23.8,0,43.2,19.4,43.2,43.2v110.4c0,23.8-19.4,43.2-43.2,43.2h-137.7c-23.8,0-43.2-19.4-43.2-43.2Zm43.2-151.7c-22.7,0-41.2,18.5-41.2,41.2v110.4c0,22.7,18.5,41.2,41.2,41.2h137.7c22.7,0,41.2-18.5,41.2-41.2v-110.4c0-22.7-18.5-41.2-41.2-41.2h-137.7Z" style="fill:#3f3d56; stroke-width:0px;"/><path d="m578.6,342.2h3.4l9.7-9.7.5-4.1c-18-15.9-45.5-14.2-61.4,3.8-4.4,5-7.6,11-9.4,17.4,1.1-.4,2.3-.5,3.4-.2l19.4-3.2s1-1.6,1.5-1.5c8.6-9.5,23.1-10.6,33.1-2.5h0Z" style="fill:#ea4335; stroke-width:0px;"/><path d="m605.5,349.7c-2.2-8.2-6.8-15.6-13.1-21.2l-13.6,13.6c5.7,4.7,9,11.8,8.9,19.2v2.4c6.7,0,12.1,5.4,12.1,12.1s-5.4,12.1-12.1,12.1h-24.2l-2.4,2.4v14.5l2.4,2.4h24.2c17.4.1,31.6-13.8,31.7-31.2,0-10.5-5.1-20.4-13.8-26.3h0Z" style="fill:#4285f4; stroke-width:0px;"/><path d="m539.2,407h24.2v-19.4h-24.2c-1.7,0-3.4-.4-5-1.1l-3.4,1.1-9.7,9.7-.8,3.4c5.5,4.1,12.1,6.3,19,6.3Z" style="fill:#34a853; stroke-width:0px;"/><path d="m539.2,344.2c-17.4.1-31.4,14.3-31.3,31.6,0,9.7,4.6,18.8,12.3,24.7l14-14c-6.1-2.8-8.8-9.9-6-16s9.9-8.8,16-6c2.7,1.2,4.8,3.4,6,6l14-14c-6-7.8-15.2-12.4-25.1-12.3h0Z" style="fill:#fbbc05; stroke-width:0px;"/><path d="m477.5,282.5c5-.3,8.8-6.9,8.4-14.8-.1-3.2-1-6.3-2.6-9l-.6-9h.2s4.3-42.3,4.3-42.3c1-9.8-2.5-19.7-9.7-26.4-4.3-4-9-6.1-12.3-1.5-5.4,7.8-.3,40.9,3.3,59.8l.8,20c-1.3,2.9-1.8,6.1-1.6,9.2.4,7.9,4.8,14.1,9.9,13.9h0Z" style="fill:#ffb6b6; stroke-width:0px;"/><path d="m451.1,82.9s14.5,1,17.7,12.8,7,13.1,2.5,25.4c0,0,18.9,68.5,15,73.4l3.7,17.8-27,4.1s-5.1-10.9-2.4-18.4-12.4-36.4-12.4-36.4c0,0-10.6-32.5-8.1-42.3s11-36.4,11-36.4h0Z" style="fill:#0085d5; stroke-width:0px;"/></svg>