<?xml version="1.0" encoding="UTF-8"?><svg id="Layer_1" xmlns="http://www.w3.org/2000/svg" width="705.8" height="566.4" viewBox="0 0 705.8 566.4"><path d="m705.8,547.8c.2,23.7-149.2,25.9-152,0-.2-23.7,149.2-25.9,152,0Z" style="fill:#e6e6e6; stroke-width:0px;"/><polygon points="589 465.5 577.9 471.5 584.9 494.8 596 495.8 602.1 482.6 589 465.5" style="fill:#9f616a; stroke-width:0px;"/><polygon points="623.3 511.9 623.3 523 640.4 522 640.2 512.9 623.3 511.9" style="fill:#9f616a; stroke-width:0px;"/><polygon points="584.9 332.3 591 408 610.2 519 640.4 514.9 630.3 427.1 634.4 346.4 584.9 332.3" style="fill:#2f2e41; stroke-width:0px;"/><path d="m665.7,275.7l-72.7,1-8.1,55.5,49.5,23.2,12.1,44.4-61.6,65.6,24.2,30.3s34.3-46.4,59.5-72.7,13.1-106,13.1-106l-16.1-41.4Z" style="fill:#2f2e41; stroke-width:0px;"/><circle cx="622.3" cy="110.2" r="22.2" style="fill:#9f616a; stroke-width:0px;"/><path d="m614.2,125.4v22.2l15.1,24.2s23.2-17.2,18.2-21.2-6.1-35.3-6.1-35.3l-27.2,10.1Z" style="fill:#9f616a; stroke-width:0px;"/><polygon points="614.2 143.5 599.1 161.7 605.1 287.9 652.5 286.8 660.6 176.8 650.5 148.6 643.6 139.2 631.4 157.7 614.2 143.5" style="fill:#d0cde1; stroke-width:0px;"/><path d="m590,209.1l-11.1,42.4,11.1,42.4-18.2,24.2-16.1-76.7s12.1-62.6,13.1-69.6,3-8.1,3-8.1l8.1,1,10.1,44.4Z" style="fill:#2f2e41; stroke-width:0px;"/><polygon points="670.7 225.3 677.8 238.4 679.8 260.6 675.8 285.8 689.9 309.1 704 245.5 688.9 163.7 682.8 163.7 670.7 225.3" style="fill:#2f2e41; stroke-width:0px;"/><path d="m584.9,464.5s-14.1,4-19.2,5,3,20.2,3,20.2c0,0,5,26.2,6.1,31.3s8.1,22.2,17.2,24.2,3-35.3,3-35.3c0,0,4-12.1,4-16.1s-6.1-2-6.1-2c-16.1-2-8.1-27.2-8.1-27.2Z" style="fill:#2f2e41; stroke-width:0px;"/><path d="m618.2,542.2c1,6.1-1,6.1,15.1,8.1s12.1-11.1,12.1-11.1c-.7-6.2-2-12.3-4-18.2-3-8.1-19.2,2-19.2,2,0,0-5,13.1-4,19.2Z" style="fill:#2f2e41; stroke-width:0px;"/><path d="m641.5,116l.5,9s6.5-14.7,7.5-29.9-16.1-18.2-26.2-19.2-27.2,6.1-27.2,14.1,18.2,6.1,25.2,4,10.1,15.1,10.1,15.1l4,1,6.1,5.8Z" style="fill:#2f2e41; stroke-width:0px;"/><polygon points="608.2 150.7 614.2 143.5 631.4 157.7 614.2 169.8 608.2 150.7" style="fill:#d0cde1; stroke-width:0px;"/><polygon points="650.5 148.6 643.5 139.5 631.4 157.7 646.5 168.8 650.5 148.6" style="fill:#d0cde1; stroke-width:0px;"/><path d="m586.9,223.3l4,38.4-8.1,23.2-5,22.2s0,21.2,20.2,22.2,37.3-63.6,37.3-63.6c0,0,3,14.1,5,22.2s36.3,40.4,36.3,40.4c0,0,8.1-1,15.1-17.2s-14.1-31.3-14.1-31.3l-6.1-21.2,2-26.2,14.1-68.6-41.9-21.7,4.5,58-15.1,45.4-22.7-100.4-7.6,5.6-32.3,13.1,14.1,59.5Z" style="fill:#2f2e41; stroke-width:0px;"/><path d="m188.1,375.9c-2,0-4,0-6,0v-2c2,0,4,0,6,0,2,0,4,0,6,0v2c-2,0-4,0-6,0Zm-18-.8c-4-.4-8-.9-12-1.5l.3-2c3.9.6,7.9,1.1,11.8,1.5l-.2,2Zm36.1,0l-.2-2c3.9-.4,7.9-.9,11.8-1.5l.3,2c-3.9.6-8,1.2-11.9,1.5h0Zm-59.9-3.8c-3.9-.9-7.8-1.9-11.7-3l.6-1.9c3.8,1.1,7.7,2.1,11.5,3l-.4,2Zm83.6,0l-.4-1.9c3.9-.9,7.7-1.9,11.5-3l.6,1.9c-3.8,1.1-7.7,2.2-11.7,3.1h0Zm-106.7-6.8c-3.8-1.4-7.5-2.9-11.2-4.5l.8-1.8c3.6,1.6,7.3,3.1,11.1,4.5l-.7,1.9Zm129.8,0l-.7-1.9c3.7-1.4,7.4-2.9,11-4.5l.8,1.8c-3.7,1.6-7.4,3.1-11.1,4.5Zm-151.9-9.7c-3.5-1.8-7.1-3.8-10.5-5.9l1-1.7c3.4,2.1,6.9,4,10.4,5.9l-.9,1.8Zm173.9,0l-.9-1.8c3.5-1.8,7-3.8,10.4-5.9l1,1.7c-3.4,2.1-6.9,4.1-10.5,5.9Zm-194.5-12.4c-3.3-2.3-6.5-4.7-9.7-7.2l1.2-1.6c3.1,2.5,6.3,4.9,9.6,7.1l-1.1,1.6Zm215,0l-1.1-1.6c3.2-2.3,6.5-4.7,9.5-7.1l1.2,1.6c-3.1,2.5-6.4,4.9-9.6,7.2Zm-233.9-15c-3-2.7-5.9-5.5-8.7-8.4l1.4-1.4c2.8,2.8,5.6,5.6,8.6,8.3l-1.3,1.5Zm252.7,0l-1.3-1.5c2.9-2.7,5.8-5.4,8.6-8.3l1.4,1.4c-2.8,2.9-5.7,5.7-8.7,8.4Zm-269.5-17.2c-2.6-3-5.1-6.2-7.5-9.4l1.6-1.2c2.4,3.2,4.9,6.3,7.4,9.3l-1.5,1.3Zm286.2,0l-1.5-1.3c2.6-3,5.1-6.1,7.4-9.3l1.6,1.2c-2.4,3.2-4.9,6.4-7.5,9.4h0Zm-300.7-19.2c-2.2-3.4-4.3-6.8-6.3-10.3l1.7-1c1.9,3.4,4,6.9,6.2,10.2l-1.7,1.1Zm315.1-.1l-1.7-1.1c2.2-3.3,4.2-6.8,6.2-10.2l1.7,1c-2,3.5-4.1,6.9-6.3,10.3h0Zm-326.9-20.8c-1.7-3.6-3.4-7.3-4.9-11l1.9-.8c1.5,3.7,3.1,7.3,4.8,10.9l-1.8.9Zm338.8-.2l-1.8-.9c1.7-3.6,3.3-7.2,4.8-10.9l1.9.8c-1.5,3.7-3.1,7.4-4.9,11ZM9.6,247.4c-1.3-3.8-2.4-7.7-3.4-11.5l1.9-.5c1,3.8,2.1,7.7,3.4,11.4l-1.9.6Zm356.9-.2l-1.9-.6c1.2-3.8,2.4-7.6,3.4-11.4l1.9.5c-1,3.9-2.2,7.8-3.4,11.6ZM3.5,224.1c-.8-3.9-1.4-7.9-1.9-11.9l2-.3c.5,3.9,1.1,7.9,1.9,11.8l-2,.4Zm369.1-.2l-2-.4c.8-3.9,1.4-7.8,1.9-11.8l2,.3c-.5,4-1.1,8-1.9,11.9h0ZM.4,200.2c-.3-4-.4-8-.4-12h2c0,4,.1,8,.4,11.9H.4Zm375.2-.2h-2c.2-4.1.4-8.1.4-12v-.4s2,0,2,0v.4c0,4-.1,8.1-.4,12h0ZM2.4,176.2H.4c.2-4.1.6-8.2,1.1-12.1l2,.2c-.5,3.9-.9,7.9-1.1,11.9Zm371.2-.7c-.3-4-.6-7.9-1.2-11.9l2-.3c.5,4,.9,8,1.2,12h-2ZM5.4,152.6l-2-.4c.8-3.9,1.6-7.9,2.7-11.8l1.9.5c-1,3.8-1.9,7.7-2.6,11.6Zm365.2-.6c-.8-3.9-1.7-7.8-2.7-11.6l1.9-.5c1,3.9,1.9,7.8,2.7,11.7l-2,.4ZM11.3,129.5l-1.9-.6c1.3-3.8,2.7-7.6,4.2-11.3l1.9.7c-1.5,3.7-2.9,7.4-4.1,11.2Zm353.1-.6c-1.3-3.8-2.6-7.5-4.1-11.2l1.9-.8c1.5,3.7,2.9,7.5,4.2,11.3l-1.9.6ZM20.3,107.4l-1.8-.9c1.7-3.6,3.6-7.2,5.6-10.7l1.7,1c-1.9,3.5-3.8,7-5.5,10.6Zm335.2-.5c-1.7-3.6-3.6-7.1-5.5-10.5l1.7-1c2,3.5,3.9,7.1,5.6,10.7l-1.8.9ZM32,86.6l-1.7-1.1c2.2-3.4,4.5-6.7,6.9-9.9l1.6,1.2c-2.4,3.2-4.7,6.5-6.8,9.8Zm311.7-.5c-2.2-3.3-4.5-6.6-6.8-9.8l1.6-1.2c2.4,3.2,4.7,6.5,6.9,9.9l-1.7,1.1ZM46.2,67.5l-1.5-1.3c2.6-3,5.3-6.1,8.1-8.9l1.4,1.4c-2.8,2.8-5.4,5.8-8,8.8Zm283.2-.4c-2.6-3-5.3-6-8-8.8l1.4-1.4c2.8,2.9,5.5,5.9,8.1,8.9l-1.5,1.3ZM62.8,50.4l-1.3-1.5c3-2.7,6-5.3,9.2-7.8l1.2,1.6c-3.1,2.5-6.1,5.1-9.1,7.7Zm250-.4c-2.9-2.7-6-5.3-9.1-7.7l1.2-1.6c3.1,2.5,6.2,5.1,9.2,7.8l-1.3,1.5Zm-231.4-14.5l-1.1-1.6c3.3-2.3,6.7-4.5,10.1-6.6l1,1.7c-3.4,2.1-6.7,4.3-10,6.5Zm212.8-.3c-3.3-2.3-6.6-4.5-10-6.5l1-1.7c3.4,2.1,6.8,4.3,10.1,6.6l-1.1,1.6Zm-192.4-12.1l-.9-1.8c3.5-1.9,7.2-3.6,10.8-5.2l.8,1.8c-3.6,1.6-7.2,3.4-10.7,5.2Zm172-.3c-3.5-1.8-7.1-3.6-10.8-5.2l.8-1.8c3.7,1.6,7.3,3.4,10.9,5.2l-.9,1.8ZM123.5,13.4l-.7-1.9c3.8-1.4,7.6-2.7,11.4-3.8l.6,1.9c-3.8,1.1-7.6,2.4-11.3,3.8Zm128.5-.2c-3.7-1.4-7.5-2.6-11.3-3.7l.6-1.9c3.8,1.1,7.7,2.4,11.4,3.8l-.7,1.9Zm-105.6-6.6l-.4-1.9c3.9-.9,7.9-1.7,11.8-2.3l.3,2c-3.9.6-7.8,1.4-11.7,2.3Zm82.8-.1c-3.9-.9-7.8-1.6-11.7-2.2l.3-2c4,.6,7.9,1.4,11.8,2.3l-.4,2Zm-59.2-3.7l-.2-2c4-.4,8-.6,12-.8v2c-3.9.1-7.9.4-11.8.8h0Zm35.7,0c-3.9-.4-7.9-.6-11.9-.7V0c4.1.1,8.1.4,12.1.7l-.2,2Z" style="fill:#d0cde1; stroke-width:0px;"/><circle cx="58.5" cy="58.5" r="47" style="fill:#0085d5; stroke-width:0px;"/><circle cx="58.5" cy="322.3" r="47" style="fill:#0085d5; stroke-width:0px;"/><circle cx="319.7" cy="318.3" r="47" style="fill:#0085d5; stroke-width:0px;"/><circle cx="318.7" cy="57.5" r="47" style="fill:#0085d5; stroke-width:0px;"/><path d="m329.6,45.2v-3c0-.2-.2-.5-.5-.5h-23.7c-.2,0-.5.2-.5.5v3c0,.2.2.5.5.5h23.7c.2,0,.5-.2.5-.5Zm-24.2,5.4c-.2,0-.5.2-.5.5v3c0,.2.2.5.5.5h11.4c.2,0,.5-.2.5-.5v-3c0-.2-.2-.5-.5-.5h-11.4Zm8.9,27.9h-14.3v-43.5h34.6v21.3c0,.2.2.5.5.5h3.5c.2,0,.5-.2.5-.5v-23.7c0-1.1-.9-2-2-2h-39.5c-1.1,0-2,.9-2,2v48.4c0,1.1.9,2,2,2h16.8c.2,0,.5-.2.5-.5v-3.5c0-.2-.2-.5-.5-.5Zm27.6,3.2l-5.8-5.8c3.6-4.8,2.7-11.6-2.1-15.2-1.9-1.4-4.2-2.2-6.5-2.2-6,0-10.9,4.9-10.9,10.9s4.9,10.9,10.9,10.9c2.1,0,4.2-.6,6-1.8l5.8,5.9h.4c0,.1.4,0,.4,0l1.9-1.9c.2-.2.2-.5,0-.7Zm-14.5-5.4c-3.8,0-6.9-3.1-6.9-6.9s3.1-6.9,6.9-6.9,6.9,3.1,6.9,6.9-3.1,6.9-6.9,6.9Z" style="fill:#fff; stroke-width:0px;"/><path d="m278.2,138.2v-20h7c2.1,0,4,.4,5.6,1.3,1.6.8,2.9,2,3.8,3.5.9,1.5,1.4,3.2,1.4,5.2s-.5,3.7-1.4,5.2c-.9,1.5-2.2,2.7-3.8,3.5-1.6.9-3.5,1.3-5.6,1.3h-7Zm3.8-3.2h3.2c1.4,0,2.6-.3,3.6-.8,1-.6,1.8-1.3,2.4-2.4s.8-2.2.8-3.6-.3-2.6-.8-3.6c-.6-1-1.3-1.8-2.4-2.4-1-.6-2.2-.8-3.6-.8h-3.2v13.6Z" style="stroke-width:0px;"/><path d="m310.6,133.8l2,2.3c-.7.8-1.6,1.4-2.7,1.9-1.1.5-2.3.7-3.7.7s-3.1-.3-4.3-1-2.2-1.5-2.9-2.6c-.7-1.1-1-2.4-1-3.9s.3-2.8,1-3.9c.7-1.1,1.6-2,2.7-2.6,1.1-.6,2.4-1,3.9-1s2.6.3,3.7.9c1.1.6,1.9,1.5,2.6,2.6.6,1.1.9,2.4.9,3.8v.2h-3.6v-.4c0-.9-.2-1.6-.5-2.2-.3-.6-.7-1.1-1.3-1.5-.5-.4-1.2-.5-1.9-.5s-1.4.2-2,.5c-.6.4-1,.9-1.4,1.6-.3.7-.5,1.5-.5,2.4s.2,1.8.6,2.5c.4.7,1,1.2,1.7,1.6.7.4,1.5.5,2.4.5,1.7,0,3.1-.7,4.3-2Zm2.2-1.5h-12.4v-2.4h12l.4,1.1v1.3Z" style="stroke-width:0px;"/><path d="m323.9,127.1h-9.7v-3h9.7v3Zm-3.5,11.1h-3.7v-16.2c0-2.6,1.3-3.9,3.9-3.9h3.2v2.9h-2c-.6,0-1,.1-1.2.4s-.3.6-.3,1.2v15.7Z" style="stroke-width:0px;"/><path d="m328.3,121.7c-.6,0-1.1-.2-1.6-.6s-.7-.9-.7-1.5.2-1.2.7-1.6c.4-.4,1-.6,1.6-.6s1.2.2,1.6.6c.4.4.6.9.6,1.6s-.2,1.1-.6,1.5c-.4.4-1,.6-1.6.6Zm1.8,16.5h-3.7v-14.1h3.7v14.1Z" style="stroke-width:0px;"/><path d="m347.2,138.2h-3.7v-8.1c0-1.1-.3-1.9-.8-2.5-.5-.6-1.2-.8-2-.8s-1.2.2-1.7.5c-.5.3-1,.8-1.3,1.5-.3.7-.5,1.6-.5,2.7v6.8h-3.7v-14.1h3.7v4.4h-.4c.2-1.3.5-2.2,1-2.9.5-.7,1.2-1.2,1.9-1.5.7-.3,1.4-.4,2.1-.4,1.7,0,3,.5,4,1.5,1,1,1.5,2.5,1.5,4.5v8.5Z" style="stroke-width:0px;"/><path d="m362.4,133.8l2,2.3c-.7.8-1.6,1.4-2.7,1.9-1.1.5-2.3.7-3.7.7s-3.1-.3-4.3-1-2.2-1.5-2.9-2.6c-.7-1.1-1-2.4-1-3.9s.3-2.8,1-3.9c.7-1.1,1.6-2,2.7-2.6,1.1-.6,2.4-1,3.9-1s2.6.3,3.7.9c1.1.6,1.9,1.5,2.6,2.6.6,1.1.9,2.4.9,3.8v.2h-3.6v-.4c0-.9-.2-1.6-.5-2.2-.3-.6-.7-1.1-1.3-1.5-.5-.4-1.2-.5-1.9-.5s-1.4.2-2,.5c-.6.4-1,.9-1.4,1.6-.3.7-.5,1.5-.5,2.4s.2,1.8.6,2.5c.4.7,1,1.2,1.7,1.6.7.4,1.5.5,2.4.5,1.7,0,3.1-.7,4.3-2Zm2.2-1.5h-12.4v-2.4h12l.4,1.1v1.3Z" style="stroke-width:0px;"/><path d="m4.9,135.2v-20h7c2.1,0,4,.4,5.6,1.3,1.6.8,2.9,2,3.8,3.5.9,1.5,1.4,3.2,1.4,5.2s-.5,3.7-1.4,5.2c-.9,1.5-2.2,2.7-3.8,3.5-1.6.9-3.5,1.3-5.6,1.3h-7Zm3.8-3.2h3.2c1.4,0,2.6-.3,3.6-.8,1-.6,1.8-1.3,2.4-2.4s.8-2.2.8-3.6-.3-2.6-.8-3.6c-.6-1-1.3-1.8-2.4-2.4-1-.6-2.2-.8-3.6-.8h-3.2v13.6Z" style="stroke-width:0px;"/><path d="m27.5,118.6c-.6,0-1.1-.2-1.6-.6s-.7-.9-.7-1.5.2-1.2.7-1.6c.4-.4,1-.6,1.6-.6s1.2.2,1.6.6c.4.4.6.9.6,1.6s-.2,1.1-.6,1.5c-.4.4-1,.6-1.6.6Zm1.8,16.5h-3.7v-14.1h3.7v14.1Z" style="stroke-width:0px;"/><path d="m31.7,133.1l2-2.3c.6.6,1.4,1.1,2.3,1.5.9.4,1.8.6,2.7.6s1.5-.2,2.1-.5c.5-.3.8-.7.8-1.2s-.2-.8-.7-1.1c-.5-.2-1.3-.4-2.5-.6-2.1-.3-3.6-.8-4.5-1.4-1-.7-1.4-1.6-1.4-2.8s.3-1.8.8-2.5c.5-.7,1.2-1.2,2.2-1.6s2-.6,3.2-.6,2.6.2,3.7.7c1.1.4,2,1,2.8,1.8l-2,2.3c-.6-.6-1.2-1.1-2-1.4-.8-.4-1.6-.5-2.4-.5s-1.4.1-1.9.4c-.5.3-.7.7-.7,1.1s.2.7.7.9c.5.2,1.3.4,2.5.5,2,.3,3.5.8,4.5,1.5s1.5,1.7,1.5,3-.3,1.8-.8,2.5c-.6.7-1.3,1.3-2.3,1.7-1,.4-2.1.6-3.4.6s-2.7-.2-3.9-.7c-1.2-.5-2.2-1.1-3-1.8Z" style="stroke-width:0px;"/><path d="m58.5,130.5l2.3,2.2c-.7.9-1.6,1.6-2.6,2.1-1,.5-2.2.7-3.5.7s-2.8-.3-3.9-1-2.1-1.5-2.7-2.7c-.7-1.1-1-2.4-1-3.8s.3-2.7,1-3.9,1.6-2,2.8-2.7,2.5-1,4-1,2.4.2,3.5.7c1,.5,1.9,1.2,2.6,2.1l-2.3,2.3c-.4-.6-.9-1.1-1.5-1.5-.6-.4-1.3-.6-2.1-.6s-1.5.2-2.1.6c-.6.4-1.1.9-1.5,1.6-.4.7-.5,1.4-.5,2.3s.2,1.6.5,2.3c.4.7.8,1.2,1.5,1.6s1.3.6,2.1.6,1.5-.2,2.1-.6,1.1-.9,1.5-1.5Z" style="stroke-width:0px;"/><path d="m70,135.6c-1.5,0-2.9-.3-4.1-1s-2.1-1.5-2.7-2.7c-.7-1.1-1-2.4-1-3.8s.3-2.8,1-3.9,1.6-2,2.7-2.6,2.5-1,4.1-1,2.9.3,4.1,1,2.1,1.5,2.7,2.6,1,2.4,1,3.9-.3,2.7-1,3.9c-.7,1.1-1.6,2-2.7,2.7s-2.5,1-4.1,1Zm0-3.1c.8,0,1.5-.2,2.1-.6s1.1-.9,1.4-1.6c.3-.7.5-1.4.5-2.3s-.2-1.6-.5-2.3-.8-1.2-1.4-1.6c-.6-.4-1.3-.6-2.1-.6s-1.5.2-2.1.6c-.6.4-1.1.9-1.4,1.6s-.5,1.4-.5,2.3.2,1.6.5,2.3c.3.7.8,1.2,1.4,1.6.6.4,1.3.6,2.1.6Z" style="stroke-width:0px;"/><path d="m88.1,135.2h-3.6l-6-14.1h3.8l4.4,11.5h-.9l4.5-11.5h3.7l-6,14.1Z" style="stroke-width:0px;"/><path d="m107.5,130.8l2,2.3c-.7.8-1.6,1.4-2.7,1.9-1.1.5-2.3.7-3.7.7s-3.1-.3-4.3-1-2.2-1.5-2.9-2.6c-.7-1.1-1-2.4-1-3.9s.3-2.8,1-3.9c.7-1.1,1.6-2,2.7-2.6,1.1-.6,2.4-1,3.9-1s2.6.3,3.7.9c1.1.6,1.9,1.5,2.6,2.6.6,1.1.9,2.4.9,3.8v.2h-3.6v-.4c0-.9-.2-1.6-.5-2.2-.3-.6-.7-1.1-1.3-1.5-.5-.4-1.2-.5-1.9-.5s-1.4.2-2,.5c-.6.4-1,.9-1.4,1.6-.3.7-.5,1.5-.5,2.4s.2,1.8.6,2.5c.4.7,1,1.2,1.7,1.6.7.4,1.5.5,2.4.5,1.7,0,3.1-.7,4.3-2Zm2.2-1.5h-12.4v-2.4h12l.4,1.1v1.3Z" style="stroke-width:0px;"/><path d="m121.2,120.8v3.4h-.8c-.9,0-1.6.2-2.3.5-.6.3-1.1.9-1.5,1.6s-.5,1.7-.5,2.8v6h-3.7v-14.1h3.7v4.6h-.4c.2-1.3.5-2.2,1-2.9.5-.7,1.2-1.2,1.9-1.5s1.4-.4,2.1-.4h.5Z" style="stroke-width:0px;"/><path d="m83.4,75.5l-11.1-11.1c2.3-3.5,3.6-7.6,3.6-12,0-12-9.8-21.8-21.8-21.8s-21.8,9.8-21.8,21.8,9.8,21.8,21.8,21.8,8.6-1.3,12-3.6l11.1,11.1c1.7,1.7,4.5,1.7,6.2,0,1.7-1.7,1.7-4.5,0-6.2Zm-44.6-23.1c0-8.4,6.9-15.3,15.3-15.3s15.3,6.9,15.3,15.3-6.9,15.3-15.3,15.3-15.3-6.9-15.3-15.3Z" style="fill:#fff; stroke-width:0px;"/><path d="m269.1,397.2v-20h7c2.1,0,4,.4,5.6,1.3,1.6.8,2.9,2,3.8,3.5.9,1.5,1.4,3.2,1.4,5.2s-.5,3.7-1.4,5.2c-.9,1.5-2.2,2.7-3.8,3.5-1.6.9-3.5,1.3-5.6,1.3h-7Zm3.8-3.2h3.2c1.4,0,2.6-.3,3.6-.8,1-.6,1.8-1.3,2.4-2.4s.8-2.2.8-3.6-.3-2.6-.8-3.6c-.6-1-1.3-1.8-2.4-2.4-1-.6-2.2-.8-3.6-.8h-3.2v13.6Z" style="stroke-width:0px;"/><path d="m301.4,392.8l2,2.3c-.7.8-1.6,1.4-2.7,1.9-1.1.5-2.3.7-3.7.7s-3.1-.3-4.3-1c-1.2-.6-2.2-1.5-2.9-2.6-.7-1.1-1-2.4-1-3.9s.3-2.8,1-3.9c.7-1.1,1.6-2,2.7-2.6,1.1-.6,2.4-1,3.9-1s2.6.3,3.7.9c1.1.6,1.9,1.5,2.6,2.6.6,1.1.9,2.4.9,3.8v.2h-3.6v-.4c0-.9-.2-1.6-.5-2.2-.3-.6-.7-1.1-1.3-1.5-.5-.4-1.2-.5-1.9-.5s-1.4.2-2,.5c-.6.4-1,.9-1.4,1.6-.3.7-.5,1.5-.5,2.4s.2,1.8.6,2.5c.4.7,1,1.2,1.7,1.6.7.4,1.5.5,2.4.5,1.7,0,3.1-.7,4.3-2Zm2.2-1.5h-12.4v-2.4h12l.4,1.1v1.3Z" style="stroke-width:0px;"/><path d="m313.9,397.2h-3.6l-6-14.1h3.8l4.4,11.5h-.9l4.5-11.5h3.7l-6,14.1Z" style="stroke-width:0px;"/><path d="m333.3,392.8l2,2.3c-.7.8-1.6,1.4-2.7,1.9-1.1.5-2.3.7-3.7.7s-3.1-.3-4.3-1c-1.2-.6-2.2-1.5-2.9-2.6-.7-1.1-1-2.4-1-3.9s.3-2.8,1-3.9c.7-1.1,1.6-2,2.7-2.6,1.1-.6,2.4-1,3.9-1s2.6.3,3.7.9c1.1.6,1.9,1.5,2.6,2.6.6,1.1.9,2.4.9,3.8v.2h-3.6v-.4c0-.9-.2-1.6-.5-2.2-.3-.6-.7-1.1-1.3-1.5-.5-.4-1.2-.5-1.9-.5s-1.4.2-2,.5c-.6.4-1,.9-1.4,1.6-.3.7-.5,1.5-.5,2.4s.2,1.8.6,2.5c.4.7,1,1.2,1.7,1.6.7.4,1.5.5,2.4.5,1.7,0,3.1-.7,4.3-2Zm2.2-1.5h-12.4v-2.4h12l.4,1.1v1.3Z" style="stroke-width:0px;"/><path d="m341.9,397.2h-3.7v-20.2h3.7v20.2Z" style="stroke-width:0px;"/><path d="m352.4,397.6c-1.5,0-2.9-.3-4.1-1-1.2-.6-2.1-1.5-2.7-2.7-.7-1.1-1-2.4-1-3.8s.3-2.8,1-3.9,1.6-2,2.7-2.6c1.2-.6,2.5-1,4.1-1s2.9.3,4.1,1c1.2.6,2.1,1.5,2.7,2.6s1,2.4,1,3.9-.3,2.7-1,3.9c-.7,1.1-1.6,2-2.7,2.7-1.2.6-2.5,1-4.1,1Zm0-3.1c.8,0,1.5-.2,2.1-.6.6-.4,1.1-.9,1.4-1.6.3-.7.5-1.4.5-2.3s-.2-1.6-.5-2.3c-.3-.7-.8-1.2-1.4-1.6s-1.3-.6-2.1-.6-1.5.2-2.1.6c-.6.4-1.1.9-1.4,1.6-.3.7-.5,1.4-.5,2.3s.2,1.6.5,2.3c.3.7.8,1.2,1.4,1.6.6.4,1.3.6,2.1.6Z" style="stroke-width:0px;"/><path d="m366.7,402.6h-3.7v-19.5h3.7v4.4h-.8c.1-.9.4-1.7.9-2.5.5-.7,1.1-1.3,1.9-1.7s1.7-.6,2.7-.6,2.5.3,3.5,1c1.1.6,1.9,1.5,2.5,2.6.6,1.1.9,2.4.9,3.9s-.3,2.8-1,3.9-1.5,2-2.5,2.6c-1.1.6-2.3,1-3.6,1s-2.3-.3-3.1-.8c-.9-.5-1.5-1.2-2-2.1-.4-.9-.6-1.9-.6-2.9l.8-.5c0,.6.3,1.2.7,1.7.4.5.9.9,1.4,1.1.6.3,1.2.4,1.9.4s1.5-.2,2.2-.6c.6-.4,1.1-.9,1.4-1.6.3-.7.5-1.4.5-2.3s-.2-1.6-.5-2.3c-.3-.7-.8-1.2-1.4-1.6-.6-.4-1.3-.6-2.1-.6s-1.5.2-2.1.6-1.1.9-1.4,1.6c-.3.7-.5,1.5-.5,2.4v12.4Z" style="stroke-width:0px;"/><path d="m345.7,308.6c.3.9,0,2-.7,2.7l-4.7,4.3c.1.9.2,1.8.2,2.8s0,1.9-.2,2.8l4.7,4.3c.7.7,1,1.7.7,2.7-.5,1.3-1.1,2.5-1.7,3.7l-.5.9c-.7,1.2-1.5,2.3-2.4,3.4-.6.8-1.7,1-2.7.7l-6-1.9c-1.5,1.1-3.1,2-4.8,2.8l-1.4,6.2c-.2,1-1,1.8-2,1.9-1.5.2-3,.4-4.6.4s-3.1-.1-4.6-.4c-1-.2-1.8-.9-2-1.9l-1.4-6.2c-1.7-.7-3.3-1.6-4.8-2.8l-6,1.9c-1,.3-2,0-2.7-.7-.9-1.1-1.7-2.2-2.4-3.4l-.5-.9c-.7-1.2-1.2-2.4-1.7-3.7-.3-.9,0-2,.7-2.7l4.7-4.3c-.1-.9-.2-1.8-.2-2.8s0-1.9.2-2.8l-4.7-4.3c-.7-.7-1-1.7-.7-2.7.5-1.3,1.1-2.5,1.7-3.7l.5-.9c.7-1.2,1.5-2.3,2.4-3.4.6-.8,1.7-1,2.7-.7l6,1.9c1.5-1.1,3.1-2,4.8-2.8l1.4-6.2c.2-1,1-1.8,2-1.9,1.5-.3,3-.4,4.6-.4s3.1.1,4.6.4c1,.2,1.8.9,2,1.9l1.4,6.2c1.7.7,3.3,1.6,4.8,2.8l6-1.9c1-.3,2,0,2.7.7.9,1.1,1.7,2.2,2.4,3.4l.5.9c.7,1.2,1.2,2.4,1.7,3.7h0Zm-26.3,20.5c5.9,0,10.8-4.8,10.8-10.8s-4.8-10.8-10.8-10.8-10.8,4.8-10.8,10.8,4.8,10.8,10.8,10.8Z" style="fill:#fff; stroke-width:0px;"/><path d="m14.4,398v-20h7c2.1,0,4,.4,5.6,1.3s2.9,2,3.8,3.5c.9,1.5,1.4,3.2,1.4,5.2s-.5,3.7-1.4,5.2c-.9,1.5-2.2,2.7-3.8,3.5s-3.5,1.3-5.6,1.3h-7Zm3.8-3.2h3.2c1.4,0,2.6-.3,3.6-.8,1-.6,1.8-1.3,2.4-2.4s.8-2.2.8-3.6-.3-2.6-.8-3.6-1.3-1.8-2.4-2.4c-1-.5-2.2-.8-3.6-.8h-3.2v13.6Z" style="stroke-width:0px;"/><path d="m46.8,393.6l2,2.3c-.7.8-1.6,1.4-2.7,1.9s-2.3.7-3.7.7-3.1-.3-4.3-1c-1.2-.6-2.2-1.5-2.9-2.6-.7-1.1-1-2.4-1-3.9s.3-2.8,1-3.9c.7-1.1,1.6-2,2.7-2.6,1.1-.6,2.4-1,3.9-1s2.6.3,3.7.9c1.1.6,1.9,1.5,2.6,2.6s.9,2.4.9,3.8v.2h-3.6v-.4c0-.9-.2-1.6-.5-2.2-.3-.6-.7-1.1-1.3-1.5-.5-.4-1.2-.5-1.9-.5s-1.4.2-2,.5c-.6.4-1,.9-1.4,1.6-.3.7-.5,1.5-.5,2.4s.2,1.8.6,2.5c.4.7,1,1.2,1.7,1.6.7.4,1.5.5,2.4.5,1.7,0,3.1-.7,4.3-2Zm2.2-1.5h-12.4v-2.4h12l.4,1.1v1.3Z" style="stroke-width:0px;"/><path d="m55.4,398h-3.7v-20.2h3.7v20.2Z" style="stroke-width:0px;"/><path d="m60.5,381.5c-.6,0-1.1-.2-1.6-.6s-.7-.9-.7-1.5.2-1.2.7-1.6c.4-.4,1-.6,1.6-.6s1.2.2,1.6.6c.4.4.6.9.6,1.6s-.2,1.1-.6,1.5c-.4.4-1,.6-1.6.6Zm1.8,16.5h-3.7v-14.1h3.7v14.1Z" style="stroke-width:0px;"/><path d="m74.1,398h-3.6l-6-14.1h3.8l4.4,11.5h-.9l4.5-11.5h3.7l-6,14.1Z" style="stroke-width:0px;"/><path d="m93.5,393.6l2,2.3c-.7.8-1.6,1.4-2.7,1.9s-2.3.7-3.7.7-3.1-.3-4.3-1c-1.2-.6-2.2-1.5-2.9-2.6-.7-1.1-1-2.4-1-3.9s.3-2.8,1-3.9c.7-1.1,1.6-2,2.7-2.6,1.1-.6,2.4-1,3.9-1s2.6.3,3.7.9c1.1.6,1.9,1.5,2.6,2.6s.9,2.4.9,3.8v.2h-3.6v-.4c0-.9-.2-1.6-.5-2.2-.3-.6-.7-1.1-1.3-1.5-.5-.4-1.2-.5-1.9-.5s-1.4.2-2,.5c-.6.4-1,.9-1.4,1.6-.3.7-.5,1.5-.5,2.4s.2,1.8.6,2.5c.4.7,1,1.2,1.7,1.6.7.4,1.5.5,2.4.5,1.7,0,3.1-.7,4.3-2Zm2.2-1.5h-12.4v-2.4h12l.4,1.1v1.3Z" style="stroke-width:0px;"/><path d="m107.1,383.7v3.4h-.8c-.9,0-1.6.2-2.3.5-.6.3-1.1.9-1.5,1.6-.4.7-.5,1.7-.5,2.8v6h-3.7v-14.1h3.7v4.6h-.4c.2-1.2.5-2.2,1-2.9.5-.7,1.2-1.2,1.9-1.5.7-.3,1.4-.4,2.1-.4h.5Z" style="stroke-width:0px;"/><path d="m32.4,301.3c.3-.6.9-.9,1.6-.9l24.1,3,24.1-3c.7,0,1.3.3,1.6.9l4.1,8.2c.9,1.8,0,3.9-1.9,4.4l-16.1,4.6c-1.4.4-2.8-.2-3.6-1.4l-8.2-13.7-8.2,13.7c-.7,1.2-2.2,1.8-3.6,1.4l-16.1-4.6c-1.9-.5-2.8-2.7-1.9-4.4l4.1-8.2Zm25.8,8.4l5.4,9c1.5,2.4,4.4,3.6,7.1,2.8l12.5-3.6v16.4c0,2.2-1.5,4.1-3.6,4.6l-20.1,5c-1,.3-2.1.3-3,0l-20.1-5c-2.1-.5-3.6-2.4-3.6-4.6v-16.4l12.5,3.6c2.7.8,5.7-.4,7.1-2.8l5.4-9h.2Z" style="fill:#fff; stroke-width:0px;"/></svg>