<?xml version="1.0" encoding="UTF-8"?><svg id="Layer_1" xmlns="http://www.w3.org/2000/svg" width="687.4" height="631.2" viewBox="0 0 687.4 631.2"><path d="m611.8,594.3c.2,11.7-1.4,23.4-4.8,34.6-.1.4-.3.8-.4,1.2h-70.5c1-5,2.6-9.8,4.8-14.4,5.9-12.5,15.4-23.1,24.9-33.7,13-14.6,25.7-29,27.8-48,5.2,7.9,9.3,16.4,12.3,25.3-3.6,1.3-7,3.4-9.8,6-.8.7-1.6,1.8-1.2,2.8.4.9,1.4,1.1,2.4,1.3,2.3.4,4.5.9,6.8,1.3,1.8.4,3.6.7,5.4,1,1.6,7.4,2.4,14.9,2.6,22.4Z" style="fill:#f2f2f2; stroke-width:0px;"/><path d="m671,586.5c-11.3,6.9-18.5,17.5-24.4,29.4-5.1,1.2-9.8,3.6-13.7,7.2-.8.7-1.7,1.8-1.2,2.8.4.9,1.4,1.1,2.4,1.3,2.2.4,4.5.9,6.7,1.3-.2.5-.4,1-.6,1.5h-74.7c3.4-4.6,7.1-8.9,11.2-12.8.9-.9,1.8-1.7,2.7-2.6,9.5-8.6,20.5-15.5,32.3-20.4,18.7-7.8,39.1-10.5,59.2-7.8Z" style="fill:#f2f2f2; stroke-width:0px;"/><path d="m578,630.1h-66.5c-.4-5.3-.3-10.7,0-16,2.9-33.3,20.3-63.7,47.5-83.2-3.4,12.3-1.7,24.5,1.9,36.8-.5.2-1,.3-1.5.5-3.6,1.3-7,3.4-9.8,6-.8.7-1.6,1.8-1.2,2.8.4.9,1.4,1.1,2.4,1.3,2.3.4,4.5.9,6.7,1.3,1.8.4,3.6.7,5.4,1.1.8.1,1.7.3,2.5.5.1.3.2.6.3.8,4.2,11.6,8.8,23.3,11,35.2.5,3,.9,6,1.1,9,0,1.3.1,2.5.1,3.8Z" style="fill:#f2f2f2; stroke-width:0px;"/><circle cx="69" cy="22.5" r="22.5" style="fill:#fdd6b6; stroke-width:0px;"/><path d="m119.4,11.9c-1.3-4.3-5-7.3-9.4-7.8,0,0,0,0-.1,0,0,0-.1,0-.2,0-10.3-1.3-22.2,3.6-26.5,13.4-2.1-2.9-5.5-4.6-9.1-4.5-4.7.3-8.7,3.5-9.9,8-.1.6,0,1.1.6,1.4.7.6,1.5,1,2.4,1.2,1.9.4,3.7.8,5.6,1.1,3.7.6,7.4,1.2,11.1,1.6,7.5.8,15.1,1.1,22.7.9,2.5,0,5-.2,7.3-1.3,1.7-.8,3.1-2.1,4.2-3.6,2-3,2.6-6.8,1.5-10.3Z" style="fill:#f0f0f0; stroke-width:0px;"/><path d="m72.6,41.9c-1.3-4.3-5-7.3-9.4-7.8,0,0,0,0-.1,0,0,0-.1,0-.2,0-10.3-1.3-22.2,3.6-26.5,13.4-2.1-2.9-5.5-4.6-9.1-4.5-4.7.3-8.7,3.5-9.9,8-.1.6,0,1.1.6,1.4.7.6,1.5,1,2.4,1.2,1.9.4,3.7.8,5.6,1.1,3.7.6,7.4,1.2,11.1,1.6,7.5.8,15.1,1.1,22.7.9,2.5,0,5-.2,7.3-1.3,1.7-.8,3.1-2.1,4.2-3.6,2-3,2.6-6.8,1.5-10.3Z" style="fill:#f0f0f0; stroke-width:0px;"/><path d="m289.1,391.3c-.6.8-2.1,1.8-2.7,2.7l.6-1.9-.2-.4-1.3-2.7-33.8-68h0s-57.2-115.3-57.2-115.3h0s-1.3-2.7-1.3-2.7h0s-28.3-57.1-28.3-57.1l-1.3-2.7c1,0,2,0,3,.1l1.4,2.7,28.2,56.9h0s1.3,2.7,1.3,2.7h0s55.8,112.4,55.8,112.4h0s1.3,2.7,1.3,2.7h0s33.8,68,33.8,68l.5.9.3,1.7Z" style="fill:#3f3d56; stroke-width:0px;"/><path d="m285.4,205.6H32.7c.7-.9,1.4-1.8,2.1-2.7h248.5c.7.9,1.4,1.8,2.1,2.7Z" style="fill:#3f3d56; stroke-width:0px;"/><path d="m317.4,318c0,.9-.2,1.8-.3,2.7h-64.7v-2.7h65Z" style="fill:#3f3d56; stroke-width:0px;"/><path d="m42.3,194.2v213.4c-.9-1-1.8-1.9-2.7-2.9v-207.5c.9-1,1.7-2,2.7-2.9Z" style="fill:#3f3d56; stroke-width:0px;"/><rect x="41" y="389" width="246.7" height="2.7" style="fill:#3f3d56; stroke-width:0px;"/><path d="m287.5,391.3h.3v-.4c0,.2-.2.3-.3.4Zm-2-186c-.7-.9-1.4-1.8-2.1-2.7-28.5-35.8-71-57.5-116.7-59.7-1,0-2,0-3-.1-1.5,0-3,0-4.5,0-44.3,0-86.7,18.5-116.7,51.1-.9,1-1.8,1.9-2.7,2.9-1.7,1.9-3.3,3.8-4.9,5.8-.7.9-1.4,1.8-2.1,2.7-46.2,60.3-43.3,144.8,7,201.7.9,1,1.7,2,2.7,2.9,59.5,64.5,160.1,68.5,224.6,8.9,8-7.4,15.2-15.6,21.6-24.5.6-.8,1.2-1.6,1.7-2.5,14.7-21.3,23.9-45.9,26.9-71.6.1-.9.2-1.8.3-2.7.5-5.2.8-10.4.8-15.7,0-34.9-11.5-68.9-32.8-96.6h0Zm29.1,115c-2.9,24.7-11.7,48.3-25.6,68.9-.4.5-.7,1.1-1.1,1.6,0,.2-.2.3-.3.4,0,.1-.2.3-.3.4-49.5,70.7-147,87.9-217.7,38.4-9.9-7-19.1-15.1-27.1-24.1-.9-1-1.8-2-2.7-3.1-48.1-56.6-49.6-139.3-3.6-197.7.7-.9,1.4-1.8,2.1-2.7.5-.6,1-1.2,1.5-1.8.8-1,1.7-2,2.7-3.1,29.6-33.3,72.1-52.4,116.7-52.4,2,0,3.9,0,5.9.1,1,0,2,0,3,.1,43.6,2.5,84.2,23.1,111.9,56.9.7.9,1.4,1.8,2.1,2.7,25,31.8,36.7,72.1,32.7,112.4,0,.9-.2,1.8-.3,2.7h0Zm-27,71h.3v-.4c0,.2-.2.3-.3.4h0Z" style="fill:#ccc; stroke-width:0px;"/><path d="m139.1,92.3c0,.7,0,1.5,0,2.2-.3,4.1-1.3,8.2-3.1,11.9,0,0,0,0,0,0,0,.2-.2.3-.3.5-.5,1.1-1.1,2.1-1.7,3.1-5.9,9.3-16.1,15-27.1,15.3l.3,18.8,4.3-2.2.8,1.4-5,2.6.6,34.9v.5s-3.3.7-3.3.7v-.5s1-56.3,1-56.3c-8.8-.1-17.2-3.8-23.3-10.1-.2-.2-.4-.4-.6-.7h0c-2.5-2.8-4.6-5.9-6-9.3,0,0,0,0,0,.1-13.6-34.2-5.7-50.1,15.7-42.6.1,0,.2-.1.3-.2,15.5-7.5,34.1-1.8,42.9,13,.2.3.4.7.6,1,2.6,4.8,4,10.2,4,15.7Z" style="fill:#e5e5e5; stroke-width:0px;"/><path d="m178,63.2c-.4,6.6-2.1,13-5,18.9-5.6,11.3-15.4,19.9-27.6,23.1,0,0,0,0,0,0-3.1.8-6.2,1.3-9.4,1.3h-.3c-.3,0-.7,0-1,0s-.5,0-.7,0c-23.7-.4-42.6-19.6-42.6-43.3v-.5c0-2.8.4-5.5,1.2-8.2,0,0,0,0,0,0,1.4-4.6,4-8.8,7.5-12.1,8.7-8.6,22.4-14,34.6-22.5,26.6-18.7,46.1,0,43.3,43.3Z" style="fill:#e5e5e5; stroke-width:0px;"/><path d="m173,82.1c-5.6,11.3-15.4,19.9-27.6,23.1,0,0,0,0,0,0-3.1.8-6.2,1.2-9.4,1.2h-.3c-.6,0-1.1,0-1.7,0-23.7-.6-42.6-20.1-42.3-43.9,0-2.7.3-5.4.8-8,0,0,0,0,0,0,1.4-4.6,4-8.8,7.5-12.1-4.9,23.4,10.1,46.4,33.5,51.3.2,0,.4,0,.6.1.4,0,.8.2,1.2.2,1.2.2,2.4.3,3.6.4,12.6,1,25-3.5,33.9-12.4Z" style="isolation:isolate; opacity:.2; stroke-width:0px;"/><polygon points="136.1 133.6 142.6 130.1 141.6 128.2 136.1 131.2 135.6 107.1 135.6 107.1 135.6 106.5 135.6 106.5 135.4 94.1 135.1 76.6 134.9 63.2 134.7 63.2 134.5 75.6 134.5 75.6 134.2 93.8 134 106.4 133.9 106.5 133.9 110.1 132.6 182.2 132.5 182.7 137 183.9 137 183.5 136.1 133.6" style="fill:#3f3d56; stroke-width:0px;"/><path d="m293.9,218.9c-27.5-5.5-55.1-10.5-83-13.6-26.5-3.1-53.2-3.9-79.8-2.3-24,1.6-48.3,5.4-70.9,14.1-17.4,6.7-35.9,16.8-45.3,33.6-9.1,16.2-5.5,35,4.3,50,11.9,18,30.4,30.4,49.6,39.4,21.9,10.3,45.3,16.9,68.8,22.6,11.9,2.9,23.9,5.5,35.8,8.1,2.5.5,3.6-3.3,1.1-3.8-24.1-5.2-48.3-10.4-71.9-18-21.8-7-44.1-15.9-61.9-30.6-14.4-11.9-28.1-29.2-27.3-48.9.9-19.9,17.5-33.7,33.9-42.3,20.4-10.7,43.6-15.9,66.3-18.6,26-2.9,52.3-3.3,78.4-1.1,34.9,2.7,69.2,8.8,103.5,15.7" style="stroke-width:0px;"/><path d="m164.8,250.6c11.6,5.8,18.6,13.4,18.6,21.8,0,18.1-32.7,32.7-73,32.7s-33.6-2.8-46.2-7.4c13.4,6.7,32.7,10.9,54.3,10.9,40.3,0,73-14.6,73-32.7s-10.4-19.3-26.8-25.3Z" style="fill:#f1f1f1; stroke-width:0px;"/><path d="m190.6,263c13.1,6.5,21,15.1,21,24.6,0,20.4-36.9,36.9-82.3,36.9s-37.9-3.1-52.1-8.3c15.1,7.5,37,12.3,61.3,12.3,45.5,0,82.3-16.5,82.3-36.9s-11.8-21.8-30.2-28.6Z" style="fill:#f1f1f1; stroke-width:0px;"/><path d="m155,256c8.2,4.1,13.1,9.5,13.1,15.4,0,12.7-23,23-51.4,23-11.1.1-22.1-1.6-32.5-5.2,9.4,4.7,23.1,7.7,38.3,7.7,28.4,0,51.4-10.3,51.4-23,0-7.2-7.4-13.6-18.9-17.8Z" style="fill:#f1f1f1; stroke-width:0px;"/><path d="m111.5,280.4c-16.8,0-24.9-4.6-28.8-8.5-2-2-2-5.2,0-7.2,1-1,2.2-1.5,3.6-1.5h58.5c2.1,0,3.8,1.7,3.8,3.8,0,1.2-.5,2.3-1.5,3-6,4.7-17,10.3-35.6,10.3Z" style="fill:#3f3d56; stroke-width:0px;"/><path d="m123.7,221.5c-4.6-3.5-10.3-5-16-4.4,10.1,2.5,2.1,16.4,11.3,30.9,5,7.9-4.7,11.8-14,12.8,11.9,2.9,24-4.5,26.9-16.4,2.1-8.6-1.1-17.6-8.2-23h0Z" style="fill:#3f3d56; stroke-width:0px;"/><rect x="111.2" y="214.2" width="2.2" height="51.3" style="fill:#3f3d56; stroke-width:0px;"/><path d="m320.6,228.6c-24.1-16.9-57.3-11.2-74.2,12.9,0,0,0,0,0,0-16.9,24.1-33.9,87.1-21.9,123.7,35.8-37.8,90.8-41.7,109.1-62.3,19.5-22,11.2-57.3-12.9-74.2Z" style="fill:#0085d5; stroke-width:0px;"/><circle id="af3c8991-f89c-43e0-a050-89c81726f2a6" cx="289.2" cy="265.7" r="17.4" style="fill:#fff; stroke-width:0px;"/><circle id="a49e5b2e-c339-415c-b240-8977b61bd9a6" cx="209.7" cy="372.7" r="11.4" style="fill:#0085d5; stroke-width:0px;"/><path d="m307.8,261.7c4.8,8.3,2,18.9-6.2,23.8s-18.9,2-23.8-6.2c7.2,6.3,18.2,5.6,24.5-1.6,4.9-5.6,5.7-13.8,1.9-20.2,1.4,1.2,2.6,2.7,3.6,4.3Z" style="fill:#231f20; isolation:isolate; opacity:.2; stroke-width:0px;"/><path d="m333.5,302.9c-18.3,20.6-73.3,24.5-109.1,62.3-1.1-3.5-2-7-2.6-10.6,35.8-34.4,87.7-38.7,105.4-58.6,15.8-17.8,13.3-44.3-.9-62.8,19.6,18.1,25.1,49.4,7.2,69.6Z" style="fill:#231f20; isolation:isolate; opacity:.2; stroke-width:0px;"/><polygon points="520.9 617.2 507.9 617.2 501.7 567.2 520.9 567.2 520.9 617.2" style="fill:#ffb6b6; stroke-width:0px;"/><path d="m524.2,629.8h-41.8v-.5c0-9,7.3-16.3,16.3-16.3h0l7.6-5.8,14.3,5.8h3.7s0,16.8,0,16.8Z" style="fill:#2f2e41; stroke-width:0px;"/><polygon points="470.6 609.1 458 611.9 440.9 564.5 459.6 560.3 470.6 609.1" style="fill:#ffb6b6; stroke-width:0px;"/><path d="m476.6,620.6l-40.8,9.2v-.5c-2.1-8.8,3.4-17.5,12.2-19.5h0s6.2-7.3,6.2-7.3l15.2,2.5,3.6-.8,3.7,16.4Z" style="fill:#2f2e41; stroke-width:0px;"/><path d="m537.3,311.4c6.1,18.3,5.4,38.2-1.5,59.6l-2.9,120.3c4.9,5.4,7.9,27.2.4,42.9-10,20.9-3.1,49.9-10.2,63.7h-20.6l-5.1-56.5-4.5-6.4-.7-51c-2.7-6.5-5.9-12.9-.3-20.4v-8.9c-.1,0-.9-47.2-.9-47.2l-31,45.4c-.9,10.3-6.1,15.6-13.1,19.1l9.6,42.4c16.8,14.4,12.7,36.6,13,57.2l5.5,24.3-25.3,2.3-11.2-33-12.6-20.3-21.8-81.2,15.2-35.4,6.2-14.4,34.8-80.7,76.9-22Z" style="fill:#2f2e41; stroke-width:0px;"/><path d="m322.4,246c3.8,3.8,10,3.8,13.9,0,.4-.4.8-.9,1.1-1.3l33.5,9.4-5.5-17.2-31-6.3c-4.7-2.8-10.7-1.3-13.5,3.4-2.3,3.9-1.7,8.9,1.5,12.1Z" style="fill:#ffb8b8; stroke-width:0px;"/><path d="m349.9,232.1l32.7-.2h0c8.8-2.5,18.1-2.7,27.1-.6l1.7.4,13.7-1.5c8.1-16.3,23.2-31,43.5-44.5,12-9.6,29.5-7.8,39.1,4.2.7.8,1.3,1.7,1.9,2.7h0c7.8,12.5,4.6,28.9-7.5,37.5l-61.8,36.3c-5.4,3.2-11.6,4.9-17.9,5h-.1c0,0-35.3-13.1-35.3-13.1l-18.1-2.3-24.6-7.1,5.6-16.5Z" style="fill:#0085d5; stroke-width:0px;"/><circle cx="481.2" cy="124.8" r="30.9" style="fill:#ffb8b8; stroke-width:0px;"/><path d="m510,144.4c2.3-3.3,3.9-8.5,4.9-12.3,2.6-10.2.7-21-5.1-29.7-1.1-1.8-2.6-3.2-4.4-4.2-1.9-.8-4.3-.6-5.6.9,0-2.8-1.2-5.5-3.2-7.4-2-1.9-4.5-3.3-7.2-4-10.5-3.2-21.8-.4-29.6,7.3-1.5,1.5-1-6.1-2.6-4.7-1.6,1.4-3.7,2.2-5.9,2.1-2.1-.2-6,7.3-6,5.2-2.2,2.2-3.2,11.6-2.5,14.7s11,1.7,14,2.8c2,.7,4.1.7,6.1,1.2,7.5,1.9,12.4,9.2,11.3,16.8,1.3-1.8,2.9-3.3,4.7-4.5,1.8-1.3,4.1-1.5,6.2-.8,1.9,1,3.2,2.7,3.8,4.8.7,2,.9,4.1,1.6,6.1,2,5.8,3.1,11.9,8.7,13.3,4.4,1.1,7.6-3.1,10.8-7.5Z" style="fill:#2f2e41; stroke-width:0px;"/><path d="m539.9,305.3l-3.4-6.8c-4.2-25.7-8.2-49.7-2.7-71.3.3-18.8-5.5-36.5-21.6-46.2l-7.3-4.4-3.7-9.4-34,.8v12.3c0,0-12.3,19.4-12.3,19.4h0c0,0,.8,105.7.8,105.7l3.4,10.9-5.1,12.7,2.7,8.1,67-10.7,7.8-1.2c.9-.3,1.8-.7,2.6-1.1,2.8-1.6,5-4,6.2-7,0-.2.1-.3.2-.5.5-1.4.8-2.8.9-4.3.1-2.5-.4-4.9-1.5-7.1Z" style="fill:#0085d5; stroke-width:0px;"/><path d="m541.4,312.4c0,1.5-.4,2.9-.9,4.3l-6.4,7.5c-.8.5-1.7.8-2.6,1.1l-7.8,1.2,11.3-21.2-24.8-54.2,31.2,61.3Z" style="isolation:isolate; opacity:.2; stroke-width:0px;"/><path d="m568.4,375.1c-4.7-3.2-5.9-9.6-2.7-14.3.3-.5.7-1,1.2-1.4l-16.3-32.8,18.9,2.3,12.6,30.8c3.8,4.3,3.4,10.8-.8,14.6-3.6,3.2-8.9,3.5-12.8.8h0Z" style="fill:#ffb8b8; stroke-width:0px;"/><path d="m502.3,262.4l12.4-1.7s1.2,18.6,7.1,21.5,3.9,3.3,4.6,6.3,3.9,7.5,8.5,9.6,26,53.9,26,53.9l17.9-4.2c-1.7-4.5-2.8-9.2-3.3-14-.6-7.2-8.8-24.2-11.5-26.8s-1.6-7-3-13-.4-.4-2.8-10.4-28.5-69.7-29.6-78.9-13.9-14.6-13.9-14.6l-10,2.3-2.6,70Z" style="fill:#0085d5; stroke-width:0px;"/><path id="a00e3c47-1fa9-4e2e-8ad1-93a2fdd4719a-50" d="m296.9,631.2h389.3c.7,0,1.2-.6,1.2-1.2s-.6-1.2-1.2-1.2h-389.3c-.7,0-1.2.6-1.2,1.2s.6,1.2,1.2,1.2h0Z" style="fill:#ccc; stroke-width:0px;"/></svg>