<svg xmlns="http://www.w3.org/2000/svg" viewBox="0 0 717.7 596.3"><rect width="326" height="594" x="204.9" fill="#3f3d56" rx="58.7" ry="58.7"/><path fill="#fff" d="M525.4 58.7v476.5c0 29.4-23.8 53.2-53.2 53.2H263.7c-29.4 0-53.2-23.8-53.2-53.2V58.7c0-29.4 23.8-53.2 53.2-53.2H291v9.4c0 8.9 7.2 16.1 16.1 16.1h121.8c8.9 0 16.1-7.2 16.1-16.1V5.5h27.3c29.4 0 53.2 23.8 53.2 53.2Z"/><path fill="#3f3d56" d="M203.4 120.5c-2.2 0-4-1.8-4-4v-8c0-2.2 1.8-4 4-4s4 1.8 4 4v8c0 2.2-1.8 4-4 4ZM203.4 161.5c-2.2 0-4-1.8-4-4v-22c0-2.2 1.8-4 4-4s4 1.8 4 4v22c0 2.2-1.8 4-4 4ZM203.4 194.5c-2.2 0-4-1.8-4-4v-22c0-2.2 1.8-4 4-4s4 1.8 4 4v22c0 2.2-1.8 4-4 4ZM531.4 176.5c-2.2 0-4-1.8-4-4v-53.7c0-2.2 1.8-4 4-4s4 1.8 4 4v53.7c0 2.2-1.8 4-4 4Z"/><path fill="#fff" d="M376.4 18.3h-31c-1.4 0-2.5-1.1-2.5-2.5s1.1-2.5 2.5-2.5h31c1.4 0 2.5 1.1 2.5 2.5s-1.1 2.5-2.5 2.5Z"/><circle cx="392.4" cy="15.8" r="2" fill="#fff"/><path fill="#f2f2f2" d="M632.8 569c2 0 3.6-1.5 3.7-3.4 0-1.1-.4-2.1-1.2-2.8 0-.4-.2-.6-.3-1 1.9-4.9 7.4-7.4 12.4-5.5 2.4.9 4.4 2.8 5.4 5.2 4.3 9.8 9.9 20 7.3 30.9 17.6-38.2 11-85.5-15.8-117.8-7.4-4-13.4-11.1-15-19.4 3.6 1.2 8.1-1.8 5.4-5.6-1.2-1.5-2.4-2.9-3.6-4.3 13.7-14.8 30.3 8.1 15.3 28.1 5 6.2 9.4 12.9 13 20-.9-7.6 0-15.2 2.7-22.3 2.7-6.6 7.8-12.3 12.3-18 5.4-7 16.8-3.9 17.6 4.9-5.1 1.7-5.7 9.1.2 10-1.4 16.5-12 31.7-26.7 39.1 5.6 15.3 7.9 31.6 6.7 47.9 2.4-19 22.8-23.8 36.9-31.5 2.6-1.7 6-1 7.7 1.6.8 1.2 1.1 2.6.8 3.9-2 .8-3.8 1.8-5.6 3-2.2 1.5-2.8 4.5-1.3 6.7.8 1.2 2.1 2 3.6 2.1-7 17.8-25.5 29.9-44.5 30.1-1.8 8-4.3 15.8-7.7 23.2l-28.3.3c-.1-.3-.2-.6-.3-1 2.6.1 5.2 0 7.8-.5-7-8.1-12.4-12.3-8.5-23.8ZM85 569c-2 0-3.6-1.5-3.7-3.4 0-1.1.4-2.1 1.2-2.8 0-.4.2-.6.3-1-1.9-4.9-7.4-7.4-12.4-5.5-2.4.9-4.4 2.8-5.4 5.2-4.3 9.8-9.9 20-7.3 30.9-17.6-38.2-11-85.5 15.8-117.8 7.4-4 13.4-11.1 15-19.4-3.6 1.2-8.1-1.8-5.4-5.6 1.2-1.5 2.4-2.9 3.6-4.3-13.7-14.8-30.3 8.1-15.3 28.1-5 6.2-9.4 12.9-13 20 .9-7.6 0-15.2-2.7-22.3-2.7-6.6-7.8-12.3-12.3-18-5.4-7-16.8-3.9-17.6 4.9 5.1 1.7 5.7 9.1-.2 10 1.4 16.5 12 31.7 26.7 39.1-5.6 15.3-7.9 31.6-6.7 47.9-2.4-19-22.8-23.8-36.9-31.5-2.6-1.7-6-1-7.7 1.6-.8 1.2-1.1 2.6-.8 3.9 2 .8 3.8 1.8 5.6 3 2.2 1.5 2.8 4.5 1.3 6.7-.8 1.2-2.1 2-3.6 2.1 7 17.8 25.5 29.9 44.5 30.1 1.8 8 4.3 15.8 7.7 23.2l28.3.3c.1-.3.2-.6.3-1-2.6.1-5.2 0-7.8-.5 7-8.1 12.4-12.3 8.5-23.8Z"/><path fill="#e6e6e6" d="M278.9 29.1h-27c-2.8 0-5-2.2-5-5s2.2-5 5-5h27c2.8 0 5 2.2 5 5s-2.2 5-5 5Z"/><circle cx="455.9" cy="24.1" r="4.5" fill="#e6e6e6"/><circle cx="469.9" cy="24.1" r="4.5" fill="#e6e6e6"/><circle cx="483.9" cy="24.1" r="4.5" fill="#e6e6e6"/><path fill="#f2f2f2" d="M452.8 99H283.1c-6.8 0-12.4 5.6-12.4 12.4v110.3c0 6.8 5.6 12.4 12.4 12.4h169.7c6.8 0 12.4-5.6 12.4-12.4V111.4c0-6.8-5.6-12.4-12.4-12.4ZM469.2 477.6H266.5c-6.8 0-12.4-5.6-12.4-12.4v-27.3c0-6.8 5.6-12.4 12.4-12.4h202.7c6.8 0 12.4 5.6 12.4 12.4v27.3c0 6.8-5.6 12.4-12.4 12.4ZM469.2 337.6H266.5c-6.8 0-12.4-5.6-12.4-12.4v-27.3c0-6.8 5.6-12.4 12.4-12.4h202.7c6.8 0 12.4 5.6 12.4 12.4v27.3c0 6.8-5.6 12.4-12.4 12.4ZM469.2 407.6H266.5c-6.8 0-12.4-5.6-12.4-12.4v-27.3c0-6.8 5.6-12.4 12.4-12.4h202.7c6.8 0 12.4 5.6 12.4 12.4v27.3c0 6.8-5.6 12.4-12.4 12.4Z"/><path fill="#fff" d="M392.5 446.9h-59.7c-1.5 0-2.7-1.2-2.7-2.7s1.2-2.7 2.7-2.7h59.7c1.5 0 2.7 1.2 2.7 2.7s-1.2 2.7-2.7 2.7ZM449.9 461.6H332.1c-1.5 0-2.7-1.2-2.7-2.7s1.2-2.7 2.7-2.7h117.8c1.5 0 2.7 1.2 2.7 2.7s-1.2 2.7-2.7 2.7Z"/><circle cx="301" cy="451.6" r="17.9" fill="#fff"/><path fill="#ffb6b6" d="M297.1 475.8c-3.8-1.8-8.3-.2-10.2 3.5-.2.4-.3.8-.4 1.1l-27 1.6-4 14 36.7-6.2c3.4.7 6.9-1 8.5-4.1 1.8-3.7.3-8.1-3.4-9.9h-.2Z"/><path fill="#0085d5" d="M237.5 406.8c-6.8-2.8-14.6.5-17.4 7.3-.2.6-.4 1.2-.6 1.9l-7.4 29.9 1.4 52.4s38.7 7.4 45.2 2.7 5.9-8.3 6.5-4.8 3.4 5 3.4 3.6.4-1.2 2-1.6c1.6-.4 8.8-3.1 8.8-3.1l.3-14.9s-11.8-4.5-14.7-3.1.6 3.6-2.9 1.3-3.9-9.2-4.5-2.9-2.3 7.5-4.9 4.7-14.7-1-14.7-1l7.7-58.2c.8-6-2.6-11.8-8.2-14.1Z"/><path fill="#ffb6b6" d="m498.2 562.2.4-11.1-42.4-6.8-.6 16.3 42.6 1.6z"/><path fill="#2f2e41" d="m490.5 565.5-.4-17.7 7.5.3 12.2-16.3c1.6-2.1 4.5-2.5 6.6-1 1.2.9 2 2.4 1.9 4l-.8 21-7.6 3.3 7.4 1.7-.3 7.9-26.6-3.2ZM259.8 587.5l134.1-15.6s57.9 3.3 71.5-5.5l14.3-1.8.8-21.1s-8.8 0-13.8-2.3-1.5-5.2-6.3-2.4-4.3 3.2-8 1.9-174-8.3-174-8.3l-18.6 55Z"/><path fill="#ffb6b6" d="m436.6 578.3 7.8-7.8-26.4-33.8-11.6 11.5 30.2 30.1z"/><path fill="#2f2e41" d="m428.7 575.5 11.7-13.2 5.3 5.3 20-3.7c2.6-.5 5 1.2 5.5 3.8.3 1.5-.2 3.1-1.3 4.2l-14.8 14.9-7.8-2.7 4.3 6.3-5.6 5.6-17.3-20.4Z"/><path fill="#2f2e41" d="m206.9 514 1.3 31c1.6 36.5 41.8 58.6 72.9 39.5.6-.4 1.2-.7 1.7-1.1.9-.6 11.8-3.2 11.5-8.2s2.5-7.5 5.1-6.1 36-46.1 36-46.1 69.5 34.7 84.8 42.8l16.2-4.4s6.1 2.9 3.9-1.3-2.6-2.2-3.3-6.7-2.4-10.1-3.4-9.9-86-59.2-86-59.2-13.8-14-31-4.8c-.4 1.4 0 1.4 0 1.4l-56.7 46.2-8-15.2-45 2Z"/><path fill="#0085d5" d="m245 400.1-24.3-11.4-7.3 12.7s-19.5 27.9-19.8 48 3.2 26.1 3.2 26.1-8.4 6.3-4.2 10.1 13.5 5.5 6.4 7.2-5.3 18.6 2.7 21.6 51 3 51 3c-.8-2.7 0-5.6 1.9-7.5 3.3-3.3 6.3-.9 3.3-6.1s-8-2.2-4-9.2 4-9.1 4-9.1 8.2-15.5-4.1-32.4c-.7-1-.1-1.1-.1-1.1l-9.9-33.2 1.4-18.6Z"/><path fill="#2f2e41" d="M205.8 352.2c.2 5.1-3 12.4-4.6 16.8-1.7 4.7 5.7 10.9 10.4 12.3.2-1.6 1.1-3.1 2.3-4.2-.3 1.5-.4 3.1 0 4.7l39.9 9.1c7.2-8.3 14.4-20.3 12.8-34.7.8-5.6-1.9-11.1-6.8-14l-20.2-11.9c-8.6-2-19.4-3.1-25.6 2.2-5.6 5-8.6 12.3-8.2 19.8Z"/><circle cx="241.5" cy="363.5" r="23" fill="#ffb6b6"/><path fill="#2f2e41" d="m214.6 351.2-1.1 4.9 19.4 4.4c0-2 .9-3.9 2.4-5.2-.4 1.9-.4 3.9.1 5.8 10.5 5.9 19.9 8 28.4 6.5 2.4.5 4.8-1 5.3-3.3 3.4-14.9-5.5-30.2-20.4-33.9-15-3.8-30.2 5.4-34 20.4 0 .2 0 .4-.1.6Z"/><path fill="#2f2e41" d="M225.9 319c2.6-.6 5.3-.4 7.6-2.2l-1.5 3.5c4.2-1.2 8.7-.7 12.6 1.3 1.2.5 2.1 1.4 2.8 2.4.8 1.3.9 2.9.4 4.3-.5 1.2-1.5 2.1-2.7 2.6-1.1.3-2.2.4-3.3.3-4.7-.1-9.4-.2-14.2-.3-1.8.1-3.6-.2-5.2-1-1.8-1.1-2.7-3.1-2.4-5.2.5-3.2 3.4-5.1 6-5.7Z"/><path fill="#ccc" d="m350.7 499.3-.2-.2c-.2-.2-.4-.4-.6-.5l-1.7-.9-11.2-12.4c-.6-.3-1.4-.4-2.1-.2s-4.8 1.5-4.8 1.5l-4.1 1.3-5.8 1.8-39.2 12.1-25.7 8c-1.4.5-2.3 2-1.8 3.4.1.4.3.7.6 1l.8.9 1.7 1.9 4 8.3 1.1 1.2c.7.8 1.8 1.1 2.9.8l84.8-23.6c1.5-.5 2.3-2.1 1.8-3.6-.1-.3-.3-.7-.5-1Z"/><path fill="#ccc" d="m345.6 376.6-1.6.3c-.5 0-.9.3-1.1.7l-.7 1-6.5 16.3c-.3.4-.4.8-.3 1.3l.8 4.7-2.9 83c0 .4.3.8.6 1.1l12.7 17 .3.2.6.5c.3.3.7.4 1.1.4h1.1c.5 0 1-.3 1.3-.7.3-.4.4-.9.4-1.4l-3.7-122.9c-.2-.9-1-1.6-2-1.4Z"/><path fill="#0085d5" d="m342.9 383-5.8 17.7-2.2 70.3 9 8-1-96z"/><path fill="#ffb6b6" d="M298.2 490.4c-3.8-1.8-8.3-.2-10.2 3.5-.2.4-.3.8-.4 1.1l-27 1.6-4 14 36.7-6.2c3.4.7 6.9-1 8.5-4.1 1.8-3.7.3-8.1-3.4-9.9h-.2Z"/><path fill="#0085d5" d="M238.7 421.4c-6.8-2.8-14.6.5-17.4 7.3-.2.6-.4 1.2-.6 1.9l-7.4 29.9 1.4 52.4s38.7 7.4 45.2 2.7 5.9-8.3 6.5-4.8 3.4 5 3.4 3.6.4-1.2 2-1.6c1.6-.4 8.8-3.1 8.8-3.1l.3-14.9s-11.8-4.5-14.7-3.1.6 3.6-2.9 1.3-3.9-9.2-4.5-2.9-2.3 7.5-4.9 4.7-14.7-1-14.7-1l7.7-58.2c.8-6-2.6-11.8-8.2-14.1Z"/><path fill="#ccc" d="M0 595.1c0 .7.5 1.2 1.2 1.2h715.3c.7 0 1.2-.5 1.2-1.2s-.5-1.2-1.2-1.2H1.2c-.7 0-1.2.5-1.2 1.2Z"/><path fill="#e6e6e6" d="M631.2 337.6H428.5c-6.8 0-12.4-5.6-12.4-12.4v-27.3c0-6.8 5.6-12.4 12.4-12.4h202.7c6.8 0 12.4 5.6 12.4 12.4v27.3c0 6.8-5.6 12.4-12.4 12.4Z"/><path fill="#fff" d="M554.5 306.9h-59.7c-1.5 0-2.7-1.2-2.7-2.7s1.2-2.7 2.7-2.7h59.7c1.5 0 2.7 1.2 2.7 2.7s-1.2 2.7-2.7 2.7ZM611.9 321.6H494.1c-1.5 0-2.7-1.2-2.7-2.7s1.2-2.7 2.7-2.7h117.8c1.5 0 2.7 1.2 2.7 2.7s-1.2 2.7-2.7 2.7Z"/><circle cx="463" cy="311.6" r="17.9" fill="#fff"/><path fill="#e6e6e6" d="M566.2 407.6H363.5c-6.8 0-12.4-5.6-12.4-12.4v-27.3c0-6.8 5.6-12.4 12.4-12.4h202.7c6.8 0 12.4 5.6 12.4 12.4v27.3c0 6.8-5.6 12.4-12.4 12.4Z"/><path fill="#fff" d="M489.5 376.9h-59.7c-1.5 0-2.7-1.2-2.7-2.7s1.2-2.7 2.7-2.7h59.7c1.5 0 2.7 1.2 2.7 2.7s-1.2 2.7-2.7 2.7ZM546.9 391.6H429.1c-1.5 0-2.7-1.2-2.7-2.7s1.2-2.7 2.7-2.7h117.8c1.5 0 2.7 1.2 2.7 2.7s-1.2 2.7-2.7 2.7Z"/><circle cx="398" cy="381.6" r="17.9" fill="#fff"/><path d="M289.6 204.5h13.1v-55.7h-13.1v55.7Zm6.5-63c4.1 0 7.3-3.2 7.3-7.1s-3.2-7.1-7.3-7.1-7.3 3.2-7.3 7.1 3.2 7.1 7.3 7.1Zm50.1-14.1c-22.1 0-36 15.1-36 39.2s13.9 39.2 36 39.2 35.9-15 35.9-39.2-13.9-39.2-35.9-39.2Zm0 11.6c13.5 0 22.1 10.7 22.1 27.6s-8.6 27.6-22.1 27.6-22.1-10.7-22.1-27.6 8.6-27.6 22.1-27.6Zm41.5 44.2c.6 14 12 22.6 29.5 22.6s29.9-9 29.9-23.4-6.5-17.7-21.9-21.2l-8.7-2c-9.3-2.2-13.1-5.2-13.1-10.2s5.8-10.5 14.3-10.5 14.6 4.3 15.2 11.4h12.9c-.3-13.3-11.4-22.4-28.1-22.4s-28.2 9.1-28.2 22.5 6.6 17.6 20.6 20.8l9.8 2.3c9.6 2.3 13.5 5.4 13.5 10.9s-6.4 10.8-15.5 10.8-16.2-4.6-17.1-11.6h-13.1Z"/></svg>