<?xml version="1.0" encoding="UTF-8"?>
<svg id="Layer_1" data-name="Layer 1" xmlns="http://www.w3.org/2000/svg" viewBox="0 0 786.8 572.2">
  <defs>
    <style>
      .cls-1 {
        isolation: isolate;
        opacity: .2;
      }

      .cls-1, .cls-2, .cls-3, .cls-4, .cls-5, .cls-6, .cls-7, .cls-8, .cls-9 {
        stroke-width: 0px;
      }

      .cls-2 {
        fill: #63a0ff;
      }

      .cls-3 {
        fill: #fff;
      }

      .cls-4 {
        fill: #3f3d56;
      }

      .cls-5 {
        fill: #0868ac;
      }

      .cls-6 {
        fill: #ffb6b6;
      }

      .cls-7 {
        fill: #131b28;
      }

      .cls-8 {
        fill: #f2f2f2;
      }

      .cls-9 {
        fill: #2f2e41;
      }
    </style>
  </defs>
  <circle class="cls-8" cx="458.3" cy="74.2" r="26.7"/>
  <path class="cls-8" d="m665.4,497.2c39.7-30.2,58.6-81,46.8-129.5-.3-1.2-.6-2.4-.9-3.6-7.9-28.8-27.3-56.1-55.7-65.3-23.8-7.7-49.8-1.8-74.7-4.9-48.8-6-86.6-45.5-113.2-86.8s-47.1-87.6-82.4-121.7c-58.3-56.3-153.4-68.4-225.6-31.8-72.3,36.7-118.3,117.9-116.4,198.9,2,81,50,158.4,119.9,199.5,25.7,15.1,55.3,25.8,84.8,22,25.6-3.2,48.9-17,74.4-21.1,40.1-6.4,79.9,11.7,114.6,32.8,34.7,21.1,68.2,46.2,107.6,56,38.3,9.6,85.7-17.8,120.8-44.5Z"/>
  <path class="cls-4" d="m608.4,55.3c-.9-.6-1.8-1.1-2.6-1.7-25.1-16.1-52.1-29.2-80.3-38.9l-6.5,90.2h-41.5V1.5c-2.6-.5-5.2-1.1-7.9-1.5v104.9h-49.3c-56.5,0-102.3-45.8-102.3-102.3h0c-2.6.6-5.3,1.2-7.9,1.8v100.4h-40.1l-6.2-86c-29,11.1-56.5,25.7-81.9,43.5-.4.3-.9.6-1.3.9-2.2,1.6-4.4,3.1-6.6,4.7v344.2h118.3l-2.1-29-11.5-159h231.6l-11.5,159-2.1,29h117V58.8c-1.8-1.2-3.5-2.3-5.3-3.5Zm-298.2,142.8h-33.4l-6.2-85.3h39.6v85.3Zm159.4,0h-56.1v-1.7c0-3.4-2.8-6.2-6.2-6.2h-24.3c-3.4,0-6.2,2.8-6.2,6.2h0v1.7h-58.7v-85.3h151.5v85.3Zm7.9,0v-85.3h40.9l-6.2,85.3h-34.7Z"/>
  <path class="cls-4" d="m0,434.3c8.7,10.3,18.1,20,28.1,29l730.6,1c10-9,19.4-18.7,28.1-29L0,434.3Z"/>
  <path class="cls-4" d="m495.4,341.6v85.7c0,2.3,1.8,4.1,4.1,4.1h127c2.3,0,4.1-1.8,4.1-4.1v-85.7c0-2.3-1.8-4.1-4.1-4.1h-127c-2.2,0-4.1,1.8-4.1,4.1Z"/>
  <path class="cls-2" d="m498.4,342.7v83.6c0,1.2,1,2.2,2.2,2.2h124.9c1.2,0,2.2-1,2.2-2.2v-83.6c0-1.2-1-2.2-2.2-2.2h-124.9c-1.2,0-2.2.9-2.2,2.2Z"/>
  <path class="cls-9" d="m492.8,444c.5.6,1.2.9,1.9.9h136c1.4,0,2.5-1.1,2.5-2.5,0-.2,0-.3-.1-.5l-2.1-10c-.2-.8-.8-1.5-1.6-1.8-.3-.1-.6-.2-.9-.2h-131.7c-.3,0-.6.1-.9.2-.8.3-1.4,1-1.6,1.8l-2.1,10c-.1.8.1,1.5.6,2.1Z"/>
  <path class="cls-4" d="m627.1,434.2h-3.2c-.3,0-.5-.2-.5-.5v-1.5c0-.3.2-.5.5-.5h3.2c.3,0,.5.2.5.5v1.5c0,.3-.2.5-.5.5Z"/>
  <path class="cls-4" d="m618.8,434.2h-3.2c-.3,0-.5-.2-.5-.5v-1.5c0-.3.2-.5.5-.5h3.2c.3,0,.5.2.5.5v1.5c0,.3-.3.5-.5.5Z"/>
  <path class="cls-4" d="m610.4,434.2h-3.2c-.3,0-.5-.2-.5-.5v-1.5c0-.3.2-.5.5-.5h3.2c.3,0,.5.2.5.5v1.5c0,.3-.2.5-.5.5Z"/>
  <path class="cls-4" d="m602,434.2h-3.2c-.3,0-.5-.2-.5-.5v-1.5c0-.3.2-.5.5-.5h3.2c.3,0,.5.2.5.5v1.5c0,.3-.2.5-.5.5Z"/>
  <path class="cls-4" d="m593.6,434.2h-3.2c-.3,0-.5-.2-.5-.5v-1.5c0-.3.2-.5.5-.5h3.2c.3,0,.5.2.5.5v1.5c0,.3-.2.5-.5.5Z"/>
  <path class="cls-4" d="m585.3,434.2h-3.3c-.3,0-.5-.2-.5-.5v-1.5c0-.3.2-.5.5-.5h3.2c.3,0,.5.2.5.5v1.5c0,.3-.2.5-.4.5Z"/>
  <path class="cls-4" d="m576.9,434.2h-3.2c-.3,0-.5-.2-.5-.5v-1.5c0-.3.2-.5.5-.5h3.2c.3,0,.5.2.5.5v1.5c0,.3-.2.5-.5.5Z"/>
  <path class="cls-4" d="m568.5,434.2h-3.2c-.3,0-.5-.2-.5-.5v-1.5c0-.3.2-.5.5-.5h3.2c.3,0,.5.2.5.5v1.5c0,.3-.2.5-.5.5Z"/>
  <path class="cls-4" d="m560.1,434.2h-3.2c-.3,0-.5-.2-.5-.5v-1.5c0-.3.2-.5.5-.5h3.2c.3,0,.5.2.5.5v1.5c0,.3-.2.5-.5.5Z"/>
  <path class="cls-4" d="m551.8,434.2h-3.2c-.3,0-.5-.2-.5-.5v-1.5c0-.3.2-.5.5-.5h3.2c.3,0,.5.2.5.5v1.5c-.1.3-.3.5-.5.5Z"/>
  <path class="cls-4" d="m543.4,434.2h-3.2c-.3,0-.5-.2-.5-.5v-1.5c0-.3.2-.5.5-.5h3.2c.3,0,.5.2.5.5v1.5c0,.3-.3.5-.5.5Z"/>
  <path class="cls-4" d="m535,434.2h-3.2c-.3,0-.5-.2-.5-.5v-1.5c0-.3.2-.5.5-.5h3.2c.3,0,.5.2.5.5v1.5c0,.3-.2.5-.5.5Z"/>
  <path class="cls-4" d="m526.6,434.2h-3.2c-.3,0-.5-.2-.5-.5v-1.5c0-.3.2-.5.5-.5h3.2c.3,0,.5.2.5.5v1.5c0,.3-.2.5-.5.5Z"/>
  <path class="cls-4" d="m518.2,434.2h-3.2c-.3,0-.5-.2-.5-.5v-1.5c0-.3.2-.5.5-.5h3.2c.3,0,.5.2.5.5v1.5c0,.3-.2.5-.5.5Z"/>
  <path class="cls-4" d="m509.9,434.2h-3.2c-.3,0-.5-.2-.5-.5v-1.5c0-.3.2-.5.5-.5h3.2c.3,0,.5.2.5.5v1.5c0,.3-.3.5-.5.5Z"/>
  <path class="cls-4" d="m501.5,434.2h-3.2c-.3,0-.5-.2-.5-.5v-1.5c0-.3.2-.5.5-.5h3.2c.3,0,.5.2.5.5v1.5c0,.3-.2.5-.5.5Z"/>
  <path class="cls-4" d="m627.2,438.4h-3.2c-.3,0-.5-.2-.5-.5v-1.5c0-.3.2-.5.5-.5h3.2c.3,0,.5.2.5.5v1.5c0,.3-.2.5-.5.5Z"/>
  <path class="cls-4" d="m618.9,438.4h-3.2c-.3,0-.5-.2-.5-.5v-1.5c0-.3.2-.5.5-.5h3.2c.3,0,.5.2.5.5v1.5c0,.3-.3.5-.5.5Z"/>
  <path class="cls-4" d="m610.5,438.4h-3.2c-.3,0-.5-.2-.5-.5v-1.5c0-.3.2-.5.5-.5h3.2c.3,0,.5.2.5.5v1.5c0,.3-.2.5-.5.5Z"/>
  <path class="cls-4" d="m602.1,438.4h-3.2c-.3,0-.5-.2-.5-.5v-1.5c0-.3.2-.5.5-.5h3.2c.3,0,.5.2.5.5v1.5c0,.3-.2.5-.5.5Z"/>
  <path class="cls-4" d="m593.7,438.4h-3.2c-.3,0-.5-.2-.5-.5v-1.5c0-.3.2-.5.5-.5h3.2c.3,0,.5.2.5.5v1.5c0,.3-.2.5-.5.5Z"/>
  <path class="cls-4" d="m585.4,438.4h-3.2c-.3,0-.5-.2-.5-.5v-1.5c0-.3.2-.5.5-.5h3.2c.3,0,.5.2.5.5v1.5c-.1.3-.3.5-.5.5Z"/>
  <path class="cls-4" d="m577,438.4h-3.2c-.3,0-.5-.2-.5-.5v-1.5c0-.3.2-.5.5-.5h3.2c.3,0,.5.2.5.5v1.5c0,.3-.2.5-.5.5Z"/>
  <path class="cls-4" d="m568.6,438.4h-3.2c-.3,0-.5-.2-.5-.5v-1.5c0-.3.2-.5.5-.5h3.2c.3,0,.5.2.5.5v1.5c0,.3-.2.5-.5.5Z"/>
  <path class="cls-4" d="m560.2,438.4h-3.2c-.3,0-.5-.2-.5-.5v-1.5c0-.3.2-.5.5-.5h3.2c.3,0,.5.2.5.5v1.5c0,.3-.2.5-.5.5Z"/>
  <path class="cls-4" d="m551.9,438.4h-3.2c-.3,0-.5-.2-.5-.5v-1.5c0-.3.2-.5.5-.5h3.2c.3,0,.5.2.5.5v1.5c-.1.3-.3.5-.5.5Z"/>
  <path class="cls-4" d="m543.5,438.4h-3.2c-.3,0-.5-.2-.5-.5v-1.5c0-.3.2-.5.5-.5h3.2c.3,0,.5.2.5.5v1.5c0,.3-.3.5-.5.5Z"/>
  <path class="cls-4" d="m535.1,438.4h-3.2c-.3,0-.5-.2-.5-.5v-1.5c0-.3.2-.5.5-.5h3.2c.3,0,.5.2.5.5v1.5c0,.3-.2.5-.5.5Z"/>
  <path class="cls-4" d="m526.7,438.4h-3.2c-.3,0-.5-.2-.5-.5v-1.5c0-.3.2-.5.5-.5h3.2c.3,0,.5.2.5.5v1.5c0,.3-.2.5-.5.5Z"/>
  <path class="cls-4" d="m518.3,438.4h-3.2c-.3,0-.5-.2-.5-.5v-1.5c0-.3.2-.5.5-.5h3.2c.3,0,.5.2.5.5v1.5c0,.3-.2.5-.5.5Z"/>
  <path class="cls-4" d="m510,438.4h-3.2c-.3,0-.5-.2-.5-.5v-1.5c0-.3.2-.5.5-.5h3.2c.3,0,.5.2.5.5v1.5c0,.3-.3.5-.5.5Z"/>
  <path class="cls-4" d="m501.6,438.4h-3.2c-.3,0-.5-.2-.5-.5v-1.5c0-.3.2-.5.5-.5h3.2c.3,0,.5.2.5.5v1.5c0,.3-.2.5-.5.5Z"/>
  <path class="cls-4" d="m587,443.4h-32.5c-.3,0-.5-.2-.5-.5v-1.5c0-.3.2-.5.5-.5h32.5c.3,0,.5.2.5.5v1.5c0,.3-.2.5-.5.5Z"/>
  <path class="cls-3" d="m517.2,358.7h2.8c.9,0,1.6.7,1.6,1.6h0c0,.9-.7,1.6-1.6,1.6h-2.8c-.9,0-1.6-.7-1.6-1.6h0c0-.9.7-1.6,1.6-1.6Z"/>
  <path class="cls-3" d="m549.7,358.7h2.8c.9,0,1.6.7,1.6,1.6h0c0,.9-.7,1.6-1.6,1.6h-2.8c-.9,0-1.6-.7-1.6-1.6h0c.1-.9.8-1.6,1.6-1.6Z"/>
  <path class="cls-3" d="m558.9,358.7h2.8c.9,0,1.6.7,1.6,1.6h0c0,.9-.7,1.6-1.6,1.6h-2.8c-.9,0-1.6-.7-1.6-1.6h0c.1-.9.8-1.6,1.6-1.6Z"/>
  <path class="cls-3" d="m526,358.5h17.7c.9,0,1.6.7,1.6,1.6h0c0,.9-.7,1.6-1.6,1.6h-17.7c-.9,0-1.6-.7-1.6-1.6h0c.1-.9.8-1.6,1.6-1.6Z"/>
  <path class="cls-3" d="m569.4,358.5h17.7c.9,0,1.6.7,1.6,1.6h0c0,.9-.7,1.6-1.6,1.6h-17.7c-.9,0-1.6-.7-1.6-1.6h0c0-.9.7-1.6,1.6-1.6Z"/>
  <path class="cls-3" d="m525.9,365.8h2.8c.9,0,1.6.7,1.6,1.6h0c0,.9-.7,1.6-1.6,1.6h-2.8c-.9,0-1.6-.7-1.6-1.6h0c0-.9.7-1.6,1.6-1.6Z"/>
  <path class="cls-3" d="m558.4,365.8h2.8c.9,0,1.6.7,1.6,1.6h0c0,.9-.7,1.6-1.6,1.6h-2.8c-.9,0-1.6-.7-1.6-1.6h0c0-.9.7-1.6,1.6-1.6Z"/>
  <path class="cls-3" d="m567.6,365.8h2.8c.9,0,1.6.7,1.6,1.6h0c0,.9-.7,1.6-1.6,1.6h-2.8c-.9,0-1.6-.7-1.6-1.6h0c0-.9.7-1.6,1.6-1.6Z"/>
  <path class="cls-3" d="m534.7,365.5h17.7c.9,0,1.6.7,1.6,1.6h0c0,.9-.7,1.6-1.6,1.6h-17.7c-.9,0-1.6-.7-1.6-1.6h0c.1-.9.7-1.6,1.6-1.6Z"/>
  <path class="cls-3" d="m578.1,365.5h17.7c.9,0,1.6.7,1.6,1.6h0c0,.9-.7,1.6-1.6,1.6h-17.7c-.9,0-1.6-.7-1.6-1.6h0c0-.9.7-1.6,1.6-1.6Z"/>
  <path class="cls-3" d="m534.5,372.8h2.8c.9,0,1.6.7,1.6,1.6h0c0,.9-.7,1.6-1.6,1.6h-2.8c-.9,0-1.6-.7-1.6-1.6h0c.1-.9.8-1.6,1.6-1.6Z"/>
  <path class="cls-3" d="m567.1,372.8h2.8c.9,0,1.6.7,1.6,1.6h0c0,.9-.7,1.6-1.6,1.6h-2.8c-.9,0-1.6-.7-1.6-1.6h0c0-.9.7-1.6,1.6-1.6Z"/>
  <path class="cls-3" d="m576.3,372.8h2.8c.9,0,1.6.7,1.6,1.6h0c0,.9-.7,1.6-1.6,1.6h-2.8c-.9,0-1.6-.7-1.6-1.6h0c0-.9.7-1.6,1.6-1.6Z"/>
  <path class="cls-3" d="m543.4,372.6h17.7c.9,0,1.6.7,1.6,1.6h0c0,.9-.7,1.6-1.6,1.6h-17.7c-.9,0-1.6-.7-1.6-1.6h0c0-.9.7-1.6,1.6-1.6Z"/>
  <path class="cls-3" d="m586.7,372.6h17.7c.9,0,1.6.7,1.6,1.6h0c0,.9-.7,1.6-1.6,1.6h-17.7c-.9,0-1.6-.7-1.6-1.6h0c.1-.9.8-1.6,1.6-1.6Z"/>
  <path class="cls-3" d="m543.2,379.9h2.8c.9,0,1.6.7,1.6,1.6h0c0,.9-.7,1.6-1.6,1.6h-2.8c-.9,0-1.6-.7-1.6-1.6h0c0-.9.7-1.6,1.6-1.6Z"/>
  <path class="cls-3" d="m575.7,379.9h2.8c.9,0,1.6.7,1.6,1.6h0c0,.9-.7,1.6-1.6,1.6h-2.8c-.9,0-1.6-.7-1.6-1.6h0c.1-.9.8-1.6,1.6-1.6Z"/>
  <path class="cls-3" d="m584.9,379.9h2.8c.9,0,1.6.7,1.6,1.6h0c0,.9-.7,1.6-1.6,1.6h-2.8c-.9,0-1.6-.7-1.6-1.6h0c.1-.9.8-1.6,1.6-1.6Z"/>
  <path class="cls-3" d="m552.1,379.6h17.7c.9,0,1.6.7,1.6,1.6h0c0,.9-.7,1.6-1.6,1.6h-17.7c-.9,0-1.6-.7-1.6-1.6h0c0-.9.7-1.6,1.6-1.6Z"/>
  <path class="cls-3" d="m549.7,407.9h2.8c.9,0,1.6.7,1.6,1.6h0c0,.9-.7,1.6-1.6,1.6h-2.8c-.9,0-1.6-.7-1.6-1.6h0c.1-.9.8-1.6,1.6-1.6Z"/>
  <path class="cls-3" d="m558.9,407.9h2.8c.9,0,1.6.7,1.6,1.6h0c0,.9-.7,1.6-1.6,1.6h-2.8c-.9,0-1.6-.7-1.6-1.6h0c.1-.9.8-1.6,1.6-1.6Z"/>
  <path class="cls-3" d="m569.4,408.2h17.7c.9,0,1.6.7,1.6,1.6h0c0,.9-.7,1.6-1.6,1.6h-17.7c-.9,0-1.6-.7-1.6-1.6h0c0-.9.7-1.6,1.6-1.6Z"/>
  <path class="cls-3" d="m517.2,407.9h2.8c.9,0,1.6.7,1.6,1.6h0c0,.9-.7,1.6-1.6,1.6h-2.8c-.9,0-1.6-.7-1.6-1.6h0c0-.9.7-1.6,1.6-1.6Z"/>
  <path class="cls-3" d="m526,408.2h17.7c.9,0,1.6.7,1.6,1.6h0c0,.9-.7,1.6-1.6,1.6h-17.7c-.9,0-1.6-.7-1.6-1.6h0c.1-.9.8-1.6,1.6-1.6Z"/>
  <path class="cls-3" d="m525.9,400.9h2.8c.9,0,1.6.7,1.6,1.6h0c0,.9-.7,1.6-1.6,1.6h-2.8c-.9,0-1.6-.7-1.6-1.6h0c0-1,.7-1.6,1.6-1.6Z"/>
  <path class="cls-3" d="m558.4,400.9h2.8c.9,0,1.6.7,1.6,1.6h0c0,.9-.7,1.6-1.6,1.6h-2.8c-.9,0-1.6-.7-1.6-1.6h0c0-1,.7-1.6,1.6-1.6Z"/>
  <path class="cls-3" d="m567.6,400.9h2.8c.9,0,1.6.7,1.6,1.6h0c0,.9-.7,1.6-1.6,1.6h-2.8c-.9,0-1.6-.7-1.6-1.6h0c0-1,.7-1.6,1.6-1.6Z"/>
  <path class="cls-3" d="m534.7,401.1h17.7c.9,0,1.6.7,1.6,1.6h0c0,.9-.7,1.6-1.6,1.6h-17.7c-.9,0-1.6-.7-1.6-1.6h0c.1-.9.7-1.6,1.6-1.6Z"/>
  <path class="cls-3" d="m534.5,393.8h2.8c.9,0,1.6.7,1.6,1.6h0c0,.9-.7,1.6-1.6,1.6h-2.8c-.9,0-1.6-.7-1.6-1.6h0c.1-.9.8-1.6,1.6-1.6Z"/>
  <path class="cls-3" d="m567.1,393.8h2.8c.9,0,1.6.7,1.6,1.6h0c0,.9-.7,1.6-1.6,1.6h-2.8c-.9,0-1.6-.7-1.6-1.6h0c0-.9.7-1.6,1.6-1.6Z"/>
  <path class="cls-3" d="m576.3,393.8h2.8c.9,0,1.6.7,1.6,1.6h0c0,.9-.7,1.6-1.6,1.6h-2.8c-.9,0-1.6-.7-1.6-1.6h0c0-.9.7-1.6,1.6-1.6Z"/>
  <path class="cls-3" d="m543.4,394.1h17.7c.9,0,1.6.7,1.6,1.6h0c0,.9-.7,1.6-1.6,1.6h-17.7c-.9,0-1.6-.7-1.6-1.6h0c0-.9.7-1.6,1.6-1.6Z"/>
  <path class="cls-3" d="m543.2,386.8h2.8c.9,0,1.6.7,1.6,1.6h0c0,.9-.7,1.6-1.6,1.6h-2.8c-.9,0-1.6-.7-1.6-1.6h0c0-.9.7-1.6,1.6-1.6Z"/>
  <path class="cls-3" d="m575.7,386.8h2.8c.9,0,1.6.7,1.6,1.6h0c0,.9-.7,1.6-1.6,1.6h-2.8c-.9,0-1.6-.7-1.6-1.6h0c.1-.9.8-1.6,1.6-1.6Z"/>
  <path class="cls-3" d="m584.9,386.8h2.8c.9,0,1.6.7,1.6,1.6h0c0,.9-.7,1.6-1.6,1.6h-2.8c-.9,0-1.6-.7-1.6-1.6h0c.1-.9.8-1.6,1.6-1.6Z"/>
  <path class="cls-3" d="m552.1,387h17.7c.9,0,1.6.7,1.6,1.6h0c0,.9-.7,1.6-1.6,1.6h-17.7c-.9,0-1.6-.7-1.6-1.6h0c0-.9.7-1.6,1.6-1.6Z"/>
  <path class="cls-6" d="m504.9,490.5l-13.3-21.1,41.9-33.4,17.3-19.2c7.1-7.9,19.2-8.5,27.1-1.4,2.5,2.2,4.3,5.1,5.4,8.2h0c3.2,9.8-1.9,20.4-11.6,24l-27.3,10.1-39.5,32.8Z"/>
  <path class="cls-9" d="m191.7,337.5v102.5h71.9v-102.5c0-1.5-1-2.9-2.4-3.3-.3-.1-.7-.2-1-.2h-64.9c-2.1,0-3.6,1.6-3.6,3.5h0Zm28,35.2c0-4.2,3.5-7.6,7.7-7.6s7.6,3.4,7.6,7.6v11.9c0,4.2-3.5,7.7-7.7,7.6-4.2,0-7.6-3.4-7.6-7.6v-11.9Z"/>
  <path class="cls-4" d="m191.5,436.8v9.9c0,1.1.9,1.9,1.9,1.9h68.4c1.1,0,1.9-.9,1.9-1.9v-9.9h-72.2Z"/>
  <path class="cls-4" d="m78.7,183v187.3c0,5,4,9,9,9h277.5c5,0,9-4,9-9v-187.3c0-5-4-9-9-9H87.7c-5,0-9,4-9,9Z"/>
  <g id="Layer_2" data-name="Layer 2">
    <path class="cls-3" d="m85.2,185.3v182.6c0,2.7,2.2,4.8,4.8,4.8h272.9c2.7,0,4.8-2.2,4.8-4.8v-182.6c0-2.7-2.2-4.8-4.8-4.8H90c-2.7,0-4.8,2.1-4.8,4.8Z"/>
    <g>
      <path class="cls-7" d="m207.54,266.66h0s-1.64,5.81-1.64,5.81l1.64-5.81h0Zm8.43,12.6h-1.81s1.81,0,1.81,0Zm-.46,8.68h0l-10.82.04,10.82-.04h0Zm2.27-8.66h-1.81s1.81,0,1.81,0Zm-1.32,7.92l1.89-7.19-1.89,7.2h0Zm39.84-33.1l-3.5,16.51,3.5-16.51Zm-9.02,0l-2.66,12.33,2.66-12.33Z"/>
      <path class="cls-7" d="m255.69,253.36h-7.51c-.44.02-.81.32-.92.74l-5.33,24.66c-.09.41-.5.74-.92.74h-5.31c-5.26,0-4.65-3.64-3.57-8.62l.03-.15.64-3.4.27-1.4,2.42-11.84c.08-.32-.12-.65-.44-.73-.05-.01-.11-.02-.17-.02h-7.71c-.44.02-.81.32-.91.74l-3.47,16.46c-1.9,8.71-1.4,17.02,8.97,17.28h.3s16.28,0,16.28,0c.42,0,.83-.33.92-.74l7.02-33c.08-.31-.1-.64-.42-.72-.06-.02-.12-.02-.18-.02h0Zm29.95,26.23c.42,0,.7.33.61.74l-.73,3.56m-.73,3.57l.73-3.56-.73,3.57h0Zm-.91.75l-13.84.07,13.84-.07h0Z"/>
      <path class="cls-7" d="m265.56,275c0-.4.44-1.06.85-1.06h-.94c-.42,4.24.08,1.06.08,1.06h0Zm5.16,13.28h-.14s.14,0,.14,0Zm14.92-8.69c.42,0,.7.33.61.74l-.85,4.14m-11.12,3.79h-.03.03Zm-1.84.02h-.11.11Zm-.56,0h-.18s.18,0,.18,0Zm-.57,0h-.15.15Zm1.03,0h-.46.46Zm1.92-.02h-1.8s1.8,0,1.8,0Zm9.63-.06l-9.6.06,9.6-.06Zm.91-.75l.6-2.99-.6,2.99h0Zm-13.09.81h-.4.4Zm-1.12,0h-.54.54Zm.57,0h-.42.42Zm-109.83-13.19l1.17-5.17-1.33,5.9-1.28,6.02,1.12-5.28.33-1.48h0Zm13.96-21.82h-8.25c-.44.02-.81.32-.93.74l-1.56,6.9c-.09.31.09.63.4.72.06.02.13.03.19.02h8.3c.44-.02.81-.32.92-.74l1.5-6.9c.1-.41-.18-.74-.6-.74h.02Zm-1.79,11.48l-2.42,11.19,2.42-11.19Zm-23.95,37.07l6.8.05c-2.27,0-4.53-.03-6.8-.06h0Z"/>
      <path class="cls-7" d="m163.65,264.75l-1.17,5.17,1.17-5.17Zm9.24-.74h-8.3c-.44.02-.81.32-.93.74l-2.33,10.34-.33,1.48-2.23,10.55c-.11.49-.24.98-.4,1.46,0,0-1.55,4.62-4.16,4.57l-2.59-.05c-.44,0-.81.3-.93.72l-1.74,7.25c-.1.4.17.74.58.75l6.8.06c6.52,0,9.96-3.61,12.16-14.01l5-23.12c.09-.41-.18-.74-.6-.74h0Zm118.05,23.84c-.42,0-.69-.33-.6-.74l6.25-29.28m3.04,29.28l2.53-12.5-2.53,12.5Z"/>
      <path class="cls-7" d="m290.43,287.49c-.05-.2-.02-.7.07-1.11l2.97-13.9-3.13,14.64c-.09.41.18.74.6.74h.76c-.42,0-1.22-.17-1.27-.37h0Zm8.7.2c-.23.09-.75.17-1.17.17h.76c.44-.02.81-.32.91-.74l.15-.74c-.08.41-.42,1.23-.65,1.32h0Zm1.76-6.82l1.12-5.52-1.12,5.52Zm24.67-21.07l.34,1.42c.1.41-.17.74-.58.74m-25.54,24.41l1.11-5.51-1.11,5.51Zm25.44-28.03l.34,1.46-.34-1.46Zm-23.2,17.01l.31-1.47,1.19-5.58-1.35,6.33-.15.73h0Zm-5.32-18l-3.23,15.12,3.13-14.64.1-.48h0Z"/>
      <path class="cls-7" d="m325.9,261.22l-.34-1.42-.51-2.19c-.68-2.62-2.66-4.14-6.96-4.14h-19.81c-.44,0-.81.3-.91.73l-.77,3.64-6.09,28.54c-.09.41-.12.91-.07,1.11s.85.37,1.27.37h6.26c.42,0,.95-.08,1.17-.17s.56-.9.65-1.32l2.38-11.76,2.54-11.91c.11-.42.48-.72.91-.74h19.7c.42-.01.68-.34.58-.75h0Zm25.37-12.86h-1.52s-6.31,0-6.31,0c-.42,0-.95.28-1.19.63l-13.95,20.43c-.24.34-.5.29-.6-.11l-1.03-4.5c-.11-.42-.49-.72-.93-.74h-8.96c-.3-.02-.56.2-.58.49,0,.08,0,.16.03.23l4.02,14.07c.12.48.12.98.02,1.46l-1.75,6.8c-.1.4.15.74.57.74h8.86c.44-.02.82-.31.95-.74l1.75-6.8c.14-.48.36-.93.65-1.34l22.64-30.05c.25-.33.12-.6-.3-.6h-2.38s0,.02,0,.02Zm-71.23,17.63c-.05.44-.47.78-.89.78h-11.37c-.39,0-.59-.27-.54-.6,0-.01,0-.02,0-.03,0-.01,0-.02,0-.03l.05-.19c1.09-2.89,3.3-4.78,7.45-4.78,4.68,0,5.59,2.29,5.27,4.86h0Zm-3.34-13.12c-14.6,0-18.05,8.86-19.99,17.79-1.94,9.1-1.77,17.63,13.32,17.63h.68s.97,0,.97,0h2.58s9.61-.07,9.61-.07c.41,0,.82-.34.9-.74l1.46-7.13c.08-.41-.2-.74-.61-.74h-13.57c-5.4,0-7-1.44-6.4-5.65h21.7c.35-.01.67-.23.8-.56.03-.06.04-.13.05-.2,3.22-12.15,2.3-20.33-11.51-20.33h-.01Zm-68.96,13.07l-.21.73s-1.64,5.81-1.64,5.81l-1.64,5.81c-.11.4-.55.73-.96.73h-8.67c-6.58,0-8.18-5.14-6.58-12.73,1.6-7.76,4.74-12.59,11.21-13.07,8.85-.67,10.62,5.55,8.48,12.74h0Zm5.95,12.62s4.09-9.93,5.02-15.66c1.27-7.69-2.58-18.82-17.42-18.82s-21.17,10.63-23.61,22.18c-2.44,11.64.76,21.84,15.43,21.76l22.4-.08c.44-.02.82-.32.95-.74l1.89-7.2c.1-.29-.06-.61-.35-.71-.07-.02-.14-.03-.21-.03l-3.61-.02c-.36,0-.56-.23-.51-.54,0-.06.02-.12.04-.17v.02Z"/>
      <path class="cls-7" d="m286.76,271.91c0,.27-.22.5-.5.5-.27,0-.5-.22-.5-.5,0-.27.22-.5.5-.5s.5.22.5.5Z"/>
    </g>
    <path class="cls-5" d="m100.99,259c-4.07,5.86-3.57,13.48-.45,19.7.07.15.15.3.23.44l.15.28.1.16.16.3.3.5.17.28.35.54.15.23c.16.24.33.48.5.72,0,0,.01.01.01.02.03.04.06.08.08.11.15.2.3.41.45.6l.17.22.42.52.16.19c.19.23.39.45.59.67.02.02.03.03.03.04.2.21.39.42.6.63l.2.19.48.47.2.19c.21.2.43.4.65.59l.12.1.59.5.24.2.49.39.26.2.55.4.2.14s.04.03.06.04c.18.12.36.24.54.36l.23.15c.28.18.56.35.84.52l.23.13.63.35c.11.06.23.12.35.18l.45.24.1.05.19.1.72.33.15.07c.28.12.56.24.84.35l.2.08.8.29.1.03c.29.1.59.2.88.29l.21.06c.3.1.6.2.91.26,19.7,3.59,25.43-11.84,25.43-11.84-4.81,6.26-13.34,7.92-21.43,6.08-.31-.07-.6-.17-.9-.25l-.23-.07c-.29-.1-.58-.18-.87-.28l-.12-.04c-.26-.09-.51-.19-.77-.28l-.22-.08c-.28-.1-.55-.22-.83-.34l-.17-.07-.7-.33-.2-.1-.54-.28-.36-.2c-.22-.12-.43-.24-.65-.36l-.22-.12c-.28-.17-.56-.34-.84-.52l-.23-.15-.6-.4c-.07-.04-.13-.09-.19-.14l-.57-.4-.75-.6-.23-.18-.64-.54s-.05-.04-.07-.06l-.87-.78-.48-.47-.2-.2-.6-.62-.03-.03c-.2-.22-.4-.45-.6-.68l-.16-.19-.43-.53-.16-.2-.5-.66c-4.5-6.12-6.1-14.57-2.51-21.51m9.48-.91c-2.95,4.24-2.79,9.92-.49,14.4.39.75.82,1.48,1.3,2.18.44.63.93,1.39,1.52,1.89.21.23.43.46.66.69l.17.17c.22.21.45.42.68.63.01,0,.02.02.03.02.26.23.53.45.8.66l.18.14c.27.21.54.41.83.6l.02.02c.12.09.25.17.38.25l.18.12c.2.13.41.25.61.38.03.02.06.03.09.05l.54.3c.06.04.13.07.19.1l.38.2s.04.02.06.03c.26.13.52.25.79.37.06.03.12.05.17.07l.65.26.28.1c.2.07.4.14.59.21l.27.09c.28.09.56.2.86.25,15.22,2.52,18.73-9.19,18.73-9.19-3.17,4.56-9.3,6.74-15.84,5.04-.29-.08-.58-.16-.86-.25-.09-.03-.17-.06-.26-.08-.2-.07-.4-.14-.6-.21l-.27-.1-.65-.26-.17-.07c-.27-.12-.53-.24-.79-.37l-.4-.2-.23-.12c-.17-.09-.34-.19-.5-.28l-.12-.07c-.21-.12-.41-.24-.61-.37-.06-.04-.12-.08-.18-.12l-.4-.26c-.28-.19-.55-.39-.82-.6l-.18-.15c-2.86-2.26-5.14-5.35-6.22-8.86-1.13-3.64-.89-7.72,1.07-11.03m8.21-.28c-1.74,2.56-1.91,5.73-.7,8.56,1.27,3,3.88,5.35,6.92,6.46l.38.13.17.05.54.16c8.4,1.62,10.68-4.31,11.29-5.18-2,2.87-5.35,3.56-9.47,2.57-.34-.09-.67-.19-1-.31-.4-.14-.8-.31-1.18-.5-.73-.35-1.43-.78-2.07-1.26-3.68-2.8-5.97-8.13-3.57-12.47m93.33,51.59l-2.42,5.52h-2.67l.22-5.01-1.97,5.01h-2.6l-.07-5.52.29-1.36h1.83l-.35,5.45,2.04-5.45h2.56l-.18,5.52,2.02-5.52h1.6l-.29,1.36h.01Zm4.22,1.64c.24-1.08.17-1.28-.39-1.28h-.84l-.54,2.52-.82,2.64h-1.56l1.46-6.86h1.43l.18.4s.82-.49,1.63-.49c1.72,0,1.58,1.29,1.2,3.06h-1.76.01Zm5.08-3.85c-.7,0-1.13-.2-.96-1.04.18-.84.72-1.04,1.4-1.04s1.13.2.94,1.04c-.17.82-.71,1.04-1.38,1.04h0Zm-.74,7.74h-1.55l.3-2.7.54-2.5-1.08-.24.3-1.46h2.94l-1.46,6.88v.02Zm6.7-5.42l-1.93.24-.56,2.62c-.15.72-.15.92.49.92h1.29l-.27,1.38s-1.18.35-1.68.35c-1.98,0-1.97-1.09-1.61-2.72l.54-2.57-1.08-.24.32-1.46h1.13l.64-1.73h1.53l-.37,1.73h1.88l-.32,1.48h0Zm4.02.09c-.91,0-1.38.47-1.56,1.31l2.6-.22c.12-.57,0-1.09-1.03-1.09h-.01Zm-1.82,2.56c-.12.84.2,1.13,1.28,1.13h2.71l-.27,1.28s-1.63.45-2.84.45c-3,0-3.04-1.7-2.66-3.51.39-1.78,1.08-3.55,3.99-3.55s2.94,1.7,2.25,4.2h-4.46,0Zm10.64,2.76h-1.55l.3-2.7,1.09-5.11-1.08-.25.32-1.46h2.94l-2.04,9.52h0Zm5.59-5.32c-.9,0-1.38.47-1.57,1.31l2.6-.22c.12-.57,0-1.09-1.02-1.09h-.01Zm-1.82,2.56c-.12.84.2,1.13,1.28,1.13h2.71l-.27,1.28s-1.63.45-2.84.45c-3,0-3.04-1.7-2.66-3.51.39-1.78,1.08-3.55,3.99-3.55s2.94,1.7,2.25,4.2h-4.46,0Zm11.55-2.47l-2.51.02c-1.14,0-1.26.35-1.35.72l-.07.34,3.63.27s.02,1.16-.13,1.82c-.22,1.09-1.35,2.2-3.38,2.2-1,0-2.64-.39-2.64-.39l.29-1.33h2.51c1.1,0,1.26-.3,1.33-.6l.08-.44-3.57-.27s-.13-.89.05-1.78c.27-1.21,1.38-2.25,3.41-2.25,1,0,2.64.37,2.64.37l-.3,1.33h0Zm6.76,0l-2.51.02c-1.14,0-1.26.35-1.35.72l-.07.34,3.63.27s.02,1.16-.13,1.82c-.22,1.09-1.35,2.2-3.38,2.2-1,0-2.64-.39-2.64-.39l.29-1.33h2.51c1.1,0,1.26-.3,1.33-.6l.08-.44-3.57-.27s-.13-.89.05-1.78c.27-1.21,1.38-2.25,3.41-2.25,1,0,2.64.37,2.64.37l-.3,1.33h0Zm2.12,6.34h-1.34l.05-1c-.49-.03-.74-.39-.62-.97.18-.84.71-1.04,1.4-1.04s1.13.2.94,1.04l-.42,1.99h0Zm9-6.27c-1,0-1.36.6-1.6,1.72s-.17,1.76.84,1.76h1.4l.77-3.48h-1.41Zm2.3,4.29l-.19.89-1.41-.02-.2-.44s-1.24.54-2.09.54c-2.15,0-2.25-1.76-1.87-3.55.39-1.82,1.23-3.53,3.36-3.53.77,0,1.82.39,1.82.39l.86-2.9h1.55l-1.83,8.63h0Zm5.56-4.36c-1.3,0-1.73.74-1.97,1.82-.22,1.09-.12,1.83,1.18,1.83s1.75-.72,1.98-1.83c.24-1.04.17-1.82-1.19-1.82h0Zm-1.14,5.35c-2.77,0-2.99-1.73-2.62-3.53.39-1.8,1.36-3.51,4.14-3.51s3,1.72,2.62,3.51c-.39,1.83-1.36,3.53-4.14,3.53h0Zm15.74-.1l.3-2.66.15-.76c.22-1,.35-1.75-.71-1.75h-.82c.03.52-.07,1.1-.2,1.73l-.72,3.43h-1.56l.3-2.66.15-.76c.22-1,.35-1.75-.71-1.75h-.67l-1.1,5.16h-1.8l1.46-6.88h1.41l.22.42s.96-.51,1.73-.51c.59,0,1.03.27,1.18.6.34-.19,1.29-.6,1.99-.6,2.15,0,2.09,1.75,1.7,3.53l-.72,3.43h-1.57Zm7.16-5.25c-1.31,0-1.73.74-1.97,1.82-.22,1.09-.12,1.83,1.18,1.83s1.75-.72,1.99-1.83c.24-1.04.17-1.82-1.19-1.82Zm-1.14,5.35c-2.78,0-2.99-1.73-2.62-3.53.39-1.8,1.36-3.51,4.14-3.51s3,1.72,2.62,3.51c-.39,1.83-1.36,3.53-4.14,3.53h0Zm8.8-3.98c.24-1.08.17-1.28-.39-1.28h-.84l-.54,2.52-.82,2.64h-1.56l1.46-6.86h1.43l.18.4s.82-.49,1.63-.49c1.71,0,1.58,1.29,1.2,3.06h-1.76,0Zm6.02-1.45c-.91,0-1.38.47-1.56,1.31l2.59-.22c.12-.57,0-1.09-1.02-1.09h0Zm-1.82,2.56c-.12.84.2,1.13,1.28,1.13h2.71l-.27,1.28s-1.63.45-2.84.45c-3,0-3.04-1.7-2.66-3.51.39-1.78,1.08-3.55,3.99-3.55s2.94,1.7,2.25,4.2h-4.46,0Zm5.97,2.88c-.71,0-1.14-.2-.96-1.03.17-.84.7-1.04,1.4-1.04.65,0,1.1.2.94,1.04-.19.81-.72,1.03-1.38,1.03Z"/>
  </g>
  <path class="cls-9" d="m135.8,447.9c.6.7,1.4,1.1,2.3,1.1h162.3c1.6,0,3-1.3,3-3,0-.2,0-.4-.1-.6l-2.5-12c-.2-1-.9-1.8-1.9-2.2-.3-.1-.7-.2-1.1-.2h-157.2c-.4,0-.7.1-1.1.2-.9.4-1.6,1.2-1.9,2.2l-2.5,12c-.1.9.1,1.8.7,2.5Z"/>
  <path class="cls-9" d="m693.6,441.1c.9,2.6,3.4,4.4,6.2,4.3l26.5-.7c2.8-.1,5.2-2,6-4.7l3.7-40c1.3.6,2.8.9,4.2.9,5.3-.1,9.5-4.6,9.4-9.9s-4.6-9.5-9.9-9.4c-.6,0-1.2.1-1.7.2-1.3-1.4-3-2.1-4.9-2.1l-40.8,1.1c-.3,0-.7.1-1,.1-3.5.6-5.7,4-5.1,7.4.1.3.1.6.2.8l7.2,52Zm43.2-43.8l2.7-9.6c.3-1.1.3-2.3,0-3.4.1,0,.2-.1.4-.1,3.8-.1,7,3,7.1,6.8s-2.9,7-6.7,7.1c-1.3,0-2.5-.2-3.5-.8Z"/>
  <path class="cls-4" d="m691.4,380.8c.9,5,10.6,8.5,22.4,7.8,10.8-.5,19.6-4.3,21.2-8.8-.6-.2-1.2-.3-1.8-.2l-40.8,1.1c-.3,0-.7,0-1,.1Z"/>
  <path class="cls-2" d="m715.9,419.1q.1,0,.2-.1l5.8-3.8c.2-.2.3-.5.1-.7,0-.1-.1-.1-.1-.1l-6-3.9c-.2-.2-.5-.1-.7.1s-.1.5.1.7l5.3,3.5-5.1,3.3c-.2.2-.3.5-.1.7.1.2.3.3.5.3h0Z"/>
  <path class="cls-2" d="m706.8,419.5c.3-.1.4-.3.4-.6,0-.1-.1-.2-.2-.3l-5.3-3,5.1-3.8c.2-.2.3-.5.1-.7s-.5-.3-.7-.1l-5.7,4.3c-.2.2-.3.5-.1.7,0,.1.1.1.2.1l6,3.4h.2Z"/>
  <path class="cls-2" d="m715.3,422.4s.1,0,.1-.1c.2-.1.3-.5.2-.7h0l-8.2-13.4c-.1-.2-.5-.3-.7-.2s-.3.5-.2.7l8.2,13.4c.2.2.4.3.6.3Z"/>
  <path class="cls-4" d="m290.7,376.8l.2.7h0l6.5,19.8,7.5,22.9,14.1,43,.1,6.7h0l1,53.7-2.9,7.3,3.3,11.9s-1.5-18-9.6-7.7c-4.6,5.9-9.9,11.9-14.3,17.6,6.4,2.6,12.9,4.9,19.5,7,1.4.5,2.9.9,4.3,1.3.3.1.6.2.9.3,21.9,6.5,44.5,10.1,67.4,10.8,1.2,0,2.3.1,3.5.1h5c2.6,0,5.1,0,7.7-.1,18.9-.5,37.7-3.1,56.1-7.6-.1-7.6-.5-16.4-1-25.9-.2-4.6-5.4-9.7-5.7-14.5-.2-3.7,4.4-7.1,4.1-10.8-1.6-22.8-3.5-14.1-4.9-30.2-.1-1.6-.3-3.1-.4-4.6-.9-10.4-1.6-16.9-1.6-16.9l6.1-38.7,9.6-60.7-.7-1.2-.8-.4-50.8-25.2-2.8-7.1c-1.6-4.2-5.7-6.9-10.1-6.9l-33.5-.1c-3.5,0-6.8,1.7-8.9,4.5l-9.1,12.6-59.8,38.4Z"/>
  <path class="cls-4" d="m326.8,453.7l-7.6,16.2-5.2,11.1-8.9,46.6-4.5,4.7-3.8-16.8-40,8.9c-1.3-7.3-.4.2-1.2-7.8.2-.2.5-.5.7-.7.6-.6,1.2-1.2,1.2-1.7-.5-27.6.9-74.5,12.3-103,1.8-4.6,4.2-9,7-13.1.2-.3.4-.6.7-.9,5.3-7.4,8.6-14.6,13.3-19.8h0l.1-.1h0l32.4-17.2,1.4,39.1,1,28.1,1.1,26.4Z"/>
  <path class="cls-4" d="m443.8,458.3l9.5,20.3,3.3,7.1,8.9,46.6,4.4,4.7,3.8-16.8,1.8-.4,32.5-6.7,9.5,30c4.4-7.3,3-16.7-3.3-22.5-.6-.6-1.2-1.2-1.2-1.7.5-32.4-1.4-91.7-19.4-116.1-5.7-7.7-9.1-15.4-14.1-20.8h0l-12.1-19.8-.7-1.2-.8-.4-22.1,97.7Z"/>
  <circle id="a657ec4b-47ce-4d2a-9c58-81a811696ca9" class="cls-6" cx="386.4" cy="267.2" r="44.6"/>
  <path class="cls-9" d="m446.6,236.1c-.7-.7-1.7-1.2-2.7-1.2l.7-1.9c.7-1.8-.2-3.9-2.1-4.5-.6-.2-1.3-.3-1.9-.2l-2.4.5.2-1.6c.3-1.9-1.1-3.7-3-4-.6-.1-1.2,0-1.7.2-1.1.4-2.3.3-3.2-.2-1-.5-1.7-1.5-1.9-2.6l-.8-4.1-.1-.2c-4.1-6.9-12.1-11.9-21.8-13.8-8.7-1.6-17.6-.8-26.1,0-3.4.3-7.2.7-10.4,2.6-2.7,1.7-5,5-4.5,8.4-8.5-2.6-17.5,2.6-22,9.1-5.3,7.8-6.2,17.5-6.3,25.1-.4,18,3.3,32.7,11,43.7.6.8.7,2.5,1.8,3l-.2-.4c1.2.6,2.5,1.6,2,2.7-1.3,3.1,7.6,9.9,13.9,12.1,11.5,4.1,26.9,3.8,37.6,2.3l.4-2.5c3.9-.5,6.6-1.5,7.4-3.1,1.4-1.2,2.5-2.2,3.5-3.2h0s.1,0,.1-.1c4.9-4.7,6-7.3,6.5-11.4.5-4-.4-8-1.3-11.6,18.7,2.9-7.4-20,10.1-24.4.2-.1.4-.1.6-.1.5-.1,1-.2,1.5-.4,2.4-.6,4.6-1.6,6.7-2.9,4.9-3,6.5-6.9,9-11.4.6-1.2.4-2.8-.6-3.9Z"/>
  <path class="cls-9" d="m544,461.4c0,1.8,0,4.2-.1,7.2v1.3c-.1,5.6-.3,10.2-.5,15.4v1.1c-.3,7.2-.7,15.7-1.5,29-1.4,24.7-3.9,3.4-6.3,12-.1.4-.2.9-.4,1.5-.4,2.2-1,4.3-1.9,6.3-1.3.8-2.7,1.5-4,2.3-3.8,2.1-7.6,4.1-11.5,6.1-2.2,1.1-4.4,2.1-6.6,3.2-.3.2-.7.3-1,.5-11.3,5.2-22.9,9.6-34.8,13.3-2.3.7-4.6,1.4-7,2-2.4.7-4.9,1.3-7.3,1.9-18.4,4.5-37.2,7.1-56.1,7.6-2.5.1-5.1.1-7.7.1h-5c-1.1,0-2.3,0-3.5-.1-22.8-.7-45.5-4.4-67.3-10.8l-.9-.3c-1.4-.4-2.9-.9-4.3-1.3-6.6-2.1-13.1-4.4-19.5-7-4.9-2-9.7-4.1-14.5-6.3,0,0-.1,0-.1-.1-1-.5-2-.9-3-1.4-.1-.1-.3-.1-.4-.2-3.7-1.8-7.4-3.7-11.1-5.7-3.1-7.1-7.4-8.4-10.1-14.6-.8-1.8-1.3-3.8-1.7-5.7v-.1c.3,3.7-1.2-6.6,0,0v-.4c0-.4-.1-.8-.1-1.3-3.4-33.5-3.2-71.8-4.7-103.4-.1-2-.2-4-.3-5.9,0-.6-.1-1.2-.1-1.8.1-.2.1-.4.2-.5q0-.1.1-.2c0-.1.1-.1.1-.2,0,0,0-.1.1-.1v-.1c.1-.1.2-.3.3-.4,0-.1.1-.1.1-.2s.1-.1.1-.1l.1-.1.1-.1s0-.1.1-.1c.1-.1.2-.2.3-.2.4-.3.7-.6,1.1-.9.1-.1.3-.2.4-.3,1-.6,2.1-1.1,3.2-1.5.4-.1.8-.3,1.2-.4.1,0,.3-.1.4-.1.2-.1.4-.1.7-.2,1.1-.3,2.4-.6,3.7-.9.2,0,.3-.1.5-.1s.5-.1.7-.1c.3-.1.7-.1,1-.2,3-.5,6.3-.8,10.1-1,.4,0,.7,0,1-.1.4,0,.8,0,1.2-.1h2.2c1,0,2-.1,3.1-.1,3-.1,6.2,0,9.5,0,1.5,0,3.1.1,4.8.2h.3c1.4,0,2.8.1,4.3.2,1,0,2,.1,3.1.2,1,.1,1.9.1,2.9.2.8,0,1.5.1,2.3.2.7,0,1.3.1,2,.1l.9.1c.5,0,1,.1,1.5.1,1.1.1,2.2.2,3.3.3,1.1.1,2.2.2,3.4.3s2.3.2,3.4.3h.3c1,.1,2.1.2,3.1.3.2,0,.5,0,.7.1,1,.1,2,.2,3,.3.3,0,.6.1.9.1.8.1,1.6.2,2.4.3,1,.1,2.1.2,3.2.4.8.1,1.6.2,2.4.3,1.3.2,2.6.3,3.8.5.5.1,1,.1,1.5.2,3.7.5,7.4,1,11.2,1.5,5.7.8,11.5,1.7,17.4,2.6,5.9,1,11.8,2,17.7,3,1.5.3,3,.5,4.5.8.7.1,1.4.3,2,.4,1.2.2,2.3.4,3.5.7,1.2.2,2.3.4,3.5.7,1.4.3,2.8.5,4.2.8,9.1,1.8,18.1,3.7,27,5.7,1.5.3,2.9.7,4.3,1,2.9.7,5.7,1.3,8.6,2,.8.2,1.5.4,2.3.6,1.9.5,3.8,1,5.7,1.5l.3.1c1.4.3,2.8.7,4.1,1,3.2.8,6.4,1.7,9.5,2.5,2.1.6,4.1,1.1,6.1,1.7,3,.9,6,1.8,8.8,2.6.7.2,1.4.4,2.1.7,2.1.7,4.2,1.3,6.2,2,1.6.5,3.2,1,4.7,1.6,1.5.5,3,1.1,4.5,1.6,1,.3,1.9.7,2.8,1,1.3.5,2.7,1,4,1.5.4.2.8.3,1.2.5.2.1.5.2.7.3.5.2,1,.4,1.4.6.5.2.9.4,1.4.6s.9.4,1.3.6c.5.2.9.4,1.3.6.4.2.7.3,1.1.5.7.3,1.4.6,2.1.9.3.2.7.3,1,.5l.8.4c.1.1.2.1.3.2.2.1.5.2.8.4.6.3,1.2.6,1.7.8.8.4,1.5.8,2.2,1.1.7.4,1.4.8,2.1,1.1.1.1.2.1.3.2.2.1.3.2.5.2.5.3,1,.6,1.5.9,1,.6,1.9,1.2,2.7,1.8.2.1.4.3.6.4.6.5,1.2.9,1.8,1.3h0c.2.1.4.3.5.4.2.1.3.3.5.4.5.5,1,.9,1.4,1.3.1.1.3.3.4.4.1,0,.1.1.2.2.2.2.4.4.5.6,0,0,0,.1.1.1.2.3.5.6.7.8.1.1.2.3.3.4.1.2.2.3.3.5.1.1.2.3.2.4.2.4.4.7.5,1.1.1.3.2.5.3.8.4-.2.5.1.5.3Z"/>
  <path class="cls-1" d="m544,461.4c0,1.8,0,4.2-.1,7.2v1.3c-.1,4.2-.2,9.5-.5,15.4v1.1c-.3,7.2-.7,15.7-1.5,29-1.4,24.7-3.9,3.4-6.3,12-6.9-4.2-14.4-8.6-22.4-13.2-1.4-.8-2.9-1.6-4.4-2.5-16.1-9-34-18.4-52.8-27.7-.7-.4-1.5-.7-2.2-1.1-43-21.2-89.8-41.9-127.8-55.7-7.3-2.7-14.3-5.1-20.9-7.2-13.9-4.4-25.8-7.5-35.1-8.9-9.6-1.4-16.2-.9-18.9,2-.1-2-.2-4-.3-5.9,0-.6-.1-1.2-.1-1.8.1-.2.1-.3.2-.5v-.1q0-.1.1-.2c0-.1.1-.1.1-.2s.1-.1.1-.2c.1-.1.2-.3.3-.4s.2-.2.3-.3l.1-.1.1-.1s0-.1.1-.1c.1-.1.2-.2.3-.2.4-.3.7-.6,1.1-.9.1-.1.3-.2.4-.3,1-.6,2.1-1.1,3.2-1.5.4-.1.8-.3,1.2-.4.1,0,.3-.1.4-.1.2-.1.4-.1.7-.2,1.1-.3,2.4-.6,3.7-.9.4-.1.8-.2,1.2-.2.3-.1.7-.1,1-.2,3-.5,6.3-.8,10.1-1,.4,0,.7,0,1-.1.4,0,.8,0,1.2-.1h2.2c1,0,2-.1,3.1-.1h9.5c1.5,0,3.1.1,4.8.2h.3c1.4,0,2.8.1,4.3.2,1,0,2,.1,3.1.2,1,.1,1.9.1,2.9.2.8,0,1.5.1,2.3.2.7,0,1.3.1,2,.1.8.1,1.6.1,2.4.2,1.1.1,2.2.2,3.3.3,1.1.1,2.2.2,3.4.3s2.3.2,3.4.3h.3c1,.1,2.1.2,3.1.3,5.8.6,11.8,1.3,18,2.1,3.7.5,7.4,1,11.2,1.5,5.7.8,11.5,1.7,17.4,2.6,5.9,1,11.8,2,17.7,3,1.5.3,3,.5,4.5.8,1.8.3,3.7.7,5.5,1,1.2.2,2.3.4,3.5.7,1.4.3,2.8.5,4.2.8,9.1,1.8,18.1,3.7,27,5.7,1.5.3,2.9.7,4.3,1,2.9.7,5.7,1.3,8.6,2,.8.2,1.5.4,2.3.6,1.9.5,3.8,1,5.7,1.4h0c.1,0,.2,0,.3.1,1.4.3,2.8.7,4.1,1.1,3.2.8,6.4,1.7,9.5,2.5,2.1.6,4.1,1.2,6.1,1.7,3,.9,6,1.8,8.8,2.6.7.2,1.4.4,2.1.7,2.1.7,4.2,1.3,6.2,2,1.6.5,3.2,1,4.7,1.6,1.5.5,3,1.1,4.5,1.6,1,.3,1.9.7,2.8,1,1.4.5,2.7,1,4,1.5.4.2.8.3,1.2.5.7.3,1.4.6,2.1.9.5.2.9.4,1.4.6s.9.4,1.3.6c.5.2.9.4,1.3.6.4.2.7.3,1.1.5.7.3,1.4.6,2.1.9.3.2.7.3,1,.5l.8.4c.1.1.2.1.3.2.8.4,1.7.8,2.5,1.2.8.4,1.5.8,2.2,1.1.8.4,1.6.9,2.4,1.3.2.1.3.2.5.2.5.3,1,.6,1.5.9,1,.6,1.9,1.2,2.7,1.8.8.6,1.6,1.2,2.3,1.7h0c.3.3.7.6,1,.8.5.5,1,.9,1.4,1.3.1.1.3.3.4.4.1,0,.1.1.2.2.2.2.4.5.6.7.2.3.5.6.7.8.1.1.2.3.3.4.1.2.2.3.3.5.1.1.2.3.2.4.2.4.4.7.5,1.1.1.3.2.5.3.8.3.5.4.8.4,1Z"/>
</svg>