<?xml version="1.0" encoding="UTF-8"?>
<svg id="Layer_1" data-name="Layer 1" xmlns="http://www.w3.org/2000/svg" viewBox="0 0 786.8 572.2">
  <defs>
    <style>
      .cls-1 {
        fill: #83cd29;
      }

      .cls-1, .cls-2, .cls-3, .cls-4, .cls-5, .cls-6, .cls-7, .cls-8, .cls-9 {
        stroke-width: 0px;
      }

      .cls-2 {
        isolation: isolate;
        opacity: .2;
      }

      .cls-3 {
        fill: #404137;
      }

      .cls-4 {
        fill: #63a0ff;
      }

      .cls-5 {
        fill: #fff;
      }

      .cls-6 {
        fill: #3f3d56;
      }

      .cls-7 {
        fill: #ffb6b6;
      }

      .cls-8 {
        fill: #f2f2f2;
      }

      .cls-9 {
        fill: #2f2e41;
      }
    </style>
  </defs>
  <circle class="cls-8" cx="458.3" cy="74.2" r="26.7"/>
  <path class="cls-8" d="m665.4,497.2c39.7-30.2,58.6-81,46.8-129.5-.3-1.2-.6-2.4-.9-3.6-7.9-28.8-27.3-56.1-55.7-65.3-23.8-7.7-49.8-1.8-74.7-4.9-48.8-6-86.6-45.5-113.2-86.8s-47.1-87.6-82.4-121.7c-58.3-56.3-153.4-68.4-225.6-31.8-72.3,36.7-118.3,117.9-116.4,198.9,2,81,50,158.4,119.9,199.5,25.7,15.1,55.3,25.8,84.8,22,25.6-3.2,48.9-17,74.4-21.1,40.1-6.4,79.9,11.7,114.6,32.8,34.7,21.1,68.2,46.2,107.6,56,38.3,9.6,85.7-17.8,120.8-44.5Z"/>
  <path class="cls-6" d="m608.4,55.3c-.9-.6-1.8-1.1-2.6-1.7-25.1-16.1-52.1-29.2-80.3-38.9l-6.5,90.2h-41.5V1.5c-2.6-.5-5.2-1.1-7.9-1.5v104.9h-49.3c-56.5,0-102.3-45.8-102.3-102.3h0c-2.6.6-5.3,1.2-7.9,1.8v100.4h-40.1l-6.2-86c-29,11.1-56.5,25.7-81.9,43.5-.4.3-.9.6-1.3.9-2.2,1.6-4.4,3.1-6.6,4.7v344.2h118.3l-2.1-29-11.5-159h231.6l-11.5,159-2.1,29h117V58.8c-1.8-1.2-3.5-2.3-5.3-3.5Zm-298.2,142.8h-33.4l-6.2-85.3h39.6v85.3Zm159.4,0h-56.1v-1.7c0-3.4-2.8-6.2-6.2-6.2h-24.3c-3.4,0-6.2,2.8-6.2,6.2h0v1.7h-58.7v-85.3h151.5v85.3Zm7.9,0v-85.3h40.9l-6.2,85.3h-34.7Z"/>
  <path class="cls-6" d="m0,434.3c8.7,10.3,18.1,20,28.1,29l730.6,1c10-9,19.4-18.7,28.1-29L0,434.3Z"/>
  <path class="cls-6" d="m495.4,341.6v85.7c0,2.3,1.8,4.1,4.1,4.1h127c2.3,0,4.1-1.8,4.1-4.1v-85.7c0-2.3-1.8-4.1-4.1-4.1h-127c-2.2,0-4.1,1.8-4.1,4.1Z"/>
  <path class="cls-4" d="m498.4,342.7v83.6c0,1.2,1,2.2,2.2,2.2h124.9c1.2,0,2.2-1,2.2-2.2v-83.6c0-1.2-1-2.2-2.2-2.2h-124.9c-1.2,0-2.2.9-2.2,2.2Z"/>
  <path class="cls-9" d="m492.8,444c.5.6,1.2.9,1.9.9h136c1.4,0,2.5-1.1,2.5-2.5,0-.2,0-.3-.1-.5l-2.1-10c-.2-.8-.8-1.5-1.6-1.8-.3-.1-.6-.2-.9-.2h-131.7c-.3,0-.6.1-.9.2-.8.3-1.4,1-1.6,1.8l-2.1,10c-.1.8.1,1.5.6,2.1Z"/>
  <path class="cls-6" d="m627.1,434.2h-3.2c-.3,0-.5-.2-.5-.5v-1.5c0-.3.2-.5.5-.5h3.2c.3,0,.5.2.5.5v1.5c0,.3-.2.5-.5.5Z"/>
  <path class="cls-6" d="m618.8,434.2h-3.2c-.3,0-.5-.2-.5-.5v-1.5c0-.3.2-.5.5-.5h3.2c.3,0,.5.2.5.5v1.5c0,.3-.3.5-.5.5Z"/>
  <path class="cls-6" d="m610.4,434.2h-3.2c-.3,0-.5-.2-.5-.5v-1.5c0-.3.2-.5.5-.5h3.2c.3,0,.5.2.5.5v1.5c0,.3-.2.5-.5.5Z"/>
  <path class="cls-6" d="m602,434.2h-3.2c-.3,0-.5-.2-.5-.5v-1.5c0-.3.2-.5.5-.5h3.2c.3,0,.5.2.5.5v1.5c0,.3-.2.5-.5.5Z"/>
  <path class="cls-6" d="m593.6,434.2h-3.2c-.3,0-.5-.2-.5-.5v-1.5c0-.3.2-.5.5-.5h3.2c.3,0,.5.2.5.5v1.5c0,.3-.2.5-.5.5Z"/>
  <path class="cls-6" d="m585.3,434.2h-3.3c-.3,0-.5-.2-.5-.5v-1.5c0-.3.2-.5.5-.5h3.2c.3,0,.5.2.5.5v1.5c0,.3-.2.5-.4.5Z"/>
  <path class="cls-6" d="m576.9,434.2h-3.2c-.3,0-.5-.2-.5-.5v-1.5c0-.3.2-.5.5-.5h3.2c.3,0,.5.2.5.5v1.5c0,.3-.2.5-.5.5Z"/>
  <path class="cls-6" d="m568.5,434.2h-3.2c-.3,0-.5-.2-.5-.5v-1.5c0-.3.2-.5.5-.5h3.2c.3,0,.5.2.5.5v1.5c0,.3-.2.5-.5.5Z"/>
  <path class="cls-6" d="m560.1,434.2h-3.2c-.3,0-.5-.2-.5-.5v-1.5c0-.3.2-.5.5-.5h3.2c.3,0,.5.2.5.5v1.5c0,.3-.2.5-.5.5Z"/>
  <path class="cls-6" d="m551.8,434.2h-3.2c-.3,0-.5-.2-.5-.5v-1.5c0-.3.2-.5.5-.5h3.2c.3,0,.5.2.5.5v1.5c-.1.3-.3.5-.5.5Z"/>
  <path class="cls-6" d="m543.4,434.2h-3.2c-.3,0-.5-.2-.5-.5v-1.5c0-.3.2-.5.5-.5h3.2c.3,0,.5.2.5.5v1.5c0,.3-.3.5-.5.5Z"/>
  <path class="cls-6" d="m535,434.2h-3.2c-.3,0-.5-.2-.5-.5v-1.5c0-.3.2-.5.5-.5h3.2c.3,0,.5.2.5.5v1.5c0,.3-.2.5-.5.5Z"/>
  <path class="cls-6" d="m526.6,434.2h-3.2c-.3,0-.5-.2-.5-.5v-1.5c0-.3.2-.5.5-.5h3.2c.3,0,.5.2.5.5v1.5c0,.3-.2.5-.5.5Z"/>
  <path class="cls-6" d="m518.2,434.2h-3.2c-.3,0-.5-.2-.5-.5v-1.5c0-.3.2-.5.5-.5h3.2c.3,0,.5.2.5.5v1.5c0,.3-.2.5-.5.5Z"/>
  <path class="cls-6" d="m509.9,434.2h-3.2c-.3,0-.5-.2-.5-.5v-1.5c0-.3.2-.5.5-.5h3.2c.3,0,.5.2.5.5v1.5c0,.3-.3.5-.5.5Z"/>
  <path class="cls-6" d="m501.5,434.2h-3.2c-.3,0-.5-.2-.5-.5v-1.5c0-.3.2-.5.5-.5h3.2c.3,0,.5.2.5.5v1.5c0,.3-.2.5-.5.5Z"/>
  <path class="cls-6" d="m627.2,438.4h-3.2c-.3,0-.5-.2-.5-.5v-1.5c0-.3.2-.5.5-.5h3.2c.3,0,.5.2.5.5v1.5c0,.3-.2.5-.5.5Z"/>
  <path class="cls-6" d="m618.9,438.4h-3.2c-.3,0-.5-.2-.5-.5v-1.5c0-.3.2-.5.5-.5h3.2c.3,0,.5.2.5.5v1.5c0,.3-.3.5-.5.5Z"/>
  <path class="cls-6" d="m610.5,438.4h-3.2c-.3,0-.5-.2-.5-.5v-1.5c0-.3.2-.5.5-.5h3.2c.3,0,.5.2.5.5v1.5c0,.3-.2.5-.5.5Z"/>
  <path class="cls-6" d="m602.1,438.4h-3.2c-.3,0-.5-.2-.5-.5v-1.5c0-.3.2-.5.5-.5h3.2c.3,0,.5.2.5.5v1.5c0,.3-.2.5-.5.5Z"/>
  <path class="cls-6" d="m593.7,438.4h-3.2c-.3,0-.5-.2-.5-.5v-1.5c0-.3.2-.5.5-.5h3.2c.3,0,.5.2.5.5v1.5c0,.3-.2.5-.5.5Z"/>
  <path class="cls-6" d="m585.4,438.4h-3.2c-.3,0-.5-.2-.5-.5v-1.5c0-.3.2-.5.5-.5h3.2c.3,0,.5.2.5.5v1.5c-.1.3-.3.5-.5.5Z"/>
  <path class="cls-6" d="m577,438.4h-3.2c-.3,0-.5-.2-.5-.5v-1.5c0-.3.2-.5.5-.5h3.2c.3,0,.5.2.5.5v1.5c0,.3-.2.5-.5.5Z"/>
  <path class="cls-6" d="m568.6,438.4h-3.2c-.3,0-.5-.2-.5-.5v-1.5c0-.3.2-.5.5-.5h3.2c.3,0,.5.2.5.5v1.5c0,.3-.2.5-.5.5Z"/>
  <path class="cls-6" d="m560.2,438.4h-3.2c-.3,0-.5-.2-.5-.5v-1.5c0-.3.2-.5.5-.5h3.2c.3,0,.5.2.5.5v1.5c0,.3-.2.5-.5.5Z"/>
  <path class="cls-6" d="m551.9,438.4h-3.2c-.3,0-.5-.2-.5-.5v-1.5c0-.3.2-.5.5-.5h3.2c.3,0,.5.2.5.5v1.5c-.1.3-.3.5-.5.5Z"/>
  <path class="cls-6" d="m543.5,438.4h-3.2c-.3,0-.5-.2-.5-.5v-1.5c0-.3.2-.5.5-.5h3.2c.3,0,.5.2.5.5v1.5c0,.3-.3.5-.5.5Z"/>
  <path class="cls-6" d="m535.1,438.4h-3.2c-.3,0-.5-.2-.5-.5v-1.5c0-.3.2-.5.5-.5h3.2c.3,0,.5.2.5.5v1.5c0,.3-.2.5-.5.5Z"/>
  <path class="cls-6" d="m526.7,438.4h-3.2c-.3,0-.5-.2-.5-.5v-1.5c0-.3.2-.5.5-.5h3.2c.3,0,.5.2.5.5v1.5c0,.3-.2.5-.5.5Z"/>
  <path class="cls-6" d="m518.3,438.4h-3.2c-.3,0-.5-.2-.5-.5v-1.5c0-.3.2-.5.5-.5h3.2c.3,0,.5.2.5.5v1.5c0,.3-.2.5-.5.5Z"/>
  <path class="cls-6" d="m510,438.4h-3.2c-.3,0-.5-.2-.5-.5v-1.5c0-.3.2-.5.5-.5h3.2c.3,0,.5.2.5.5v1.5c0,.3-.3.5-.5.5Z"/>
  <path class="cls-6" d="m501.6,438.4h-3.2c-.3,0-.5-.2-.5-.5v-1.5c0-.3.2-.5.5-.5h3.2c.3,0,.5.2.5.5v1.5c0,.3-.2.5-.5.5Z"/>
  <path class="cls-6" d="m587,443.4h-32.5c-.3,0-.5-.2-.5-.5v-1.5c0-.3.2-.5.5-.5h32.5c.3,0,.5.2.5.5v1.5c0,.3-.2.5-.5.5Z"/>
  <path class="cls-5" d="m517.2,358.7h2.8c.9,0,1.6.7,1.6,1.6h0c0,.9-.7,1.6-1.6,1.6h-2.8c-.9,0-1.6-.7-1.6-1.6h0c0-.9.7-1.6,1.6-1.6Z"/>
  <path class="cls-5" d="m549.7,358.7h2.8c.9,0,1.6.7,1.6,1.6h0c0,.9-.7,1.6-1.6,1.6h-2.8c-.9,0-1.6-.7-1.6-1.6h0c.1-.9.8-1.6,1.6-1.6Z"/>
  <path class="cls-5" d="m558.9,358.7h2.8c.9,0,1.6.7,1.6,1.6h0c0,.9-.7,1.6-1.6,1.6h-2.8c-.9,0-1.6-.7-1.6-1.6h0c.1-.9.8-1.6,1.6-1.6Z"/>
  <path class="cls-5" d="m526,358.5h17.7c.9,0,1.6.7,1.6,1.6h0c0,.9-.7,1.6-1.6,1.6h-17.7c-.9,0-1.6-.7-1.6-1.6h0c.1-.9.8-1.6,1.6-1.6Z"/>
  <path class="cls-5" d="m569.4,358.5h17.7c.9,0,1.6.7,1.6,1.6h0c0,.9-.7,1.6-1.6,1.6h-17.7c-.9,0-1.6-.7-1.6-1.6h0c0-.9.7-1.6,1.6-1.6Z"/>
  <path class="cls-5" d="m525.9,365.8h2.8c.9,0,1.6.7,1.6,1.6h0c0,.9-.7,1.6-1.6,1.6h-2.8c-.9,0-1.6-.7-1.6-1.6h0c0-.9.7-1.6,1.6-1.6Z"/>
  <path class="cls-5" d="m558.4,365.8h2.8c.9,0,1.6.7,1.6,1.6h0c0,.9-.7,1.6-1.6,1.6h-2.8c-.9,0-1.6-.7-1.6-1.6h0c0-.9.7-1.6,1.6-1.6Z"/>
  <path class="cls-5" d="m567.6,365.8h2.8c.9,0,1.6.7,1.6,1.6h0c0,.9-.7,1.6-1.6,1.6h-2.8c-.9,0-1.6-.7-1.6-1.6h0c0-.9.7-1.6,1.6-1.6Z"/>
  <path class="cls-5" d="m534.7,365.5h17.7c.9,0,1.6.7,1.6,1.6h0c0,.9-.7,1.6-1.6,1.6h-17.7c-.9,0-1.6-.7-1.6-1.6h0c.1-.9.7-1.6,1.6-1.6Z"/>
  <path class="cls-5" d="m578.1,365.5h17.7c.9,0,1.6.7,1.6,1.6h0c0,.9-.7,1.6-1.6,1.6h-17.7c-.9,0-1.6-.7-1.6-1.6h0c0-.9.7-1.6,1.6-1.6Z"/>
  <path class="cls-5" d="m534.5,372.8h2.8c.9,0,1.6.7,1.6,1.6h0c0,.9-.7,1.6-1.6,1.6h-2.8c-.9,0-1.6-.7-1.6-1.6h0c.1-.9.8-1.6,1.6-1.6Z"/>
  <path class="cls-5" d="m567.1,372.8h2.8c.9,0,1.6.7,1.6,1.6h0c0,.9-.7,1.6-1.6,1.6h-2.8c-.9,0-1.6-.7-1.6-1.6h0c0-.9.7-1.6,1.6-1.6Z"/>
  <path class="cls-5" d="m576.3,372.8h2.8c.9,0,1.6.7,1.6,1.6h0c0,.9-.7,1.6-1.6,1.6h-2.8c-.9,0-1.6-.7-1.6-1.6h0c0-.9.7-1.6,1.6-1.6Z"/>
  <path class="cls-5" d="m543.4,372.6h17.7c.9,0,1.6.7,1.6,1.6h0c0,.9-.7,1.6-1.6,1.6h-17.7c-.9,0-1.6-.7-1.6-1.6h0c0-.9.7-1.6,1.6-1.6Z"/>
  <path class="cls-5" d="m586.7,372.6h17.7c.9,0,1.6.7,1.6,1.6h0c0,.9-.7,1.6-1.6,1.6h-17.7c-.9,0-1.6-.7-1.6-1.6h0c.1-.9.8-1.6,1.6-1.6Z"/>
  <path class="cls-5" d="m543.2,379.9h2.8c.9,0,1.6.7,1.6,1.6h0c0,.9-.7,1.6-1.6,1.6h-2.8c-.9,0-1.6-.7-1.6-1.6h0c0-.9.7-1.6,1.6-1.6Z"/>
  <path class="cls-5" d="m575.7,379.9h2.8c.9,0,1.6.7,1.6,1.6h0c0,.9-.7,1.6-1.6,1.6h-2.8c-.9,0-1.6-.7-1.6-1.6h0c.1-.9.8-1.6,1.6-1.6Z"/>
  <path class="cls-5" d="m584.9,379.9h2.8c.9,0,1.6.7,1.6,1.6h0c0,.9-.7,1.6-1.6,1.6h-2.8c-.9,0-1.6-.7-1.6-1.6h0c.1-.9.8-1.6,1.6-1.6Z"/>
  <path class="cls-5" d="m552.1,379.6h17.7c.9,0,1.6.7,1.6,1.6h0c0,.9-.7,1.6-1.6,1.6h-17.7c-.9,0-1.6-.7-1.6-1.6h0c0-.9.7-1.6,1.6-1.6Z"/>
  <path class="cls-5" d="m549.7,407.9h2.8c.9,0,1.6.7,1.6,1.6h0c0,.9-.7,1.6-1.6,1.6h-2.8c-.9,0-1.6-.7-1.6-1.6h0c.1-.9.8-1.6,1.6-1.6Z"/>
  <path class="cls-5" d="m558.9,407.9h2.8c.9,0,1.6.7,1.6,1.6h0c0,.9-.7,1.6-1.6,1.6h-2.8c-.9,0-1.6-.7-1.6-1.6h0c.1-.9.8-1.6,1.6-1.6Z"/>
  <path class="cls-5" d="m569.4,408.2h17.7c.9,0,1.6.7,1.6,1.6h0c0,.9-.7,1.6-1.6,1.6h-17.7c-.9,0-1.6-.7-1.6-1.6h0c0-.9.7-1.6,1.6-1.6Z"/>
  <path class="cls-5" d="m517.2,407.9h2.8c.9,0,1.6.7,1.6,1.6h0c0,.9-.7,1.6-1.6,1.6h-2.8c-.9,0-1.6-.7-1.6-1.6h0c0-.9.7-1.6,1.6-1.6Z"/>
  <path class="cls-5" d="m526,408.2h17.7c.9,0,1.6.7,1.6,1.6h0c0,.9-.7,1.6-1.6,1.6h-17.7c-.9,0-1.6-.7-1.6-1.6h0c.1-.9.8-1.6,1.6-1.6Z"/>
  <path class="cls-5" d="m525.9,400.9h2.8c.9,0,1.6.7,1.6,1.6h0c0,.9-.7,1.6-1.6,1.6h-2.8c-.9,0-1.6-.7-1.6-1.6h0c0-1,.7-1.6,1.6-1.6Z"/>
  <path class="cls-5" d="m558.4,400.9h2.8c.9,0,1.6.7,1.6,1.6h0c0,.9-.7,1.6-1.6,1.6h-2.8c-.9,0-1.6-.7-1.6-1.6h0c0-1,.7-1.6,1.6-1.6Z"/>
  <path class="cls-5" d="m567.6,400.9h2.8c.9,0,1.6.7,1.6,1.6h0c0,.9-.7,1.6-1.6,1.6h-2.8c-.9,0-1.6-.7-1.6-1.6h0c0-1,.7-1.6,1.6-1.6Z"/>
  <path class="cls-5" d="m534.7,401.1h17.7c.9,0,1.6.7,1.6,1.6h0c0,.9-.7,1.6-1.6,1.6h-17.7c-.9,0-1.6-.7-1.6-1.6h0c.1-.9.7-1.6,1.6-1.6Z"/>
  <path class="cls-5" d="m534.5,393.8h2.8c.9,0,1.6.7,1.6,1.6h0c0,.9-.7,1.6-1.6,1.6h-2.8c-.9,0-1.6-.7-1.6-1.6h0c.1-.9.8-1.6,1.6-1.6Z"/>
  <path class="cls-5" d="m567.1,393.8h2.8c.9,0,1.6.7,1.6,1.6h0c0,.9-.7,1.6-1.6,1.6h-2.8c-.9,0-1.6-.7-1.6-1.6h0c0-.9.7-1.6,1.6-1.6Z"/>
  <path class="cls-5" d="m576.3,393.8h2.8c.9,0,1.6.7,1.6,1.6h0c0,.9-.7,1.6-1.6,1.6h-2.8c-.9,0-1.6-.7-1.6-1.6h0c0-.9.7-1.6,1.6-1.6Z"/>
  <path class="cls-5" d="m543.4,394.1h17.7c.9,0,1.6.7,1.6,1.6h0c0,.9-.7,1.6-1.6,1.6h-17.7c-.9,0-1.6-.7-1.6-1.6h0c0-.9.7-1.6,1.6-1.6Z"/>
  <path class="cls-5" d="m543.2,386.8h2.8c.9,0,1.6.7,1.6,1.6h0c0,.9-.7,1.6-1.6,1.6h-2.8c-.9,0-1.6-.7-1.6-1.6h0c0-.9.7-1.6,1.6-1.6Z"/>
  <path class="cls-5" d="m575.7,386.8h2.8c.9,0,1.6.7,1.6,1.6h0c0,.9-.7,1.6-1.6,1.6h-2.8c-.9,0-1.6-.7-1.6-1.6h0c.1-.9.8-1.6,1.6-1.6Z"/>
  <path class="cls-5" d="m584.9,386.8h2.8c.9,0,1.6.7,1.6,1.6h0c0,.9-.7,1.6-1.6,1.6h-2.8c-.9,0-1.6-.7-1.6-1.6h0c.1-.9.8-1.6,1.6-1.6Z"/>
  <path class="cls-5" d="m552.1,387h17.7c.9,0,1.6.7,1.6,1.6h0c0,.9-.7,1.6-1.6,1.6h-17.7c-.9,0-1.6-.7-1.6-1.6h0c0-.9.7-1.6,1.6-1.6Z"/>
  <path class="cls-7" d="m504.9,490.5l-13.3-21.1,41.9-33.4,17.3-19.2c7.1-7.9,19.2-8.5,27.1-1.4,2.5,2.2,4.3,5.1,5.4,8.2h0c3.2,9.8-1.9,20.4-11.6,24l-27.3,10.1-39.5,32.8Z"/>
  <path class="cls-9" d="m191.7,337.5v102.5h71.9v-102.5c0-1.5-1-2.9-2.4-3.3-.3-.1-.7-.2-1-.2h-64.9c-2.1,0-3.6,1.6-3.6,3.5h0Zm28,35.2c0-4.2,3.5-7.6,7.7-7.6s7.6,3.4,7.6,7.6v11.9c0,4.2-3.5,7.7-7.7,7.6-4.2,0-7.6-3.4-7.6-7.6v-11.9Z"/>
  <path class="cls-6" d="m191.5,436.8v9.9c0,1.1.9,1.9,1.9,1.9h68.4c1.1,0,1.9-.9,1.9-1.9v-9.9h-72.2Z"/>
  <path class="cls-6" d="m78.7,183v187.3c0,5,4,9,9,9h277.5c5,0,9-4,9-9v-187.3c0-5-4-9-9-9H87.7c-5,0-9,4-9,9Z"/>
  <g id="Layer_2" data-name="Layer 2">
    <path class="cls-5" d="m85.2,185.3v182.6c0,2.7,2.2,4.8,4.8,4.8h272.9c2.7,0,4.8-2.2,4.8-4.8v-182.6c0-2.7-2.2-4.8-4.8-4.8H90c-2.7,0-4.8,2.1-4.8,4.8Z"/>
    <g>
      <path class="cls-1" d="m228.91,288.98c-.71,0-1.39.15-2,.49l-19.24,11.11c-1.24.72-2,2.07-2,3.51v22.18c0,1.44.76,2.79,2,3.51l5.02,2.89c2.44,1.2,3.34,1.18,4.45,1.18,3.61,0,5.68-2.19,5.68-6v-21.88c0-.31-.27-.53-.57-.53h-2.41c-.31,0-.57.23-.57.53v21.89c0,1.69-1.76,3.39-4.61,1.96l-5.22-3.06c-.18-.1-.33-.28-.33-.49v-22.18c0-.21.14-.42.33-.53l19.2-11.07c.18-.1.39-.1.57,0l19.2,11.07c.18.11.33.31.33.53v22.18c0,.21-.11.43-.29.53l-19.24,11.07c-.17.1-.4.1-.57,0l-4.94-2.94c-.15-.09-.35-.08-.49,0-1.36.77-1.62.86-2.9,1.31-.32.11-.79.28.16.82l6.45,3.8c.61.36,1.3.53,2,.53s1.39-.17,2-.53l19.24-11.07c1.24-.72,2-2.07,2-3.51v-22.18c0-1.44-.76-2.79-2-3.51l-19.24-11.11c-.6-.34-1.29-.49-2-.49h0Zm5.15,15.85c-5.48,0-8.74,2.33-8.74,6.21,0,4.2,3.24,5.36,8.5,5.88,6.29.62,6.78,1.54,6.78,2.78,0,2.15-1.71,3.06-5.76,3.06-5.08,0-6.2-1.27-6.58-3.8-.04-.27-.25-.49-.53-.49h-2.5c-.31,0-.56.26-.57.57,0,3.24,1.76,7.07,10.17,7.07,6.09,0,9.6-2.38,9.6-6.58s-2.84-5.26-8.74-6.05c-5.96-.79-6.53-1.18-6.53-2.57,0-1.15.48-2.7,4.9-2.7,3.95,0,5.41.85,6,3.51.05.25.27.45.53.45h2.5c.15,0,.3-.09.41-.2.1-.12.18-.25.16-.41-.39-4.58-3.44-6.74-9.6-6.74h0Z"/>
      <path class="cls-3" d="m268.66,211.21c-.21,0-.43.06-.61.16-.38.22-.61.62-.61,1.06v31.24c0,.31-.14.58-.41.74-.27.15-.59.15-.86,0l-5.11-2.94c-.76-.44-1.69-.44-2.45,0l-20.38,11.76c-.76.44-1.23,1.29-1.23,2.16v23.52c0,.88.47,1.69,1.23,2.12l20.38,11.76c.76.44,1.69.44,2.45,0l20.38-11.76c.76-.44,1.23-1.25,1.23-2.12v-58.65c0-.89-.49-1.73-1.27-2.16l-12.13-6.78c-.19-.11-.4-.12-.61-.12h0Zm-131.1,29.37c-.39.02-.75.08-1.1.29l-20.38,11.76c-.76.44-1.23,1.25-1.22,2.12l.04,31.57c0,.44.23.85.61,1.06.38.23.85.23,1.22,0l12.09-6.94c.77-.45,1.27-1.25,1.27-2.12v-14.74c0-.88.46-1.69,1.23-2.12l5.15-2.98c.37-.22.79-.33,1.22-.33.43,0,.85.11,1.23.33l5.14,2.98c.76.44,1.22,1.24,1.22,2.12v14.74c0,.88.51,1.67,1.27,2.12l12.09,6.94c.38.23.85.23,1.22,0,.37-.22.61-.62.61-1.06l.04-31.57c0-.88-.46-1.69-1.22-2.12l-20.38-11.76c-.34-.2-.71-.27-1.1-.29h-.25Zm183.14.29c-.43,0-.85.11-1.23.33l-20.38,11.76c-.76.44-1.23,1.24-1.23,2.12v23.52c0,.88.5,1.69,1.27,2.12l20.22,11.52c.75.43,1.66.46,2.41.04l12.25-6.82c.39-.22.65-.62.65-1.06s-.23-.84-.61-1.06l-20.5-11.76c-.38-.22-.65-.66-.65-1.1v-7.36c0-.44.27-.84.65-1.06l6.37-3.68c.38-.22.84-.22,1.23,0l6.37,3.68c.38.22.61.62.61,1.06v5.8c0,.44.23.84.61,1.06.38.22.84.22,1.23,0l12.21-7.11c.76-.44,1.23-1.25,1.23-2.12v-5.68c0-.88-.47-1.69-1.23-2.12l-20.26-11.76c-.37-.22-.8-.33-1.23-.33h0Zm-60.94,17.56c.11,0,.23.03.33.08l6.98,4.04c.19.11.33.31.33.53v8.09c0,.22-.14.42-.33.53l-6.98,4.04c-.19.11-.42.11-.61,0l-6.98-4.04c-.19-.11-.33-.31-.33-.53v-8.09c0-.22.14-.42.33-.53l6.98-4.04c.1-.06.18-.08.29-.08h0s0,0,0,0Z"/>
      <path class="cls-1" d="m198.78,240.73c-.43,0-.85.11-1.23.33l-20.38,11.72c-.76.44-1.22,1.29-1.22,2.16v23.52c0,.88.47,1.69,1.22,2.12l20.38,11.76c.76.44,1.69.44,2.45,0l20.38-11.76c.76-.44,1.23-1.25,1.23-2.12v-23.52c0-.88-.46-1.73-1.23-2.16l-20.38-11.72c-.37-.22-.8-.33-1.23-.33h0Zm121.87,20.99c-.08,0-.17,0-.25.04l-3.92,2.29c-.15.08-.24.24-.25.41v4.49c0,.17.1.32.25.41l3.92,2.25c.14.09.31.09.45,0l3.92-2.25c.15-.08.25-.24.25-.41v-4.49c0-.17-.1-.32-.25-.41l-3.92-2.29c-.07-.04-.12-.04-.2-.04h0Z"/>
    </g>
  </g>
  <path class="cls-9" d="m135.8,447.9c.6.7,1.4,1.1,2.3,1.1h162.3c1.6,0,3-1.3,3-3,0-.2,0-.4-.1-.6l-2.5-12c-.2-1-.9-1.8-1.9-2.2-.3-.1-.7-.2-1.1-.2h-157.2c-.4,0-.7.1-1.1.2-.9.4-1.6,1.2-1.9,2.2l-2.5,12c-.1.9.1,1.8.7,2.5Z"/>
  <path class="cls-9" d="m693.6,441.1c.9,2.6,3.4,4.4,6.2,4.3l26.5-.7c2.8-.1,5.2-2,6-4.7l3.7-40c1.3.6,2.8.9,4.2.9,5.3-.1,9.5-4.6,9.4-9.9s-4.6-9.5-9.9-9.4c-.6,0-1.2.1-1.7.2-1.3-1.4-3-2.1-4.9-2.1l-40.8,1.1c-.3,0-.7.1-1,.1-3.5.6-5.7,4-5.1,7.4.1.3.1.6.2.8l7.2,52Zm43.2-43.8l2.7-9.6c.3-1.1.3-2.3,0-3.4.1,0,.2-.1.4-.1,3.8-.1,7,3,7.1,6.8s-2.9,7-6.7,7.1c-1.3,0-2.5-.2-3.5-.8Z"/>
  <path class="cls-6" d="m691.4,380.8c.9,5,10.6,8.5,22.4,7.8,10.8-.5,19.6-4.3,21.2-8.8-.6-.2-1.2-.3-1.8-.2l-40.8,1.1c-.3,0-.7,0-1,.1Z"/>
  <path class="cls-4" d="m715.9,419.1q.1,0,.2-.1l5.8-3.8c.2-.2.3-.5.1-.7,0-.1-.1-.1-.1-.1l-6-3.9c-.2-.2-.5-.1-.7.1s-.1.5.1.7l5.3,3.5-5.1,3.3c-.2.2-.3.5-.1.7.1.2.3.3.5.3h0Z"/>
  <path class="cls-4" d="m706.8,419.5c.3-.1.4-.3.4-.6,0-.1-.1-.2-.2-.3l-5.3-3,5.1-3.8c.2-.2.3-.5.1-.7s-.5-.3-.7-.1l-5.7,4.3c-.2.2-.3.5-.1.7,0,.1.1.1.2.1l6,3.4h.2Z"/>
  <path class="cls-4" d="m715.3,422.4s.1,0,.1-.1c.2-.1.3-.5.2-.7h0l-8.2-13.4c-.1-.2-.5-.3-.7-.2s-.3.5-.2.7l8.2,13.4c.2.2.4.3.6.3Z"/>
  <path class="cls-6" d="m290.7,376.8l.2.7h0l6.5,19.8,7.5,22.9,14.1,43,.1,6.7h0l1,53.7-2.9,7.3,3.3,11.9s-1.5-18-9.6-7.7c-4.6,5.9-9.9,11.9-14.3,17.6,6.4,2.6,12.9,4.9,19.5,7,1.4.5,2.9.9,4.3,1.3.3.1.6.2.9.3,21.9,6.5,44.5,10.1,67.4,10.8,1.2,0,2.3.1,3.5.1h5c2.6,0,5.1,0,7.7-.1,18.9-.5,37.7-3.1,56.1-7.6-.1-7.6-.5-16.4-1-25.9-.2-4.6-5.4-9.7-5.7-14.5-.2-3.7,4.4-7.1,4.1-10.8-1.6-22.8-3.5-14.1-4.9-30.2-.1-1.6-.3-3.1-.4-4.6-.9-10.4-1.6-16.9-1.6-16.9l6.1-38.7,9.6-60.7-.7-1.2-.8-.4-50.8-25.2-2.8-7.1c-1.6-4.2-5.7-6.9-10.1-6.9l-33.5-.1c-3.5,0-6.8,1.7-8.9,4.5l-9.1,12.6-59.8,38.4Z"/>
  <path class="cls-6" d="m326.8,453.7l-7.6,16.2-5.2,11.1-8.9,46.6-4.5,4.7-3.8-16.8-40,8.9c-1.3-7.3-.4.2-1.2-7.8.2-.2.5-.5.7-.7.6-.6,1.2-1.2,1.2-1.7-.5-27.6.9-74.5,12.3-103,1.8-4.6,4.2-9,7-13.1.2-.3.4-.6.7-.9,5.3-7.4,8.6-14.6,13.3-19.8h0l.1-.1h0l32.4-17.2,1.4,39.1,1,28.1,1.1,26.4Z"/>
  <path class="cls-6" d="m443.8,458.3l9.5,20.3,3.3,7.1,8.9,46.6,4.4,4.7,3.8-16.8,1.8-.4,32.5-6.7,9.5,30c4.4-7.3,3-16.7-3.3-22.5-.6-.6-1.2-1.2-1.2-1.7.5-32.4-1.4-91.7-19.4-116.1-5.7-7.7-9.1-15.4-14.1-20.8h0l-12.1-19.8-.7-1.2-.8-.4-22.1,97.7Z"/>
  <circle id="a657ec4b-47ce-4d2a-9c58-81a811696ca9" class="cls-7" cx="386.4" cy="267.2" r="44.6"/>
  <path class="cls-9" d="m446.6,236.1c-.7-.7-1.7-1.2-2.7-1.2l.7-1.9c.7-1.8-.2-3.9-2.1-4.5-.6-.2-1.3-.3-1.9-.2l-2.4.5.2-1.6c.3-1.9-1.1-3.7-3-4-.6-.1-1.2,0-1.7.2-1.1.4-2.3.3-3.2-.2-1-.5-1.7-1.5-1.9-2.6l-.8-4.1-.1-.2c-4.1-6.9-12.1-11.9-21.8-13.8-8.7-1.6-17.6-.8-26.1,0-3.4.3-7.2.7-10.4,2.6-2.7,1.7-5,5-4.5,8.4-8.5-2.6-17.5,2.6-22,9.1-5.3,7.8-6.2,17.5-6.3,25.1-.4,18,3.3,32.7,11,43.7.6.8.7,2.5,1.8,3l-.2-.4c1.2.6,2.5,1.6,2,2.7-1.3,3.1,7.6,9.9,13.9,12.1,11.5,4.1,26.9,3.8,37.6,2.3l.4-2.5c3.9-.5,6.6-1.5,7.4-3.1,1.4-1.2,2.5-2.2,3.5-3.2h0s.1,0,.1-.1c4.9-4.7,6-7.3,6.5-11.4.5-4-.4-8-1.3-11.6,18.7,2.9-7.4-20,10.1-24.4.2-.1.4-.1.6-.1.5-.1,1-.2,1.5-.4,2.4-.6,4.6-1.6,6.7-2.9,4.9-3,6.5-6.9,9-11.4.6-1.2.4-2.8-.6-3.9Z"/>
  <path class="cls-9" d="m544,461.4c0,1.8,0,4.2-.1,7.2v1.3c-.1,5.6-.3,10.2-.5,15.4v1.1c-.3,7.2-.7,15.7-1.5,29-1.4,24.7-3.9,3.4-6.3,12-.1.4-.2.9-.4,1.5-.4,2.2-1,4.3-1.9,6.3-1.3.8-2.7,1.5-4,2.3-3.8,2.1-7.6,4.1-11.5,6.1-2.2,1.1-4.4,2.1-6.6,3.2-.3.2-.7.3-1,.5-11.3,5.2-22.9,9.6-34.8,13.3-2.3.7-4.6,1.4-7,2-2.4.7-4.9,1.3-7.3,1.9-18.4,4.5-37.2,7.1-56.1,7.6-2.5.1-5.1.1-7.7.1h-5c-1.1,0-2.3,0-3.5-.1-22.8-.7-45.5-4.4-67.3-10.8l-.9-.3c-1.4-.4-2.9-.9-4.3-1.3-6.6-2.1-13.1-4.4-19.5-7-4.9-2-9.7-4.1-14.5-6.3,0,0-.1,0-.1-.1-1-.5-2-.9-3-1.4-.1-.1-.3-.1-.4-.2-3.7-1.8-7.4-3.7-11.1-5.7-3.1-7.1-7.4-8.4-10.1-14.6-.8-1.8-1.3-3.8-1.7-5.7v-.1c.3,3.7-1.2-6.6,0,0v-.4c0-.4-.1-.8-.1-1.3-3.4-33.5-3.2-71.8-4.7-103.4-.1-2-.2-4-.3-5.9,0-.6-.1-1.2-.1-1.8.1-.2.1-.4.2-.5q0-.1.1-.2c0-.1.1-.1.1-.2,0,0,0-.1.1-.1v-.1c.1-.1.2-.3.3-.4,0-.1.1-.1.1-.2s.1-.1.1-.1l.1-.1.1-.1s0-.1.1-.1c.1-.1.2-.2.3-.2.4-.3.7-.6,1.1-.9.1-.1.3-.2.4-.3,1-.6,2.1-1.1,3.2-1.5.4-.1.8-.3,1.2-.4.1,0,.3-.1.4-.1.2-.1.4-.1.7-.2,1.1-.3,2.4-.6,3.7-.9.2,0,.3-.1.5-.1s.5-.1.7-.1c.3-.1.7-.1,1-.2,3-.5,6.3-.8,10.1-1,.4,0,.7,0,1-.1.4,0,.8,0,1.2-.1h2.2c1,0,2-.1,3.1-.1,3-.1,6.2,0,9.5,0,1.5,0,3.1.1,4.8.2h.3c1.4,0,2.8.1,4.3.2,1,0,2,.1,3.1.2,1,.1,1.9.1,2.9.2.8,0,1.5.1,2.3.2.7,0,1.3.1,2,.1l.9.1c.5,0,1,.1,1.5.1,1.1.1,2.2.2,3.3.3,1.1.1,2.2.2,3.4.3s2.3.2,3.4.3h.3c1,.1,2.1.2,3.1.3.2,0,.5,0,.7.1,1,.1,2,.2,3,.3.3,0,.6.1.9.1.8.1,1.6.2,2.4.3,1,.1,2.1.2,3.2.4.8.1,1.6.2,2.4.3,1.3.2,2.6.3,3.8.5.5.1,1,.1,1.5.2,3.7.5,7.4,1,11.2,1.5,5.7.8,11.5,1.7,17.4,2.6,5.9,1,11.8,2,17.7,3,1.5.3,3,.5,4.5.8.7.1,1.4.3,2,.4,1.2.2,2.3.4,3.5.7,1.2.2,2.3.4,3.5.7,1.4.3,2.8.5,4.2.8,9.1,1.8,18.1,3.7,27,5.7,1.5.3,2.9.7,4.3,1,2.9.7,5.7,1.3,8.6,2,.8.2,1.5.4,2.3.6,1.9.5,3.8,1,5.7,1.5l.3.1c1.4.3,2.8.7,4.1,1,3.2.8,6.4,1.7,9.5,2.5,2.1.6,4.1,1.1,6.1,1.7,3,.9,6,1.8,8.8,2.6.7.2,1.4.4,2.1.7,2.1.7,4.2,1.3,6.2,2,1.6.5,3.2,1,4.7,1.6,1.5.5,3,1.1,4.5,1.6,1,.3,1.9.7,2.8,1,1.3.5,2.7,1,4,1.5.4.2.8.3,1.2.5.2.1.5.2.7.3.5.2,1,.4,1.4.6.5.2.9.4,1.4.6s.9.4,1.3.6c.5.2.9.4,1.3.6.4.2.7.3,1.1.5.7.3,1.4.6,2.1.9.3.2.7.3,1,.5l.8.4c.1.1.2.1.3.2.2.1.5.2.8.4.6.3,1.2.6,1.7.8.8.4,1.5.8,2.2,1.1.7.4,1.4.8,2.1,1.1.1.1.2.1.3.2.2.1.3.2.5.2.5.3,1,.6,1.5.9,1,.6,1.9,1.2,2.7,1.8.2.1.4.3.6.4.6.5,1.2.9,1.8,1.3h0c.2.1.4.3.5.4.2.1.3.3.5.4.5.5,1,.9,1.4,1.3.1.1.3.3.4.4.1,0,.1.1.2.2.2.2.4.4.5.6,0,0,0,.1.1.1.2.3.5.6.7.8.1.1.2.3.3.4.1.2.2.3.3.5.1.1.2.3.2.4.2.4.4.7.5,1.1.1.3.2.5.3.8.4-.2.5.1.5.3Z"/>
  <path class="cls-2" d="m544,461.4c0,1.8,0,4.2-.1,7.2v1.3c-.1,4.2-.2,9.5-.5,15.4v1.1c-.3,7.2-.7,15.7-1.5,29-1.4,24.7-3.9,3.4-6.3,12-6.9-4.2-14.4-8.6-22.4-13.2-1.4-.8-2.9-1.6-4.4-2.5-16.1-9-34-18.4-52.8-27.7-.7-.4-1.5-.7-2.2-1.1-43-21.2-89.8-41.9-127.8-55.7-7.3-2.7-14.3-5.1-20.9-7.2-13.9-4.4-25.8-7.5-35.1-8.9-9.6-1.4-16.2-.9-18.9,2-.1-2-.2-4-.3-5.9,0-.6-.1-1.2-.1-1.8.1-.2.1-.3.2-.5v-.1q0-.1.1-.2c0-.1.1-.1.1-.2s.1-.1.1-.2c.1-.1.2-.3.3-.4s.2-.2.3-.3l.1-.1.1-.1s0-.1.1-.1c.1-.1.2-.2.3-.2.4-.3.7-.6,1.1-.9.1-.1.3-.2.4-.3,1-.6,2.1-1.1,3.2-1.5.4-.1.8-.3,1.2-.4.1,0,.3-.1.4-.1.2-.1.4-.1.7-.2,1.1-.3,2.4-.6,3.7-.9.4-.1.8-.2,1.2-.2.3-.1.7-.1,1-.2,3-.5,6.3-.8,10.1-1,.4,0,.7,0,1-.1.4,0,.8,0,1.2-.1h2.2c1,0,2-.1,3.1-.1h9.5c1.5,0,3.1.1,4.8.2h.3c1.4,0,2.8.1,4.3.2,1,0,2,.1,3.1.2,1,.1,1.9.1,2.9.2.8,0,1.5.1,2.3.2.7,0,1.3.1,2,.1.8.1,1.6.1,2.4.2,1.1.1,2.2.2,3.3.3,1.1.1,2.2.2,3.4.3s2.3.2,3.4.3h.3c1,.1,2.1.2,3.1.3,5.8.6,11.8,1.3,18,2.1,3.7.5,7.4,1,11.2,1.5,5.7.8,11.5,1.7,17.4,2.6,5.9,1,11.8,2,17.7,3,1.5.3,3,.5,4.5.8,1.8.3,3.7.7,5.5,1,1.2.2,2.3.4,3.5.7,1.4.3,2.8.5,4.2.8,9.1,1.8,18.1,3.7,27,5.7,1.5.3,2.9.7,4.3,1,2.9.7,5.7,1.3,8.6,2,.8.2,1.5.4,2.3.6,1.9.5,3.8,1,5.7,1.4h0c.1,0,.2,0,.3.1,1.4.3,2.8.7,4.1,1.1,3.2.8,6.4,1.7,9.5,2.5,2.1.6,4.1,1.2,6.1,1.7,3,.9,6,1.8,8.8,2.6.7.2,1.4.4,2.1.7,2.1.7,4.2,1.3,6.2,2,1.6.5,3.2,1,4.7,1.6,1.5.5,3,1.1,4.5,1.6,1,.3,1.9.7,2.8,1,1.4.5,2.7,1,4,1.5.4.2.8.3,1.2.5.7.3,1.4.6,2.1.9.5.2.9.4,1.4.6s.9.4,1.3.6c.5.2.9.4,1.3.6.4.2.7.3,1.1.5.7.3,1.4.6,2.1.9.3.2.7.3,1,.5l.8.4c.1.1.2.1.3.2.8.4,1.7.8,2.5,1.2.8.4,1.5.8,2.2,1.1.8.4,1.6.9,2.4,1.3.2.1.3.2.5.2.5.3,1,.6,1.5.9,1,.6,1.9,1.2,2.7,1.8.8.6,1.6,1.2,2.3,1.7h0c.3.3.7.6,1,.8.5.5,1,.9,1.4,1.3.1.1.3.3.4.4.1,0,.1.1.2.2.2.2.4.5.6.7.2.3.5.6.7.8.1.1.2.3.3.4.1.2.2.3.3.5.1.1.2.3.2.4.2.4.4.7.5,1.1.1.3.2.5.3.8.3.5.4.8.4,1Z"/>
</svg>