<?xml version="1.0" encoding="UTF-8"?><svg id="Layer_1" xmlns="http://www.w3.org/2000/svg" width="786.8" height="572.3" xmlns:xlink="http://www.w3.org/1999/xlink" viewBox="0 0 786.8 572.3"><defs><linearGradient id="linear-gradient" x1="2906.7" y1="-1720.2" x2="2906.7" y2="-1720.5" gradientTransform="translate(-443.5 -67.5) scale(.2 -.2)" gradientUnits="userSpaceOnUse"><stop offset="0" stop-color="#f29100"/><stop offset="1" stop-color="#ec670f"/></linearGradient><linearGradient id="linear-gradient-2" x1="2864.9" y1="-1722.6" x2="2864.9" y2="-1809.9" xlink:href="#linear-gradient"/><linearGradient id="linear-gradient-3" x1="2906.4" y1="-1531.8" x2="2906.4" y2="-1809.8" xlink:href="#linear-gradient"/><linearGradient id="linear-gradient-4" x1="2790.9" y1="-1709.4" x2="2790.9" y2="-1807.9" xlink:href="#linear-gradient"/></defs><circle cx="458.3" cy="74.2" r="26.7" style="fill:#f2f2f2; stroke-width:0px;"/><path d="m665.4,497.2c39.7-30.2,58.6-81,46.8-129.5-.3-1.2-.6-2.4-.9-3.6-7.9-28.8-27.3-56.1-55.7-65.3-23.8-7.7-49.8-1.8-74.7-4.9-48.8-6-86.6-45.5-113.2-86.8-26.6-41.3-47.1-87.6-82.4-121.7-58.3-56.3-153.4-68.4-225.6-31.8-72.3,36.6-118.3,117.9-116.3,198.9,2,81,50,158.4,119.9,199.5,25.7,15.1,55.3,25.8,84.8,22,25.6-3.2,48.9-17,74.4-21.1,40.1-6.4,79.9,11.7,114.6,32.8,34.7,21.1,68.2,46.2,107.6,56,38.3,9.5,85.7-17.8,120.8-44.6Z" style="fill:#f2f2f2; stroke-width:0px;"/><path d="m608.4,55.3c-.9-.6-1.8-1.1-2.6-1.7-25.1-16.1-52.1-29.2-80.3-38.9l-6.5,90.2h-41.5V1.5c-2.6-.5-5.2-1.1-7.9-1.5v104.9h-49.3c-56.5,0-102.3-45.8-102.3-102.3h0c-2.6.6-5.3,1.2-7.9,1.8v100.4h-40.1l-6.2-86c-29,11.1-56.5,25.7-81.9,43.5-.4.3-.9.6-1.3.9-2.2,1.6-4.4,3.1-6.6,4.7v344.2h118.3l-2.1-29-11.5-159h231.6l-11.5,159-2.1,29h117V58.8c-1.7-1.2-3.5-2.3-5.2-3.5Zm-298.2,142.8h-33.4l-6.2-85.3h39.6v85.3Zm159.4,0h-56.1v-1.7c0-3.4-2.8-6.2-6.2-6.2h-24.4c-3.4,0-6.2,2.8-6.2,6.2h0v1.7h-58.7v-85.3h151.5v85.3Zm7.9,0v-85.3h40.9l-6.2,85.3h-34.7Z" style="fill:#3f3d56; stroke-width:0px;"/><path d="m0,434.3c8.7,10.3,18.1,20,28.1,29l730.6,1c10-9,19.4-18.7,28.1-29L0,434.3Z" style="fill:#3f3d56; stroke-width:0px;"/><path d="m495.4,341.6v85.7c0,2.3,1.8,4.1,4.1,4.1h127c2.3,0,4.1-1.8,4.1-4.1v-85.7c0-2.3-1.8-4.1-4.1-4.1h-127c-2.3,0-4.1,1.8-4.1,4.1Z" style="fill:#3f3d56; stroke-width:0px;"/><path d="m498.4,342.7v83.6c0,1.2,1,2.2,2.2,2.2h124.9c1.2,0,2.2-1,2.2-2.2v-83.6c0-1.2-1-2.2-2.2-2.2h-124.9c-1.2,0-2.2,1-2.2,2.2Z" style="fill:#6c63ff; stroke-width:0px;"/><path d="m492.8,444c.5.6,1.2.9,1.9.9h136c1.4,0,2.5-1.1,2.5-2.5,0-.2,0-.3,0-.5l-2.1-10c-.2-.8-.8-1.5-1.6-1.8-.3-.1-.6-.2-.9-.2h-131.8c-.3,0-.6,0-.9.2-.8.3-1.4,1-1.6,1.8l-2.1,10c-.2.7,0,1.5.5,2.1Z" style="fill:#2f2e41; stroke-width:0px;"/><rect x="623.4" y="431.7" width="4.2" height="2.5" rx=".5" ry=".5" style="fill:#3f3d56; stroke-width:0px;"/><rect x="615.1" y="431.7" width="4.2" height="2.5" rx=".5" ry=".5" style="fill:#3f3d56; stroke-width:0px;"/><rect x="606.7" y="431.7" width="4.2" height="2.5" rx=".5" ry=".5" style="fill:#3f3d56; stroke-width:0px;"/><rect x="598.3" y="431.7" width="4.2" height="2.5" rx=".5" ry=".5" style="fill:#3f3d56; stroke-width:0px;"/><rect x="589.9" y="431.7" width="4.2" height="2.5" rx=".5" ry=".5" style="fill:#3f3d56; stroke-width:0px;"/><rect x="581.6" y="431.7" width="4.2" height="2.5" rx=".5" ry=".5" style="fill:#3f3d56; stroke-width:0px;"/><rect x="573.2" y="431.7" width="4.2" height="2.5" rx=".5" ry=".5" style="fill:#3f3d56; stroke-width:0px;"/><rect x="564.8" y="431.7" width="4.2" height="2.5" rx=".5" ry=".5" style="fill:#3f3d56; stroke-width:0px;"/><rect x="556.4" y="431.7" width="4.2" height="2.5" rx=".5" ry=".5" style="fill:#3f3d56; stroke-width:0px;"/><rect x="548.1" y="431.7" width="4.2" height="2.5" rx=".5" ry=".5" style="fill:#3f3d56; stroke-width:0px;"/><rect x="539.7" y="431.7" width="4.2" height="2.5" rx=".5" ry=".5" style="fill:#3f3d56; stroke-width:0px;"/><rect x="531.3" y="431.7" width="4.2" height="2.5" rx=".5" ry=".5" style="fill:#3f3d56; stroke-width:0px;"/><rect x="522.9" y="431.7" width="4.2" height="2.5" rx=".5" ry=".5" style="fill:#3f3d56; stroke-width:0px;"/><rect x="514.5" y="431.7" width="4.2" height="2.5" rx=".5" ry=".5" style="fill:#3f3d56; stroke-width:0px;"/><rect x="506.2" y="431.7" width="4.2" height="2.5" rx=".5" ry=".5" style="fill:#3f3d56; stroke-width:0px;"/><rect x="497.8" y="431.7" width="4.2" height="2.5" rx=".5" ry=".5" style="fill:#3f3d56; stroke-width:0px;"/><rect x="623.5" y="435.9" width="4.2" height="2.5" rx=".5" ry=".5" style="fill:#3f3d56; stroke-width:0px;"/><rect x="615.2" y="435.9" width="4.2" height="2.5" rx=".5" ry=".5" style="fill:#3f3d56; stroke-width:0px;"/><rect x="606.8" y="435.9" width="4.2" height="2.5" rx=".5" ry=".5" style="fill:#3f3d56; stroke-width:0px;"/><rect x="598.4" y="435.9" width="4.2" height="2.5" rx=".5" ry=".5" style="fill:#3f3d56; stroke-width:0px;"/><rect x="590" y="435.9" width="4.2" height="2.5" rx=".5" ry=".5" style="fill:#3f3d56; stroke-width:0px;"/><rect x="581.7" y="435.9" width="4.2" height="2.5" rx=".5" ry=".5" style="fill:#3f3d56; stroke-width:0px;"/><rect x="573.3" y="435.9" width="4.2" height="2.5" rx=".5" ry=".5" style="fill:#3f3d56; stroke-width:0px;"/><rect x="564.9" y="435.9" width="4.2" height="2.5" rx=".5" ry=".5" style="fill:#3f3d56; stroke-width:0px;"/><rect x="556.5" y="435.9" width="4.2" height="2.5" rx=".5" ry=".5" style="fill:#3f3d56; stroke-width:0px;"/><rect x="548.1" y="435.9" width="4.2" height="2.5" rx=".5" ry=".5" style="fill:#3f3d56; stroke-width:0px;"/><rect x="539.8" y="435.9" width="4.2" height="2.5" rx=".5" ry=".5" style="fill:#3f3d56; stroke-width:0px;"/><rect x="531.4" y="435.9" width="4.2" height="2.5" rx=".5" ry=".5" style="fill:#3f3d56; stroke-width:0px;"/><rect x="523" y="435.9" width="4.2" height="2.5" rx=".5" ry=".5" style="fill:#3f3d56; stroke-width:0px;"/><rect x="514.6" y="435.9" width="4.2" height="2.5" rx=".5" ry=".5" style="fill:#3f3d56; stroke-width:0px;"/><rect x="506.3" y="435.9" width="4.2" height="2.5" rx=".5" ry=".5" style="fill:#3f3d56; stroke-width:0px;"/><rect x="497.9" y="435.9" width="4.2" height="2.5" rx=".5" ry=".5" style="fill:#3f3d56; stroke-width:0px;"/><rect x="554" y="440.9" width="33.5" height="2.5" rx=".5" ry=".5" style="fill:#3f3d56; stroke-width:0px;"/><rect x="515.6" y="358.7" width="6" height="3.1" rx="1.6" ry="1.6" style="fill:#fff; stroke-width:0px;"/><rect x="548.2" y="358.7" width="6" height="3.1" rx="1.6" ry="1.6" style="fill:#fff; stroke-width:0px;"/><rect x="557.4" y="358.7" width="6" height="3.1" rx="1.6" ry="1.6" style="fill:#fff; stroke-width:0px;"/><rect x="524.5" y="358.5" width="20.8" height="3.1" rx="1.6" ry="1.6" style="fill:#fff; stroke-width:0px;"/><rect x="567.8" y="358.5" width="20.8" height="3.1" rx="1.6" ry="1.6" style="fill:#fff; stroke-width:0px;"/><rect x="524.3" y="365.8" width="6" height="3.1" rx="1.6" ry="1.6" style="fill:#fff; stroke-width:0px;"/><rect x="556.8" y="365.8" width="6" height="3.1" rx="1.6" ry="1.6" style="fill:#fff; stroke-width:0px;"/><rect x="566" y="365.8" width="6" height="3.1" rx="1.6" ry="1.6" style="fill:#fff; stroke-width:0px;"/><rect x="533.2" y="365.5" width="20.8" height="3.1" rx="1.6" ry="1.6" style="fill:#fff; stroke-width:0px;"/><rect x="576.5" y="365.5" width="20.8" height="3.1" rx="1.6" ry="1.6" style="fill:#fff; stroke-width:0px;"/><rect x="533" y="372.8" width="6" height="3.1" rx="1.6" ry="1.6" style="fill:#fff; stroke-width:0px;"/><rect x="565.5" y="372.8" width="6" height="3.1" rx="1.6" ry="1.6" style="fill:#fff; stroke-width:0px;"/><rect x="574.7" y="372.8" width="6" height="3.1" rx="1.6" ry="1.6" style="fill:#fff; stroke-width:0px;"/><rect x="541.8" y="372.6" width="20.8" height="3.1" rx="1.6" ry="1.6" style="fill:#fff; stroke-width:0px;"/><rect x="585.2" y="372.6" width="20.8" height="3.1" rx="1.6" ry="1.6" style="fill:#fff; stroke-width:0px;"/><rect x="541.6" y="379.9" width="6" height="3.1" rx="1.6" ry="1.6" style="fill:#fff; stroke-width:0px;"/><rect x="574.2" y="379.9" width="6" height="3.1" rx="1.6" ry="1.6" style="fill:#fff; stroke-width:0px;"/><rect x="583.4" y="379.9" width="6" height="3.1" rx="1.6" ry="1.6" style="fill:#fff; stroke-width:0px;"/><rect x="550.5" y="379.6" width="20.8" height="3.1" rx="1.6" ry="1.6" style="fill:#fff; stroke-width:0px;"/><rect x="548.2" y="407.9" width="6" height="3.1" rx="1.6" ry="1.6" style="fill:#fff; stroke-width:0px;"/><rect x="557.4" y="407.9" width="6" height="3.1" rx="1.6" ry="1.6" style="fill:#fff; stroke-width:0px;"/><rect x="567.8" y="408.2" width="20.8" height="3.1" rx="1.6" ry="1.6" style="fill:#fff; stroke-width:0px;"/><rect x="515.6" y="407.9" width="6" height="3.1" rx="1.6" ry="1.6" style="fill:#fff; stroke-width:0px;"/><rect x="524.5" y="408.2" width="20.8" height="3.1" rx="1.6" ry="1.6" style="fill:#fff; stroke-width:0px;"/><rect x="524.3" y="400.9" width="6" height="3.1" rx="1.6" ry="1.6" style="fill:#fff; stroke-width:0px;"/><rect x="556.8" y="400.9" width="6" height="3.1" rx="1.6" ry="1.6" style="fill:#fff; stroke-width:0px;"/><rect x="566" y="400.9" width="6" height="3.1" rx="1.6" ry="1.6" style="fill:#fff; stroke-width:0px;"/><rect x="533.2" y="401.1" width="20.8" height="3.1" rx="1.6" ry="1.6" style="fill:#fff; stroke-width:0px;"/><rect x="533" y="393.8" width="6" height="3.1" rx="1.6" ry="1.6" style="fill:#fff; stroke-width:0px;"/><rect x="565.5" y="393.8" width="6" height="3.1" rx="1.6" ry="1.6" style="fill:#fff; stroke-width:0px;"/><rect x="574.7" y="393.8" width="6" height="3.1" rx="1.6" ry="1.6" style="fill:#fff; stroke-width:0px;"/><rect x="541.8" y="394.1" width="20.8" height="3.1" rx="1.6" ry="1.6" style="fill:#fff; stroke-width:0px;"/><rect x="541.6" y="386.8" width="6" height="3.1" rx="1.6" ry="1.6" style="fill:#fff; stroke-width:0px;"/><rect x="574.2" y="386.8" width="6" height="3.1" rx="1.6" ry="1.6" style="fill:#fff; stroke-width:0px;"/><rect x="583.4" y="386.8" width="6" height="3.1" rx="1.6" ry="1.6" style="fill:#fff; stroke-width:0px;"/><rect x="550.5" y="387" width="20.8" height="3.1" rx="1.6" ry="1.6" style="fill:#fff; stroke-width:0px;"/><path d="m504.9,490.5l-13.3-21.1,41.9-33.4,17.3-19.2c7.1-7.9,19.2-8.5,27.1-1.4,2.5,2.2,4.3,5.1,5.4,8.2h0c3.2,9.8-1.9,20.4-11.6,24l-27.3,10.1-39.3,32.8Z" style="fill:#ffb6b6; stroke-width:0px;"/><path d="m191.7,337.5v102.6h71.9v-102.6c0-1.5-1-2.9-2.4-3.3-.3-.1-.7-.2-1-.2h-64.9c-1.9,0-3.5,1.5-3.5,3.5h0Zm28,35.2c0-4.2,3.5-7.6,7.7-7.6,4.2,0,7.6,3.4,7.6,7.6v11.9c0,4.2-3.5,7.7-7.7,7.6-4.2,0-7.6-3.4-7.6-7.6v-11.9Z" style="fill:#2f2e41; stroke-width:0px;"/><path d="m191.5,436.8v9.9c0,1.1.9,1.9,1.9,1.9h68.4c1.1,0,1.9-.9,1.9-1.9v-9.9h-72.3Z" style="fill:#3f3d56; stroke-width:0px;"/><path d="m78.7,183v187.3c0,5,4,9,9,9h277.5c5,0,9-4,9-9v-187.3c0-5-4-9-9-9H87.7c-5,0-9,4-9,9Z" style="fill:#3f3d56; stroke-width:0px;"/><path d="m85.2,185.3v182.6c0,2.7,2.2,4.8,4.8,4.8h272.9c2.7,0,4.8-2.2,4.8-4.8v-182.6c0-2.7-2.2-4.8-4.8-4.8H90c-2.7,0-4.8,2.2-4.8,4.8Z" style="fill:#fff; stroke-width:0px;"/><path d="m156.4,298.4c0-.6,0-1.1,0-1.7-.1-.5-.5-.5-.7-.9-.6-1-1.2-2.3-1.2-3.5,0-1.1-.4-2.1-.5-3.1,0-.5,0-1.1,0-1.6,0-.3,0-.5,0-.7v-.5c0,0,0-.3,0-.3,0-.1,1.2,0,1.5,0h1.8c1.2.1,2.4.1,3.6,0,2.7-.4,4-1.5,4.6-2,2.5-1.8,3.6-4.7,3.6-4.7.4-.9.4-2.6,1.3-3.3,1-.9,2.8-.8,4-1.3.7-.3,1.2-.5,1.9-.3.5.1,1.5.7,1.7-.1-.2-.1-.2-.3-.3-.4,1,0,0-2.4-.4-2.8-.6-.7-1.6-1-2.7-1.3-1.3-.3-2.4-.7-3.6-.5-2.1.4-1.9-.8-3.2-.8s-4.1,0-4.5,1.5c-.2.7-.4.7-.8,1.2-.3.4,0,.8-.1,1.3-.2.5-.4,2.3-.6,3-.4,1.1-.9,2.4-1.8,2.4-1.3.2-2.3.2-3.4-.2-.6-.2-1.7-.6-2.2-.8-2.4-1-2.8-2.1-2.8-2.1-.3-.4-.9-1.1-1.2-2-.3-1-.8-1.8-.9-2.3-.2-.5-.7-1.4-1-2.3-.5-1.2-1.2-2.1-1.6-2.5-.8-.7-1.4-1.7-3-1.4-.3,0-1.3,0-2,.7-.5.4-.7,1.3-1.2,2.1-.3.4-.8,1.7-1.2,2.7-.3.7-.5,1.3-.8,1.5-.3.2-.6.5-1,.3-.2,0-.5-.2-.8-.4-.4-.3-1.2-1.6-1.6-2.7-.4-.9-1.3-2.2-1.9-2.9-.8-1-1.2-1.3-2.3-1.3-2.4,0-2.6,1.3-3.6,3.3-.5.9-.6,2.2-1.6,3.3-.5.6-2.2,3.1-3.4,3.6h0s0,0,0,0v17.9c0-.2.2-.5.3-.7.5-1,1.5-1.9,2.1-2.9.3-.5.7-1.1.9-1.7.2-.5.3-1.2.5-1.7.3-.5.8-.7,1.4-.8.8-.1,1.5,1.2,2.6,1.7.4.2,2.5.9,3.1,1.1,1,.2,2.1.4,3.2.7.6.1,1.1.2,1.6.2.5,0,2.4.1,2.5.3-1,.5-1.5,1.9-1.9,2.9-.4,1-.6,2.2-1.1,3.2-.5,1.1-1.6,1.6-1.4,2.9,0,.5.1,1.1,0,1.6,0,.6-.3,1.1-.5,1.6-.2.8-.5,3.2-.8,3.9l2.1-.3c.2-.6.4-2.9.5-3.1.4-1.2.9-2.1,1.7-3,.8-.9.7-2,1.2-3,.5-1.1,1.2-2,1.8-3,1.1-1.9,1.9-4.3,4.3-4.8.3,0,1.7,1,2.4,1.7.8.7,1.6,1.6,2.1,2.6,1,1.9,1.8,4.8,2.1,6.3.2.9.3.9.9,1.7.3.3.8,1.3,1,1.7.2.4.5,1.4.7,1.8.1.3.5,1.2.7,1.9h2s0,0,0,0c0,0,0,0,0,0-1-2-1.6-4.3-1.9-6.5h0Z" style="fill:#fff; stroke-width:0px;"/><path d="m155.2,286.8h0c0,0,0,0,0,0Z" style="fill:#484444; stroke-width:0px;"/><path d="m155.2,286.8h0c0,0,0,0,0,0Z" style="fill:url(#linear-gradient); stroke-width:0px;"/><path d="m155.6,303c-.2-.5-.5-1.4-.7-1.8-.2-.4-.7-1.4-1-1.7-.6-.7-.7-.8-.9-1.7-.3-1.6-1.1-4.4-2.1-6.3-.5-1-1.3-1.8-2.1-2.6-.7-.6-2.1-1.7-2.4-1.7-2.4.5-3.2,2.9-4.3,4.8-.6,1-1.3,1.9-1.8,3-.5,1-.4,2.2-1.2,3-.8.9-1.3,1.9-1.7,3,0,.2-.3,2.5-.5,3.1l3.6-.3c3.4.2,2.4,1.5,7.6,1.2l8.3-.3c-.3-.8-.6-1.6-.7-1.9h0Z" style="fill:url(#linear-gradient-2); stroke-width:0px;"/><path d="m179.7,248h-49.1c-4.6,0-8.3,3.7-8.3,8.3v18.1c1.2-.4,2.9-2.9,3.4-3.6.9-1.1,1.1-2.4,1.6-3.3,1.1-2,1.2-3.3,3.6-3.3s1.6.3,2.3,1.3c.5.7,1.4,2,1.9,2.9.5,1,1.3,2.4,1.6,2.7.3.2.5.4.8.4.4.1.7-.1,1-.3.3-.3.5-.8.8-1.5.4-1,.9-2.3,1.2-2.7.5-.8.6-1.6,1.2-2.1.8-.6,1.8-.7,2-.7,1.5-.3,2.2.7,3,1.4.5.4,1.2,1.3,1.6,2.5.4.9.8,1.8,1,2.3.2.5.7,1.3.9,2.3.3.9.9,1.6,1.2,2,0,0,.4,1.1,2.8,2.1.5.2,1.6.6,2.2.8,1,.4,2.1.3,3.4.2.9,0,1.4-1.3,1.8-2.4.2-.6.5-2.4.6-3,.2-.5-.2-.9.1-1.3.4-.5.6-.5.8-1.2.5-1.4,3.1-1.5,4.5-1.5s1.1,1.2,3.2.8c1.2-.2,2.3.2,3.6.5,1.1.3,2.1.6,2.7,1.3.4.5,1.4,2.7.4,2.8,0,.1.2.3.3.4-.2.9-1.2.2-1.7.1-.7-.1-1.2,0-1.9.3-1.2.5-2.9.5-4,1.3-.9.7-.9,2.4-1.3,3.3,0,0-1.1,2.9-3.6,4.7-.6.5-1.9,1.6-4.6,2-1.2.2-2.4.2-3.6.1h-1.8c-.4,0-1.6-.1-1.5,0v.3c-.1.1,0,.4,0,.5,0,.3,0,.5,0,.7,0,.5,0,1,0,1.6,0,1.1.5,2.1.5,3.1,0,1.2.7,2.5,1.2,3.5.2.4.6.4.7.9.2.5,0,1.1,0,1.7.3,2.2,1,4.5,1.9,6.5,0,0,0,0,0,0,1.2-.2,2.4-.6,4-.9,2.9-.4,6.9-.2,9.5-.5,6.6-.6,10.1,2.7,16,1.3v-48.6c0-4.6-3.7-8.3-8.3-8.3Zm-24.5,38.9c0,0,0,0,0,0h0Z" style="fill:url(#linear-gradient-3); stroke-width:0px;"/><path d="m137.4,294.4c.5-1,.7-2.1,1.1-3.2.4-1,.9-2.4,1.9-2.9-.1-.1-2-.2-2.5-.3l-1.6-.2-3.2-.7c-.6-.1-2.7-.9-3.1-1.1-1-.5-1.7-1.8-2.6-1.7-.5,0-1,.3-1.4.8-.3.4-.4,1.2-.5,1.7-.2.6-.6,1.1-.9,1.7-.6,1-1.7,1.9-2.1,2.9,0,.2-.2.4-.3.7v11.2l1.7.4c4.6,1.2,5.7,1.3,10.3.8h.4c.3-.8.6-3.2.8-4,.2-.6.4-1,.5-1.6,0-.6,0-1.1,0-1.6-.1-1.3.9-1.7,1.4-2.9h0Z" style="fill:url(#linear-gradient-4); stroke-width:0px;"/><path d="m208.9,297.9c-2.2,0-4.2-.4-6-1.2s-3.4-1.9-4.6-3.4-2.3-3.2-3-5.3-1.1-4.5-1.1-7.1.4-5,1.1-7.1,1.7-3.8,3-5.2c1.3-1.4,2.8-2.5,4.6-3.2s3.8-1.1,6-1.1,4.2.4,6,1.1,3.4,1.8,4.6,3.3,2.3,3.2,3,5.2,1.1,4.4,1.1,7-.4,5-1.1,7.1-1.7,3.9-3,5.3-2.8,2.6-4.6,3.4-3.8,1.2-6,1.2h0Zm0-6.3c2.2,0,4-1,5.3-2.9,1.3-1.9,1.9-4.5,1.9-7.8s-.6-5.8-1.9-7.6-3-2.7-5.3-2.7-4,.9-5.3,2.7-1.9,4.4-1.9,7.6.6,5.9,1.9,7.8,3,2.9,5.3,2.9h0Zm17.3-10.3c0-2.7.4-5.1,1.2-7.2s1.9-3.9,3.4-5.3c1.4-1.4,3.1-2.6,4.9-3.3,1.9-.8,3.8-1.1,5.9-1.1s3.8.4,5.5,1.3,3,1.8,4.1,3l-4,4.5c-.8-.8-1.7-1.4-2.5-1.8s-1.8-.6-3-.6-2.2.2-3.2.7-1.8,1.2-2.6,2.1c-.7.9-1.3,2-1.7,3.3s-.6,2.7-.6,4.4c0,3.3.7,5.9,2.1,7.8s3.3,2.8,5.7,2.8,2.5-.3,3.5-.8,1.9-1.2,2.7-2.1l4,4.4c-1.4,1.6-2.9,2.8-4.6,3.6s-3.6,1.2-5.6,1.2-4.1-.4-5.9-1.1c-1.8-.7-3.5-1.8-4.9-3.2-1.4-1.4-2.5-3.1-3.3-5.2s-1.2-4.5-1.2-7.2h0Zm28,9.1c0-2.6,1.1-4.6,3.3-6.1,2.2-1.5,5.7-2.4,10.6-2.9,0-1.1-.4-2-1-2.6s-1.6-1-2.9-1-2.1.2-3.2.6-2.2.9-3.4,1.6l-2.6-4.8c1.6-1,3.3-1.7,5-2.3,1.7-.6,3.6-.9,5.5-.9,3.2,0,5.6.9,7.3,2.7,1.7,1.8,2.5,4.6,2.5,8.4v14.1h-6l-.5-2.5h-.1c-1.1.9-2.2,1.7-3.4,2.3s-2.5.9-3.8.9-2.1-.2-3-.6-1.7-.9-2.3-1.6-1.1-1.5-1.5-2.4-.5-1.9-.5-2.9h0Zm7-.5c0,.8.3,1.4.8,1.8s1.2.6,2.1.6,1.6-.2,2.2-.5,1.2-.9,1.9-1.5v-4.3c-2.6.4-4.4.9-5.4,1.6s-1.5,1.5-1.5,2.5h0Zm18.5-17.2h6l.5,3.2h.2c1-1,2.1-1.9,3.3-2.7s2.5-1.1,4.2-1.1,3.2.4,4.2,1.1c1.1.7,1.9,1.7,2.6,3.1,1.1-1.1,2.2-2.1,3.5-2.9s2.6-1.2,4.3-1.2c2.6,0,4.6.9,5.8,2.7s1.9,4.2,1.9,7.3v15.3h-7.3v-14.4c0-1.8-.2-3-.7-3.7s-1.3-1-2.3-1-2.6.8-4.2,2.4v16.6h-7.3v-14.4c0-1.8-.2-3-.7-3.7s-1.3-1-2.3-1-2.6.8-4.2,2.4v16.6h-7.3v-24.6Zm40.6-10.2h7.3v27.5c0,.8.1,1.3.4,1.6s.6.4.9.4h.4c.1,0,.3,0,.5,0l.9,5.4c-.4.2-.9.3-1.5.4s-1.3.2-2.2.2c-1.3,0-2.3-.2-3.2-.6s-1.5-1-2.1-1.7-.9-1.6-1.1-2.6-.3-2.1-.3-3.4v-27.2Z" style="fill:#484444; stroke-width:0px;"/><path d="m135.8,447.9c.6.7,1.4,1.1,2.3,1.1h162.3c1.6,0,3-1.3,3-3,0-.2,0-.4,0-.6l-2.5-12c-.2-1-.9-1.8-1.9-2.2-.3-.1-.7-.2-1.1-.2h-157.3c-.4,0-.7,0-1.1.2-.9.4-1.6,1.2-1.9,2.2l-2.5,12c-.2.9,0,1.8.6,2.5Z" style="fill:#2f2e41; stroke-width:0px;"/><path d="m693.6,441.1c.9,2.6,3.4,4.4,6.2,4.3l26.5-.7c2.8,0,5.2-2,6-4.7l3.7-40.1c1.3.6,2.8.9,4.2.9,5.3-.1,9.5-4.6,9.4-9.9s-4.6-9.5-9.9-9.4c-.6,0-1.2,0-1.7.2-1.3-1.4-3-2.1-4.9-2.1l-40.8,1.1c-.3,0-.7,0-1,.1-3.5.6-5.7,4-5.1,7.4,0,.3.1.6.2.8l7.1,52Zm43.2-43.8l2.7-9.6c.3-1.1.3-2.3,0-3.4.1,0,.2,0,.4,0,3.8,0,7,3,7.1,6.8,0,3.8-2.9,7-6.7,7.1-1.2,0-2.4-.2-3.4-.8Z" style="fill:#2f2e41; stroke-width:0px;"/><path d="m691.4,380.8c.9,5,10.6,8.5,22.4,7.8,10.8-.5,19.6-4.3,21.2-8.8-.6-.2-1.2-.3-1.8-.2l-40.8,1.1c-.3,0-.7,0-1,.1Z" style="fill:#3f3d56; stroke-width:0px;"/><path d="m715.9,419.1c0,0,.1,0,.2,0l5.8-3.8c.2-.2.3-.5.1-.7,0,0,0-.1-.1-.1l-6-3.9c-.2-.2-.5,0-.7.1s0,.5.1.7l5.3,3.5-5.1,3.3c-.2.2-.3.5-.1.7.1.2.3.3.5.2h0Z" style="fill:#6c63ff; stroke-width:0px;"/><path d="m706.8,419.5c.3,0,.4-.3.4-.6,0-.1-.1-.2-.2-.3l-5.3-3,5.1-3.8c.2-.2.3-.5.1-.7s-.5-.3-.7-.1l-5.7,4.3c-.2.2-.3.5-.1.7,0,0,0,.1.2.1l6,3.4c.1,0,.2,0,.4,0Z" style="fill:#6c63ff; stroke-width:0px;"/><path d="m715.3,422.4s0,0,.1,0c.2-.1.3-.5.2-.7,0,0,0,0,0,0l-8.2-13.4c-.1-.2-.5-.3-.7-.2s-.3.5-.2.7l8.2,13.4c.1.2.3.3.5.2Z" style="fill:#6c63ff; stroke-width:0px;"/><path d="m290.7,376.8l.2.7h0s6.5,19.9,6.5,19.9l7.5,22.9,14.1,43v6.7c.1,0,.1,0,.1,0l1,53.7-2.9,7.3,3.3,11.9s-1.5-18-9.6-7.7c-4.6,5.9-9.9,11.9-14.3,17.6,6.4,2.6,12.9,4.9,19.5,7,1.4.5,2.9.9,4.3,1.3.3,0,.6.2.9.3,21.9,6.5,44.5,10.1,67.4,10.8,1.2,0,2.3,0,3.5,0,.4,0,.8,0,1.2,0,1.3,0,2.5,0,3.8,0,2.6,0,5.1,0,7.7-.1,18.9-.5,37.7-3.1,56.1-7.6-.1-7.6-.5-16.4-1-25.9-.2-4.6-5.4-9.7-5.7-14.5-.2-3.7,4.4-7.1,4.1-10.8-1.6-22.8-3.5-14.1-4.9-30.2-.1-1.6-.3-3.1-.4-4.6-.9-10.4-1.6-16.9-1.6-16.9l6.1-38.7,9.6-60.7-.7-1.2-.8-.4-50.8-25.2-2.8-7.1c-1.6-4.2-5.7-6.9-10.1-6.9h-33.5c-3.5-.2-6.8,1.5-8.9,4.4l-9.1,12.6-60,38.5Z" style="fill:#3f3d56; stroke-width:0px;"/><path d="m326.8,453.7l-7.6,16.2-5.2,11.1-8.9,46.6-4.5,4.7-3.8-16.8-40,8.9c-1.3-7.3-.4.2-1.2-7.8.2-.2.5-.5.7-.7.6-.6,1.2-1.2,1.2-1.7-.5-27.6.9-74.5,12.3-103,1.8-4.6,4.2-9,7-13.1.2-.3.4-.6.7-.9,5.3-7.4,8.6-14.6,13.3-19.8h0s0,0,0,0c0,0,0,0,0,0l32.4-17.2,1.4,39.1,1,28.1.9,26.2Z" style="fill:#3f3d56; stroke-width:0px;"/><path d="m443.8,458.3l9.5,20.3,3.3,7.1,8.9,46.6,4.4,4.7,3.8-16.8,1.8-.4,32.5-6.7,9.5,30c4.4-7.3,3-16.7-3.3-22.5-.6-.6-1.2-1.2-1.2-1.7.5-32.4-1.4-91.7-19.4-116.1-5.7-7.7-9.1-15.4-14.1-20.8,0,0,0,0,0,0l-12.1-19.8-.7-1.2-.8-.4-22.1,97.7Z" style="fill:#3f3d56; stroke-width:0px;"/><circle id="a657ec4b-47ce-4d2a-9c58-81a811696ca9" cx="386.4" cy="267.2" r="44.6" style="fill:#ffb6b6; stroke-width:0px;"/><path d="m446.6,236.1c-.7-.7-1.7-1.2-2.7-1.2l.7-1.9c.7-1.8-.2-3.9-2.1-4.5-.6-.2-1.3-.3-1.9-.2l-2.4.5.2-1.6c.3-1.9-1.1-3.7-3-4-.6,0-1.2,0-1.7.2-1.1.4-2.3.3-3.2-.2-1-.5-1.7-1.5-1.9-2.6l-.8-4.1v-.2c-4.2-6.9-12.2-11.9-21.9-13.8-8.7-1.6-17.6-.8-26.1,0-3.4.3-7.2.7-10.4,2.6-2.7,1.7-5,5-4.5,8.4-8.5-2.6-17.5,2.6-22,9.1-5.3,7.8-6.2,17.5-6.3,25.1-.4,18,3.3,32.7,11,43.7.6.8.7,2.5,1.8,3l-.2-.4c1.2.6,2.5,1.6,2,2.7-1.3,3.1,7.6,9.9,13.9,12.1,11.5,4.1,26.9,3.8,37.6,2.3l.4-2.5c3.9-.5,6.6-1.5,7.4-3.1,1.4-1.2,2.5-2.2,3.5-3.2h0s0,0,0,0c4.9-4.7,6-7.3,6.5-11.4.5-4-.4-8-1.3-11.6,18.7,2.9-7.4-20,10.1-24.4.2,0,.4-.1.6-.1.5-.1,1-.2,1.5-.4,2.4-.6,4.6-1.6,6.7-2.9,4.9-3,6.5-6.9,9-11.4.7-1.3.6-2.9-.5-4Z" style="fill:#2f2e41; stroke-width:0px;"/><path d="m544,461.4c0,1.8,0,4.2-.1,7.2,0,.4,0,.8,0,1.3-.1,5.6-.3,10.2-.5,15.4,0,.4,0,.7,0,1.1-.3,7.2-.7,15.7-1.5,29-1.4,24.7-3.9,3.4-6.3,12-.1.4-.2.9-.4,1.5-.4,2.2-1,4.3-1.9,6.3-1.3.8-2.7,1.5-4,2.3-3.8,2.1-7.6,4.1-11.5,6.1-2.2,1.1-4.4,2.1-6.6,3.2-.3.2-.7.3-1,.5-11.3,5.2-22.9,9.6-34.8,13.3-2.3.7-4.6,1.4-7,2-2.4.7-4.9,1.3-7.3,1.9-18.4,4.5-37.2,7.1-56.1,7.6-2.5,0-5.1.1-7.7.1s-2.5,0-3.8,0c-.4,0-.8,0-1.2,0-1.1,0-2.3,0-3.5,0-22.8-.7-45.5-4.4-67.3-10.8l-.9-.3c-1.4-.4-2.9-.9-4.3-1.3-6.6-2.1-13.1-4.4-19.5-7-4.9-2-9.7-4.1-14.5-6.3,0,0,0,0-.1,0-1-.5-2-.9-3-1.4-.1,0-.3-.1-.4-.2-3.7-1.8-7.4-3.7-11.1-5.7-3.1-7.1-7.4-8.4-10.1-14.6-.8-1.8-1.3-3.8-1.7-5.7,0,0,0,0,0,0,.3,3.7-1.2-6.6,0,0,0-.1,0-.2,0-.4,0-.4,0-.8-.1-1.3-3.4-33.5-3.2-71.8-4.7-103.3-.1-2-.2-4-.3-5.9,0-.6,0-1.2-.1-1.8,0-.2.1-.4.2-.5,0,0,0-.1,0-.2,0,0,0-.1.1-.2,0,0,0,0,0,0,0,0,0,0,0,0,0-.1.2-.3.3-.4,0,0,0-.1.1-.2,0,0,0,0,.1-.1,0,0,0,0,.1-.1,0,0,0,0,.1-.1,0,0,0,0,0,0,0,0,.2-.2.3-.2.4-.3.7-.6,1.1-.9.1,0,.3-.2.4-.3,1-.6,2.1-1.1,3.2-1.5.4-.1.8-.3,1.2-.4.1,0,.3,0,.4-.1.2,0,.4-.1.7-.2,1.1-.3,2.4-.6,3.7-.9.2,0,.3,0,.5,0,.2,0,.5,0,.7-.1.3,0,.7-.1,1-.2,3-.5,6.3-.8,10.1-1,.4,0,.7,0,1,0,.4,0,.8,0,1.2,0,.4,0,.7,0,1.1,0,.4,0,.7,0,1.1,0,1,0,2,0,3.1,0,3,0,6.2,0,9.5,0,1.5,0,3.1,0,4.8.2.1,0,.2,0,.3,0,1.4,0,2.8.1,4.3.2,1,0,2,0,3.1.2,1,0,1.9.1,2.9.2.8,0,1.5,0,2.3.2.7,0,1.3,0,2,.1h.9c.5,0,1,.1,1.5.2,1.1,0,2.2.2,3.3.3,1.1,0,2.2.2,3.4.3s2.3.2,3.4.3c.1,0,.2,0,.3,0,1,.1,2.1.2,3.1.3.2,0,.5,0,.7,0,1,.1,2,.2,3,.3.3,0,.6,0,.9,0,.8,0,1.6.2,2.4.3,1,.1,2.1.2,3.2.4.8,0,1.6.2,2.4.3,1.3.2,2.6.3,3.8.5.5,0,1,.1,1.5.2,3.7.5,7.4,1,11.2,1.5,5.7.8,11.5,1.7,17.4,2.6,5.9,1,11.8,2,17.7,3,1.5.3,3,.5,4.5.8.7.1,1.4.3,2,.4,1.2.2,2.3.4,3.5.7,1.2.2,2.3.4,3.5.7,1.4.3,2.8.5,4.2.8,9.1,1.8,18.1,3.7,27,5.7,1.5.3,2.9.7,4.3,1,2.9.7,5.7,1.3,8.6,2,.8.2,1.5.4,2.3.6,1.9.5,3.8,1,5.7,1.5h.3c1.4.4,2.8.8,4.1,1.1,3.2.8,6.4,1.7,9.5,2.5,2.1.6,4.1,1.1,6.1,1.7,3,.9,6,1.8,8.8,2.6.7.2,1.4.4,2.1.7,2.1.7,4.2,1.3,6.2,2,1.6.5,3.2,1,4.7,1.6,1.5.5,3,1.1,4.5,1.6,1,.3,1.9.7,2.8,1,1.3.5,2.7,1,4,1.5.4.2.8.3,1.2.5.2.1.5.2.7.3.5.2,1,.4,1.4.6.5.2.9.4,1.4.6.5.2.9.4,1.3.6.5.2.9.4,1.3.6.4.2.7.3,1.1.5.7.3,1.4.6,2.1.9.3.2.7.3,1,.5l.8.4c.1,0,.2.1.3.2.2.1.5.2.8.4.6.3,1.2.6,1.7.8.8.4,1.5.8,2.2,1.1.7.4,1.4.8,2.1,1.1.1,0,.2.1.3.2.2,0,.3.2.5.2.5.3,1,.6,1.5.9,1,.6,1.9,1.2,2.7,1.8.2.1.4.3.6.4.6.5,1.2.9,1.8,1.3t0,0c.2.1.4.3.5.4.2.1.3.3.5.4.5.5,1,.9,1.4,1.3.1.1.3.3.4.4,0,0,.1.1.2.2.2.2.4.4.5.6,0,0,0,0,0,0,.2.3.5.6.7.8,0,.1.2.3.3.4.1.2.2.3.3.5,0,.1.2.3.2.4.2.4.4.7.5,1.1.1.3.2.5.3.8,0,.3.1.5.2.8Z" style="fill:#2f2e41; stroke-width:0px;"/><path d="m544,461.4c0,1.8,0,4.2-.1,7.2,0,.4,0,.8,0,1.3,0,4.2-.2,9.5-.5,15.4,0,.4,0,.7,0,1.1-.3,7.2-.7,15.7-1.5,29-1.4,24.7-3.9,3.4-6.3,12-6.9-4.2-14.4-8.6-22.4-13.2-1.4-.8-2.9-1.6-4.4-2.5-16.1-9-34-18.4-52.8-27.7-.7-.4-1.5-.7-2.2-1.1-43-21.2-89.8-41.9-127.8-55.7-7.3-2.7-14.3-5.1-20.9-7.2-13.9-4.4-25.8-7.5-35.1-8.9-9.6-1.4-16.2-.9-18.9,2-.1-2-.2-4-.3-5.9,0-.6,0-1.2-.1-1.8,0-.2.1-.3.2-.5,0,0,0,0,0,0,0,0,0-.1,0-.2,0,0,0-.1.1-.2,0,0,0-.1.1-.2,0-.1.2-.3.3-.4,0-.1.2-.2.3-.3,0,0,0,0,.1-.1,0,0,0,0,.1-.1,0,0,0,0,0,0,0,0,.2-.2.3-.2.4-.3.7-.6,1.1-.9.1,0,.3-.2.4-.3,1-.6,2.1-1.1,3.2-1.5.4-.1.8-.3,1.2-.4.1,0,.3,0,.4-.1.2,0,.4-.1.7-.2,1.1-.3,2.4-.6,3.7-.9.4,0,.8-.2,1.2-.2.3,0,.7-.1,1-.2,3-.5,6.3-.8,10.1-1,.4,0,.7,0,1,0,.4,0,.8,0,1.2,0,.4,0,.7,0,1.1,0,.4,0,.7,0,1.1,0,1,0,2,0,3.1,0,3,0,6.2,0,9.5,0,1.5,0,3.1,0,4.8.2.1,0,.2,0,.3,0,1.4,0,2.8.1,4.3.2,1,0,2,0,3.1.2,1,0,1.9.1,2.9.2.8,0,1.5,0,2.3.2.7,0,1.3,0,2,.1.8,0,1.6.1,2.4.2,1.1,0,2.2.2,3.3.3,1.1,0,2.2.2,3.4.3s2.3.2,3.4.3c.1,0,.2,0,.3,0,1,.1,2.1.2,3.1.3,5.8.6,11.8,1.3,18,2.1,3.7.5,7.4,1,11.2,1.5,5.7.8,11.5,1.7,17.4,2.6,5.9,1,11.8,2,17.7,3,1.5.3,3,.5,4.5.8,1.8.3,3.7.7,5.5,1,1.2.2,2.3.4,3.5.7,1.4.3,2.8.5,4.2.8,9.1,1.8,18.1,3.7,27,5.7,1.5.3,2.9.7,4.3,1,2.9.7,5.7,1.3,8.6,2,.8.2,1.5.4,2.3.6,1.9.5,3.8,1,5.7,1.4h0c.1,0,.2,0,.3,0,1.4.3,2.8.7,4.1,1.1,3.2.8,6.4,1.7,9.5,2.5,2.1.6,4.1,1.2,6.1,1.7,3,.9,6,1.8,8.8,2.6.7.2,1.4.4,2.1.7,2.1.7,4.2,1.3,6.2,2,1.6.5,3.2,1,4.7,1.6,1.5.5,3,1.1,4.5,1.6,1,.3,1.9.7,2.8,1,1.4.5,2.7,1,4,1.5.4.2.8.3,1.2.5.7.3,1.4.6,2.1.9.5.2.9.4,1.4.6.5.2.9.4,1.3.6.5.2.9.4,1.3.6.4.2.7.3,1.1.5.7.3,1.4.6,2.1.9.3.2.7.3,1,.5l.8.4c.1,0,.2.1.3.2.8.4,1.7.8,2.5,1.2.8.4,1.5.8,2.2,1.1.8.4,1.6.9,2.4,1.3.2,0,.3.2.5.2.5.3,1,.6,1.5.9,1,.6,1.9,1.2,2.7,1.8.8.6,1.6,1.2,2.3,1.7t0,0c.3.3.7.6,1,.8.5.5,1,.9,1.4,1.3.1.1.3.3.4.4,0,0,.1.1.2.2.2.2.4.5.6.7.2.3.5.6.7.8,0,.1.2.3.3.4.1.2.2.3.3.5,0,.1.2.3.2.4.2.4.4.7.5,1.1.1.3.2.5.3.8,0,.3.1.5.2.8Z" style="isolation:isolate; opacity:.2; stroke-width:0px;"/></svg>