<?xml version="1.0" encoding="UTF-8"?><svg id="Layer_1" xmlns="http://www.w3.org/2000/svg" width="667.4" height="589.5" viewBox="0 0 667.4 589.5"><path d="m517,377.6c-2.1-3.7-.9-8.4,2.8-10.6.4-.2.8-.4,1.2-.6l-.4-27.4,12,7.7-1.5,24.9c1.2,4.1-1.2,8.4-5.3,9.6-3.4,1-7.1-.5-8.9-3.6Z" style="fill:#a0616a; stroke-width:0px;"/><path d="m502.5,228.7c-7.3,1.3-12.8,7.6-12.9,15.1-.2,8,2.5,11,6.3,12.1,7,2,18.1,42.4,18.1,42.4,0,0,1.2,37.7,3.1,35.9s-.3,2.5.3,3.8-2.7,3.3.4,4.8,1.2,13.5,1.2,13.5l14-1s-2.3-9.8.8-10.4,1.7-3.4.4-5.5,2.3-5.1.5-6.1,3.2-40,3.2-40l-19.5-57.5c-3.4-5.4-9.7-8.2-16-7.1Z" style="fill:#0085d5; stroke-width:0px;"/><polygon points="460 230.9 470.1 213.3 483.7 213.3 493.9 231.9 460 230.9" style="fill:#0085d5; stroke-width:0px;"/><path d="m432.9,72.2c-8-27-30.8-44.6-58.3-48.4-.3,0-.6,0-.9,0-.4-.1-.8-.2-1.2-.3-37.8-4.9-79,3.9-111.8,24.4-31.5,19.7-67.6,30.8-104.7,30.5-1.2,0-2.3,0-3.5,0-28.6,1.4-53.8,22.2-61.5,49.6-1,3.6.8,6.8,3.6,8.8,5,3.6,8.4,6.1,14.5,7.4,11,2.3,21.9,4.5,33,6.4v-43.9c0-8.7,7-15.7,15.7-15.7h215.5c8.7,0,15.7,7,15.7,15.7v54.7c3-.9,5.8-2.1,8.6-3.4,10.4-5.1,19.3-12.9,25.8-22.5,12.5-18.1,15.8-42.4,9.5-63.4Z" style="fill:#ededee; stroke-width:0px;"/><path d="m342.2,329.3h-190.5c-9.2,0-16.6-7.4-16.6-16.6v-73.9c-23.2-7.1-47.6-9.2-71.7-6.3-.4,0-.8.2-1.2.3-.3,0-.6,0-.9,0-27.5,3.9-50.2,21.5-58.3,48.4-6.3,21-3,45.3,9.5,63.4,6.5,9.6,15.4,17.4,25.8,22.5,14.3,6.9,29.3,7.4,44.9,7.9,46.8,1.5,93.7-.3,140.3-5.3,22.9-2.5,45.7-5.7,68.5-9.6,11.6-2,23.2-4.3,34.8-6.7,6.1-1.3,9.5-3.8,14.5-7.4,2.8-2,4.6-5.2,3.6-8.8-.8-2.7-1.7-5.3-2.8-7.8Z" style="fill:#ededee; stroke-width:0px;"/><path d="m359,307.4h-186.9c-7.5,0-13.6-6.1-13.6-13.6V120c0-7.5,6.1-13.6,13.6-13.6h186.9c7.5,0,13.6,6.1,13.6,13.6v173.7c0,7.5-6.1,13.6-13.6,13.6Z" style="fill:#e6e6e6; stroke-width:0px;"/><path d="m319.7,298.2h-138.4c-7.5,0-13.6-6.1-13.6-13.6v-155.4c0-7.5,6.1-13.6,13.6-13.6h168.6c7.5,0,13.6,6.1,13.6,13.6v125.2c0,24.2-19.6,43.7-43.8,43.8Z" style="fill:#fff; stroke-width:0px;"/><polygon points="528.5 578.3 519.4 578.3 515.1 543.4 528.5 543.4 528.5 578.3" style="fill:#a0616a; stroke-width:0px;"/><path d="m528.8,587.8h-27.8v-.4c0-6,4.8-10.8,10.8-10.8h0l5.1-3.9,9.5,3.9h2.4s0,11.2,0,11.2Z" style="fill:#2f2e41; stroke-width:0px;"/><polygon points="460.5 578.3 451.4 578.3 447.1 543.4 460.5 543.4 460.5 578.3" style="fill:#a0616a; stroke-width:0px;"/><path d="m460.8,587.8h-27.8v-.4c0-6,4.8-10.8,10.8-10.8h0l5.1-3.9,9.5,3.9h2.4s0,11.2,0,11.2Z" style="fill:#2f2e41; stroke-width:0px;"/><path d="m531.3,549.4c3.3-2.2,1.4-2,1.4-2,0,0-7.4-59.9-13-78l-6.5-88.3s-.4,1.8,0-2.5,3.4-1.3.4-4.3-5-4.5-3-6.8,7.5-6.8,4.3-9.5-9.7-20.6-9.7-20.6l-62.5.5,2.5-.5s-7.8-2.9-4.2.9-2,13-4,22c-1.7,7.5-6.6,9.4,0,11,6.6,1.6.6,6,.6,6,0,0-9.9,47.1-2.4,78.1,0,0,5.2,76.7,7.8,83.3,2.6,6.6,3.6,2.6,2.6,6.6s-3-3-1,4c1.1,3.7,2,7.4,2.6,11.1l13.6-1s3.1-9.9,0-12.5-1,5,2.4-.8-.6-3.8-1.6-11.8,8.2-45.3,1.6-68.1l12.2-64.2,19.3,66.4s10.3,81.1,13.6,84c3.3,2.9,2-4.1,3.3,2.9,1.4,7,4.4,5.2,4.4,6-.9,9.2,15.3.1,15.3.1-.2-2.3-.2-4.7,0-7,.3-2.1-3.3-2.8,0-5Z" style="fill:#2f2e41; stroke-width:0px;"/><path d="m449,358.3c-4,0-15-5.4-13-7.7s2-9.9,2-12.1,9-83.2,9-83.2l-.7-19.8c-.2-4.9,3.7-9,8.6-9.2.1,0,.2,0,.3,0l8.8-3,25-1,12.5,4c4,0,7.2,3.2,7.2,7.2,0,1.1-.3,2.3-.8,3.3h0c6.6,10.8,9.9,23.3,9.6,36-.3,9.5-5.1,21-6.2,31.7-.1.9-.2,1.9-.2,2.8,0,.3-2.1,1.5,0,.8s-1.1,1.9,0,3.6,3.1.6,0,2.6,3.6,21.3,3,22c-2,2-6,3-3,6s6,1,2,5-16,11-16,11h-48Z" style="fill:#3f3d56; stroke-width:0px;"/><circle cx="475.7" cy="189.2" r="21.5" style="fill:#a0616a; stroke-width:0px;"/><path d="m344.6,255.9c3.9-1.7,8.5,0,10.2,3.9.2.4.3.8.4,1.3l27.3,2.6-8.9,11.1-24.6-4.2c-4.2.7-8.2-2.1-9-6.3-.6-3.5,1.3-7,4.6-8.5h0Z" style="fill:#a0616a; stroke-width:0px;"/><path d="m474.2,239.9c-1.3-7.3-7.6-12.8-15.1-12.9-8-.2-11,2.5-12.1,6.3-2,7-34.2,31.6-34.2,31.6l-27.7-3c-1.7-.5-.9-2.1-7.1-.8-3.1-2-5.1-1.7-6.8-.7l-10.2-1.1,1,16s11-2.6,13,2,1.6,5.3,6,2,4,0,4,0l32,8,50.1-31.4c5.4-3.4,8.2-9.7,7.1-16h0Z" style="fill:#0085d5; stroke-width:0px;"/><path d="m484.1,208.4l1.4.5c-4.4.4-12.3,2.8-11.5,1.5s-2.1-6.5-.7-7.1c1.5-.5,2.8-1.4,3.8-2.6.9-1.3.9-3.3-.5-4.1-1.3-.8-2.9,0-4.2.8-1.3.8-3.7-10.4-3.1-13.9-3.7-2-8.1,1.8-12.2,1.1-2.5-.5-4.3-2.5-5.5-4.9,1.9-1.8,3.2-4,4-6.4-1.7.9-3.6,1.5-5.5,1.8-.3-1.8-.3-3.7.1-5.5.7-2.9,2.8-5.3,5.6-6.3,2.9-1,6,.2,7.6,2.8.2-2.8-1.5-5.4-4.1-6.4,3.3-1.7,7.4-.4,9.1,2.9.3.5.5,1.1.6,1.7,4.5-2.3,9.7-2.8,14.6-1.6,4.8,1.3,11.3,6.6,11.3,6.6,10.9,2.4,10.4,43.9-10.9,39.1Z" style="fill:#2f2e41; stroke-width:0px;"/><path d="m598.1,579.2c.7,0,1.2-.5,1.3-1.2,0-.4-.1-.7-.4-.9v-.3c0,0,0,0,0,0,.7-1.7,2.6-2.4,4.3-1.7.8.3,1.4,1,1.7,1.8,1,2.4,2.2,4.8,2.5,7.3.1,1.1,0,2.2-.2,3.3,2.3-5,3.5-10.5,3.5-16.1,0-1.4,0-2.8-.2-4.2-.1-1.1-.3-2.3-.5-3.4-1.2-6.1-3.9-11.8-7.8-16.6-1.9-1-3.4-2.6-4.3-4.5-.3-.7-.6-1.4-.7-2.2.4-1.1.6-2.2.6-3.4.3-.4.8-.7,1.1-1.1,1.6-2.2,3.8-1.8,5,1.2,2.5,1.2,2.5,3.3,1,5.3-1,1.3-1.1,3-1.9,4.3,0,.1.2.2.3.3,1.6,2,3,4.2,4.1,6.5-.3-2.6,0-5.2,1-7.6.9-2.3,2.7-4.2,4.2-6.1,1.1-1.5,3.3-1.7,4.7-.6.7.5,1.2,1.4,1.3,2.2h0c-.2.2-.5.4-.7.5-.8.5-1,1.5-.5,2.3.3.4.7.6,1.1.7h0c0,.8-.2,1.7-.4,2.5,2,7.7-2.3,10.5-8.4,10.6-.1,0-.3.1-.4.2,1.2,3.3,1.9,6.7,2.2,10.2.2,2.1.1,4.1,0,6.2h0c.4-2.4,1.7-4.4,3.4-5.9,2.7-2.2,6.4-3,9.3-4.7.9-.6,2.1-.3,2.6.6.2.4.3.8.3,1.3h0c-.4.3-.8.5-1.2.7-.2.1-.5.3-.7.4-.8.5-1,1.5-.5,2.3.3.4.7.6,1.1.7h0s0,0,0,0c-.7,1.7-1.8,3.3-3,4.7-1.2,6.7-6.6,7.3-12.3,5.4h0c-.6,2.7-1.5,5.4-2.7,7.9h-9.7c0-.1,0-.2,0-.3.9,0,1.8,0,2.7-.2-.7-.9-1.4-1.8-2.1-2.6,0,0,0,0,0,0-.4-.5-.7-.9-1.1-1.3h0c0-1.4.1-2.8.5-4.1h0Z" style="fill:#f2f2f2; stroke-width:0px;"/><path d="m276.5,589.2l389.7.3c.7,0,1.2-.5,1.2-1.2,0-.7-.5-1.2-1.2-1.2l-389.7-.3c-.7,0-1.2.5-1.2,1.2,0,.7.5,1.2,1.2,1.2Z" style="fill:#cacaca; stroke-width:0px;"/><path d="m256.6,422.3c-7.8,0-14.1-6.3-14.1-14.1s6.3-14.1,14.1-14.1,14.1,6.3,14.1,14.1h0c0,7.8-6.3,14.1-14.1,14.1Zm0-26.3c-6.7,0-12.1,5.4-12.1,12.1s5.4,12.1,12.1,12.1,12.1-5.4,12.1-12.1h0c0-6.7-5.4-12.1-12.1-12.1Z" style="fill:#f2f2f2; stroke-width:0px;"/><path d="m262.2,407.5l-4.4-5.3c-.5-.6-1.3-.6-1.8-.2,0,0-.1,0-.1.1l-4.7,5.3c-.5.5-.4,1.4.1,1.8.5.5,1.3.4,1.8-.1l2.4-2.8v6.9c0,.7.6,1.3,1.3,1.3.7,0,1.3-.6,1.3-1.3h0v-6.7l2.1,2.5c.5.6,1.3.6,1.8.2.6-.5.6-1.3.2-1.8h0Z" style="fill:#f2f2f2; stroke-width:0px;"/><path d="m417.6,213.3c-7.8,0-14.1-6.3-14.1-14.1s6.3-14.1,14.1-14.1,14.1,6.3,14.1,14.1h0c0,7.8-6.3,14.1-14.1,14.1Zm0-26.3c-6.7,0-12.1,5.4-12.1,12.1s5.4,12.1,12.1,12.1,12.1-5.4,12.1-12.1h0c0-6.7-5.4-12.1-12.1-12.1h0Z" style="fill:#f2f2f2; stroke-width:0px;"/><path d="m423.2,198.5l-4.4-5.3c-.5-.6-1.3-.6-1.8-.2,0,0-.1,0-.1.1l-4.7,5.3c-.5.5-.4,1.4.1,1.8.5.5,1.3.4,1.8-.1l2.4-2.8v6.9c0,.7.6,1.3,1.3,1.3s1.3-.6,1.3-1.3h0v-6.7l2.1,2.5c.5.6,1.3.6,1.8.2.6-.5.6-1.3.2-1.8h0Z" style="fill:#f2f2f2; stroke-width:0px;"/><path d="m98.6,201.3c-7.8,0-14.1-6.3-14.1-14.1,0-7.8,6.3-14.1,14.1-14.1,7.8,0,14.1,6.3,14.1,14.1h0c0,7.8-6.3,14.1-14.1,14.1Zm0-26.3c-6.7,0-12.1,5.4-12.1,12.1,0,6.7,5.4,12.1,12.1,12.1,6.7,0,12.1-5.4,12.1-12.1h0c0-6.7-5.4-12.1-12.1-12.1h0Z" style="fill:#f2f2f2; stroke-width:0px;"/><path d="m104.2,186.5l-4.4-5.3c-.5-.6-1.3-.6-1.8-.2,0,0-.1,0-.1.1l-4.7,5.3c-.5.5-.4,1.4.1,1.8.5.5,1.3.4,1.8-.1l2.4-2.8v6.9c0,.7.6,1.3,1.3,1.3.7,0,1.3-.6,1.3-1.3v-6.7l2.1,2.5c.5.6,1.3.6,1.8.2.6-.5.6-1.3.2-1.8h0Z" style="fill:#f2f2f2; stroke-width:0px;"/><path d="m211.6,28.3c-7.8,0-14.1-6.3-14.1-14.1,0-7.8,6.3-14.1,14.1-14.1s14.1,6.3,14.1,14.1h0c0,7.8-6.3,14.1-14.1,14.1Zm0-26.3c-6.7,0-12.1,5.4-12.1,12.1,0,6.7,5.4,12.1,12.1,12.1,6.7,0,12.1-5.4,12.1-12.1h0c0-6.7-5.4-12.1-12.1-12.1h0Z" style="fill:#f2f2f2; stroke-width:0px;"/><path d="m217.2,13.5l-4.4-5.3c-.5-.6-1.3-.6-1.8-.2,0,0-.1,0-.1.1l-4.7,5.3c-.5.5-.4,1.4.1,1.8.5.5,1.3.4,1.8-.1l2.4-2.8v6.9c0,.7.6,1.3,1.3,1.3.7,0,1.3-.6,1.3-1.3v-6.7l2.1,2.5c.5.6,1.3.6,1.8.2.6-.5.6-1.3.2-1.8h0Z" style="fill:#f2f2f2; stroke-width:0px;"/><path d="m60.6,306.3c-7.8,0-14.1-6.3-14.1-14.1s6.3-14.1,14.1-14.1c7.8,0,14.1,6.3,14.1,14.1h0c0,7.8-6.3,14.1-14.1,14.1Zm0-26.3c-6.7,0-12.1,5.4-12.1,12.1,0,6.7,5.4,12.1,12.1,12.1,6.7,0,12.1-5.4,12.1-12.1,0-6.7-5.4-12.1-12.1-12.1h0Z" style="fill:#fff; stroke-width:0px;"/><path d="m66.2,291.5l-4.4-5.3c-.5-.6-1.3-.6-1.8-.2,0,0-.1,0-.1.1l-4.7,5.3c-.5.5-.4,1.4.1,1.8.5.5,1.3.4,1.8-.1l2.4-2.8v6.9c0,.7.6,1.3,1.3,1.3.7,0,1.3-.6,1.3-1.3v-6.7l2.1,2.5c.5.6,1.3.6,1.8.2.6-.5.6-1.3.2-1.8h0Z" style="fill:#fff; stroke-width:0px;"/><path d="m366.6,69.3c-7.8,0-14.1-6.3-14.1-14.1s6.3-14.1,14.1-14.1,14.1,6.3,14.1,14.1h0c0,7.8-6.3,14.1-14.1,14.1Zm0-26.3c-6.7,0-12.1,5.4-12.1,12.1s5.4,12.1,12.1,12.1,12.1-5.4,12.1-12.1c0-6.7-5.4-12.1-12.1-12.1Z" style="fill:#fff; stroke-width:0px;"/><path d="m372.2,54.5l-4.4-5.3c-.5-.6-1.3-.6-1.8-.2,0,0-.1,0-.1.1l-4.7,5.3c-.5.5-.4,1.4.1,1.8.5.5,1.3.4,1.8-.1l2.4-2.8v6.9c0,.7.6,1.3,1.3,1.3.7,0,1.3-.6,1.3-1.3h0v-6.7l2.1,2.5c.5.6,1.3.6,1.8.2.6-.5.6-1.3.2-1.8h0Z" style="fill:#fff; stroke-width:0px;"/><path d="m252.8,210.6h12.4l-6.5-10.5-12,19h-5.5l14.6-22.9c.6-.9,1.7-1.5,2.9-1.5s2.2.5,2.8,1.4l14.7,22.9h-5.5l-2.6-4.3h-12.5l-2.7-4.3h0Zm56.8,4.3v-19.9h-4.6v21.8c0,.6.2,1.2.7,1.6.4.4,1,.7,1.7.7h21.2l2.7-4.3h-21.6Zm-76.7-3.6c4.5,0,8.2-3.6,8.2-8.1s-3.7-8.2-8.2-8.2h-20.3v24.1h4.6v-19.9h15.3c2.2,0,3.9,1.8,3.9,3.9s-1.7,3.9-3.9,3.9h-13.1s13.8,12,13.8,12h6.7l-9.3-7.8h2.1Zm-48.8,7.8c-6.7,0-12.1-5.4-12.1-12s5.4-12.1,12.1-12.1h14c6.7,0,12.1,5.4,12.1,12.1s-5.4,12-12.1,12h-14Zm13.7-4.3c4.3,0,7.8-3.5,7.8-7.8s-3.5-7.8-7.8-7.8h-13.4c-4.3,0-7.8,3.5-7.8,7.8s3.5,7.8,7.8,7.8h13.4Zm88.1,4.3c-6.7,0-12.1-5.4-12.1-12s5.4-12.1,12.1-12.1h16.6l-2.7,4.3h-13.6c-4.3,0-7.8,3.5-7.8,7.8s3.5,7.8,7.8,7.8h16.7l-2.7,4.3h-14.3Zm56.7-4.3c-3.6,0-6.6-2.4-7.5-5.7h19.8l2.7-4.3h-22.6c.9-3.3,3.9-5.7,7.5-5.7h13.6l2.8-4.3h-16.7c-6.7,0-12.1,5.4-12.1,12.1s5.4,12,12.1,12h14.3l2.7-4.3h-16.7Z" style="fill:#ea1b22; stroke-width:0px;"/></svg>