<?xml version="1.0" encoding="UTF-8"?><svg id="Layer_1" xmlns="http://www.w3.org/2000/svg" width="786.8" height="572.2" xmlns:xlink="http://www.w3.org/1999/xlink" viewBox="0 0 786.8 572.2"><defs><linearGradient id="linear-gradient" x1="2113.7" y1="-1011.1" x2="2037.9" y2="-877.3" gradientTransform="translate(-388.7 5.7) scale(.3 -.3)" gradientUnits="userSpaceOnUse"><stop offset="0" stop-color="#fb7655"/><stop offset="0" stop-color="#fb7655"/><stop offset=".4" stop-color="#e42b1e"/><stop offset="1" stop-color="#900"/><stop offset="1" stop-color="#900"/></linearGradient><linearGradient id="linear-gradient-2" x1="2151.4" y1="-898.7" x2="2053.8" y2="-833.1" gradientTransform="translate(-388.7 5.7) scale(.3 -.3)" gradientUnits="userSpaceOnUse"><stop offset="0" stop-color="#871101"/><stop offset="0" stop-color="#871101"/><stop offset="1" stop-color="#911209"/><stop offset="1" stop-color="#911209"/></linearGradient><linearGradient id="linear-gradient-3" x1="2073.3" y1="-1015.1" x2="1975.6" y2="-949.6" xlink:href="#linear-gradient-2"/><linearGradient id="linear-gradient-4" x1="1868.3" y1="-851.2" x2="1883.4" y2="-949.6" gradientTransform="translate(-388.7 5.7) scale(.3 -.3)" gradientUnits="userSpaceOnUse"><stop offset="0" stop-color="#fff"/><stop offset="0" stop-color="#fff"/><stop offset=".2" stop-color="#e57252"/><stop offset=".5" stop-color="#de3b20"/><stop offset="1" stop-color="#a60003"/><stop offset="1" stop-color="#a60003"/></linearGradient><linearGradient id="linear-gradient-5" x1="1972.4" y1="-759.4" x2="1978" y2="-859.8" gradientTransform="translate(-388.7 5.7) scale(.3 -.3)" gradientUnits="userSpaceOnUse"><stop offset="0" stop-color="#fff"/><stop offset="0" stop-color="#fff"/><stop offset=".2" stop-color="#e4714e"/><stop offset=".6" stop-color="#be1a0d"/><stop offset="1" stop-color="#a80d00"/><stop offset="1" stop-color="#a80d00"/></linearGradient><linearGradient id="linear-gradient-6" x1="2064.8" y1="-666.5" x2="2081.5" y2="-738.5" gradientTransform="translate(-388.7 5.7) scale(.3 -.3)" gradientUnits="userSpaceOnUse"><stop offset="0" stop-color="#fff"/><stop offset="0" stop-color="#fff"/><stop offset=".2" stop-color="#e46342"/><stop offset=".4" stop-color="#c82410"/><stop offset="1" stop-color="#a80d00"/><stop offset="1" stop-color="#a80d00"/></linearGradient><linearGradient id="linear-gradient-7" x1="2013.8" y1="-641.2" x2="2085.8" y2="-605.2" gradientTransform="translate(-388.7 5.7) scale(.3 -.3)" gradientUnits="userSpaceOnUse"><stop offset="0" stop-color="#fff"/><stop offset="0" stop-color="#fff"/><stop offset=".5" stop-color="#c81f11"/><stop offset="1" stop-color="#bf0905"/><stop offset="1" stop-color="#bf0905"/></linearGradient><linearGradient id="linear-gradient-8" x1="1805.2" y1="-826.1" x2="1811.1" y2="-885.4" gradientTransform="translate(-388.7 5.7) scale(.3 -.3)" gradientUnits="userSpaceOnUse"><stop offset="0" stop-color="#fff"/><stop offset="0" stop-color="#fff"/><stop offset=".3" stop-color="#de4024"/><stop offset="1" stop-color="#bf190b"/><stop offset="1" stop-color="#bf190b"/></linearGradient><linearGradient id="linear-gradient-9" x1="1764.5" y1="-901.5" x2="2042.9" y2="-615.2" gradientTransform="translate(-388.7 5.7) scale(.3 -.3)" gradientUnits="userSpaceOnUse"><stop offset="0" stop-color="#bd0012"/><stop offset="0" stop-color="#bd0012"/><stop offset="0" stop-color="#fff"/><stop offset=".2" stop-color="#fff"/><stop offset=".3" stop-color="#c82f1c"/><stop offset=".3" stop-color="#820c01"/><stop offset=".5" stop-color="#a31601"/><stop offset=".7" stop-color="#b31301"/><stop offset="1" stop-color="#e82609"/><stop offset="1" stop-color="#e82609"/></linearGradient><linearGradient id="linear-gradient-10" x1="1977.7" y1="-930.3" x2="1893.9" y2="-909.6" gradientTransform="translate(-388.7 5.7) scale(.3 -.3)" gradientUnits="userSpaceOnUse"><stop offset="0" stop-color="#8c0c01"/><stop offset="0" stop-color="#8c0c01"/><stop offset=".5" stop-color="#990c00"/><stop offset="1" stop-color="#a80d0e"/><stop offset="1" stop-color="#a80d0e"/></linearGradient><linearGradient id="linear-gradient-11" x1="2121.8" y1="-829.7" x2="2047.3" y2="-762.9" gradientTransform="translate(-388.7 5.7) scale(.3 -.3)" gradientUnits="userSpaceOnUse"><stop offset="0" stop-color="#7e110b"/><stop offset="0" stop-color="#7e110b"/><stop offset="1" stop-color="#9e0c00"/><stop offset="1" stop-color="#9e0c00"/></linearGradient><linearGradient id="linear-gradient-12" x1="2149.1" y1="-707.2" x2="2112" y2="-667.5" gradientTransform="translate(-388.7 5.7) scale(.3 -.3)" gradientUnits="userSpaceOnUse"><stop offset="0" stop-color="#79130d"/><stop offset="0" stop-color="#79130d"/><stop offset="1" stop-color="#9e120b"/><stop offset="1" stop-color="#9e120b"/></linearGradient><radialGradient id="radial-gradient" cx="2058.9" cy="-764.2" fx="2058.9" fy="-764.2" r="91.3" gradientTransform="translate(-388.7 5.7) scale(.3 -.3)" gradientUnits="userSpaceOnUse"><stop offset="0" stop-color="#a80d00"/><stop offset="0" stop-color="#a80d00"/><stop offset="1" stop-color="#7e0e08"/><stop offset="1" stop-color="#7e0e08"/></radialGradient><radialGradient id="radial-gradient-2" cx="1932.4" cy="-884.5" fx="1932.4" fy="-884.5" r="121.4" gradientTransform="translate(-388.7 5.7) scale(.3 -.3)" gradientUnits="userSpaceOnUse"><stop offset="0" stop-color="#a30c00"/><stop offset="0" stop-color="#a30c00"/><stop offset="1" stop-color="#800e08"/><stop offset="1" stop-color="#800e08"/></radialGradient><linearGradient id="linear-gradient-13" x1="1846.5" y1="-978" x2="1816.2" y2="-875.4" gradientTransform="translate(-388.7 5.7) scale(.3 -.3)" gradientUnits="userSpaceOnUse"><stop offset="0" stop-color="#8b2114"/><stop offset="0" stop-color="#8b2114"/><stop offset=".4" stop-color="#9e100a"/><stop offset="1" stop-color="#b3100c"/><stop offset="1" stop-color="#b3100c"/></linearGradient><linearGradient id="linear-gradient-14" x1="2078.5" y1="-638" x2="2146.3" y2="-668" gradientTransform="translate(-388.7 5.7) scale(.3 -.3)" gradientUnits="userSpaceOnUse"><stop offset="0" stop-color="#b31000"/><stop offset="0" stop-color="#b31000"/><stop offset=".4" stop-color="#910f08"/><stop offset="1" stop-color="#791c12"/><stop offset="1" stop-color="#791c12"/></linearGradient></defs><circle cx="458.3" cy="74.2" r="26.7" style="fill:#f2f2f2; stroke-width:0px;"/><path d="m665.4,497.2c39.7-30.2,58.6-81,46.8-129.5-.3-1.2-.6-2.4-.9-3.6-7.9-28.8-27.3-56.1-55.7-65.3-23.8-7.7-49.8-1.8-74.7-4.9-48.8-6-86.6-45.5-113.2-86.8s-47.1-87.6-82.4-121.7c-58.3-56.3-153.4-68.4-225.6-31.8-72.3,36.7-118.3,117.9-116.4,198.9,2,81,50,158.4,119.9,199.5,25.7,15.1,55.3,25.8,84.8,22,25.6-3.2,48.9-17,74.4-21.1,40.1-6.4,79.9,11.7,114.6,32.8,34.7,21.1,68.2,46.2,107.6,56,38.3,9.6,85.7-17.8,120.8-44.5Z" style="fill:#f2f2f2; stroke-width:0px;"/><path d="m608.4,55.3c-.9-.6-1.8-1.1-2.6-1.7-25.1-16.1-52.1-29.2-80.3-38.9l-6.5,90.2h-41.5V1.5c-2.6-.5-5.2-1.1-7.9-1.5v104.9h-49.3c-56.5,0-102.3-45.8-102.3-102.3h0c-2.6.6-5.3,1.2-7.9,1.8v100.4h-40.1l-6.2-86c-29,11.1-56.5,25.7-81.9,43.5-.4.3-.9.6-1.3.9-2.2,1.6-4.4,3.1-6.6,4.7v344.2h118.3l-2.1-29-11.5-159h231.6l-11.5,159-2.1,29h117V58.8c-1.8-1.2-3.5-2.3-5.3-3.5Zm-298.2,142.8h-33.4l-6.2-85.3h39.6v85.3Zm159.4,0h-56.1v-1.7c0-3.4-2.8-6.2-6.2-6.2h-24.3c-3.4,0-6.2,2.8-6.2,6.2h0v1.7h-58.7v-85.3h151.5v85.3Zm7.9,0v-85.3h40.9l-6.2,85.3h-34.7Z" style="fill:#3f3d56; stroke-width:0px;"/><path d="m0,434.3c8.7,10.3,18.1,20,28.1,29l730.6,1c10-9,19.4-18.7,28.1-29L0,434.3Z" style="fill:#3f3d56; stroke-width:0px;"/><path d="m495.4,341.6v85.7c0,2.3,1.8,4.1,4.1,4.1h127c2.3,0,4.1-1.8,4.1-4.1v-85.7c0-2.3-1.8-4.1-4.1-4.1h-127c-2.2,0-4.1,1.8-4.1,4.1Z" style="fill:#3f3d56; stroke-width:0px;"/><path d="m498.4,342.7v83.6c0,1.2,1,2.2,2.2,2.2h124.9c1.2,0,2.2-1,2.2-2.2v-83.6c0-1.2-1-2.2-2.2-2.2h-124.9c-1.2,0-2.2.9-2.2,2.2Z" style="fill:#63a0ff; stroke-width:0px;"/><path d="m492.8,444c.5.6,1.2.9,1.9.9h136c1.4,0,2.5-1.1,2.5-2.5s0-.3,0-.5l-2.1-10c-.2-.8-.8-1.5-1.6-1.8-.3-.1-.6-.2-.9-.2h-131.7c-.3,0-.6.1-.9.2-.8.3-1.4,1-1.6,1.8l-2.1,10c0,.8.1,1.5.6,2.1Z" style="fill:#2f2e41; stroke-width:0px;"/><path d="m627.1,434.2h-3.2c-.3,0-.5-.2-.5-.5v-1.5c0-.3.2-.5.5-.5h3.2c.3,0,.5.2.5.5v1.5c0,.3-.2.5-.5.5Z" style="fill:#3f3d56; stroke-width:0px;"/><path d="m618.8,434.2h-3.2c-.3,0-.5-.2-.5-.5v-1.5c0-.3.2-.5.5-.5h3.2c.3,0,.5.2.5.5v1.5c0,.3-.3.5-.5.5Z" style="fill:#3f3d56; stroke-width:0px;"/><path d="m610.4,434.2h-3.2c-.3,0-.5-.2-.5-.5v-1.5c0-.3.2-.5.5-.5h3.2c.3,0,.5.2.5.5v1.5c0,.3-.2.5-.5.5Z" style="fill:#3f3d56; stroke-width:0px;"/><path d="m602,434.2h-3.2c-.3,0-.5-.2-.5-.5v-1.5c0-.3.2-.5.5-.5h3.2c.3,0,.5.2.5.5v1.5c0,.3-.2.5-.5.5Z" style="fill:#3f3d56; stroke-width:0px;"/><path d="m593.6,434.2h-3.2c-.3,0-.5-.2-.5-.5v-1.5c0-.3.2-.5.5-.5h3.2c.3,0,.5.2.5.5v1.5c0,.3-.2.5-.5.5Z" style="fill:#3f3d56; stroke-width:0px;"/><path d="m585.3,434.2h-3.3c-.3,0-.5-.2-.5-.5v-1.5c0-.3.2-.5.5-.5h3.2c.3,0,.5.2.5.5v1.5c0,.3-.2.5-.4.5Z" style="fill:#3f3d56; stroke-width:0px;"/><path d="m576.9,434.2h-3.2c-.3,0-.5-.2-.5-.5v-1.5c0-.3.2-.5.5-.5h3.2c.3,0,.5.2.5.5v1.5c0,.3-.2.5-.5.5Z" style="fill:#3f3d56; stroke-width:0px;"/><path d="m568.5,434.2h-3.2c-.3,0-.5-.2-.5-.5v-1.5c0-.3.2-.5.5-.5h3.2c.3,0,.5.2.5.5v1.5c0,.3-.2.5-.5.5Z" style="fill:#3f3d56; stroke-width:0px;"/><path d="m560.1,434.2h-3.2c-.3,0-.5-.2-.5-.5v-1.5c0-.3.2-.5.5-.5h3.2c.3,0,.5.2.5.5v1.5c0,.3-.2.5-.5.5Z" style="fill:#3f3d56; stroke-width:0px;"/><path d="m551.8,434.2h-3.2c-.3,0-.5-.2-.5-.5v-1.5c0-.3.2-.5.5-.5h3.2c.3,0,.5.2.5.5v1.5c0,.3-.3.5-.5.5Z" style="fill:#3f3d56; stroke-width:0px;"/><path d="m543.4,434.2h-3.2c-.3,0-.5-.2-.5-.5v-1.5c0-.3.2-.5.5-.5h3.2c.3,0,.5.2.5.5v1.5c0,.3-.3.5-.5.5Z" style="fill:#3f3d56; stroke-width:0px;"/><path d="m535,434.2h-3.2c-.3,0-.5-.2-.5-.5v-1.5c0-.3.2-.5.5-.5h3.2c.3,0,.5.2.5.5v1.5c0,.3-.2.5-.5.5Z" style="fill:#3f3d56; stroke-width:0px;"/><path d="m526.6,434.2h-3.2c-.3,0-.5-.2-.5-.5v-1.5c0-.3.2-.5.5-.5h3.2c.3,0,.5.2.5.5v1.5c0,.3-.2.5-.5.5Z" style="fill:#3f3d56; stroke-width:0px;"/><path d="m518.2,434.2h-3.2c-.3,0-.5-.2-.5-.5v-1.5c0-.3.2-.5.5-.5h3.2c.3,0,.5.2.5.5v1.5c0,.3-.2.5-.5.5Z" style="fill:#3f3d56; stroke-width:0px;"/><path d="m509.9,434.2h-3.2c-.3,0-.5-.2-.5-.5v-1.5c0-.3.2-.5.5-.5h3.2c.3,0,.5.2.5.5v1.5c0,.3-.3.5-.5.5Z" style="fill:#3f3d56; stroke-width:0px;"/><path d="m501.5,434.2h-3.2c-.3,0-.5-.2-.5-.5v-1.5c0-.3.2-.5.5-.5h3.2c.3,0,.5.2.5.5v1.5c0,.3-.2.5-.5.5Z" style="fill:#3f3d56; stroke-width:0px;"/><path d="m627.2,438.4h-3.2c-.3,0-.5-.2-.5-.5v-1.5c0-.3.2-.5.5-.5h3.2c.3,0,.5.2.5.5v1.5c0,.3-.2.5-.5.5Z" style="fill:#3f3d56; stroke-width:0px;"/><path d="m618.9,438.4h-3.2c-.3,0-.5-.2-.5-.5v-1.5c0-.3.2-.5.5-.5h3.2c.3,0,.5.2.5.5v1.5c0,.3-.3.5-.5.5Z" style="fill:#3f3d56; stroke-width:0px;"/><path d="m610.5,438.4h-3.2c-.3,0-.5-.2-.5-.5v-1.5c0-.3.2-.5.5-.5h3.2c.3,0,.5.2.5.5v1.5c0,.3-.2.5-.5.5Z" style="fill:#3f3d56; stroke-width:0px;"/><path d="m602.1,438.4h-3.2c-.3,0-.5-.2-.5-.5v-1.5c0-.3.2-.5.5-.5h3.2c.3,0,.5.2.5.5v1.5c0,.3-.2.5-.5.5Z" style="fill:#3f3d56; stroke-width:0px;"/><path d="m593.7,438.4h-3.2c-.3,0-.5-.2-.5-.5v-1.5c0-.3.2-.5.5-.5h3.2c.3,0,.5.2.5.5v1.5c0,.3-.2.5-.5.5Z" style="fill:#3f3d56; stroke-width:0px;"/><path d="m585.4,438.4h-3.2c-.3,0-.5-.2-.5-.5v-1.5c0-.3.2-.5.5-.5h3.2c.3,0,.5.2.5.5v1.5c-.1.3-.3.5-.5.5Z" style="fill:#3f3d56; stroke-width:0px;"/><path d="m577,438.4h-3.2c-.3,0-.5-.2-.5-.5v-1.5c0-.3.2-.5.5-.5h3.2c.3,0,.5.2.5.5v1.5c0,.3-.2.5-.5.5Z" style="fill:#3f3d56; stroke-width:0px;"/><path d="m568.6,438.4h-3.2c-.3,0-.5-.2-.5-.5v-1.5c0-.3.2-.5.5-.5h3.2c.3,0,.5.2.5.5v1.5c0,.3-.2.5-.5.5Z" style="fill:#3f3d56; stroke-width:0px;"/><path d="m560.2,438.4h-3.2c-.3,0-.5-.2-.5-.5v-1.5c0-.3.2-.5.5-.5h3.2c.3,0,.5.2.5.5v1.5c0,.3-.2.5-.5.5Z" style="fill:#3f3d56; stroke-width:0px;"/><path d="m551.9,438.4h-3.2c-.3,0-.5-.2-.5-.5v-1.5c0-.3.2-.5.5-.5h3.2c.3,0,.5.2.5.5v1.5c-.1.3-.3.5-.5.5Z" style="fill:#3f3d56; stroke-width:0px;"/><path d="m543.5,438.4h-3.2c-.3,0-.5-.2-.5-.5v-1.5c0-.3.2-.5.5-.5h3.2c.3,0,.5.2.5.5v1.5c0,.3-.3.5-.5.5Z" style="fill:#3f3d56; stroke-width:0px;"/><path d="m535.1,438.4h-3.2c-.3,0-.5-.2-.5-.5v-1.5c0-.3.2-.5.5-.5h3.2c.3,0,.5.2.5.5v1.5c0,.3-.2.5-.5.5Z" style="fill:#3f3d56; stroke-width:0px;"/><path d="m526.7,438.4h-3.2c-.3,0-.5-.2-.5-.5v-1.5c0-.3.2-.5.5-.5h3.2c.3,0,.5.2.5.5v1.5c0,.3-.2.5-.5.5Z" style="fill:#3f3d56; stroke-width:0px;"/><path d="m518.3,438.4h-3.2c-.3,0-.5-.2-.5-.5v-1.5c0-.3.2-.5.5-.5h3.2c.3,0,.5.2.5.5v1.5c0,.3-.2.5-.5.5Z" style="fill:#3f3d56; stroke-width:0px;"/><path d="m510,438.4h-3.2c-.3,0-.5-.2-.5-.5v-1.5c0-.3.2-.5.5-.5h3.2c.3,0,.5.2.5.5v1.5c0,.3-.3.5-.5.5Z" style="fill:#3f3d56; stroke-width:0px;"/><path d="m501.6,438.4h-3.2c-.3,0-.5-.2-.5-.5v-1.5c0-.3.2-.5.5-.5h3.2c.3,0,.5.2.5.5v1.5c0,.3-.2.5-.5.5Z" style="fill:#3f3d56; stroke-width:0px;"/><path d="m587,443.4h-32.5c-.3,0-.5-.2-.5-.5v-1.5c0-.3.2-.5.5-.5h32.5c.3,0,.5.2.5.5v1.5c0,.3-.2.5-.5.5Z" style="fill:#3f3d56; stroke-width:0px;"/><path d="m517.2,358.7h2.8c.9,0,1.6.7,1.6,1.6h0c0,.9-.7,1.6-1.6,1.6h-2.8c-.9,0-1.6-.7-1.6-1.6h0c0-.9.7-1.6,1.6-1.6Z" style="fill:#fff; stroke-width:0px;"/><path d="m549.7,358.7h2.8c.9,0,1.6.7,1.6,1.6h0c0,.9-.7,1.6-1.6,1.6h-2.8c-.9,0-1.6-.7-1.6-1.6h0c0-.9.8-1.6,1.6-1.6Z" style="fill:#fff; stroke-width:0px;"/><path d="m558.9,358.7h2.8c.9,0,1.6.7,1.6,1.6h0c0,.9-.7,1.6-1.6,1.6h-2.8c-.9,0-1.6-.7-1.6-1.6h0c0-.9.8-1.6,1.6-1.6Z" style="fill:#fff; stroke-width:0px;"/><path d="m526,358.5h17.7c.9,0,1.6.7,1.6,1.6h0c0,.9-.7,1.6-1.6,1.6h-17.7c-.9,0-1.6-.7-1.6-1.6h0c0-.9.8-1.6,1.6-1.6Z" style="fill:#fff; stroke-width:0px;"/><path d="m569.4,358.5h17.7c.9,0,1.6.7,1.6,1.6h0c0,.9-.7,1.6-1.6,1.6h-17.7c-.9,0-1.6-.7-1.6-1.6h0c0-.9.7-1.6,1.6-1.6Z" style="fill:#fff; stroke-width:0px;"/><path d="m525.9,365.8h2.8c.9,0,1.6.7,1.6,1.6h0c0,.9-.7,1.6-1.6,1.6h-2.8c-.9,0-1.6-.7-1.6-1.6h0c0-.9.7-1.6,1.6-1.6Z" style="fill:#fff; stroke-width:0px;"/><path d="m558.4,365.8h2.8c.9,0,1.6.7,1.6,1.6h0c0,.9-.7,1.6-1.6,1.6h-2.8c-.9,0-1.6-.7-1.6-1.6h0c0-.9.7-1.6,1.6-1.6Z" style="fill:#fff; stroke-width:0px;"/><path d="m567.6,365.8h2.8c.9,0,1.6.7,1.6,1.6h0c0,.9-.7,1.6-1.6,1.6h-2.8c-.9,0-1.6-.7-1.6-1.6h0c0-.9.7-1.6,1.6-1.6Z" style="fill:#fff; stroke-width:0px;"/><path d="m534.7,365.5h17.7c.9,0,1.6.7,1.6,1.6h0c0,.9-.7,1.6-1.6,1.6h-17.7c-.9,0-1.6-.7-1.6-1.6h0c0-.9.7-1.6,1.6-1.6Z" style="fill:#fff; stroke-width:0px;"/><path d="m578.1,365.5h17.7c.9,0,1.6.7,1.6,1.6h0c0,.9-.7,1.6-1.6,1.6h-17.7c-.9,0-1.6-.7-1.6-1.6h0c0-.9.7-1.6,1.6-1.6Z" style="fill:#fff; stroke-width:0px;"/><path d="m534.5,372.8h2.8c.9,0,1.6.7,1.6,1.6h0c0,.9-.7,1.6-1.6,1.6h-2.8c-.9,0-1.6-.7-1.6-1.6h0c0-.9.8-1.6,1.6-1.6Z" style="fill:#fff; stroke-width:0px;"/><path d="m567.1,372.8h2.8c.9,0,1.6.7,1.6,1.6h0c0,.9-.7,1.6-1.6,1.6h-2.8c-.9,0-1.6-.7-1.6-1.6h0c0-.9.7-1.6,1.6-1.6Z" style="fill:#fff; stroke-width:0px;"/><path d="m576.3,372.8h2.8c.9,0,1.6.7,1.6,1.6h0c0,.9-.7,1.6-1.6,1.6h-2.8c-.9,0-1.6-.7-1.6-1.6h0c0-.9.7-1.6,1.6-1.6Z" style="fill:#fff; stroke-width:0px;"/><path d="m543.4,372.6h17.7c.9,0,1.6.7,1.6,1.6h0c0,.9-.7,1.6-1.6,1.6h-17.7c-.9,0-1.6-.7-1.6-1.6h0c0-.9.7-1.6,1.6-1.6Z" style="fill:#fff; stroke-width:0px;"/><path d="m586.7,372.6h17.7c.9,0,1.6.7,1.6,1.6h0c0,.9-.7,1.6-1.6,1.6h-17.7c-.9,0-1.6-.7-1.6-1.6h0c0-.9.8-1.6,1.6-1.6Z" style="fill:#fff; stroke-width:0px;"/><path d="m543.2,379.9h2.8c.9,0,1.6.7,1.6,1.6h0c0,.9-.7,1.6-1.6,1.6h-2.8c-.9,0-1.6-.7-1.6-1.6h0c0-.9.7-1.6,1.6-1.6Z" style="fill:#fff; stroke-width:0px;"/><path d="m575.7,379.9h2.8c.9,0,1.6.7,1.6,1.6h0c0,.9-.7,1.6-1.6,1.6h-2.8c-.9,0-1.6-.7-1.6-1.6h0c0-.9.8-1.6,1.6-1.6Z" style="fill:#fff; stroke-width:0px;"/><path d="m584.9,379.9h2.8c.9,0,1.6.7,1.6,1.6h0c0,.9-.7,1.6-1.6,1.6h-2.8c-.9,0-1.6-.7-1.6-1.6h0c0-.9.8-1.6,1.6-1.6Z" style="fill:#fff; stroke-width:0px;"/><path d="m552.1,379.6h17.7c.9,0,1.6.7,1.6,1.6h0c0,.9-.7,1.6-1.6,1.6h-17.7c-.9,0-1.6-.7-1.6-1.6h0c0-.9.7-1.6,1.6-1.6Z" style="fill:#fff; stroke-width:0px;"/><path d="m549.7,407.9h2.8c.9,0,1.6.7,1.6,1.6h0c0,.9-.7,1.6-1.6,1.6h-2.8c-.9,0-1.6-.7-1.6-1.6h0c0-.9.8-1.6,1.6-1.6Z" style="fill:#fff; stroke-width:0px;"/><path d="m558.9,407.9h2.8c.9,0,1.6.7,1.6,1.6h0c0,.9-.7,1.6-1.6,1.6h-2.8c-.9,0-1.6-.7-1.6-1.6h0c0-.9.8-1.6,1.6-1.6Z" style="fill:#fff; stroke-width:0px;"/><path d="m569.4,408.2h17.7c.9,0,1.6.7,1.6,1.6h0c0,.9-.7,1.6-1.6,1.6h-17.7c-.9,0-1.6-.7-1.6-1.6h0c0-.9.7-1.6,1.6-1.6Z" style="fill:#fff; stroke-width:0px;"/><path d="m517.2,407.9h2.8c.9,0,1.6.7,1.6,1.6h0c0,.9-.7,1.6-1.6,1.6h-2.8c-.9,0-1.6-.7-1.6-1.6h0c0-.9.7-1.6,1.6-1.6Z" style="fill:#fff; stroke-width:0px;"/><path d="m526,408.2h17.7c.9,0,1.6.7,1.6,1.6h0c0,.9-.7,1.6-1.6,1.6h-17.7c-.9,0-1.6-.7-1.6-1.6h0c0-.9.8-1.6,1.6-1.6Z" style="fill:#fff; stroke-width:0px;"/><path d="m525.9,400.9h2.8c.9,0,1.6.7,1.6,1.6h0c0,.9-.7,1.6-1.6,1.6h-2.8c-.9,0-1.6-.7-1.6-1.6h0c0-1,.7-1.6,1.6-1.6Z" style="fill:#fff; stroke-width:0px;"/><path d="m558.4,400.9h2.8c.9,0,1.6.7,1.6,1.6h0c0,.9-.7,1.6-1.6,1.6h-2.8c-.9,0-1.6-.7-1.6-1.6h0c0-1,.7-1.6,1.6-1.6Z" style="fill:#fff; stroke-width:0px;"/><path d="m567.6,400.9h2.8c.9,0,1.6.7,1.6,1.6h0c0,.9-.7,1.6-1.6,1.6h-2.8c-.9,0-1.6-.7-1.6-1.6h0c0-1,.7-1.6,1.6-1.6Z" style="fill:#fff; stroke-width:0px;"/><path d="m534.7,401.1h17.7c.9,0,1.6.7,1.6,1.6h0c0,.9-.7,1.6-1.6,1.6h-17.7c-.9,0-1.6-.7-1.6-1.6h0c0-.9.7-1.6,1.6-1.6Z" style="fill:#fff; stroke-width:0px;"/><path d="m534.5,393.8h2.8c.9,0,1.6.7,1.6,1.6h0c0,.9-.7,1.6-1.6,1.6h-2.8c-.9,0-1.6-.7-1.6-1.6h0c0-.9.8-1.6,1.6-1.6Z" style="fill:#fff; stroke-width:0px;"/><path d="m567.1,393.8h2.8c.9,0,1.6.7,1.6,1.6h0c0,.9-.7,1.6-1.6,1.6h-2.8c-.9,0-1.6-.7-1.6-1.6h0c0-.9.7-1.6,1.6-1.6Z" style="fill:#fff; stroke-width:0px;"/><path d="m576.3,393.8h2.8c.9,0,1.6.7,1.6,1.6h0c0,.9-.7,1.6-1.6,1.6h-2.8c-.9,0-1.6-.7-1.6-1.6h0c0-.9.7-1.6,1.6-1.6Z" style="fill:#fff; stroke-width:0px;"/><path d="m543.4,394.1h17.7c.9,0,1.6.7,1.6,1.6h0c0,.9-.7,1.6-1.6,1.6h-17.7c-.9,0-1.6-.7-1.6-1.6h0c0-.9.7-1.6,1.6-1.6Z" style="fill:#fff; stroke-width:0px;"/><path d="m543.2,386.8h2.8c.9,0,1.6.7,1.6,1.6h0c0,.9-.7,1.6-1.6,1.6h-2.8c-.9,0-1.6-.7-1.6-1.6h0c0-.9.7-1.6,1.6-1.6Z" style="fill:#fff; stroke-width:0px;"/><path d="m575.7,386.8h2.8c.9,0,1.6.7,1.6,1.6h0c0,.9-.7,1.6-1.6,1.6h-2.8c-.9,0-1.6-.7-1.6-1.6h0c0-.9.8-1.6,1.6-1.6Z" style="fill:#fff; stroke-width:0px;"/><path d="m584.9,386.8h2.8c.9,0,1.6.7,1.6,1.6h0c0,.9-.7,1.6-1.6,1.6h-2.8c-.9,0-1.6-.7-1.6-1.6h0c0-.9.8-1.6,1.6-1.6Z" style="fill:#fff; stroke-width:0px;"/><path d="m552.1,387h17.7c.9,0,1.6.7,1.6,1.6h0c0,.9-.7,1.6-1.6,1.6h-17.7c-.9,0-1.6-.7-1.6-1.6h0c0-.9.7-1.6,1.6-1.6Z" style="fill:#fff; stroke-width:0px;"/><path d="m504.9,490.5l-13.3-21.1,41.9-33.4,17.3-19.2c7.1-7.9,19.2-8.5,27.1-1.4,2.5,2.2,4.3,5.1,5.4,8.2h0c3.2,9.8-1.9,20.4-11.6,24l-27.3,10.1-39.5,32.8Z" style="fill:#ffb6b6; stroke-width:0px;"/><path d="m191.7,337.5v102.5h71.9v-102.5c0-1.5-1-2.9-2.4-3.3-.3-.1-.7-.2-1-.2h-64.9c-2.1,0-3.6,1.6-3.6,3.5h0Zm28,35.2c0-4.2,3.5-7.6,7.7-7.6s7.6,3.4,7.6,7.6v11.9c0,4.2-3.5,7.7-7.7,7.6-4.2,0-7.6-3.4-7.6-7.6v-11.9Z" style="fill:#2f2e41; stroke-width:0px;"/><path d="m191.5,436.8v9.9c0,1.1.9,1.9,1.9,1.9h68.4c1.1,0,1.9-.9,1.9-1.9v-9.9h-72.2Z" style="fill:#3f3d56; stroke-width:0px;"/><path d="m78.7,183v187.3c0,5,4,9,9,9h277.5c5,0,9-4,9-9v-187.3c0-5-4-9-9-9H87.7c-5,0-9,4-9,9Z" style="fill:#3f3d56; stroke-width:0px;"/><g id="Layer_2"><path d="m85.2,185.3v182.6c0,2.7,2.2,4.8,4.8,4.8h272.9c2.7,0,4.8-2.2,4.8-4.8v-182.6c0-2.7-2.2-4.8-4.8-4.8H90c-2.7,0-4.8,2.1-4.8,4.8Z" style="fill:#fff; stroke-width:0px;"/><path d="m255.7,271.5l-63.6,37.8,82.4-5.6,6.3-83.1-25.1,50.9Z" style="fill:url(#linear-gradient); fill-rule:evenodd; stroke-width:0px;"/><path d="m267.5,254.8l-19.3,25.5,26.4,23.4-7.1-48.9Z" style="fill:url(#linear-gradient-2); fill-rule:evenodd; stroke-width:0px;"/><path d="m222.8,299.6l-30.5,9.6,82.4-5.5-51.9-4.1Z" style="fill:url(#linear-gradient-3); fill-rule:evenodd; stroke-width:0px;"/><path d="m205.3,266.8l-28.5,6.1,15.6,36.4,13-42.5Z" style="fill:url(#linear-gradient-4); fill-rule:evenodd; stroke-width:0px;"/><path d="m236.2,233.7l-34.1,32,46.1,14.7-11.9-46.7Z" style="fill:url(#linear-gradient-5); fill-rule:evenodd; stroke-width:0px;"/><path d="m245.8,208l-9,29,41.3-2.7-32.3-26.4Z" style="fill:url(#linear-gradient-6); fill-rule:evenodd; stroke-width:0px;"/><path d="m244,209.1l-12-10.6h31c0,.1-19,10.6-19,10.6Z" style="fill:url(#linear-gradient-7); fill-rule:evenodd; stroke-width:0px;"/><path d="m177.2,272.6l-6.4-17.3-1.5,31.8,8-14.5Z" style="fill:url(#linear-gradient-8); fill-rule:evenodd; stroke-width:0px;"/><path d="m170.4,254.8l6.5,18.4,28.1-6.3,32.1-29.8,9.1-28.8-14.3-10.1-24.3,9.1c-7.6,7.1-22.5,21.2-23,21.4-.5.3-9.8,17.8-14.2,26.1Z" style="fill:#fff; fill-rule:evenodd; stroke-width:0px;"/><path d="m193.1,221.8c16.6-16.4,37.9-26.1,46.1-17.9,8.2,8.3-.5,28.4-17.1,44.8-16.6,16.4-37.6,26.6-45.8,18.4-8.2-8.3.2-28.9,16.8-45.3Z" style="fill:url(#linear-gradient-9); fill-rule:evenodd; stroke-width:0px;"/><path d="m192.4,309.2l12.9-42.6,42.7,13.7c-15.4,14.5-32.6,26.7-55.6,28.9Z" style="fill:url(#linear-gradient-10); fill-rule:evenodd; stroke-width:0px;"/><path d="m237.1,236.9l11,43.4c12.9-13.6,24.5-28.1,30.2-46.2,0,0-41.1,2.8-41.1,2.8Z" style="fill:url(#linear-gradient-11); fill-rule:evenodd; stroke-width:0px;"/><path d="m278.1,234.4c4.4-13.2,5.4-32.2-15.3-35.8l-17,9.4,32.3,26.4Z" style="fill:url(#linear-gradient-12); fill-rule:evenodd; stroke-width:0px;"/><path d="m169.3,286.9c.6,21.9,16.4,22.2,23.1,22.4l-15.5-36.2-7.6,13.9Z" style="fill:#9e1209; fill-rule:evenodd; stroke-width:0px;"/><path d="m237.2,237c9.9,6.1,29.9,18.3,30.3,18.6.6.4,8.6-13.5,10.4-21.3,0,0-40.7,2.7-40.7,2.7Z" style="fill:url(#radial-gradient); fill-rule:evenodd; stroke-width:0px;"/><path d="m205.2,266.6l17.2,33.2c10.2-5.5,18.1-12.2,25.4-19.4,0,0-42.6-13.7-42.6-13.7Z" style="fill:url(#radial-gradient-2); fill-rule:evenodd; stroke-width:0px;"/><path d="m176.8,273.1l-2.4,29c4.6,6.3,10.9,6.8,17.6,6.3-4.8-11.9-14.4-35.8-15.1-35.3Z" style="fill:url(#linear-gradient-13); fill-rule:evenodd; stroke-width:0px;"/><path d="m245.8,208.1l34.2,4.8c-1.8-7.7-7.4-12.7-17-14.3l-17.2,9.5Z" style="fill:url(#linear-gradient-14); fill-rule:evenodd; stroke-width:0px;"/><path d="m202.9,352.2h-9.1c-1.8-2.8-3.6-5.5-5.5-8.2-1.6-2.3-3.4-4.7-5.3-7.1h-3.5v10.7c0,.6,0,1,.3,1.5.2.4.5.7,1.1,1,.3.1.8.2,1.5.3.7,0,1.3.2,1.8.2v1.7h-14.3v-1.7c.4,0,.9,0,1.6-.2.7,0,1.2-.2,1.5-.3.4-.2.8-.5,1-.9.2-.4.3-.9.3-1.5v-24.4c0-.6,0-1-.2-1.5-.2-.4-.5-.8-1.1-1-.5-.2-1-.3-1.5-.4-.5-.1-1.1-.2-1.6-.2v-1.7h15.6c1.4,0,2.7.1,4,.5,1.2.3,2.4.7,3.4,1.4,1,.6,1.8,1.5,2.4,2.5.6,1,.9,2.2.9,3.7s-.2,2.5-.6,3.5c-.4,1-1,1.9-1.8,2.6-.8.7-1.6,1.3-2.6,1.8-1.1.5-2.2.9-3.3,1.3,1.7,2.2,3,4.1,4.1,5.6,1.1,1.5,2.5,3.3,4.1,5.5.7,1,1.3,1.7,1.9,2.1.6.4,1.1.8,1.7,1.1.4.2.9.4,1.5.5.6.1,1.1.2,1.5.2v1.7m-12.5-25.2c0-2-.6-3.7-1.8-4.9-1.2-1.2-2.8-1.8-5-1.8h-4.1v14.5h3.1c2.2,0,4-.7,5.5-2.1,1.5-1.4,2.2-3.3,2.2-5.7m38.4,24.8l-7.6.5-.4-.3v-3h-.1c-.4.4-.8.8-1.3,1.3-.5.5-1.1.9-1.6,1.2-.7.4-1.3.7-2.1,1-.7.2-1.6.3-2.8.3-2.1,0-3.7-.7-4.8-2-1.1-1.4-1.6-3.3-1.6-5.9v-11.2c0-.6-.1-1-.3-1.4-.2-.4-.5-.8-.9-1-.3-.2-.7-.3-1.1-.4-.4,0-.9-.2-1.4-.2v-1.5l7.8-.6.4.3v16.3c0,1.7.4,3,1.1,3.8.8.9,1.7,1.3,2.7,1.3s1.6-.1,2.3-.4c.7-.3,1.3-.6,1.7-1,.4-.3.8-.7,1.1-1,.3-.4.6-.7.8-1v-13.3c0-.5-.1-1-.3-1.4-.2-.4-.5-.8-.9-1-.3-.2-.7-.3-1.3-.3-.6,0-1.3,0-1.9-.1v-1.5l8.5-.6.4.3v18.7c0,.5.1,1,.3,1.4.2.4.5.7.9,1,.3.2.6.3,1,.4.4,0,.8,0,1.3,0v1.5m26.8-11.3c0,3.5-1.1,6.5-3.3,8.9s-4.8,3.6-7.7,3.6-2.6-.2-3.8-.6c-1.2-.4-2.4-.9-3.5-1.6l-1.8,2.7-1.5-.3c0-1.2.1-2.6.2-4.2,0-1.6,0-3.2,0-4.8v-23.3c0-.5-.1-1.1-.4-1.6-.2-.5-.5-.9-.9-1.2-.3-.2-.8-.4-1.5-.5-.7-.1-1.3-.2-1.7-.2v-1.5l8.6-.5.3.4v15.5h.2c1-1,2.1-1.8,3.2-2.3,1.2-.5,2.3-.8,3.5-.8,2.9,0,5.3,1.1,7.2,3.4,1.9,2.3,2.9,5.3,2.9,8.9m-5,.2c0-1.2-.1-2.4-.4-3.6-.3-1.2-.7-2.3-1.2-3.2-.5-.9-1.2-1.7-2.1-2.2-.9-.6-1.9-.9-3.1-.9s-2.1.2-2.9.7c-.8.4-1.6,1-2.2,1.8v13.7c0,.4.3.8.5,1.3.3.5.7,1,1.1,1.5.5.4,1,.8,1.6,1.1.6.3,1.3.4,2.2.4,1.9,0,3.5-.9,4.7-2.8,1.2-1.9,1.8-4.4,1.8-7.7m6.7,19.3c0-.8.2-1.4.6-2,.4-.5,1-.7,1.6-.7s.9,0,1.3.3c.4.2.7.4,1,.7.2.2.5.6.8,1,.3.4.5.8.6,1,.8-.4,1.7-1.5,2.8-3.4,1.1-1.8,1.9-3.4,2.4-4.8-2.6-6.5-5.2-12.9-7.9-19.3-.3-.7-.8-1.3-1.5-1.7-.7-.4-1.4-.7-2.1-.8v-1.6h10.7v1.7c-.6,0-1.2.1-1.7.3-.7.2-1,.4-1,.7v.4c.2.2.3.5.4.7.6,1.6,1.5,3.8,2.8,6.8,1.2,3,2.2,5.3,2.9,7.1l2.2-5.3c.8-1.8,1.6-4,2.6-6.5.1-.3.3-.7.5-1.2.2-.5.3-1,.3-1.4s-.4-.8-1.1-1.1c-.6-.3-1.3-.6-2-.7v-1.5h8.7v1.5c-.5,0-1.1.4-1.9.8-.8.5-1.4,1.1-1.7,2-1.7,4-3.4,8-5,12-1.5,3.6-2.6,6.3-3.3,8-1,2.2-1.9,4-2.7,5.2-.8,1.3-1.5,2.2-2.3,3-.7.7-1.4,1.1-2,1.3-.6.2-1.2.4-1.8.4-1.2,0-2.2-.3-2.9-.9-.7-.6-1-1.3-1-2" style="stroke-width:0px;"/></g><path d="m135.8,447.9c.6.7,1.4,1.1,2.3,1.1h162.3c1.6,0,3-1.3,3-3s0-.4-.1-.6l-2.5-12c-.2-1-.9-1.8-1.9-2.2-.3-.1-.7-.2-1.1-.2h-157.2c-.4,0-.7.1-1.1.2-.9.4-1.6,1.2-1.9,2.2l-2.5,12c-.1.9,0,1.8.7,2.5Z" style="fill:#2f2e41; stroke-width:0px;"/><path d="m693.6,441.1c.9,2.6,3.4,4.4,6.2,4.3l26.5-.7c2.8-.1,5.2-2,6-4.7l3.7-40c1.3.6,2.8.9,4.2.9,5.3-.1,9.5-4.6,9.4-9.9s-4.6-9.5-9.9-9.4c-.6,0-1.2.1-1.7.2-1.3-1.4-3-2.1-4.9-2.1l-40.8,1.1c-.3,0-.7.1-1,.1-3.5.6-5.7,4-5.1,7.4,0,.3,0,.6.2.8l7.2,52Zm43.2-43.8l2.7-9.6c.3-1.1.3-2.3,0-3.4,0,0,.2-.1.4-.1,3.8-.1,7,3,7.1,6.8s-2.9,7-6.7,7.1c-1.3,0-2.5-.2-3.5-.8Z" style="fill:#2f2e41; stroke-width:0px;"/><path d="m691.4,380.8c.9,5,10.6,8.5,22.4,7.8,10.8-.5,19.6-4.3,21.2-8.8-.6-.2-1.2-.3-1.8-.2l-40.8,1.1c-.3,0-.7,0-1,.1Z" style="fill:#3f3d56; stroke-width:0px;"/><path d="m715.9,419.1q0,0,.2-.1l5.8-3.8c.2-.2.3-.5,0-.7,0-.1,0-.1,0-.1l-6-3.9c-.2-.2-.5-.1-.7.1s0,.5,0,.7l5.3,3.5-5.1,3.3c-.2.2-.3.5,0,.7,0,.2.3.3.5.3h0Z" style="fill:#63a0ff; stroke-width:0px;"/><path d="m706.8,419.5c.3-.1.4-.3.4-.6s0-.2-.2-.3l-5.3-3,5.1-3.8c.2-.2.3-.5,0-.7s-.5-.3-.7-.1l-5.7,4.3c-.2.2-.3.5,0,.7,0,.1,0,.1.2.1l6,3.4h.2Z" style="fill:#63a0ff; stroke-width:0px;"/><path d="m715.3,422.4s0,0,0-.1c.2-.1.3-.5.2-.7h0l-8.2-13.4c0-.2-.5-.3-.7-.2s-.3.5-.2.7l8.2,13.4c.2.2.4.3.6.3Z" style="fill:#63a0ff; stroke-width:0px;"/><path d="m290.7,376.8l.2.7h0l6.5,19.8,7.5,22.9,14.1,43v6.7h.1l1,53.7-2.9,7.3,3.3,11.9s-1.5-18-9.6-7.7c-4.6,5.9-9.9,11.9-14.3,17.6,6.4,2.6,12.9,4.9,19.5,7,1.4.5,2.9.9,4.3,1.3.3,0,.6.2.9.3,21.9,6.5,44.5,10.1,67.4,10.8,1.2,0,2.3,0,3.5,0h5c2.6,0,5.1,0,7.7,0,18.9-.5,37.7-3.1,56.1-7.6-.1-7.6-.5-16.4-1-25.9-.2-4.6-5.4-9.7-5.7-14.5-.2-3.7,4.4-7.1,4.1-10.8-1.6-22.8-3.5-14.1-4.9-30.2-.1-1.6-.3-3.1-.4-4.6-.9-10.4-1.6-16.9-1.6-16.9l6.1-38.7,9.6-60.7-.7-1.2-.8-.4-50.8-25.2-2.8-7.1c-1.6-4.2-5.7-6.9-10.1-6.9h-33.5c-3.5-.1-6.8,1.6-8.9,4.4l-9.1,12.6-59.8,38.4Z" style="fill:#3f3d56; stroke-width:0px;"/><path d="m326.8,453.7l-7.6,16.2-5.2,11.1-8.9,46.6-4.5,4.7-3.8-16.8-40,8.9c-1.3-7.3-.4.2-1.2-7.8.2-.2.5-.5.7-.7.6-.6,1.2-1.2,1.2-1.7-.5-27.6.9-74.5,12.3-103,1.8-4.6,4.2-9,7-13.1.2-.3.4-.6.7-.9,5.3-7.4,8.6-14.6,13.3-19.8h.1c0-.1,32.4-17.3,32.4-17.3l1.4,39.1,1,28.1,1.1,26.4Z" style="fill:#3f3d56; stroke-width:0px;"/><path d="m443.8,458.3l9.5,20.3,3.3,7.1,8.9,46.6,4.4,4.7,3.8-16.8,1.8-.4,32.5-6.7,9.5,30c4.4-7.3,3-16.7-3.3-22.5-.6-.6-1.2-1.2-1.2-1.7.5-32.4-1.4-91.7-19.4-116.1-5.7-7.7-9.1-15.4-14.1-20.8h0l-12.1-19.8-.7-1.2-.8-.4-22.1,97.7Z" style="fill:#3f3d56; stroke-width:0px;"/><circle id="a657ec4b-47ce-4d2a-9c58-81a811696ca9" cx="386.4" cy="267.2" r="44.6" style="fill:#ffb6b6; stroke-width:0px;"/><path d="m446.6,236.1c-.7-.7-1.7-1.2-2.7-1.2l.7-1.9c.7-1.8-.2-3.9-2.1-4.5-.6-.2-1.3-.3-1.9-.2l-2.4.5.2-1.6c.3-1.9-1.1-3.7-3-4-.6-.1-1.2,0-1.7.2-1.1.4-2.3.3-3.2-.2-1-.5-1.7-1.5-1.9-2.6l-.8-4.1v-.2c-4.2-6.9-12.2-11.9-21.9-13.8-8.7-1.6-17.6-.8-26.1,0-3.4.3-7.2.7-10.4,2.6-2.7,1.7-5,5-4.5,8.4-8.5-2.6-17.5,2.6-22,9.1-5.3,7.8-6.2,17.5-6.3,25.1-.4,18,3.3,32.7,11,43.7.6.8.7,2.5,1.8,3l-.2-.4c1.2.6,2.5,1.6,2,2.7-1.3,3.1,7.6,9.9,13.9,12.1,11.5,4.1,26.9,3.8,37.6,2.3l.4-2.5c3.9-.5,6.6-1.5,7.4-3.1,1.4-1.2,2.5-2.2,3.5-3.2h0s.1,0,.1-.1c4.9-4.7,6-7.3,6.5-11.4.5-4-.4-8-1.3-11.6,18.7,2.9-7.4-20,10.1-24.4.2-.1.4-.1.6-.1.5-.1,1-.2,1.5-.4,2.4-.6,4.6-1.6,6.7-2.9,4.9-3,6.5-6.9,9-11.4.6-1.2.4-2.8-.6-3.9Z" style="fill:#2f2e41; stroke-width:0px;"/><path d="m544,461.4c0,1.8,0,4.2,0,7.2v1.3c0,5.6-.3,10.2-.5,15.4v1.1c-.3,7.2-.7,15.7-1.5,29-1.4,24.7-3.9,3.4-6.3,12,0,.4-.2.9-.4,1.5-.4,2.2-1,4.3-1.9,6.3-1.3.8-2.7,1.5-4,2.3-3.8,2.1-7.6,4.1-11.5,6.1-2.2,1.1-4.4,2.1-6.6,3.2-.3.2-.7.3-1,.5-11.3,5.2-22.9,9.6-34.8,13.3-2.3.7-4.6,1.4-7,2-2.4.7-4.9,1.3-7.3,1.9-18.4,4.5-37.2,7.1-56.1,7.6-2.5,0-5.1,0-7.7,0h-5c-1.1,0-2.3,0-3.5,0-22.8-.7-45.5-4.4-67.3-10.8l-.9-.3c-1.4-.4-2.9-.9-4.3-1.3-6.6-2.1-13.1-4.4-19.5-7-4.9-2-9.7-4.1-14.5-6.3,0,0-.1,0-.1,0-1-.5-2-.9-3-1.4-.1,0-.3,0-.4-.2-3.7-1.8-7.4-3.7-11.1-5.7-3.1-7.1-7.4-8.4-10.1-14.6-.8-1.8-1.3-3.8-1.7-5.7h0c.3,3.6-1.2-6.7,0,0v-.4c0-.4-.1-.8-.1-1.3-3.4-33.5-3.2-71.8-4.7-103.4-.1-2-.2-4-.3-5.9,0-.6-.1-1.2-.1-1.8.1-.2.1-.4.2-.5q0-.1.1-.2c0-.1.1-.1.1-.2,0,0,0-.1.1-.1h0c.1-.2.2-.4.3-.5,0-.1.1-.1.1-.2s.1-.1.1-.1h.1c0-.1.1-.2.1-.2,0,0,0-.1.1-.1.1-.1.2-.2.3-.2.4-.3.7-.6,1.1-.9.1-.1.3-.2.4-.3,1-.6,2.1-1.1,3.2-1.5.4-.1.8-.3,1.2-.4.1,0,.3-.1.4-.1.2-.1.4-.1.7-.2,1.1-.3,2.4-.6,3.7-.9.2,0,.3-.1.5-.1s.5-.1.7-.1c.3-.1.7-.1,1-.2,3-.5,6.3-.8,10.1-1,.4,0,.7,0,1-.1.4,0,.8,0,1.2-.1h2.2c1,0,2-.1,3.1-.1,3-.1,6.2,0,9.5,0s3.1.1,4.8.2h.3c1.4,0,2.8.1,4.3.2,1,0,2,.1,3.1.2,1,.1,1.9.1,2.9.2.8,0,1.5.1,2.3.2.7,0,1.3.1,2,.1h.9c.5.1,1,.2,1.5.2,1.1.1,2.2.2,3.3.3,1.1.1,2.2.2,3.4.3s2.3.2,3.4.3h.3c1,.1,2.1.2,3.1.3.2,0,.5,0,.7.1,1,.1,2,.2,3,.3.3,0,.6.1.9.1.8.1,1.6.2,2.4.3,1,.1,2.1.2,3.2.4.8.1,1.6.2,2.4.3,1.3.2,2.6.3,3.8.5.5.1,1,.1,1.5.2,3.7.5,7.4,1,11.2,1.5,5.7.8,11.5,1.7,17.4,2.6,5.9,1,11.8,2,17.7,3,1.5.3,3,.5,4.5.8.7.1,1.4.3,2,.4,1.2.2,2.3.4,3.5.7,1.2.2,2.3.4,3.5.7,1.4.3,2.8.5,4.2.8,9.1,1.8,18.1,3.7,27,5.7,1.5.3,2.9.7,4.3,1,2.9.7,5.7,1.3,8.6,2,.8.2,1.5.4,2.3.6,1.9.5,3.8,1,5.7,1.5h.3c1.4.4,2.8.8,4.1,1.1,3.2.8,6.4,1.7,9.5,2.5,2.1.6,4.1,1.1,6.1,1.7,3,.9,6,1.8,8.8,2.6.7.2,1.4.4,2.1.7,2.1.7,4.2,1.3,6.2,2,1.6.5,3.2,1,4.7,1.6,1.5.5,3,1.1,4.5,1.6,1,.3,1.9.7,2.8,1,1.3.5,2.7,1,4,1.5.4.2.8.3,1.2.5.2.1.5.2.7.3.5.2,1,.4,1.4.6.5.2.9.4,1.4.6s.9.4,1.3.6c.5.2.9.4,1.3.6.4.2.7.3,1.1.5.7.3,1.4.6,2.1.9.3.2.7.3,1,.5l.8.4c0,.1.2.1.3.2.2.1.5.2.8.4.6.3,1.2.6,1.7.8.8.4,1.5.8,2.2,1.1.7.4,1.4.8,2.1,1.1,0,.1.2.1.3.2.2.1.3.2.5.2.5.3,1,.6,1.5.9,1,.6,1.9,1.2,2.7,1.8.2.1.4.3.6.4.6.5,1.2.9,1.8,1.3h0c.2.1.4.3.5.4.2.1.3.3.5.4.5.5,1,.9,1.4,1.3,0,.1.3.3.4.4,0,0,0,.1.2.2.2.2.4.4.5.6,0,0,0,.1,0,.1.2.3.5.6.7.8,0,.1.2.3.3.4,0,.2.2.3.3.5,0,.1.2.3.2.4.2.4.4.7.5,1.1,0,.3.2.5.3.8.4-.2.5.1.5.3Z" style="fill:#2f2e41; stroke-width:0px;"/><path d="m544,461.4c0,1.8,0,4.2,0,7.2v1.3c0,4.2-.2,9.5-.5,15.4v1.1c-.3,7.2-.7,15.7-1.5,29-1.4,24.7-3.9,3.4-6.3,12-6.9-4.2-14.4-8.6-22.4-13.2-1.4-.8-2.9-1.6-4.4-2.5-16.1-9-34-18.4-52.8-27.7-.7-.4-1.5-.7-2.2-1.1-43-21.2-89.8-41.9-127.8-55.7-7.3-2.7-14.3-5.1-20.9-7.2-13.9-4.4-25.8-7.5-35.1-8.9-9.6-1.4-16.2-.9-18.9,2-.1-2-.2-4-.3-5.9,0-.6-.1-1.2-.1-1.8.1-.2.1-.3.2-.5h0q0-.2.1-.3c0-.1.1-.1.1-.2s.1-.1.1-.2c.1-.1.2-.3.3-.4s.2-.2.3-.3h.1c0-.1.1-.2.1-.2,0,0,0-.1.1-.1.1-.1.2-.2.3-.2.4-.3.7-.6,1.1-.9.1-.1.3-.2.4-.3,1-.6,2.1-1.1,3.2-1.5.4-.1.8-.3,1.2-.4.1,0,.3-.1.4-.1.2-.1.4-.1.7-.2,1.1-.3,2.4-.6,3.7-.9.4-.1.8-.2,1.2-.2.3-.1.7-.1,1-.2,3-.5,6.3-.8,10.1-1,.4,0,.7,0,1-.1.4,0,.8,0,1.2-.1h2.2c1,0,2-.1,3.1-.1h9.5c1.5,0,3.1.1,4.8.2h.3c1.4,0,2.8.1,4.3.2,1,0,2,.1,3.1.2,1,.1,1.9.1,2.9.2.8,0,1.5.1,2.3.2.7,0,1.3.1,2,.1.8.1,1.6.1,2.4.2,1.1.1,2.2.2,3.3.3,1.1.1,2.2.2,3.4.3s2.3.2,3.4.3h.3c1,.1,2.1.2,3.1.3,5.8.6,11.8,1.3,18,2.1,3.7.5,7.4,1,11.2,1.5,5.7.8,11.5,1.7,17.4,2.6,5.9,1,11.8,2,17.7,3,1.5.3,3,.5,4.5.8,1.8.3,3.7.7,5.5,1,1.2.2,2.3.4,3.5.7,1.4.3,2.8.5,4.2.8,9.1,1.8,18.1,3.7,27,5.7,1.5.3,2.9.7,4.3,1,2.9.7,5.7,1.3,8.6,2,.8.2,1.5.4,2.3.6,1.9.5,3.8,1,5.7,1.4h0c.1,0,.2,0,.3.1,1.4.3,2.8.7,4.1,1.1,3.2.8,6.4,1.7,9.5,2.5,2.1.6,4.1,1.2,6.1,1.7,3,.9,6,1.8,8.8,2.6.7.2,1.4.4,2.1.7,2.1.7,4.2,1.3,6.2,2,1.6.5,3.2,1,4.7,1.6,1.5.5,3,1.1,4.5,1.6,1,.3,1.9.7,2.8,1,1.4.5,2.7,1,4,1.5.4.2.8.3,1.2.5.7.3,1.4.6,2.1.9.5.2.9.4,1.4.6s.9.4,1.3.6c.5.2.9.4,1.3.6.4.2.7.3,1.1.5.7.3,1.4.6,2.1.9.3.2.7.3,1,.5l.8.4c0,.1.2.1.3.2.8.4,1.7.8,2.5,1.2.8.4,1.5.8,2.2,1.1.8.4,1.6.9,2.4,1.3.2.1.3.2.5.2.5.3,1,.6,1.5.9,1,.6,1.9,1.2,2.7,1.8.8.6,1.6,1.2,2.3,1.7h0c.3.3.7.6,1,.8.5.5,1,.9,1.4,1.3,0,.1.3.3.4.4,0,0,0,.1.2.2.2.2.4.5.6.7.2.3.5.6.7.8,0,.1.2.3.3.4,0,.2.2.3.3.5,0,.1.2.3.2.4.2.4.4.7.5,1.1,0,.3.2.5.3.8.3.5.4.8.4,1Z" style="isolation:isolate; opacity:.2; stroke-width:0px;"/></svg>